<svg width="30" height="38" viewBox="0 0 30 38" fill="none" xmlns="http://www.w3.org/2000/svg">
<path d="M14.5194 31.4394C14.9411 30.2687 14.8301 29.1786 14.2913 28.1377C12.8446 25.3356 11.3784 22.5439 9.92117 19.7477C8.92768 17.8433 7.9282 15.942 6.94822 14.0316C5.31092 10.8433 6.13332 6.85707 8.88866 4.58734C8.99222 4.50233 9.10777 4.43373 9.35839 4.26224C9.33738 4.55155 9.35539 4.73348 9.30587 4.89603C8.67406 6.99576 8.69057 9.09996 9.49196 11.1281C10.0517 12.5463 10.8066 13.89 11.5089 15.25C13.5004 19.108 15.5879 22.9182 17.4909 26.8179C19.8215 31.5975 16.5859 37.239 11.2673 37.7818C7.94621 38.1218 5.01528 36.4769 3.51754 33.6495C2.37099 31.4856 1.26194 29.3039 0.113883 27.1415C-0.0842135 26.7672 -0.0346897 26.5882 0.347997 26.4287C0.709673 26.278 1.04584 26.0708 1.40001 25.9008C2.36498 25.437 3.31495 25.7546 3.81319 26.7016C4.79017 28.5642 5.73112 30.4462 6.75612 32.282C7.7376 34.0387 9.95869 34.8037 11.8616 34.0894C11.644 33.9462 11.4519 33.8239 11.2628 33.6957C10.0127 32.8561 9.14979 31.7048 8.47746 30.3761C7.44046 28.3241 6.36593 26.2915 5.29591 24.2574C5.14434 23.9695 5.21187 23.8294 5.48951 23.7026C5.84668 23.5401 6.18735 23.3447 6.53852 23.1702C7.59353 22.6453 8.51498 22.9271 9.05825 23.9576C10.0037 25.7516 10.9267 27.5561 11.8781 29.3471C12.4334 30.397 13.3158 31.0666 14.5194 31.4394ZM17.7505 3.66125C18.1617 3.59414 18.5714 3.47186 18.9826 3.46738C20.857 3.44949 22.2092 4.31294 23.0706 5.95037C23.9785 7.67877 24.876 9.41462 25.7794 11.1445C26.2551 12.0557 27.1961 12.3808 28.1175 11.9468C28.5137 11.7604 28.8889 11.5293 29.2926 11.3607C29.6378 11.2176 29.6543 11.0461 29.4937 10.7419C28.3727 8.61529 27.2426 6.4932 26.1606 4.34873C24.5908 1.23941 21.1136 -0.562062 17.4819 0.186562C12.624 1.18721 9.86564 6.67663 12.1092 11.0789C14.4894 15.7496 16.9326 20.3905 19.3623 25.0358C20.3693 26.9611 20.902 28.9743 20.6154 31.1516C20.5268 31.8182 20.3543 32.4728 20.2297 33.135C20.2132 33.2244 20.2447 33.3214 20.2537 33.4153C20.3468 33.3959 20.4488 33.3944 20.5298 33.3527C20.6214 33.3065 20.6979 33.2274 20.7775 33.1573C23.5688 30.7012 24.2622 26.9178 22.5183 23.5654C20.1952 19.1005 17.8555 14.646 15.5339 10.1796C15.2938 9.71735 15.0852 9.2297 14.9411 8.73161C14.716 7.95316 14.758 7.17173 15.0732 6.3903C16.3398 6.77803 17.2267 7.53113 17.809 8.66003C18.711 10.4093 19.6219 12.1526 20.5343 13.8959C21.0296 14.8429 21.9766 15.1546 22.949 14.6938C23.3167 14.5193 23.6634 14.2971 24.0386 14.1435C24.3987 13.9958 24.4272 13.8318 24.2502 13.4978C23.2312 11.5725 22.2077 9.64726 21.2382 7.69815C20.4293 6.07116 19.3848 4.67532 17.749 3.78204C17.746 3.74476 17.749 3.70301 17.7505 3.66125Z" fill="url(#paint0_linear_1219_4856)"/>
<defs>
<linearGradient id="paint0_linear_1219_4856" x1="24.628" y1="1.9727" x2="5.11144" y2="35.9906" gradientUnits="userSpaceOnUse">
<stop stop-color="#0D91EA"/>
<stop offset="0.0758" stop-color="#148AEA"/>
<stop offset="0.1857" stop-color="#2777E9"/>
<stop offset="0.3164" stop-color="#4759E9"/>
<stop offset="0.462" stop-color="#722EE7"/>
<stop offset="0.5142" stop-color="#841DE7"/>
<stop offset="1" stop-color="#20E3D0"/>
</linearGradient>
</defs>
</svg>
