<svg xmlns="http://www.w3.org/2000/svg" width="500" height="1128" fill="none" viewBox="0 0 500 1128"><g opacity=".02"><mask id="mask0_877_12941" style="mask-type:alpha" width="884" height="1095" x="-400" y="16" maskUnits="userSpaceOnUse"><rect width="974.155" height="644.216" x="-415.118" y="927.092" fill="#8005C2" stroke="#D8B2EC" rx="57.5" transform="rotate(-71.9693 -415.118 927.092)"/></mask><g mask="url(#mask0_877_12941)"><rect width="108.275" height="108.275" fill="#F2F2F2" transform="translate(-111.237 1026.18) rotate(-71.9693)"/><rect width="108.275" height="108.275" fill="#F2F2F2" transform="translate(-8.26367 1059.7) rotate(-71.9693)"/><rect width="21.655" height="21.655" x="19.03" y="1045.81" fill="#8005C2" transform="rotate(-71.9693 19.0303 1045.81)"/><rect width="21.655" height="21.655" x="60.214" y="1059.21" fill="#8005C2" transform="rotate(-71.9693 60.2139 1059.21)"/><rect width="21.655" height="21.655" x="32.436" y="1004.62" fill="#8005C2" transform="rotate(-71.9693 32.436 1004.62)"/><rect width="21.655" height="21.655" x="73.619" y="1018.03" fill="#8005C2" transform="rotate(-71.9693 73.6191 1018.03)"/><g clip-path="url(#clip0_877_12941)"><rect width="108.275" height="108.275" fill="#F2F2F2" transform="translate(94.71 1093.22) rotate(-71.9693)"/><path fill="#F2F2F2" d="M162.946 1058.49L128.224 990.258L231.181 1023.77L162.946 1058.49Z"/><path fill="#F2F2F2" d="M162.946 1058.49L231.182 1023.77L197.668 1126.73L162.946 1058.49Z"/><path fill="#F2F2F2" d="M162.946 1058.49L94.7098 1093.22L197.667 1126.73L162.946 1058.49Z"/><path fill="#F2F2F2" d="M162.946 1058.49L128.224 990.258L94.7103 1093.22L162.946 1058.49Z"/><path fill="#8005C2" d="M146.189 1109.97C155.444 1081.54 185.994 1066 214.425 1075.25L197.668 1126.73L146.189 1109.97Z"/></g><g clip-path="url(#clip1_877_12941)"><rect width="108.275" height="108.275" fill="#8005C2" transform="translate(-77.7178 923.204) rotate(-71.9693)"/><path fill="#F2F2F2" fill-rule="evenodd" d="M-44.2038 820.246L-77.7178 923.204L25.2399 956.718L58.7539 853.76L-44.2038 820.246ZM35.3884 903.233C43.4863 878.356 29.8839 851.624 5.00685 843.526C-19.8703 835.428 -46.6017 849.031 -54.6995 873.908C-62.7973 898.785 -49.195 925.516 -24.3179 933.614C0.559199 941.712 27.2906 928.11 35.3884 903.233Z" clip-rule="evenodd"/></g><g clip-path="url(#clip2_877_12941)"><rect width="108.275" height="108.275" fill="#F2F2F2" transform="translate(25.2559 956.723) rotate(-71.9693)"/><path fill="#F2F2F2" d="M93.4915 922.001L58.7697 853.765L161.727 887.279L93.4915 922.001Z"/><path fill="#F2F2F2" d="M93.492 922.001L161.728 887.279L128.214 990.237L93.492 922.001Z"/><path fill="#F2F2F2" d="M93.4915 922.001L25.2557 956.723L128.213 990.237L93.4915 922.001Z"/><path fill="#F2F2F2" d="M93.492 922.001L58.7702 853.765L25.2562 956.723L93.492 922.001Z"/><path fill="#8005C2" d="M76.7349 973.48C85.9895 945.049 116.54 929.504 144.971 938.758L128.214 990.237L76.7349 973.48Z"/></g><g clip-path="url(#clip3_877_12941)"><rect width="108.275" height="108.275" fill="#F2F2F2" transform="translate(128.229 990.242) rotate(-71.9693)"/><path fill="#F2F2F2" d="M196.465 955.52L161.743 887.285L264.701 920.799L196.465 955.52Z"/><path fill="#F2F2F2" d="M196.466 955.52L264.701 920.799L231.187 1023.76L196.466 955.52Z"/><path fill="#F2F2F2" d="M196.465 955.52L128.229 990.242L231.187 1023.76L196.465 955.52Z"/><path fill="#F2F2F2" d="M196.466 955.52L161.744 887.285L128.23 990.242L196.466 955.52Z"/><path fill="#8005C2" d="M144.986 938.763L161.743 887.285L213.222 904.042C203.968 932.473 173.417 948.018 144.986 938.763Z"/></g><rect width="108.275" height="108.275" fill="#F2F2F2" transform="translate(-44.1982 820.23) rotate(-71.9693)"/><path fill="#8005C2" d="M75.5159 802.266C47.085 793.011 31.5395 762.461 40.7941 734.03L92.2729 750.787L75.5159 802.266Z"/><g clip-path="url(#clip4_877_12941)"><rect width="108.275" height="108.275" fill="#F2F2F2" transform="translate(58.7754 853.75) rotate(-71.9693)"/><path fill="#F2F2F2" d="M127.011 819.028L92.2892 750.792L195.247 784.306L127.011 819.028Z"/><path fill="#F2F2F2" d="M127.012 819.028L195.247 784.306L161.733 887.264L127.012 819.028Z"/><path fill="#F2F2F2" d="M127.011 819.028L58.7752 853.75L161.733 887.264L127.011 819.028Z"/><path fill="#F2F2F2" d="M127.012 819.028L92.2897 750.792L58.7757 853.75L127.012 819.028Z"/><path fill="#8005C2" fill-rule="evenodd" d="M75.5324 802.271L58.7754 853.75C115.637 872.259 176.738 841.168 195.247 784.306L92.2894 750.792L92.2894 750.792L143.768 767.549C134.513 795.98 103.963 811.525 75.5324 802.271Z" clip-rule="evenodd"/></g><rect width="108.275" height="108.275" fill="#F2F2F2" transform="translate(161.749 887.269) rotate(-71.9693)"/><rect width="54.138" height="54.138" x="229.984" y="852.547" fill="#8005C2" transform="rotate(-71.9693 229.984 852.547)"/><g clip-path="url(#clip5_877_12941)"><rect width="108.275" height="108.275" fill="#F2F2F2" transform="translate(-113.653 683.738) rotate(-71.9693)"/><path fill="#F2F2F2" d="M-45.4176 649.016L-80.1395 580.78L22.8182 614.294L-45.4176 649.016Z"/><path fill="#F2F2F2" d="M-45.4172 649.016L22.8187 614.294L-10.6953 717.252L-45.4172 649.016Z"/><path fill="#F2F2F2" d="M-45.4176 649.016L-113.653 683.738L-10.6958 717.252L-45.4176 649.016Z"/><rect width="54.138" height="54.138" x="-62.174" y="700.495" fill="#8005C2" transform="rotate(-71.9693 -62.1743 700.495)"/></g><rect width="108.275" height="108.275" fill="#F2F2F2" transform="translate(-10.6797 717.257) rotate(-71.9693)"/><rect width="43.31" height="43.31" x="48.077" y="711.656" fill="#8005C2" transform="rotate(-116.969 48.0771 711.656)"/><g clip-path="url(#clip6_877_12941)"><rect width="108.275" height="108.275" fill="#F2F2F2" transform="translate(92.2939 750.776) rotate(-71.9693)"/><path fill="#F2F2F2" d="M160.53 716.054L125.808 647.818L228.765 681.332L160.53 716.054Z"/><path fill="#F2F2F2" d="M160.53 716.054L228.766 681.332L195.252 784.29L160.53 716.054Z"/><path fill="#F2F2F2" d="M160.53 716.054L92.2938 750.776L195.251 784.29L160.53 716.054Z"/><path fill="#F2F2F2" d="M160.53 716.054L125.808 647.818L92.2943 750.776L160.53 716.054Z"/><path fill="#8005C2" d="M92.2939 750.776L109.051 699.297C137.482 708.552 153.027 739.102 143.773 767.533L92.2939 750.776Z"/></g><rect width="108.275" height="108.275" fill="#F2F2F2" transform="translate(195.268 784.295) rotate(-71.9693)"/><rect width="21.655" height="21.655" x="222.562" y="770.406" fill="#8005C2" rx="10.828" transform="rotate(-71.9693 222.562 770.406)"/><rect width="21.655" height="21.655" x="263.745" y="783.812" fill="#8005C2" rx="10.828" transform="rotate(-71.9693 263.745 783.812)"/><rect width="21.655" height="21.655" x="235.967" y="729.224" fill="#8005C2" rx="10.828" transform="rotate(-71.9693 235.967 729.224)"/><rect width="21.655" height="21.655" x="277.15" y="742.629" fill="#8005C2" rx="10.828" transform="rotate(-71.9693 277.15 742.629)"/><g clip-path="url(#clip7_877_12941)"><rect width="108.275" height="108.275" fill="#F2F2F2" transform="translate(-80.1338 580.764) rotate(-71.9693)"/><rect width="108.275" height="21.655" x="-18.359" y="600.873" fill="#8005C2" transform="rotate(-71.9693 -18.3589 600.873)"/></g><rect width="108.275" height="108.275" fill="#F2F2F2" transform="translate(22.8398 614.284) rotate(-71.9693)"/><rect width="43.31" height="43.31" x="63.781" y="593.451" fill="#8005C2" transform="rotate(-71.9693 63.7812 593.451)"/><g clip-path="url(#clip8_877_12941)"><rect width="108.275" height="108.275" fill="#F2F2F2" transform="translate(125.813 647.803) rotate(-71.9693)"/><path fill="#F2F2F2" d="M194.049 613.081L159.327 544.845L262.285 578.359L194.049 613.081Z"/><path fill="#F2F2F2" d="M194.05 613.081L262.285 578.359L228.771 681.317L194.05 613.081Z"/><path fill="#F2F2F2" d="M194.049 613.081L125.813 647.803L228.771 681.317L194.049 613.081Z"/><path fill="#F2F2F2" d="M194.05 613.081L159.328 544.845L125.814 647.803L194.05 613.081Z"/><rect width="54.138" height="54.138" x="177.292" y="664.56" fill="#8005C2" transform="rotate(-71.9693 177.292 664.56)"/></g><rect width="108.275" height="108.275" fill="#F2F2F2" transform="translate(228.787 681.322) rotate(-71.9693)"/><path fill="#8005C2" d="M348.501 663.357C320.07 654.102 304.525 623.552 313.779 595.121L365.258 611.878L348.501 663.357Z"/><g clip-path="url(#clip9_877_12941)"><rect width="108.275" height="108.275" fill="#F2F2F2" transform="translate(-46.6143 477.791) rotate(-71.9693)"/><path fill="#F2F2F2" d="M21.6214 443.069L-13.1004 374.833L89.8573 408.347L21.6214 443.069Z"/><path fill="#F2F2F2" d="M21.6219 443.069L89.8577 408.347L56.3437 511.305L21.6219 443.069Z"/><path fill="#F2F2F2" d="M21.6214 443.069L-46.6144 477.791L56.3433 511.305L21.6214 443.069Z"/><path fill="#F2F2F2" d="M21.6219 443.069L-13.0999 374.833L-46.6139 477.791L21.6219 443.069Z"/><path fill="#8005C2" d="M-29.8574 426.312L-13.1004 374.833L38.3784 391.59C29.1238 420.021 -1.42645 435.566 -29.8574 426.312Z"/></g><rect width="108.275" height="108.275" fill="#F2F2F2" transform="translate(56.3594 511.31) rotate(-71.9693)"/><rect width="21.655" height="21.655" x="83.653" y="497.421" fill="#8005C2" rx="10.828" transform="rotate(-71.9693 83.6533 497.421)"/><rect width="21.655" height="21.655" x="124.837" y="510.827" fill="#8005C2" rx="10.828" transform="rotate(-71.9693 124.837 510.827)"/><rect width="21.655" height="21.655" x="97.059" y="456.238" fill="#8005C2" rx="10.828" transform="rotate(-71.9693 97.0591 456.238)"/><rect width="21.655" height="21.655" x="138.242" y="469.644" fill="#8005C2" rx="10.828" transform="rotate(-71.9693 138.242 469.644)"/><rect width="108.275" height="108.275" fill="#F2F2F2" transform="translate(159.332 544.829) rotate(-71.9693)"/><path fill="#8005C2" d="M279.046 526.864C250.615 517.61 235.07 487.059 244.324 458.628L295.803 475.385L279.046 526.864Z"/><g clip-path="url(#clip10_877_12941)"><rect width="108.275" height="108.275" fill="#F2F2F2" transform="translate(262.307 578.348) rotate(-71.9693)"/><path fill="#F2F2F2" d="M330.542 543.626L295.82 475.39L398.778 508.904L330.542 543.626Z"/><path fill="#F2F2F2" d="M330.543 543.626L398.779 508.904L365.265 611.862L330.543 543.626Z"/><path fill="#F2F2F2" d="M330.542 543.626L262.306 578.348L365.264 611.862L330.542 543.626Z"/><path fill="#F2F2F2" d="M330.543 543.626L295.821 475.39L262.307 578.348L330.543 543.626Z"/><path fill="#8005C2" fill-rule="evenodd" d="M279.064 526.869L262.307 578.348C319.169 596.857 380.269 565.766 398.778 508.904L295.821 475.39L295.821 475.391L347.299 492.147C338.045 520.578 307.495 536.124 279.064 526.869Z" clip-rule="evenodd"/></g><g clip-path="url(#clip11_877_12941)"><rect width="108.275" height="108.275" fill="#8005C2" transform="translate(-116.069 341.298) rotate(-71.9693)"/><rect width="108.275" height="108.275" x="-116.069" y="341.298" fill="#8005C2" transform="rotate(-71.9693 -116.069 341.298)"/><g clip-path="url(#clip12_877_12941)"><rect width="36.092" height="36.092" x="-36.259" y="329.321" fill="#F2F2F2" transform="rotate(-71.9693 -36.2593 329.321)"/></g></g><g clip-path="url(#clip13_877_12941)"><rect width="108.275" height="108.275" fill="#F2F2F2" transform="translate(-13.0957 374.817) rotate(-71.9693)"/><path fill="#F2F2F2" d="M55.14 340.095L20.4181 271.86L123.376 305.374L55.14 340.095Z"/><path fill="#F2F2F2" d="M55.1405 340.095L123.376 305.373L89.8623 408.331L55.1405 340.095Z"/><path fill="#F2F2F2" d="M55.14 340.095L-13.0959 374.817L89.8618 408.331L55.14 340.095Z"/><path fill="#F2F2F2" d="M55.1405 340.095L20.4186 271.859L-13.0954 374.817L55.1405 340.095Z"/><path fill="#8005C2" d="M-13.0957 374.817L20.4183 271.859C77.2802 290.369 108.371 351.469 89.862 408.331L-13.0957 374.817Z"/><path fill="#8005C2" d="M-13.0957 374.817L3.6613 323.338C32.0923 332.593 47.6378 363.143 38.3831 391.574L-13.0957 374.817Z"/></g><g clip-path="url(#clip14_877_12941)"><rect width="108.275" height="108.275" fill="#8005C2" transform="translate(89.8779 408.336) rotate(-71.9693)"/><path fill="#F2F2F2" d="M158.114 373.614L123.392 305.379L226.349 338.893L158.114 373.614Z"/><path fill="#F2F2F2" d="M158.114 373.615L226.35 338.893L192.836 441.85L158.114 373.615Z"/><path fill="#F2F2F2" d="M158.114 373.614L89.8778 408.336L192.835 441.85L158.114 373.614Z"/><path fill="#F2F2F2" d="M158.114 373.615L123.392 305.379L89.8782 408.336L158.114 373.615Z"/><rect width="54.138" height="54.138" x="141.357" y="425.093" fill="#8005C2" transform="rotate(-71.9693 141.357 425.093)"/></g><g clip-path="url(#clip15_877_12941)"><rect width="108.275" height="108.275" fill="#F2F2F2" transform="translate(192.852 441.855) rotate(-71.9693)"/><path fill="#F2F2F2" d="M261.087 407.134L226.365 338.898L329.323 372.412L261.087 407.134Z"/><path fill="#F2F2F2" d="M261.088 407.134L329.324 372.412L295.81 475.369L261.088 407.134Z"/><path fill="#F2F2F2" d="M261.087 407.134L192.851 441.856L295.809 475.37L261.087 407.134Z"/><path fill="#F2F2F2" d="M261.088 407.134L226.366 338.898L192.852 441.855L261.088 407.134Z"/><path fill="#8005C2" d="M192.852 441.855L209.609 390.377C238.04 399.631 253.585 430.181 244.33 458.612L192.852 441.855Z"/></g><g clip-path="url(#clip16_877_12941)"><rect width="108.275" height="108.275" fill="#F2F2F2" transform="translate(295.825 475.375) rotate(-71.9693)"/><path fill="#F2F2F2" d="M364.061 440.653L329.339 372.417L432.297 405.931L364.061 440.653Z"/><path fill="#F2F2F2" d="M364.061 440.653L432.297 405.931L398.783 508.889L364.061 440.653Z"/><path fill="#F2F2F2" d="M364.061 440.653L295.825 475.375L398.783 508.889L364.061 440.653Z"/><path fill="#F2F2F2" d="M364.061 440.653L329.34 372.417L295.826 475.375L364.061 440.653Z"/><path fill="#8005C2" d="M347.303 492.132C356.558 463.701 387.108 448.155 415.539 457.41L398.782 508.889L347.303 492.132Z"/></g><rect width="108.275" height="108.275" fill="#8005C2" transform="translate(-82.5498 238.325) rotate(-71.9693)"/><rect width="21.655" height="21.655" x="-14.072" y="237.842" fill="#F2F2F2" rx="10.828" transform="rotate(-71.9693 -14.0723 237.842)"/><rect width="21.655" height="21.655" x="-.667" y="196.658" fill="#F2F2F2" rx="10.828" transform="rotate(-71.9693 -0.666992 196.658)"/><g clip-path="url(#clip17_877_12941)"><rect width="108.275" height="108.275" fill="#8005C2" transform="translate(20.4238 271.844) rotate(-71.9693)"/><path fill="#F2F2F2" fill-rule="evenodd" d="M43.616 222.46C35.5182 247.337 49.1205 274.068 73.9976 282.166C98.8747 290.264 125.606 276.662 133.704 251.784C141.802 226.907 128.199 200.176 103.322 192.078C78.4452 183.98 51.7138 197.583 43.616 222.46ZM56.3033 226.59L78.1273 269.479L121.016 247.655L99.1922 204.766L56.3033 226.59Z" clip-rule="evenodd"/></g><rect width="108.275" height="108.275" fill="#F2F2F2" transform="translate(123.397 305.363) rotate(-71.9693)"/><rect width="43.31" height="43.31" x="164.339" y="284.53" fill="#8005C2" rx="21.655" transform="rotate(-71.9693 164.339 284.53)"/><rect width="108.275" height="108.275" fill="#F2F2F2" transform="translate(226.371 338.882) rotate(-71.9693)"/><rect width="21.655" height="21.655" x="253.665" y="324.993" fill="#8005C2" transform="rotate(-71.9693 253.665 324.993)"/><rect width="21.655" height="21.655" x="294.849" y="338.399" fill="#8005C2" transform="rotate(-71.9693 294.849 338.399)"/><rect width="21.655" height="21.655" x="267.071" y="283.811" fill="#8005C2" transform="rotate(-71.9693 267.071 283.811)"/><rect width="21.655" height="21.655" x="308.254" y="297.216" fill="#8005C2" transform="rotate(-71.9693 308.254 297.216)"/><g clip-path="url(#clip18_877_12941)"><rect width="108.275" height="108.275" fill="#F2F2F2" transform="translate(329.345 372.402) rotate(-71.9693)"/><path fill="#8005C2" fill-rule="evenodd" d="M362.859 269.444L329.345 372.402L432.302 405.916L465.816 302.958L362.859 269.444ZM442.451 352.43C450.549 327.553 436.946 300.822 412.069 292.724C387.192 284.626 360.461 298.228 352.363 323.106C344.265 347.983 357.867 374.714 382.745 382.812C407.622 390.91 434.353 377.307 442.451 352.43Z" clip-rule="evenodd"/></g><rect width="108.275" height="108.275" fill="#8005C2" transform="translate(-49.0303 135.351) rotate(-71.9693)"/><rect width="43.31" height="43.31" x="-8.089" y="114.518" fill="#F2F2F2" transform="rotate(-71.9693 -8.08887 114.518)"/><g clip-path="url(#clip19_877_12941)"><rect width="108.275" height="108.275" fill="#F2F2F2" transform="translate(53.9434 168.87) rotate(-71.9693)"/><path fill="#8005C2" d="M173.658 150.905C145.227 141.65 129.681 111.1 138.936 82.6691L190.415 99.4261L173.658 150.905Z"/><path fill="#8005C2" fill-rule="evenodd" d="M87.4574 65.9122L53.9434 168.87L156.901 202.384C100.039 183.875 68.9481 122.774 87.4574 65.9122Z" clip-rule="evenodd"/></g><g clip-path="url(#clip20_877_12941)"><rect width="108.275" height="108.275" fill="#F2F2F2" transform="translate(156.917 202.389) rotate(-71.9693)"/><path fill="#F2F2F2" d="M225.153 167.667L190.431 99.4316L293.389 132.946L225.153 167.667Z"/><path fill="#F2F2F2" d="M225.153 167.667L293.389 132.945L259.875 235.903L225.153 167.667Z"/><path fill="#F2F2F2" d="M225.153 167.667L156.917 202.389L259.875 235.903L225.153 167.667Z"/><path fill="#F2F2F2" d="M225.153 167.667L190.431 99.4315L156.917 202.389L225.153 167.667Z"/><path fill="#8005C2" d="M173.674 150.91L190.431 99.4316L241.91 116.189C232.655 144.62 202.105 160.165 173.674 150.91Z"/></g><g clip-path="url(#clip21_877_12941)"><rect width="108.275" height="108.275" fill="#8005C2" transform="translate(259.89 235.908) rotate(-71.9693)"/><rect width="108.275" height="21.655" x="280.481" y="242.611" fill="#F2F2F2" transform="rotate(-71.9693 280.481 242.611)"/><rect width="108.275" height="21.655" x="321.665" y="256.017" fill="#F2F2F2" transform="rotate(-71.9693 321.665 256.017)"/></g><g clip-path="url(#clip22_877_12941)"><rect width="108.275" height="108.275" fill="#F2F2F2" transform="translate(362.863 269.427) rotate(-71.9693)"/><path fill="#F2F2F2" d="M431.099 234.706L396.377 166.47L499.335 199.984L431.099 234.706Z"/><path fill="#F2F2F2" d="M431.099 234.706L499.335 199.984L465.821 302.941L431.099 234.706Z"/><path fill="#F2F2F2" d="M431.099 234.706L362.863 269.428L465.821 302.942L431.099 234.706Z"/><path fill="#F2F2F2" d="M431.099 234.706L396.378 166.47L362.864 269.427L431.099 234.706Z"/><rect width="54.138" height="54.138" x="431.1" y="234.706" fill="#8005C2" transform="rotate(-71.9693 431.1 234.706)"/></g></g></g><defs><clipPath id="clip0_877_12941"><rect width="108.275" height="108.275" fill="#fff" transform="translate(94.71 1093.22) rotate(-71.9693)"/></clipPath><clipPath id="clip1_877_12941"><rect width="108.275" height="108.275" fill="#fff" transform="translate(-77.7178 923.204) rotate(-71.9693)"/></clipPath><clipPath id="clip2_877_12941"><rect width="108.275" height="108.275" fill="#fff" transform="translate(25.2559 956.723) rotate(-71.9693)"/></clipPath><clipPath id="clip3_877_12941"><rect width="108.275" height="108.275" fill="#fff" transform="translate(128.229 990.242) rotate(-71.9693)"/></clipPath><clipPath id="clip4_877_12941"><rect width="108.275" height="108.275" fill="#fff" transform="translate(58.7754 853.75) rotate(-71.9693)"/></clipPath><clipPath id="clip5_877_12941"><rect width="108.275" height="108.275" fill="#fff" transform="translate(-113.653 683.738) rotate(-71.9693)"/></clipPath><clipPath id="clip6_877_12941"><rect width="108.275" height="108.275" fill="#fff" transform="translate(92.2939 750.776) rotate(-71.9693)"/></clipPath><clipPath id="clip7_877_12941"><rect width="108.275" height="108.275" fill="#fff" transform="translate(-80.1338 580.764) rotate(-71.9693)"/></clipPath><clipPath id="clip8_877_12941"><rect width="108.275" height="108.275" fill="#fff" transform="translate(125.813 647.803) rotate(-71.9693)"/></clipPath><clipPath id="clip9_877_12941"><rect width="108.275" height="108.275" fill="#fff" transform="translate(-46.6143 477.791) rotate(-71.9693)"/></clipPath><clipPath id="clip10_877_12941"><rect width="108.275" height="108.275" fill="#fff" transform="translate(262.307 578.348) rotate(-71.9693)"/></clipPath><clipPath id="clip11_877_12941"><rect width="108.275" height="108.275" fill="#fff" transform="translate(-116.069 341.298) rotate(-71.9693)"/></clipPath><clipPath id="clip12_877_12941"><rect width="108.275" height="108.275" fill="#fff" transform="translate(-116.069 341.298) rotate(-71.9693)"/></clipPath><clipPath id="clip13_877_12941"><rect width="108.275" height="108.275" fill="#fff" transform="translate(-13.0957 374.817) rotate(-71.9693)"/></clipPath><clipPath id="clip14_877_12941"><rect width="108.275" height="108.275" fill="#fff" transform="translate(89.8779 408.336) rotate(-71.9693)"/></clipPath><clipPath id="clip15_877_12941"><rect width="108.275" height="108.275" fill="#fff" transform="translate(192.852 441.855) rotate(-71.9693)"/></clipPath><clipPath id="clip16_877_12941"><rect width="108.275" height="108.275" fill="#fff" transform="translate(295.825 475.375) rotate(-71.9693)"/></clipPath><clipPath id="clip17_877_12941"><rect width="108.275" height="108.275" fill="#fff" transform="translate(20.4238 271.844) rotate(-71.9693)"/></clipPath><clipPath id="clip18_877_12941"><rect width="108.275" height="108.275" fill="#fff" transform="translate(329.345 372.402) rotate(-71.9693)"/></clipPath><clipPath id="clip19_877_12941"><rect width="108.275" height="108.275" fill="#fff" transform="translate(53.9434 168.87) rotate(-71.9693)"/></clipPath><clipPath id="clip20_877_12941"><rect width="108.275" height="108.275" fill="#fff" transform="translate(156.917 202.389) rotate(-71.9693)"/></clipPath><clipPath id="clip21_877_12941"><rect width="108.275" height="108.275" fill="#fff" transform="translate(259.89 235.908) rotate(-71.9693)"/></clipPath><clipPath id="clip22_877_12941"><rect width="108.275" height="108.275" fill="#fff" transform="translate(362.863 269.427) rotate(-71.9693)"/></clipPath></defs></svg>