<svg width="1167" height="242" viewBox="0 0 1167 242" fill="none" xmlns="http://www.w3.org/2000/svg">
<path d="M4.54107 129.581H29.8851C32.6157 129.581 34.2371 130.946 34.7491 133.677C38.1624 148.354 50.1091 155.693 70.5891 155.693C81.6824 155.693 90.1304 153.645 95.9331 149.549C101.736 145.282 104.637 139.48 104.637 132.141C104.637 119.682 95.8477 112.002 78.2691 109.101L52.1571 104.749C18.1944 98.605 1.21307 81.709 1.21307 54.061C1.21307 37.8476 7.01573 24.9623 18.6211 15.405C30.2264 5.67696 46.7811 0.812958 68.2851 0.812958C88.9357 0.812958 105.064 5.33562 116.669 14.381C128.274 23.4263 134.93 36.5676 136.637 53.805C136.637 54.1463 136.637 54.573 136.637 55.085C136.637 57.3036 135.272 58.413 132.541 58.413H107.197C104.637 58.413 103.101 56.9623 102.589 54.061C101.394 46.0396 97.9811 40.237 92.3491 36.653C86.8877 33.0689 78.8664 31.2769 68.2851 31.2769C46.6104 31.2769 35.7731 38.7009 35.7731 53.549C35.7731 59.693 37.9917 64.557 42.4291 68.141C46.8664 71.5543 54.8024 74.285 66.2371 76.333L92.3491 80.941C123.752 86.061 139.453 102.616 139.453 130.605C139.453 148.184 133.394 161.837 121.277 171.565C109.16 181.293 92.3491 186.157 70.8451 186.157C50.1944 186.157 33.8104 181.634 21.6931 172.589C9.57574 163.544 2.40773 150.744 0.189068 134.189C0.189068 133.848 0.189068 133.506 0.189068 133.165C0.189068 130.776 1.63973 129.581 4.54107 129.581ZM170.625 76.333C181.889 64.2156 195.969 58.157 212.865 58.157C221.398 58.157 229.078 59.8636 235.905 63.277C242.732 66.6903 247.852 71.5543 251.265 77.869H252.033V65.837C252.033 62.765 253.569 61.229 256.641 61.229H279.169C282.241 61.229 283.777 62.765 283.777 65.837V178.477C283.777 181.549 282.241 183.085 279.169 183.085H256.641C253.569 183.085 252.033 181.549 252.033 178.477V166.445H251.265C247.852 172.76 242.732 177.624 235.905 181.037C229.078 184.45 221.398 186.157 212.865 186.157C195.969 186.157 181.889 180.098 170.625 167.981C159.361 155.693 153.729 140.418 153.729 122.157C153.729 103.896 159.361 88.621 170.625 76.333ZM195.969 146.989C201.942 153.645 209.878 156.973 219.777 156.973C229.676 156.973 237.612 153.73 243.585 147.245C249.558 140.589 252.545 132.226 252.545 122.157C252.545 112.088 249.558 103.81 243.585 97.325C237.612 90.8396 229.676 87.597 219.777 87.597C209.878 87.597 201.942 90.8396 195.969 97.325C189.825 103.81 186.753 112.088 186.753 122.157C186.753 132.226 189.825 140.504 195.969 146.989ZM301.257 61.229H326.601C329.332 61.229 331.038 62.4236 331.721 64.813L362.697 144.941H363.209L394.185 64.813C395.209 62.4236 397.001 61.229 399.561 61.229H424.649C427.38 61.229 428.745 62.1676 428.745 64.045C428.745 64.7276 428.574 65.4956 428.233 66.349L380.361 179.501C379.508 181.89 377.716 183.085 374.985 183.085H350.921C348.19 183.085 346.398 181.89 345.545 179.501L297.673 66.349C297.332 65.4956 297.161 64.7276 297.161 64.045C297.161 62.1676 298.526 61.229 301.257 61.229ZM431.119 122.413C431.119 103.81 437.092 88.4503 449.039 76.333C461.156 64.2156 476.772 58.157 495.887 58.157C514.49 58.157 529.679 64.045 541.455 75.821C553.231 87.597 559.119 102.957 559.119 121.901V125.229C559.119 129.496 557.071 131.629 552.975 131.629H463.375C466.106 150.914 477.37 160.557 497.167 160.557C511.162 160.557 520.292 156.376 524.559 148.013C525.924 145.624 527.716 144.429 529.935 144.429H551.439C552.975 144.429 554.084 144.77 554.767 145.453C555.62 145.965 556.047 146.562 556.047 147.245C556.047 147.586 555.962 147.928 555.791 148.269C552.378 159.533 545.466 168.664 535.055 175.661C524.644 182.658 511.844 186.157 496.655 186.157C477.028 186.157 461.156 180.269 449.039 168.493C437.092 156.546 431.119 141.186 431.119 122.413ZM463.887 110.381H526.607C523.706 92.461 513.466 83.501 495.887 83.501C477.967 83.501 467.3 92.461 463.887 110.381ZM564.105 62.509C564.788 61.6556 565.897 61.229 567.433 61.229H592.009C594.74 61.229 596.446 62.509 597.129 65.069L622.729 144.173H623.497L650.377 65.069C651.23 62.509 652.937 61.229 655.497 61.229H677.001C679.561 61.229 681.268 62.509 682.121 65.069L709.001 144.173H709.769L735.369 65.069C736.222 62.509 737.929 61.229 740.489 61.229H765.065C766.601 61.229 767.625 61.6556 768.137 62.509C768.649 63.1916 768.905 63.8743 768.905 64.557C768.905 65.069 768.82 65.6663 768.649 66.349L728.457 179.501C727.433 181.89 725.726 183.085 723.337 183.085H697.993C695.604 183.085 693.897 181.89 692.873 179.501L666.505 103.981H665.993L639.625 179.501C638.772 181.89 637.065 183.085 634.505 183.085H609.161C606.601 183.085 604.894 181.89 604.041 179.501L563.849 66.349C563.678 65.6663 563.593 65.069 563.593 64.557C563.593 63.7036 563.764 63.021 564.105 62.509ZM786.725 196.397H808.997C811.386 196.397 813.008 197.762 813.861 200.493C817.274 209.88 826.149 214.573 840.485 214.573C860.624 214.573 870.693 204.162 870.693 183.341V162.349H869.669C866.426 168.493 861.306 173.357 854.309 176.941C847.482 180.525 839.461 182.317 830.245 182.317C815.568 182.317 804.048 177.88 795.685 169.005C787.493 160.13 783.397 147.757 783.397 131.885V65.837C783.397 62.765 784.933 61.229 788.005 61.229H811.301C814.202 61.229 815.653 62.765 815.653 65.837V123.949C815.653 143.576 824.016 153.389 840.741 153.389C849.616 153.389 856.613 150.744 861.733 145.453C866.853 140.162 869.413 132.824 869.413 123.437V65.837C869.413 62.765 870.949 61.229 874.021 61.229H897.061C900.133 61.229 901.669 62.765 901.669 65.837V183.341C901.669 201.602 896.208 215.853 885.285 226.093C874.533 236.333 859.6 241.453 840.485 241.453C823.93 241.453 810.533 237.784 800.293 230.445C790.224 223.277 784.25 213.464 782.373 201.005C782.373 200.664 782.373 200.322 782.373 199.981C782.373 197.592 783.824 196.397 786.725 196.397ZM922.871 158.509L983.799 89.133H926.967C924.066 89.133 922.615 87.597 922.615 84.525V65.837C922.615 62.765 924.066 61.229 926.967 61.229H1021.94C1024.84 61.229 1026.3 62.765 1026.3 65.837V80.173C1026.3 82.5623 1025.61 84.4396 1024.25 85.805L963.575 155.181H1022.46C1025.36 155.181 1026.81 156.717 1026.81 159.789V178.477C1026.81 181.549 1025.36 183.085 1022.46 183.085H925.175C922.103 183.085 920.567 181.549 920.567 178.477V164.141C920.567 162.093 921.335 160.216 922.871 158.509ZM1038.15 122.413C1038.15 103.81 1044.12 88.4503 1056.07 76.333C1068.19 64.2156 1083.8 58.157 1102.92 58.157C1121.52 58.157 1136.71 64.045 1148.49 75.821C1160.26 87.597 1166.15 102.957 1166.15 121.901V125.229C1166.15 129.496 1164.1 131.629 1160.01 131.629H1070.41C1073.14 150.914 1084.4 160.557 1104.2 160.557C1118.19 160.557 1127.32 156.376 1131.59 148.013C1132.95 145.624 1134.75 144.429 1136.97 144.429H1158.47C1160.01 144.429 1161.11 144.77 1161.8 145.453C1162.65 145.965 1163.08 146.562 1163.08 147.245C1163.08 147.586 1162.99 147.928 1162.82 148.269C1159.41 159.533 1152.5 168.664 1142.09 175.661C1131.67 182.658 1118.87 186.157 1103.69 186.157C1084.06 186.157 1068.19 180.269 1056.07 168.493C1044.12 156.546 1038.15 141.186 1038.15 122.413ZM1070.92 110.381H1133.64C1130.74 92.461 1120.5 83.501 1102.92 83.501C1085 83.501 1074.33 92.461 1070.92 110.381Z" fill="url(#paint0_linear_877_13239)"/>
<defs>
<linearGradient id="paint0_linear_877_13239" x1="582.539" y1="67.085" x2="582.539" y2="167.085" gradientUnits="userSpaceOnUse">
<stop stop-color="#F2E6F9" stop-opacity="0.3"/>
<stop offset="1" stop-color="#D2A1EE" stop-opacity="0.27"/>
</linearGradient>
</defs>
</svg>
