<svg width="372" height="1116" viewBox="0 0 372 1116" fill="none" xmlns="http://www.w3.org/2000/svg">
<g opacity="0.05">
<mask id="mask0_831_13206" style="mask-type:alpha" maskUnits="userSpaceOnUse" x="23" y="24" width="1118" height="1068">
<rect x="0.750564" y="613.992" width="974.155" height="644.216" rx="57.5" transform="rotate(-38.9753 0.750564 613.992)" fill="#8005C2" stroke="#D8B2EC"/>
</mask>
<g mask="url(#mask0_831_13206)">
<g clip-path="url(#clip0_831_13206)">
<rect width="108.275" height="108.275" transform="translate(-2.67432 610.013) rotate(-38.9753)" fill="#145B5F"/>
<path d="M73.4647 618.049L81.5005 541.91L149.604 626.085L73.4647 618.049Z" fill="#145B5F"/>
<path d="M73.4648 618.049L149.604 626.085L65.429 694.188L73.4648 618.049Z" fill="#145B5F"/>
<path d="M73.4647 618.049L-2.67435 610.013L65.429 694.188L73.4647 618.049Z" fill="#145B5F"/>
<path d="M73.4648 618.049L81.5006 541.91L-2.67429 610.013L73.4648 618.049Z" fill="#145B5F"/>
<path fill-rule="evenodd" clip-rule="evenodd" d="M81.5006 541.91L39.4131 575.962C58.2193 599.206 54.6216 633.295 31.3773 652.101L65.429 694.188C111.917 656.576 119.113 588.399 81.5006 541.91Z" fill="#F2F2F2"/>
</g>
<rect width="108.275" height="108.275" transform="translate(81.5137 541.899) rotate(-38.9753)" fill="#145B5F"/>
<rect x="127.197" y="546.721" width="43.31" height="43.31" transform="rotate(-38.9753 127.197 546.721)" fill="#F2F2F2"/>
<g clip-path="url(#clip1_831_13206)">
<rect width="108.275" height="108.275" transform="translate(165.702 473.786) rotate(-38.9753)" fill="#F2F2F2"/>
<path d="M241.841 481.821L249.877 405.682L317.98 489.857L241.841 481.821Z" fill="#145B5F"/>
<path d="M241.841 481.821L317.98 489.857L233.805 557.961L241.841 481.821Z" fill="#145B5F"/>
<path d="M241.841 481.821L165.702 473.786L233.805 557.961L241.841 481.821Z" fill="#145B5F"/>
<path d="M241.841 481.821L249.877 405.682L165.702 473.786L241.841 481.821Z" fill="#145B5F"/>
<rect x="250.64" y="544.34" width="108.275" height="21.655" transform="rotate(-128.975 250.64 544.34)" fill="#F2F2F2"/>
<rect x="284.31" y="517.099" width="108.275" height="21.655" transform="rotate(-128.975 284.31 517.099)" fill="#F2F2F2"/>
</g>
<g clip-path="url(#clip2_831_13206)">
<rect width="108.275" height="108.275" transform="translate(249.889 405.672) rotate(-38.9753)" fill="#145B5F"/>
<path fill-rule="evenodd" clip-rule="evenodd" d="M296.233 376.881C275.894 393.337 272.746 423.164 289.202 443.503C305.657 463.842 335.485 466.99 355.823 450.534C376.162 434.079 379.31 404.251 362.855 383.913C346.399 363.574 316.572 360.426 296.233 376.881ZM304.625 387.254L299.574 435.111L347.431 440.161L352.482 392.305L304.625 387.254Z" fill="#F2F2F2"/>
</g>
<g clip-path="url(#clip3_831_13206)">
<rect width="108.275" height="108.275" transform="translate(334.077 337.558) rotate(-38.9753)" fill="#F2F2F2"/>
<path d="M402.18 421.733C364.568 375.245 371.764 307.067 418.252 269.455L486.355 353.63L402.18 421.733Z" fill="#145B5F"/>
</g>
<g clip-path="url(#clip4_831_13206)">
<rect width="108.275" height="108.275" transform="translate(65.4397 694.201) rotate(-38.9753)" fill="#145B5F"/>
<path d="M141.579 702.237L149.615 626.098L217.718 710.273L141.579 702.237Z" fill="#145B5F"/>
<path d="M141.579 702.237L217.718 710.273L133.543 778.376L141.579 702.237Z" fill="#145B5F"/>
<path d="M141.579 702.237L65.4397 694.201L133.543 778.376L141.579 702.237Z" fill="#145B5F"/>
<path d="M141.579 702.237L149.615 626.098L65.4397 694.201L141.579 702.237Z" fill="#145B5F"/>
<path d="M65.4397 694.201C111.928 656.589 180.105 663.784 217.718 710.273L133.543 778.376L65.4397 694.201Z" fill="#F2F2F2"/>
<path d="M99.4915 736.289C122.736 717.482 156.824 721.08 175.631 744.324L133.543 778.376L99.4915 736.289Z" fill="#145B5F"/>
</g>
<g clip-path="url(#clip5_831_13206)">
<rect width="108.275" height="108.275" transform="translate(133.553 778.389) rotate(-38.9753)" fill="#145B5F"/>
<rect x="147.174" y="795.224" width="108.275" height="21.655" transform="rotate(-38.9753 147.174 795.224)" fill="#F2F2F2"/>
<rect x="174.416" y="828.894" width="108.275" height="21.655" transform="rotate(-38.9753 174.416 828.894)" fill="#F2F2F2"/>
</g>
<rect width="108.275" height="108.275" transform="translate(201.667 862.577) rotate(-38.9753)" fill="#F2F2F2"/>
<rect x="247.351" y="867.398" width="43.31" height="43.31" rx="21.655" transform="rotate(-38.9753 247.351 867.398)" fill="#145B5F"/>
<g clip-path="url(#clip6_831_13206)">
<rect width="108.275" height="108.275" transform="translate(269.781 946.765) rotate(-38.9753)" fill="#F2F2F2"/>
<rect x="300.237" y="949.979" width="21.655" height="21.655" transform="rotate(-38.9753 300.237 949.979)" fill="#145B5F"/>
<rect x="327.478" y="983.649" width="21.655" height="21.655" transform="rotate(-38.9753 327.478 983.649)" fill="#145B5F"/>
<rect x="333.906" y="922.738" width="21.655" height="21.655" transform="rotate(-38.9753 333.906 922.738)" fill="#145B5F"/>
<rect x="361.148" y="956.408" width="21.655" height="21.655" transform="rotate(-38.9753 361.148 956.408)" fill="#145B5F"/>
</g>
<g clip-path="url(#clip7_831_13206)">
<rect width="108.275" height="108.275" transform="translate(337.895 1030.95) rotate(-38.9753)" fill="#F2F2F2"/>
<path d="M414.034 1038.99L490.173 1047.02L405.998 1115.13L414.034 1038.99Z" fill="#F2F2F2"/>
<path d="M414.034 1038.99L337.895 1030.95L405.998 1115.13L414.034 1038.99Z" fill="#F2F2F2"/>
<path d="M414.034 1038.99L422.07 962.849L337.895 1030.95L414.034 1038.99Z" fill="#F2F2F2"/>
<path d="M371.947 1073.04C395.191 1054.23 429.279 1057.83 448.086 1081.08L405.998 1115.13L371.947 1073.04Z" fill="#145B5F"/>
</g>
<rect width="108.275" height="108.275" transform="translate(149.627 626.087) rotate(-38.9753)" fill="#145B5F"/>
<rect x="225.767" y="634.123" width="54.1375" height="54.1375" transform="rotate(-38.9753 225.767 634.123)" fill="#F2F2F2"/>
<g clip-path="url(#clip8_831_13206)">
<rect width="108.275" height="108.275" transform="translate(217.741 710.275) rotate(-38.9753)" fill="#145B5F"/>
<path d="M293.88 718.311L301.916 642.172L370.019 726.347L293.88 718.311Z" fill="#145B5F"/>
<path d="M293.88 718.311L370.019 726.347L285.845 794.45L293.88 718.311Z" fill="#145B5F"/>
<path d="M293.88 718.311L217.741 710.275L285.844 794.45L293.88 718.311Z" fill="#145B5F"/>
<path d="M293.88 718.311L301.916 642.172L217.741 710.275L293.88 718.311Z" fill="#145B5F"/>
<rect x="259.829" y="676.223" width="54.1375" height="54.1375" transform="rotate(-38.9753 259.829 676.223)" fill="#F2F2F2"/>
</g>
<g clip-path="url(#clip9_831_13206)">
<rect width="108.275" height="108.275" transform="translate(285.855 794.463) rotate(-38.9753)" fill="#145B5F"/>
<path fill-rule="evenodd" clip-rule="evenodd" d="M370.03 726.36L285.855 794.463L353.959 878.638L438.133 810.535L370.03 726.36ZM391.596 839.305C411.935 822.849 415.083 793.022 398.627 772.683C382.172 752.344 352.344 749.196 332.006 765.652C311.667 782.107 308.519 811.935 324.974 832.274C341.43 852.612 371.257 855.76 391.596 839.305Z" fill="#F2F2F2"/>
</g>
<g clip-path="url(#clip10_831_13206)">
<rect width="108.275" height="108.275" transform="translate(353.969 878.651) rotate(-38.9753)" fill="#F2F2F2"/>
<path d="M430.108 886.687L353.969 878.651L422.072 962.826L430.108 886.687Z" fill="#F2F2F2"/>
<path d="M430.108 886.687L438.144 810.548L353.969 878.651L430.108 886.687Z" fill="#F2F2F2"/>
</g>
<g clip-path="url(#clip11_831_13206)">
<rect width="108.275" height="108.275" transform="translate(233.815 557.974) rotate(-38.9753)" fill="#145B5F"/>
<path d="M309.954 566.009L317.99 489.87L386.094 574.045L309.954 566.009Z" fill="#145B5F"/>
<path d="M309.955 566.009L386.094 574.045L301.919 642.148L309.955 566.009Z" fill="#145B5F"/>
<path d="M309.954 566.009L233.815 557.973L301.919 642.148L309.954 566.009Z" fill="#145B5F"/>
<path d="M309.955 566.009L317.99 489.87L233.815 557.974L309.955 566.009Z" fill="#145B5F"/>
<rect x="267.867" y="600.061" width="54.1375" height="54.1375" transform="rotate(-38.9753 267.867 600.061)" fill="#F2F2F2"/>
</g>
<g clip-path="url(#clip12_831_13206)">
<rect width="108.275" height="108.275" transform="translate(301.929 642.161) rotate(-38.9753)" fill="#F2F2F2"/>
<path d="M378.068 650.197L386.104 574.058L454.207 658.233L378.068 650.197Z" fill="#F2F2F2"/>
<path d="M378.068 650.197L454.207 658.233L370.033 726.336L378.068 650.197Z" fill="#F2F2F2"/>
<path d="M378.068 650.197L301.929 642.161L370.032 726.336L378.068 650.197Z" fill="#F2F2F2"/>
<path d="M378.068 650.197L386.104 574.058L301.929 642.161L378.068 650.197Z" fill="#F2F2F2"/>
<rect x="301.929" y="642.161" width="54.1375" height="54.1375" transform="rotate(-38.9753 301.929 642.161)" fill="#145B5F"/>
</g>
<rect width="108.275" height="108.275" transform="translate(370.043 726.349) rotate(-38.9753)" fill="#F2F2F2"/>
<g clip-path="url(#clip13_831_13206)">
<rect width="108.275" height="108.275" transform="translate(318.003 489.86) rotate(-38.9753)" fill="#145B5F"/>
<path fill-rule="evenodd" clip-rule="evenodd" d="M360.091 455.808L318.003 489.86L386.106 574.035L428.194 539.983L360.091 455.808Z" fill="#F2F2F2"/>
</g>
</g>
</g>
<defs>
<clipPath id="clip0_831_13206">
<rect width="108.275" height="108.275" fill="white" transform="translate(-2.67432 610.013) rotate(-38.9753)"/>
</clipPath>
<clipPath id="clip1_831_13206">
<rect width="108.275" height="108.275" fill="white" transform="translate(165.702 473.786) rotate(-38.9753)"/>
</clipPath>
<clipPath id="clip2_831_13206">
<rect width="108.275" height="108.275" fill="white" transform="translate(249.889 405.672) rotate(-38.9753)"/>
</clipPath>
<clipPath id="clip3_831_13206">
<rect width="108.275" height="108.275" fill="white" transform="translate(334.077 337.558) rotate(-38.9753)"/>
</clipPath>
<clipPath id="clip4_831_13206">
<rect width="108.275" height="108.275" fill="white" transform="translate(65.4397 694.201) rotate(-38.9753)"/>
</clipPath>
<clipPath id="clip5_831_13206">
<rect width="108.275" height="108.275" fill="white" transform="translate(133.553 778.389) rotate(-38.9753)"/>
</clipPath>
<clipPath id="clip6_831_13206">
<rect width="108.275" height="108.275" fill="white" transform="translate(269.781 946.765) rotate(-38.9753)"/>
</clipPath>
<clipPath id="clip7_831_13206">
<rect width="108.275" height="108.275" fill="white" transform="translate(337.895 1030.95) rotate(-38.9753)"/>
</clipPath>
<clipPath id="clip8_831_13206">
<rect width="108.275" height="108.275" fill="white" transform="translate(217.741 710.275) rotate(-38.9753)"/>
</clipPath>
<clipPath id="clip9_831_13206">
<rect width="108.275" height="108.275" fill="white" transform="translate(285.855 794.463) rotate(-38.9753)"/>
</clipPath>
<clipPath id="clip10_831_13206">
<rect width="108.275" height="108.275" fill="white" transform="translate(353.969 878.651) rotate(-38.9753)"/>
</clipPath>
<clipPath id="clip11_831_13206">
<rect width="108.275" height="108.275" fill="white" transform="translate(233.815 557.974) rotate(-38.9753)"/>
</clipPath>
<clipPath id="clip12_831_13206">
<rect width="108.275" height="108.275" fill="white" transform="translate(301.929 642.161) rotate(-38.9753)"/>
</clipPath>
<clipPath id="clip13_831_13206">
<rect width="108.275" height="108.275" fill="white" transform="translate(318.003 489.86) rotate(-38.9753)"/>
</clipPath>
</defs>
</svg>
