<svg width="157" height="157" viewBox="0 0 157 157" fill="none" xmlns="http://www.w3.org/2000/svg">
<circle cx="78.1377" cy="78.4207" r="78" fill="url(#paint0_linear_930_23265)"/>
<circle cx="78.1377" cy="78.4207" r="60" transform="rotate(90 78.1377 78.4207)" fill="url(#paint1_linear_930_23265)"/>
<path fill-rule="evenodd" clip-rule="evenodd" d="M74.7002 50.9204H80.2002C87.9784 50.9204 91.8675 50.9204 94.2838 53.3368C96.7002 55.7531 96.7002 59.6422 96.7002 67.4204V89.4204C96.7002 97.1986 96.7002 101.088 94.2838 103.504C91.8675 105.92 87.9784 105.92 80.2002 105.92H74.7002C66.922 105.92 63.0329 105.92 60.6166 103.504C58.2002 101.088 58.2002 97.1986 58.2002 89.4204V67.4204C58.2002 59.6422 58.2002 55.7531 60.6166 53.3368C63.0329 50.9204 66.922 50.9204 74.7002 50.9204ZM67.1377 81.1704C67.1377 80.0313 68.0611 79.1079 69.2002 79.1079H85.7002C86.8393 79.1079 87.7627 80.0313 87.7627 81.1704C87.7627 82.3095 86.8393 83.2329 85.7002 83.2329H69.2002C68.0611 83.2329 67.1377 82.3095 67.1377 81.1704ZM67.1377 70.1704C67.1377 69.0313 68.0611 68.1079 69.2002 68.1079H85.7002C86.8393 68.1079 87.7627 69.0313 87.7627 70.1704C87.7627 71.3095 86.8393 72.2329 85.7002 72.2329H69.2002C68.0611 72.2329 67.1377 71.3095 67.1377 70.1704ZM67.1377 92.1704C67.1377 91.0313 68.0611 90.1079 69.2002 90.1079H77.4502C78.5893 90.1079 79.5127 91.0313 79.5127 92.1704C79.5127 93.3095 78.5893 94.2329 77.4502 94.2329H69.2002C68.0611 94.2329 67.1377 93.3095 67.1377 92.1704Z" fill="#8005C2"/>
<g opacity="0.5">
<path fill-rule="evenodd" clip-rule="evenodd" d="M49.9502 57.1079C51.0893 57.1079 52.0127 58.0313 52.0127 59.1704V97.6704C52.0127 98.8095 51.0893 99.7329 49.9502 99.7329C48.8111 99.7329 47.8877 98.8095 47.8877 97.6704V59.1704C47.8877 58.0313 48.8111 57.1079 49.9502 57.1079Z" fill="#8005C2"/>
<path fill-rule="evenodd" clip-rule="evenodd" d="M104.95 57.1079C106.089 57.1079 107.013 58.0313 107.013 59.1704V97.6704C107.013 98.8095 106.089 99.7329 104.95 99.7329C103.811 99.7329 102.888 98.8095 102.888 97.6704V59.1704C102.888 58.0313 103.811 57.1079 104.95 57.1079Z" fill="#8005C2"/>
</g>
<defs>
<linearGradient id="paint0_linear_930_23265" x1="78.1377" y1="0.420654" x2="78.1377" y2="156.421" gradientUnits="userSpaceOnUse">
<stop stop-color="#F2E6F9"/>
<stop offset="1" stop-color="#911BD1"/>
</linearGradient>
<linearGradient id="paint1_linear_930_23265" x1="78.1377" y1="18.4207" x2="78.1377" y2="138.421" gradientUnits="userSpaceOnUse">
<stop stop-color="#F2E6F9"/>
<stop offset="1" stop-color="#C086DE"/>
</linearGradient>
</defs>
</svg>
