<svg xmlns="http://www.w3.org/2000/svg" width="156" height="157" fill="none" viewBox="0 0 156 157"><circle cx="78" cy="78.422" r="78" fill="url(#paint0_linear_930_22096)"/><circle cx="78" cy="78.422" r="60" fill="url(#paint1_linear_930_22096)" transform="rotate(90 78 78.4224)"/><path fill="#8005C2" d="M50.3706 78.6213C50.3706 65.6577 50.3706 59.1759 54.3979 55.1486C58.4252 51.1213 64.907 51.1213 77.8706 51.1213C90.8342 51.1213 97.316 51.1213 101.343 55.1486C105.371 59.1759 105.371 65.6577 105.371 78.6213C105.371 91.585 105.371 98.0668 101.343 102.094C97.316 106.121 90.8342 106.121 77.8706 106.121C64.907 106.121 58.4252 106.121 54.3979 102.094C50.3706 98.0668 50.3706 91.585 50.3706 78.6213Z" opacity=".5"/><path fill="#8005C2" d="M93.2051 74.4423C93.9343 73.5672 93.8161 72.2666 92.941 71.5374C92.066 70.8082 90.7654 70.9264 90.0362 71.8015L85.0948 77.7312C84.0751 78.9549 83.4489 79.6985 82.933 80.1643C82.6938 80.3804 82.5519 80.4665 82.4839 80.4994C82.4701 80.5061 82.4602 80.5101 82.454 80.5124C82.454 80.5124 82.4422 80.5078 82.4329 80.5035L82.4241 80.4994C82.3561 80.4665 82.2142 80.3804 81.975 80.1643C81.4591 79.6985 80.8329 78.9549 79.8132 77.7312L79.0091 76.7663L79.0091 76.7663C78.1059 75.6821 77.2916 74.7048 76.5309 74.0179C75.7033 73.2706 74.6609 72.605 73.2873 72.605C71.9137 72.605 70.8713 73.2706 70.0437 74.0179C69.2831 74.7048 68.4688 75.6822 67.5655 76.7663L62.5362 82.8015C61.807 83.6766 61.9252 84.9771 62.8003 85.7063C63.6753 86.4356 64.9759 86.3173 65.7051 85.4423L70.6466 79.5125C71.6662 78.2889 72.2924 77.5452 72.8083 77.0794C73.0475 76.8634 73.1894 76.7773 73.2574 76.7444C73.2647 76.7409 73.2709 76.7381 73.276 76.7359L73.2873 76.7314C73.2936 76.7337 73.3034 76.7377 73.3172 76.7444C73.3852 76.7773 73.5271 76.8634 73.7664 77.0794C74.2822 77.5452 74.9084 78.2889 75.9281 79.5125L76.7322 80.4774C77.6355 81.5616 78.4498 82.539 79.2104 83.2258C80.038 83.9732 81.0804 84.6387 82.454 84.6387C83.8276 84.6387 84.87 83.9732 85.6976 83.2258C86.4582 82.539 87.2725 81.5616 88.1758 80.4775L93.2051 74.4423Z"/><defs><linearGradient id="paint0_linear_930_22096" x1="78" x2="78" y1=".422" y2="156.422" gradientUnits="userSpaceOnUse"><stop stop-color="#F2E6F9"/><stop offset="1" stop-color="#911BD1"/></linearGradient><linearGradient id="paint1_linear_930_22096" x1="78" x2="78" y1="18.422" y2="138.422" gradientUnits="userSpaceOnUse"><stop stop-color="#F2E6F9"/><stop offset="1" stop-color="#C086DE"/></linearGradient></defs></svg>