<svg xmlns="http://www.w3.org/2000/svg" width="145" height="145" fill="none" viewBox="0 0 145 145"><g opacity=".05"><circle cx="72.902" cy="72.465" r="53.311" fill="url(#paint0_linear_931_27773)" transform="rotate(-27.8566 72.902 72.4652)"/><circle cx="72.902" cy="72.465" r="41.008" fill="url(#paint1_linear_931_27773)" transform="rotate(62.1434 72.902 72.4652)"/><path fill="#8005C2" d="M61.0151 89.5299L68.3356 85.661C68.8873 85.3694 69.4375 85.4858 69.9861 86.0103C71.7489 88.0103 74.3703 88.0908 77.8502 86.2517C81.7969 84.1658 83.1086 81.871 81.7853 79.3672C80.6415 77.2028 78.0565 76.8317 74.0304 78.2537L69.5563 79.8039C61.1622 82.72 55.3391 81.1014 52.087 74.9479C50.517 71.9773 50.181 68.9788 51.079 65.9525C51.9545 62.8838 54.0501 60.1204 57.3658 57.6623L55.5491 54.2248C55.1678 53.5034 55.3379 52.952 56.0593 52.5707L62.043 49.4083C62.722 49.0495 63.2522 49.2307 63.6335 49.9522L65.4838 53.4533C69.0855 52.2556 72.3034 52.1293 75.1375 53.0746C77.9917 53.955 80.3198 55.792 82.122 58.5857C82.1669 58.6706 82.2229 58.7767 82.2902 58.904C82.5594 59.4132 82.3757 59.8361 81.7391 60.1725L74.3549 64.075C73.7608 64.389 73.2206 64.2402 72.7345 63.6285C71.1862 61.6236 68.6934 61.5295 65.2559 63.3462C61.3941 65.3872 60.1024 67.6171 61.3808 70.0361C61.8967 71.0121 62.7672 71.5293 63.9924 71.5876C65.1952 71.6034 67.0645 71.1855 69.6005 70.3339L74.1082 68.8473C82.1204 66.133 87.7525 67.8526 91.0047 74.0061C92.7541 77.3162 93.1698 80.5169 92.2518 83.608C91.3338 86.6992 89.1845 89.4638 85.804 91.9019L87.6544 95.403C88.0357 96.1245 87.8868 96.6646 87.2078 97.0235L81.2241 100.186C80.5026 100.567 79.9513 100.397 79.57 99.6757L77.686 96.1109C73.9994 97.3535 70.7078 97.5458 67.8113 96.6878C64.8923 95.7874 62.4893 93.9628 60.6022 91.214C60.5573 91.1291 60.5013 91.023 60.434 90.8957C60.1424 90.344 60.3361 89.8888 61.0151 89.5299Z"/></g><defs><linearGradient id="paint0_linear_931_27773" x1="72.902" x2="72.902" y1="19.155" y2="125.776" gradientUnits="userSpaceOnUse"><stop stop-color="#F2E6F9"/><stop offset="1" stop-color="#911BD1"/></linearGradient><linearGradient id="paint1_linear_931_27773" x1="72.902" x2="72.902" y1="31.457" y2="113.473" gradientUnits="userSpaceOnUse"><stop stop-color="#F2E6F9"/><stop offset="1" stop-color="#C086DE"/></linearGradient></defs></svg>