<svg width="146" height="146" viewBox="0 0 146 146" fill="none" xmlns="http://www.w3.org/2000/svg">
<g opacity="0.05">
<circle cx="73.0003" cy="73.273" r="53.3106" transform="rotate(-28.5048 73.0003 73.273)" fill="url(#paint0_linear_868_6615)"/>
<circle cx="73.0003" cy="73.273" r="41.0082" transform="rotate(61.4952 73.0003 73.273)" fill="url(#paint1_linear_868_6615)"/>
<path d="M96.1255 74.0205C96.8848 73.6082 97.4302 73.8582 97.7618 74.7705C99.2016 79.2323 99.1999 83.3025 97.7565 86.9813C96.2903 90.6178 93.6379 93.4784 89.7994 95.563C85.3704 97.9682 80.9121 98.5595 76.4246 97.3369C71.9794 96.0913 67.9086 93.2222 64.2125 88.7295L60.606 90.6881C59.8889 91.0775 59.3357 90.9136 58.9463 90.1966L57.2626 87.0962C56.8732 86.3792 57.037 85.8259 57.7541 85.4365L60.7911 83.7872C60.5428 83.4304 60.2124 82.8724 59.8001 82.1132C59.3878 81.3539 59.0996 80.773 58.9356 80.3705L55.8986 82.0198C55.1815 82.4092 54.6283 82.2454 54.2388 81.5283L52.5552 78.428C52.1657 77.7109 52.3296 77.1576 53.0467 76.7682L56.6532 74.8097C54.8974 69.2632 54.7073 64.2866 56.0831 59.8799C57.501 55.4502 60.4245 52.0328 64.8535 49.6275C68.7342 47.5201 72.6103 46.8626 76.4818 47.655C80.3533 48.4475 83.77 50.7159 86.732 54.4602C87.248 55.1086 87.1263 55.6389 86.367 56.0513L78.901 60.1058C78.3104 60.4265 77.7801 60.3049 77.3099 59.7409C76.2165 58.5322 74.9786 57.8116 73.5961 57.5792C72.2136 57.3468 70.8474 57.5971 69.4976 58.3302C66.0388 60.2085 65.0685 63.9035 66.5868 69.415L76.4573 64.0547C77.1322 63.6882 77.6643 63.8635 78.0538 64.5806L79.7374 67.6809C80.1269 68.398 79.9841 68.9398 79.3092 69.3063L68.8061 75.0102C68.9701 75.4127 69.2582 75.9936 69.6705 76.7529C70.0829 77.5122 70.4132 78.0702 70.6616 78.4269L81.1647 72.723C81.8396 72.3565 82.3718 72.5318 82.7612 73.2489L84.4449 76.3492C84.8343 77.0663 84.6915 77.6081 84.0166 77.9746L74.1462 83.3348C77.9423 87.6094 81.5698 88.8075 85.0287 86.9291C86.3785 86.196 87.3323 85.1865 87.8902 83.9003C88.448 82.6142 88.5177 81.1835 88.0992 79.6083C87.8821 78.9068 88.0689 78.3958 88.6594 78.0751L96.1255 74.0205Z" fill="#8005C2"/>
</g>
<defs>
<linearGradient id="paint0_linear_868_6615" x1="73.0003" y1="19.9624" x2="73.0003" y2="126.584" gradientUnits="userSpaceOnUse">
<stop stop-color="#F2E6F9"/>
<stop offset="1" stop-color="#911BD1"/>
</linearGradient>
<linearGradient id="paint1_linear_868_6615" x1="73.0003" y1="32.2648" x2="73.0003" y2="114.281" gradientUnits="userSpaceOnUse">
<stop stop-color="#F2E6F9"/>
<stop offset="1" stop-color="#C086DE"/>
</linearGradient>
</defs>
</svg>
