<svg width="1439" height="809" viewBox="0 0 1439 809" fill="none" xmlns="http://www.w3.org/2000/svg">
<g clip-path="url(#clip0_1333_15040)">
<rect width="1439" height="809" fill="#600492"/>
<path d="M1040.88 1143.78C1030.56 1136.23 1018.45 1131.2 1004.54 1129.4C945.424 1122.21 900.815 1182.02 844.574 1201.56C769.986 1227.46 699.715 1179.99 626.326 1141.39C566.847 1109.98 493.458 1138.75 470.674 1202.04C433.979 1303.81 410.955 1410.5 402.441 1518.39C400.882 1537.57 396.206 1561.3 377.499 1565.86C351.477 1572.21 338.766 1535.41 338.046 1508.56C334.808 1385.33 345.601 1182.26 334.568 1109.86C332.29 1094.87 317.301 1085.28 302.671 1089.6C284.323 1094.99 272.332 1112.62 274.01 1131.68C276.529 1160.33 286.602 1194.73 286.602 1194.73C288.161 1215.47 262.619 1226.5 248.588 1211.03C221.007 1180.46 201.341 1141.03 178.557 1106.02C51.2054 910.149 -193.305 833.19 -418.268 770.136C-438.534 764.502 -459.999 758.748 -480.265 764.502C-520.557 776.01 -535.067 824.319 -543.341 865.316C-545.14 874.187 -546.819 883.297 -544.901 892.168C-536.626 928.13 -484.462 922.975 -448.967 912.666C-229.759 849.013 22.7852 949.707 149.057 1137.31C160.45 1154.33 139.344 1174.23 123.035 1161.88C-50.364 1030.26 -283.482 977.998 -495.854 1028.1C-578.957 1047.64 -662.779 1082.05 -746.72 1066.46C-761.23 1063.83 -775.62 1059.63 -789.89 1054.96C-817.591 1045.97 -832.221 1086.72 -805 1097.15C-742.523 1121.13 -672.971 1126.76 -607.857 1110.94C-522.836 1090.32 -428.941 1037.57 -355.792 1085.64C-273.169 1139.83 -283.722 1288.95 -190.667 1322.28C-165.244 1331.39 -128.31 1338.34 -129.869 1365.31C-131.188 1386.29 -156.61 1394.8 -176.516 1401.15C-353.393 1457.85 -389.728 1700.84 -539.864 1810.28C-588.91 1846 -648.149 1865.66 -697.195 1901.27C-728.253 1923.68 -755.474 1955.57 -766.986 1992.73C-777.539 2026.77 -756.433 2060.46 -787.012 2084.43C-841.334 2127.11 -921.799 2107.93 -981.277 2140.41C-1043.51 2174.46 -1067.02 2255.97 -1128.06 2291.82C-1184.66 2325.14 -1256.73 2310.04 -1319.08 2289.3C-1433.6 2251.3 -1550.64 2190.16 -1604.12 2082.04C-1617.32 2055.3 -1622.95 2016.7 -1597.41 2001.24C-1583.74 1992.97 -1566.35 1995.37 -1550.4 1994.17C-1480.61 1988.77 -1436.96 1913.37 -1370.77 1890.84C-1309.49 1869.86 -1239.94 1897.67 -1178.18 1878.13C-1117.02 1858.71 -1079.85 1799.01 -1041.6 1747.47C-935.709 1605.3 -782.935 1498.73 -612.893 1448.38C-602.82 1445.39 -591.908 1442.63 -582.075 1446.22C-564.807 1452.58 -559.77 1476.31 -567.205 1493.1C-574.64 1509.88 -590.469 1521.15 -605.698 1531.46C-648.508 1560.46 -692.038 1588.52 -736.287 1615.25C-753.555 1625.8 -739.765 1652.05 -721.298 1643.66C-631.001 1602.54 -551.616 1545.48 -510.964 1457.01C-505.448 1445.03 -500.651 1431.36 -504.489 1418.65C-512.643 1391.2 -550.536 1389.05 -578.717 1394.32C-713.983 1419.61 -841.095 1487.46 -937.508 1585.64C-1011.14 1660.68 -1070.62 1755.5 -1165.95 1799.97C-1226.39 1828.14 -1294.62 1832.82 -1360.21 1845.17C-1474.01 1866.62 -1582.9 1913.13 -1677.15 1980.26C-1687.59 1987.7 -1698.5 1996.33 -1702.46 2008.55C-1707.49 2024.38 -1699.22 2041.16 -1690.58 2055.42C-1614.92 2181.77 -1494.76 2280.79 -1356.26 2330.89C-1274.23 2360.62 -1175.42 2370.93 -1105.87 2318.31C-1052.99 2278.27 -1024.93 2207.3 -963.769 2181.41C-917.362 2161.75 -863.039 2173.5 -814.833 2158.76C-758.712 2141.49 -712.304 2089.71 -661.699 2064.53C-643.232 2055.3 -646.71 2028.09 -666.976 2023.9C-678.368 2021.5 -688.561 2017.42 -695.396 2009.03C-720.458 1978.47 -675.49 1940.46 -639.755 1923.68C-554.614 1883.52 -479.186 1822.87 -421.746 1748.19C-366.464 1676.26 -327.971 1592.35 -269.572 1522.94C-211.172 1453.54 -123.273 1398.04 -33.9355 1413.74C2.99878 1420.21 43.171 1449.1 36.3358 1485.9C33.098 1503.28 20.147 1517.07 7.3158 1529.3C-121.235 1652.53 -286.6 1738.12 -392.846 1880.89C-456.522 1966.48 -496.454 2069.69 -570.682 2146.41C-630.041 2207.78 -709.906 2249.02 -794.327 2261.85C-869.755 2273.35 -951.058 2263.53 -1018.69 2298.89C-1074.45 2328.02 -1110.43 2382.2 -1140.77 2438.3C-1148.68 2452.93 -1137.89 2470.55 -1121.34 2470.31H-1120.86C-1111.75 2470.19 -1103.71 2464.31 -1100.71 2455.68C-1084.53 2409.53 -1054.07 2360.26 -1008.02 2368.18C-971.924 2374.41 -953.337 2413.13 -931.152 2442.26C-929.713 2444.06 -928.274 2445.85 -926.715 2447.65C-907.768 2468.75 -875.751 2441.3 -893.258 2418.88C-907.169 2401.14 -913.884 2381 -904.411 2360.62C-890.26 2330.29 -850.088 2325.62 -816.871 2321.06C-634.358 2296.01 -489.619 2150.48 -398.362 1990.45C-358.55 1920.69 -324.613 1844.93 -265.135 1790.86C-200.859 1732.48 -113.92 1705.99 -43.7686 1654.93C1.43994 1621.96 39.2137 1578.69 65.8352 1529.42C82.1439 1499.33 94.2555 1462.89 80.9447 1431.36C62.7174 1388.57 9.35449 1376.82 -34.7749 1362.19C-139.102 1327.67 -226.522 1245.44 -267.293 1143.42C-281.084 1109.02 -273.889 1052.44 -237.074 1056.99C-207.455 1060.71 -202.898 1100.51 -195.703 1129.52C-172.919 1221.46 -64.6342 1256.22 15.1105 1307.29C102.53 1363.15 169.083 1467.8 144.021 1568.38C124.235 1647.97 53.8436 1704.55 -18.2263 1743.75C-50.0043 1761.01 -83.1013 1776.36 -115.479 1792.66C-136.224 1803.09 -122.554 1834.5 -100.849 1826.35C-29.8583 1799.85 38.3744 1765.93 102.29 1725.05C130.83 1706.83 159.13 1686.57 177.957 1658.52C214.772 1603.98 208.656 1530.86 188.15 1468.4C146.179 1341.1 47.9677 1233.45 -75.0669 1180.1C-101.209 1168.84 -134.306 1148.34 -125.072 1121.37C-114.879 1091.52 -70.2703 1101.35 -43.0492 1117.41C32.1385 1161.64 104.928 1209.95 174.959 1261.98C220.288 1295.66 266.336 1333.78 285.522 1386.77C312.384 1461.21 280.726 1551.35 321.857 1619.08C329.052 1630.95 339.005 1641.98 352.316 1645.93C379.057 1653.85 404.36 1630.11 418.99 1606.5C486.743 1497.17 467.916 1355.36 511.685 1234.41C517.561 1218.1 524.876 1201.8 537.348 1189.81C573.922 1154.69 634.72 1171.11 678.49 1196.65C722.259 1222.18 767.348 1256.22 817.713 1249.75C856.086 1244.84 886.905 1217.27 920.961 1198.81C955.017 1180.34 1002.98 1173.27 1027.81 1203C1043.04 1221.22 1043.88 1247.35 1042.2 1271.09C1031.64 1425.25 945.424 1572.45 816.154 1657.2C718.542 1721.22 599.944 1750.35 507.848 1822.15C457.003 1861.71 415.392 1913.37 359.271 1945.02C235.637 2014.79 64.1564 1975.11 -43.6487 2067.53C-62.4756 2083.71 -79.3838 2109.97 -67.9917 2132.14C-60.6768 2146.17 -44.608 2152.88 -29.7384 2158.16C49.2866 2186.33 130.71 2207.66 213.453 2221.93C239.714 2226.48 267.055 2230.32 292.598 2222.89C320.658 2214.86 343.322 2194.48 364.668 2174.7C510.966 2039.48 654.506 1901.15 794.928 1759.82C926.717 1627.23 1062.7 1478.59 1086.93 1293.15C1094.12 1239.8 1080.69 1173.03 1040.88 1143.78ZM-383.373 852.01C-385.771 854.887 -393.206 858.483 -397.643 859.922C-421.026 867.953 -445.13 872.389 -469.953 873.108C-476.788 873.348 -485.422 872.868 -490.818 868.912C-499.452 862.799 -495.135 853.808 -488.06 848.414C-470.192 834.988 -435.776 832.111 -414.551 833.549C-408.075 834.149 -371.141 837.266 -383.373 852.01ZM610.257 1865.66C597.186 1933.51 552.577 1974.63 495.496 2007.95C448.13 2035.53 415.992 2054.82 378.698 2082.16C337.327 2112.48 297.514 2148.81 244.031 2154.92V2154.8C207.697 2156 180.236 2156.36 161.769 2156C132.389 2155.4 6.47656 2147.01 -0.23877 2109.01C-4.55579 2084.19 35.1365 2069.93 52.4045 2064.29C77.9468 2055.9 103.249 2046.79 128.192 2036.96C166.086 2021.98 203.38 2019.58 244.031 2023.06C257.462 2023.78 269.693 2023.9 280.846 2023.66C340.564 2022.22 396.326 1996.21 438.057 1953.65C444.172 1947.42 451.967 1938.19 461.56 1925.84C468.395 1916.97 483.745 1896.83 507.368 1865.54C519.48 1849.36 535.788 1833.9 554.256 1826.11C566.247 1821.07 586.034 1816.52 598.265 1823.23C612.176 1831.02 613.015 1851.64 610.257 1865.66Z" fill="#66049B"/>
<path d="M2479.88 1143.78C2469.56 1136.23 2457.45 1131.2 2443.54 1129.4C2384.42 1122.21 2339.82 1182.02 2283.57 1201.56C2208.99 1227.46 2138.71 1179.99 2065.33 1141.39C2005.85 1109.98 1932.46 1138.75 1909.67 1202.04C1872.98 1303.81 1849.96 1410.5 1841.44 1518.39C1839.88 1537.57 1835.21 1561.3 1816.5 1565.86C1790.48 1572.21 1777.77 1535.41 1777.05 1508.56C1773.81 1385.33 1784.6 1182.26 1773.57 1109.86C1771.29 1094.87 1756.3 1085.28 1741.67 1089.6C1723.32 1094.99 1711.33 1112.62 1713.01 1131.68C1715.53 1160.33 1725.6 1194.73 1725.6 1194.73C1727.16 1215.47 1701.62 1226.5 1687.59 1211.03C1660.01 1180.46 1640.34 1141.03 1617.56 1106.02C1490.21 910.149 1245.7 833.19 1020.73 770.136C1000.47 764.502 979.001 758.748 958.735 764.502C918.443 776.01 903.933 824.319 895.658 865.316C893.86 874.187 892.181 883.297 894.1 892.168C902.374 928.13 954.538 922.975 990.033 912.666C1209.24 849.013 1461.79 949.707 1588.06 1137.31C1599.45 1154.33 1578.34 1174.23 1562.04 1161.88C1388.64 1030.26 1155.52 977.998 943.146 1028.1C860.043 1047.64 776.222 1082.05 692.28 1066.46C677.77 1063.83 663.38 1059.63 649.11 1054.96C621.409 1045.97 606.779 1086.72 634 1097.15C696.477 1121.13 766.029 1126.76 831.143 1110.94C916.164 1090.32 1010.06 1037.57 1083.21 1085.64C1165.83 1139.83 1155.28 1288.95 1248.33 1322.28C1273.76 1331.39 1310.69 1338.34 1309.13 1365.31C1307.81 1386.29 1282.39 1394.8 1262.48 1401.15C1085.61 1457.85 1049.27 1700.84 899.136 1810.28C850.09 1846 790.851 1865.66 741.805 1901.27C710.747 1923.68 683.526 1955.57 672.014 1992.73C661.461 2026.77 682.567 2060.46 651.988 2084.43C597.666 2127.11 517.201 2107.93 457.723 2140.41C395.486 2174.46 371.982 2255.97 310.945 2291.82C254.344 2325.14 182.274 2310.04 119.918 2289.3C5.39716 2251.3 -111.641 2190.16 -165.124 2082.04C-178.315 2055.3 -183.951 2016.7 -158.409 2001.24C-144.738 1992.97 -127.351 1995.37 -111.402 1994.17C-41.6102 1988.77 2.03952 1913.37 68.2335 1890.84C129.511 1869.86 199.063 1897.67 260.82 1878.13C321.977 1858.71 359.151 1799.01 397.405 1747.47C503.291 1605.3 656.065 1498.73 826.107 1448.38C836.18 1445.39 847.092 1442.63 856.926 1446.22C874.193 1452.58 879.23 1476.31 871.795 1493.1C864.36 1509.88 848.531 1521.15 833.302 1531.46C790.491 1560.46 746.962 1588.52 702.713 1615.25C685.445 1625.8 699.235 1652.05 717.702 1643.66C807.999 1602.54 887.384 1545.48 928.036 1457.01C933.552 1445.03 938.349 1431.36 934.512 1418.65C926.357 1391.2 888.463 1389.05 860.283 1394.32C725.017 1419.61 597.905 1487.46 501.492 1585.64C427.864 1660.68 368.385 1755.5 273.051 1799.97C212.613 1828.14 144.381 1832.82 78.7861 1845.17C-35.0148 1866.62 -143.899 1913.13 -238.154 1980.26C-248.586 1987.7 -259.499 1996.33 -263.456 2008.55C-268.492 2024.38 -260.218 2041.16 -251.584 2055.42C-175.917 2181.77 -55.7603 2280.79 82.7434 2330.89C164.766 2360.62 263.578 2370.93 333.129 2318.31C386.013 2278.27 414.073 2207.3 475.231 2181.41C521.638 2161.75 575.961 2173.5 624.167 2158.76C680.288 2141.49 726.696 2089.71 777.301 2064.53C795.768 2055.3 792.29 2028.09 772.024 2023.9C760.632 2021.5 750.439 2017.42 743.604 2009.03C718.542 1978.47 763.51 1940.46 799.245 1923.68C884.386 1883.52 959.814 1822.87 1017.25 1748.19C1072.54 1676.26 1111.03 1592.35 1169.43 1522.94C1227.83 1453.54 1315.73 1398.04 1405.06 1413.74C1442 1420.21 1482.17 1449.1 1475.34 1485.9C1472.1 1503.28 1459.15 1517.07 1446.32 1529.3C1317.77 1652.53 1152.4 1738.12 1046.15 1880.89C982.478 1966.48 942.546 2069.69 868.318 2146.41C808.959 2207.78 729.094 2249.02 644.673 2261.85C569.245 2273.35 487.942 2263.53 420.309 2298.89C364.548 2328.02 328.573 2382.2 298.234 2438.3C290.319 2452.93 301.112 2470.55 317.66 2470.31H318.14C327.254 2470.19 335.288 2464.31 338.286 2455.68C354.475 2409.53 384.933 2360.26 430.981 2368.18C467.076 2374.41 485.663 2413.13 507.848 2442.26C509.287 2444.06 510.726 2445.85 512.285 2447.65C531.232 2468.75 563.249 2441.3 545.742 2418.88C531.831 2401.14 525.116 2381 534.589 2360.62C548.74 2330.29 588.912 2325.62 622.129 2321.06C804.642 2296.01 949.381 2150.48 1040.64 1990.45C1080.45 1920.69 1114.39 1844.93 1173.86 1790.86C1238.14 1732.48 1325.08 1705.99 1395.23 1654.93C1440.44 1621.96 1478.21 1578.69 1504.83 1529.42C1521.14 1499.33 1533.26 1462.89 1519.94 1431.36C1501.72 1388.57 1448.35 1376.82 1404.22 1362.19C1299.9 1327.67 1212.48 1245.44 1171.71 1143.42C1157.92 1109.02 1165.11 1052.44 1201.93 1056.99C1231.55 1060.71 1236.1 1100.51 1243.3 1129.52C1266.08 1221.46 1374.37 1256.22 1454.11 1307.29C1541.53 1363.15 1608.08 1467.8 1583.02 1568.38C1563.23 1647.97 1492.84 1704.55 1420.77 1743.75C1389 1761.01 1355.9 1776.36 1323.52 1792.66C1302.78 1803.09 1316.45 1834.5 1338.15 1826.35C1409.14 1799.85 1477.37 1765.93 1541.29 1725.05C1569.83 1706.83 1598.13 1686.57 1616.96 1658.52C1653.77 1603.98 1647.66 1530.86 1627.15 1468.4C1585.18 1341.1 1486.97 1233.45 1363.93 1180.1C1337.79 1168.84 1304.69 1148.34 1313.93 1121.37C1324.12 1091.52 1368.73 1101.35 1395.95 1117.41C1471.14 1161.64 1543.93 1209.95 1613.96 1261.98C1659.29 1295.66 1705.34 1333.78 1724.52 1386.77C1751.38 1461.21 1719.73 1551.35 1760.86 1619.08C1768.05 1630.95 1778.01 1641.98 1791.32 1645.93C1818.06 1653.85 1843.36 1630.11 1857.99 1606.5C1925.74 1497.17 1906.92 1355.36 1950.69 1234.41C1956.56 1218.1 1963.88 1201.8 1976.35 1189.81C2012.92 1154.69 2073.72 1171.11 2117.49 1196.65C2161.26 1222.18 2206.35 1256.22 2256.71 1249.75C2295.09 1244.84 2325.9 1217.27 2359.96 1198.81C2394.02 1180.34 2441.98 1173.27 2466.81 1203C2482.04 1221.22 2482.88 1247.35 2481.2 1271.09C2470.64 1425.25 2384.42 1572.45 2255.15 1657.2C2157.54 1721.22 2038.94 1750.35 1946.85 1822.15C1896 1861.71 1854.39 1913.37 1798.27 1945.02C1674.64 2014.79 1503.16 1975.11 1395.35 2067.53C1376.52 2083.71 1359.62 2109.97 1371.01 2132.14C1378.32 2146.17 1394.39 2152.88 1409.26 2158.16C1488.29 2186.33 1569.71 2207.66 1652.45 2221.93C1678.71 2226.48 1706.06 2230.32 1731.72 2222.89C1759.78 2214.86 1782.44 2194.48 1803.79 2174.7C1950.09 2039.48 2093.63 1901.15 2234.05 1759.82C2365.84 1627.23 2501.82 1478.59 2526.05 1293.15C2533.12 1239.8 2519.69 1173.03 2479.88 1143.78ZM1055.63 852.01C1053.23 854.887 1045.79 858.483 1041.36 859.922C1017.97 867.953 993.87 872.389 969.047 873.108C962.212 873.348 953.578 872.868 948.182 868.912C939.548 862.799 943.865 853.808 950.94 848.414C968.808 834.988 1003.22 832.111 1024.45 833.549C1030.92 834.149 1067.86 837.266 1055.63 852.01ZM2049.26 1865.66C2036.19 1933.51 1991.58 1974.63 1934.5 2007.95C1887.13 2035.53 1854.99 2054.82 1817.7 2082.16C1776.33 2112.48 1736.51 2148.81 1683.03 2154.92V2154.8C1646.7 2156 1619.24 2156.36 1600.77 2156C1571.39 2155.4 1445.48 2147.01 1438.76 2109.01C1434.44 2084.19 1474.14 2069.93 1491.4 2064.29C1516.95 2055.9 1542.25 2046.79 1567.19 2036.96C1605.09 2021.98 1642.38 2019.58 1683.03 2023.06C1696.46 2023.78 1708.69 2023.9 1719.85 2023.66C1779.56 2022.22 1835.33 1996.21 1877.06 1953.65C1883.17 1947.42 1890.97 1938.19 1900.56 1925.84C1907.4 1916.97 1922.74 1896.83 1946.37 1865.54C1958.48 1849.36 1974.79 1833.9 1993.26 1826.11C2005.25 1821.07 2025.03 1816.52 2037.27 1823.23C2051.18 1831.02 2052.01 1851.64 2049.26 1865.66Z" fill="#66049B"/>
<path d="M1040.88 -294.705C1030.56 -302.257 1018.45 -307.292 1004.54 -309.09C945.423 -316.283 900.814 -256.466 844.573 -236.926C769.985 -211.033 699.714 -258.503 626.325 -297.103C566.846 -328.51 493.458 -299.74 470.673 -236.447C433.979 -134.674 410.955 -27.986 402.441 79.9005C400.882 99.0804 396.205 122.815 377.498 127.371C351.476 133.724 338.765 96.9226 338.045 70.0709C334.808 -53.1595 345.6 -256.226 334.568 -328.63C332.289 -343.614 317.3 -353.204 302.67 -348.888C284.323 -343.494 272.331 -325.873 274.01 -306.813C276.528 -278.163 286.601 -243.759 286.601 -243.759C288.16 -223.021 262.618 -211.992 248.588 -227.456C221.007 -258.024 201.34 -297.462 178.556 -332.466C51.0848 -528.22 -193.425 -605.179 -418.389 -668.232C-438.655 -673.867 -460.12 -679.62 -480.386 -673.867C-520.678 -662.359 -535.188 -614.049 -543.462 -573.053C-545.261 -564.182 -546.94 -555.072 -545.021 -546.201C-536.747 -510.239 -484.583 -515.393 -449.088 -525.702C-229.88 -589.355 22.6644 -488.661 148.937 -301.059C160.329 -284.037 139.224 -264.138 122.915 -276.485C-50.4846 -408.106 -283.603 -460.371 -495.975 -410.264C-579.077 -390.724 -662.899 -356.321 -746.841 -371.904C-761.351 -374.541 -775.741 -378.737 -790.011 -383.412C-817.711 -392.403 -832.341 -351.645 -805.12 -341.216C-742.644 -317.242 -673.092 -311.608 -607.977 -327.431C-522.956 -348.049 -429.062 -400.794 -355.912 -352.724C-273.29 -298.541 -283.842 -149.418 -190.787 -116.093C-165.365 -106.983 -128.431 -100.03 -129.989 -73.0585C-131.308 -52.0806 -156.731 -43.5696 -176.637 -37.2163C-353.514 19.4841 -389.849 262.469 -539.984 371.913C-589.03 407.636 -648.269 427.295 -697.315 462.898C-728.374 485.314 -755.595 517.201 -767.107 554.361C-777.659 588.406 -756.554 622.09 -787.133 646.065C-841.455 688.74 -921.919 669.56 -981.398 702.046C-1043.63 736.09 -1067.14 817.604 -1128.18 853.447C-1184.78 886.772 -1256.85 871.668 -1319.2 850.929C-1433.72 812.929 -1550.76 751.794 -1604.25 643.667C-1617.44 616.936 -1623.07 578.336 -1597.53 562.872C-1583.86 554.601 -1566.47 556.999 -1550.52 555.8C-1480.73 550.406 -1437.08 475.005 -1370.89 452.469C-1309.61 431.491 -1240.06 459.301 -1178.3 439.762C-1117.14 420.342 -1079.97 360.645 -1041.72 309.099C-935.829 166.929 -783.056 60.3611 -613.014 10.014C-602.941 7.01721 -592.028 4.26013 -582.195 7.85632C-564.927 14.2097 -559.891 37.9446 -567.325 54.727C-574.76 71.5093 -590.589 82.7775 -605.819 93.0867C-648.629 122.096 -692.159 150.147 -736.408 176.879C-753.676 187.427 -739.886 213.68 -721.418 205.289C-631.121 164.172 -551.736 107.112 -511.085 18.645C-505.568 6.65759 -500.772 -7.008 -504.609 -19.7147C-512.763 -47.1658 -550.657 -49.3235 -578.838 -44.0491C-714.104 -18.7557 -841.215 49.093 -937.628 147.27C-1011.26 222.311 -1070.74 317.131 -1166.07 361.604C-1226.51 389.775 -1294.74 394.45 -1360.33 406.797C-1474.14 428.254 -1583.02 474.765 -1677.27 541.895C-1687.71 549.327 -1698.62 557.958 -1702.58 570.185C-1707.61 586.008 -1699.34 602.791 -1690.7 617.056C-1615.04 743.403 -1494.88 842.418 -1356.38 892.526C-1274.35 922.254 -1175.54 932.564 -1105.99 879.939C-1053.11 839.901 -1025.05 768.936 -963.89 743.043C-917.482 723.384 -863.16 735.131 -814.953 720.387C-758.832 703.125 -712.425 651.339 -661.82 626.166C-643.353 616.936 -646.83 589.724 -667.096 585.529C-678.488 583.131 -688.681 579.055 -695.516 570.664C-720.579 540.096 -675.61 502.096 -639.875 485.314C-554.734 445.156 -479.307 384.5 -421.867 309.819C-366.585 237.894 -328.092 153.983 -269.692 84.5756C-211.293 15.1686 -123.394 -40.333 -34.056 -24.6295C2.8783 -18.1563 43.0503 10.7333 36.2151 47.5345C32.9773 64.9163 20.0264 78.7018 7.19531 90.929C-121.355 214.159 -286.72 299.749 -392.967 442.519C-456.642 528.109 -496.575 631.321 -570.803 708.04C-630.162 769.415 -710.026 810.652 -794.448 823.478C-869.875 834.986 -951.179 825.157 -1018.81 860.519C-1074.57 889.649 -1110.55 943.832 -1140.89 999.933C-1148.8 1014.56 -1138.01 1032.18 -1121.46 1031.94H-1120.98C-1111.87 1031.82 -1103.83 1025.95 -1100.83 1017.31C-1084.65 971.163 -1054.19 921.895 -1008.14 929.807C-972.044 936.04 -953.457 974.759 -931.273 1003.89C-929.834 1005.69 -928.395 1007.48 -926.836 1009.28C-907.889 1030.38 -875.871 1002.93 -893.379 980.513C-907.289 962.772 -914.005 942.633 -904.531 922.255C-890.381 891.926 -850.209 887.251 -816.992 882.696C-634.479 857.642 -489.74 712.115 -398.483 552.084C-358.671 482.317 -324.734 406.557 -265.255 352.494C-200.98 294.115 -114.04 267.623 -43.8892 216.557C1.31946 183.591 39.0931 140.317 65.7147 91.0488C82.0233 60.9604 94.1349 24.5188 80.8242 -7.00806C62.5968 -49.803 9.23389 -61.5506 -34.8954 -76.1752C-139.223 -110.699 -226.642 -192.932 -267.414 -294.945C-281.204 -329.349 -274.009 -385.929 -237.195 -381.374C-207.576 -377.658 -203.019 -337.86 -195.824 -308.85C-173.04 -216.907 -64.7548 -182.144 14.9899 -131.078C102.409 -75.2162 168.963 29.4336 143.9 130.008C124.114 209.604 53.7229 266.185 -18.347 305.383C-50.1249 322.645 -83.2219 337.989 -115.599 354.292C-136.345 364.721 -122.674 396.128 -100.969 387.976C-29.9788 361.484 38.2537 327.56 102.169 286.683C130.709 268.462 159.01 248.203 177.837 220.153C214.651 165.61 208.535 92.4873 188.03 30.033C146.059 -97.2731 47.8472 -204.92 -75.1874 -258.264C-101.329 -269.532 -134.426 -290.03 -125.193 -317.002C-115 -346.85 -70.3907 -337.021 -43.1697 -320.958C32.0181 -276.724 104.807 -228.415 174.839 -176.39C220.167 -142.705 266.215 -104.585 285.402 -51.6011C312.263 22.8405 280.605 112.986 321.737 180.715C328.932 192.582 338.885 203.61 352.196 207.566C378.937 215.478 404.24 191.743 418.869 168.128C486.622 58.8028 467.795 -83.0081 511.565 -203.961C517.441 -220.264 524.756 -236.567 537.227 -248.554C573.802 -283.677 634.599 -267.254 678.369 -241.721C722.138 -216.188 767.227 -182.144 817.592 -188.617C855.965 -193.532 886.784 -221.103 920.84 -239.563C954.896 -258.024 1002.86 -265.097 1027.69 -235.368C1042.92 -217.147 1043.75 -191.014 1042.08 -167.279C1031.52 -13.1216 945.303 134.084 816.033 218.834C718.421 282.847 599.823 311.976 507.728 383.781C456.883 423.339 415.272 475.005 359.151 506.652C235.517 576.418 64.0358 536.74 -43.7693 629.163C-62.5962 645.346 -79.5045 671.598 -68.1124 693.775C-60.7975 707.8 -44.7286 714.513 -29.859 719.787C49.1661 747.958 130.59 769.295 213.332 783.56C239.594 788.116 266.935 791.952 292.477 784.519C320.538 776.488 343.202 756.109 364.547 736.33C510.845 601.112 654.385 462.778 794.808 321.446C927.076 189.226 1062.94 40.5819 1087.16 -144.863C1094.12 -198.686 1080.69 -265.456 1040.88 -294.705ZM-383.373 -586.478C-385.772 -583.601 -393.206 -580.005 -397.643 -578.567C-421.027 -570.535 -445.13 -566.1 -469.953 -565.381C-476.788 -565.141 -485.422 -565.62 -490.819 -569.576C-499.453 -575.69 -495.136 -584.68 -488.061 -590.075C-470.193 -603.501 -435.777 -606.378 -414.552 -604.939C-408.076 -604.34 -371.142 -601.223 -383.373 -586.478ZM610.256 427.175C597.185 495.024 552.576 536.141 495.496 569.465C448.129 597.036 415.991 616.336 378.697 643.667C337.326 673.996 297.514 710.318 244.031 716.431V716.311C207.696 717.51 180.235 717.869 161.768 717.51C132.388 716.91 6.47583 708.519 -0.239502 670.519C-4.55652 645.705 35.1359 631.44 52.4038 625.806C77.946 617.415 103.249 608.305 128.191 598.475C166.085 583.491 203.379 581.093 244.031 584.57C257.461 585.289 269.693 585.409 280.845 585.169C340.564 583.731 396.325 557.718 438.056 515.163C444.172 508.929 451.966 499.699 461.56 487.352C468.395 478.481 483.744 458.343 507.368 427.055C519.479 410.872 535.788 395.409 554.255 387.617C566.247 382.582 586.033 378.027 598.265 384.74C612.175 392.532 613.014 413.15 610.256 427.175Z" fill="#66049B"/>
<path d="M3918.88 -294.705C3908.56 -302.257 3896.45 -307.292 3882.54 -309.09C3823.42 -316.282 3778.81 -256.465 3722.57 -236.926C3647.99 -211.033 3577.71 -258.503 3504.33 -297.102C3444.85 -328.509 3371.46 -299.74 3348.67 -236.446C3311.98 -134.673 3288.96 -27.9855 3280.44 79.901C3278.88 99.0809 3274.21 122.816 3255.5 127.371C3229.48 133.724 3216.77 96.9231 3216.05 70.0714C3212.09 -80.3704 3208.13 -230.812 3204.17 -381.254C3203.81 -394.8 3192.54 -405.588 3178.99 -405.468C3164.72 -405.229 3153.45 -393.001 3154.53 -378.737L3164.6 -243.639C3166.16 -222.9 3140.62 -211.872 3126.59 -227.336C3099.01 -257.904 3079.34 -297.342 3056.56 -332.345C2929.09 -528.219 2684.58 -605.178 2459.61 -668.232C2439.35 -673.866 2417.88 -679.62 2397.61 -673.866C2357.32 -662.358 2342.81 -614.049 2334.54 -573.052C2332.74 -564.181 2331.06 -555.071 2332.98 -546.2C2341.25 -510.238 2393.42 -515.393 2428.91 -525.702C2648.12 -589.355 2900.66 -488.661 3026.94 -301.058C3038.33 -284.036 3017.22 -264.137 3000.92 -276.484C2827.52 -408.106 2594.4 -460.371 2382.03 -410.263C2298.92 -390.724 2215.1 -356.32 2131.16 -371.904C2116.65 -374.541 2102.26 -378.736 2087.99 -383.412C2060.29 -392.402 2045.66 -351.645 2072.88 -341.216C2135.36 -317.241 2204.91 -311.607 2270.02 -327.43C2355.04 -348.049 2448.94 -400.793 2522.09 -352.724C2604.71 -298.541 2594.16 -149.418 2687.21 -116.093C2712.64 -106.982 2749.57 -100.03 2748.01 -73.058C2746.69 -52.0801 2721.27 -43.5691 2701.36 -37.2158C2524.49 19.4846 2488.15 262.469 2338.02 371.914C2288.97 407.636 2229.73 427.296 2180.69 462.898C2149.63 485.315 2122.41 517.201 2110.89 554.362C2100.34 588.406 2121.45 622.091 2090.87 646.065C2036.55 688.741 1956.08 669.561 1896.6 702.047C1834.37 736.091 1810.86 817.605 1749.82 853.447C1693.22 886.772 1621.15 871.668 1558.8 850.93C1444.28 812.93 1327.24 751.794 1273.76 643.668C1260.56 616.936 1254.93 578.337 1280.47 562.873C1294.14 554.602 1311.53 556.999 1327.48 555.801C1397.27 550.406 1440.92 475.005 1507.11 452.469C1568.39 431.491 1637.94 459.302 1699.7 439.762C1760.86 420.343 1798.03 360.646 1836.28 309.1C1942.17 166.93 2094.94 60.3616 2264.99 10.0145C2275.06 7.0177 2285.97 4.26062 2295.81 7.85681C2313.07 14.2101 2318.11 37.9451 2310.67 54.7275C2303.24 71.5098 2287.41 82.778 2272.18 93.0872C2229.37 122.097 2185.84 150.147 2141.59 176.879C2124.32 187.428 2138.11 213.68 2156.58 205.289C2246.88 164.172 2326.26 107.112 2366.92 18.6455C2372.43 6.65808 2377.23 -7.00751 2373.39 -19.7142C2365.24 -47.1653 2327.34 -49.323 2299.16 -44.0486C2163.9 -18.7552 2036.79 49.0934 1940.37 147.27C1866.74 222.311 1807.26 317.131 1711.93 361.605C1651.49 389.775 1583.26 394.45 1517.67 406.797C1403.87 428.255 1294.98 474.766 1200.73 541.895C1190.29 549.327 1179.38 557.958 1175.42 570.185C1170.39 586.009 1178.66 602.791 1187.3 617.056C1262.96 743.403 1383.12 842.419 1521.62 892.526C1603.65 922.255 1702.46 932.564 1772.01 879.939C1824.89 839.901 1852.95 768.936 1914.11 743.043C1960.52 723.384 2014.84 735.132 2063.05 720.387C2119.17 703.125 2165.58 651.34 2216.18 626.166C2234.65 616.936 2231.17 589.725 2210.9 585.529C2199.51 583.132 2189.32 579.056 2182.48 570.665C2157.42 540.097 2202.39 502.097 2238.13 485.315C2323.27 445.157 2398.69 384.501 2456.13 309.819C2511.42 237.895 2549.91 153.983 2608.31 84.5761C2666.71 15.1691 2754.61 -40.3325 2843.94 -24.629C2880.88 -18.1558 2921.05 10.7338 2914.22 47.535C2910.98 64.9168 2898.03 78.7023 2885.2 90.9294C2756.65 214.16 2591.28 299.75 2485.03 442.52C2421.36 528.109 2381.43 631.321 2307.2 708.04C2247.84 769.416 2167.97 810.652 2083.55 823.479C2008.13 834.987 1926.82 825.157 1859.19 860.52C1803.43 889.649 1767.45 943.832 1737.11 999.933C1729.2 1014.56 1739.99 1032.18 1756.54 1031.94H1757.02C1766.13 1031.82 1774.17 1025.95 1777.17 1017.32C1793.35 971.164 1823.81 921.895 1869.86 929.807C1905.96 936.041 1924.54 974.76 1946.73 1003.89C1948.17 1005.69 1949.61 1007.49 1951.16 1009.28C1970.11 1030.38 2002.13 1002.93 1984.62 980.514C1970.71 962.772 1964 942.634 1973.47 922.255C1987.62 891.927 2027.79 887.252 2061.01 882.697C2243.52 857.643 2388.26 712.116 2479.52 552.084C2519.33 482.318 2553.27 406.557 2612.75 352.494C2677.02 294.116 2763.96 267.624 2834.11 216.557C2879.32 183.592 2917.09 140.317 2943.72 91.0493C2960.02 60.9609 2972.14 24.5193 2958.82 -7.00757C2940.6 -49.8026 2887.23 -61.5501 2843.1 -76.1747C2738.78 -110.698 2651.36 -192.932 2610.59 -294.945C2596.8 -329.348 2603.99 -385.929 2640.81 -381.374C2670.42 -377.658 2674.98 -337.859 2682.18 -308.85C2704.96 -216.907 2813.25 -182.143 2892.99 -131.077C2980.41 -75.2158 3046.96 29.4341 3021.9 130.008C3002.11 209.605 2931.72 266.185 2859.65 305.384C2827.88 322.646 2794.78 337.99 2762.4 354.292C2741.66 364.721 2755.33 396.128 2777.03 387.977C2848.02 361.485 2916.25 327.56 2980.17 286.684C3008.71 268.463 3037.01 248.204 3055.84 220.154C3092.65 165.611 3086.54 92.4878 3066.03 30.0335C3024.06 -97.2726 2925.85 -204.919 2802.81 -258.263C2776.67 -269.531 2743.57 -290.03 2752.81 -317.001C2763 -346.85 2807.61 -337.02 2834.83 -320.957C2910.02 -276.724 2982.81 -228.415 3052.84 -176.389C3098.17 -142.705 3144.22 -104.585 3163.4 -51.6006C3190.26 22.841 3158.61 112.986 3199.74 180.715C3206.93 192.583 3216.89 203.611 3230.2 207.567C3256.94 215.478 3282.24 191.743 3296.87 168.128C3364.62 58.8033 3345.8 -83.0076 3389.57 -203.96C3395.44 -220.263 3402.76 -236.566 3415.23 -248.553C3451.8 -283.677 3512.6 -267.254 3556.37 -241.721C3600.14 -216.187 3645.23 -182.143 3695.59 -188.616C3733.97 -193.531 3764.78 -221.102 3798.84 -239.563C3832.9 -258.023 3880.86 -265.096 3905.69 -235.367C3920.92 -217.146 3921.76 -191.014 3920.08 -167.279C3909.52 -13.1211 3823.3 134.084 3694.03 218.835C3596.42 282.848 3477.82 311.977 3385.73 383.781C3334.88 423.34 3293.27 475.005 3237.15 506.652C3113.52 576.419 2942.04 536.74 2834.23 629.163C2815.4 645.346 2798.5 671.599 2809.89 693.775C2817.2 707.801 2833.27 714.513 2848.14 719.788C2927.17 747.958 3008.59 769.296 3091.33 783.561C3117.59 788.116 3144.94 791.952 3170.6 784.52C3198.66 776.488 3221.32 756.11 3242.67 736.331C3388.97 601.113 3532.51 462.778 3672.93 321.447C3805.08 189.226 3940.94 40.5824 3965.17 -144.863C3972.12 -198.686 3958.69 -265.456 3918.88 -294.705ZM2494.63 -586.478C2492.23 -583.601 2484.79 -580.005 2480.36 -578.566C2456.97 -570.535 2432.87 -566.099 2408.05 -565.38C2401.21 -565.14 2392.58 -565.62 2387.18 -569.576C2378.55 -575.689 2382.86 -584.68 2389.94 -590.074C2407.81 -603.5 2442.22 -606.377 2463.45 -604.939C2469.92 -604.339 2506.86 -601.222 2494.63 -586.478ZM3488.26 427.176C3475.19 495.024 3430.58 536.141 3373.5 569.466C3326.13 597.037 3293.99 616.337 3256.7 643.668C3215.33 673.996 3175.51 710.318 3122.03 716.432V716.312C3085.7 717.51 3058.24 717.87 3039.77 717.51C3010.39 716.911 2884.48 708.52 2877.76 670.52C2873.44 645.706 2913.14 631.441 2930.4 625.807C2955.95 617.416 2981.25 608.305 3006.19 598.476C3044.09 583.491 3081.38 581.094 3122.03 584.57C3135.46 585.289 3147.69 585.409 3158.85 585.17C3218.56 583.731 3274.33 557.719 3316.06 515.163C3322.17 508.93 3329.97 499.699 3339.56 487.352C3346.4 478.482 3361.74 458.343 3385.37 427.056C3397.48 410.873 3413.79 395.409 3432.26 387.617C3444.25 382.583 3464.03 378.027 3476.26 384.74C3490.18 392.532 3491.01 413.151 3488.26 427.176Z" fill="#66049B"/>
<path d="M535.668 -63.5875C539.745 -62.2688 541.544 -50.5212 541.664 -46.925C542.863 -28.2247 539.506 -7.2467 529.073 8.69653C519 24.0404 514.563 4.86056 514.563 -2.09212C514.563 -19.354 517.681 -36.0165 523.917 -52.0796C525.835 -56.7546 530.152 -65.5054 535.668 -63.5875Z" fill="#66049B"/>
<path d="M1132.61 -25.9468C1133.45 -25.9468 1134.17 -25.2275 1134.29 -24.3884C1134.53 -12.401 1110.19 13.1321 1098.08 12.293C1097.6 12.293 1097.24 12.0532 1097 11.5737C1091.84 0.665213 1121.82 -25.9468 1132.61 -25.9468Z" fill="#66049B"/>
<path d="M1340.43 78.1037C1331.79 72.2298 1357.34 58.9238 1361.29 56.886C1371.25 51.8513 1381.68 48.6147 1392.83 47.0564C1397.15 46.457 1408.42 47.8954 1405.18 55.0879C1397.51 72.4696 1362.01 79.5422 1345.23 79.5422C1343.79 79.4223 1341.39 78.8229 1340.43 78.1037Z" fill="#66049B"/>
<path d="M1177.22 199.897C1167.03 210.206 1158.64 205.291 1162.35 190.906C1165.23 179.398 1170.51 169.089 1177.82 159.739C1181.3 155.304 1193.89 142.597 1200.13 148.111C1203.84 151.468 1202.05 158.9 1200.61 162.976C1195.69 176.641 1188.01 188.988 1177.22 199.897Z" fill="#66049B"/>
<path d="M871.794 507.013C869.996 506.773 869.036 504.855 869.636 503.297C872.514 495.985 891.581 486.155 898.776 482.799C911.846 476.565 960.533 455.707 972.764 463.499C973.124 463.739 973.483 464.218 973.603 464.578C975.882 475.127 956.695 486.634 949.141 489.751C929.954 497.783 909.928 503.297 889.302 506.174C881.388 507.373 877.79 507.972 871.794 507.013Z" fill="#66049B"/>
<path d="M1144.73 739.447C1134.53 729.618 1059.22 652.059 1073.49 639.472C1078.65 634.917 1090.64 645.346 1094.72 649.182C1112.35 666.084 1136.57 690.059 1167.39 720.987C1173.27 726.86 1218.83 772.413 1204.68 777.687C1191.73 782.482 1155.04 749.397 1144.73 739.447Z" fill="#66049B"/>
<path d="M2479.88 -294.705C2469.56 -302.257 2457.45 -307.292 2443.54 -309.09C2384.42 -316.282 2339.81 -256.465 2283.57 -236.926C2208.99 -211.033 2138.71 -258.503 2065.33 -297.102C2005.85 -328.509 1932.46 -299.74 1909.67 -236.446C1872.98 -134.673 1849.95 -27.9855 1841.44 79.901C1839.88 99.0809 1835.21 122.816 1816.5 127.371C1790.48 133.724 1777.77 96.9231 1777.05 70.0714C1773.09 -80.3704 1769.13 -230.812 1765.17 -381.254C1764.81 -394.8 1753.54 -405.588 1739.99 -405.468C1725.72 -405.229 1714.45 -393.001 1715.53 -378.737L1725.6 -243.639C1727.16 -222.9 1701.62 -211.872 1687.59 -227.336C1660.01 -257.904 1640.34 -297.342 1617.56 -332.345C1490.08 -528.219 1245.58 -605.178 1020.61 -668.232C1000.35 -673.866 978.88 -679.62 958.614 -673.866C918.322 -662.358 903.812 -614.049 895.538 -573.052C893.74 -564.181 892.061 -555.071 893.979 -546.2C902.254 -510.238 954.417 -515.393 989.913 -525.702C1209.12 -589.355 1461.66 -488.661 1587.94 -301.058C1599.33 -284.036 1578.22 -264.137 1561.92 -276.484C1388.52 -408.106 1155.4 -460.371 943.025 -410.263C859.923 -390.724 776.101 -356.32 692.16 -371.904C677.65 -374.541 663.26 -378.736 648.99 -383.412C621.289 -392.402 606.659 -351.645 633.88 -341.216C696.357 -317.241 765.908 -311.607 831.023 -327.43C916.044 -348.049 1009.94 -400.793 1083.09 -352.724C1165.71 -298.541 1155.16 -149.418 1248.21 -116.093C1273.64 -106.982 1310.57 -100.03 1309.01 -73.058C1307.69 -52.0801 1282.27 -43.5691 1262.36 -37.2158C1085.49 19.4846 1049.15 262.469 899.016 371.914C849.97 407.636 790.731 427.296 741.685 462.898C710.627 485.315 683.406 517.201 671.894 554.362C661.341 588.406 682.446 622.091 651.868 646.065C597.545 688.741 517.081 669.561 457.603 702.047C395.366 736.091 371.862 817.605 310.824 853.447C254.224 886.772 182.154 871.668 119.797 850.93C5.27692 812.93 -111.762 751.794 -165.245 643.668C-178.436 616.936 -184.071 578.337 -158.529 562.873C-144.859 554.602 -127.471 556.999 -111.522 555.801C-41.7305 550.406 1.91928 475.005 68.1133 452.469C129.391 431.491 198.942 459.302 260.699 439.762C321.857 420.343 359.031 360.646 397.285 309.1C503.171 166.93 655.945 60.3616 825.987 10.0145C836.06 7.0177 846.972 4.26062 856.805 7.85681C874.073 14.2101 879.109 37.9451 871.675 54.7275C864.24 71.5098 848.411 82.778 833.182 93.0872C790.371 122.097 746.842 150.147 702.592 176.879C685.324 187.428 699.115 213.68 717.582 205.289C807.879 164.172 887.264 107.112 927.916 18.6455C933.432 6.65808 938.229 -7.00751 934.391 -19.7142C926.237 -47.1653 888.343 -49.323 860.163 -44.0486C724.897 -18.7552 597.785 49.0934 501.372 147.27C427.743 222.311 368.265 317.131 272.931 361.605C212.493 389.775 144.26 394.45 78.6658 406.797C-35.1351 428.255 -144.019 474.766 -238.274 541.895C-248.707 549.327 -259.619 557.958 -263.576 570.185C-268.613 586.009 -260.339 602.791 -251.705 617.056C-176.037 743.403 -55.8806 842.419 82.6232 892.526C164.646 922.255 263.457 932.564 333.009 879.939C385.892 839.901 413.953 768.936 475.11 743.043C521.518 723.384 575.84 735.132 624.047 720.387C680.168 703.125 726.576 651.34 777.181 626.166C795.648 616.936 792.17 589.725 771.904 585.529C760.512 583.132 750.319 579.056 743.484 570.665C718.421 540.097 763.39 502.097 799.125 485.315C884.266 445.157 959.693 384.501 1017.13 309.819C1072.42 237.895 1110.91 153.983 1169.31 84.5761C1227.71 15.1691 1315.61 -40.3325 1404.94 -24.629C1441.88 -18.1558 1482.05 10.7338 1475.22 47.535C1471.98 64.9168 1459.03 78.7023 1446.2 90.9294C1317.64 214.16 1152.28 299.75 1046.03 442.52C982.358 528.109 942.426 631.321 868.197 708.04C808.839 769.416 728.974 810.652 644.553 823.479C569.125 834.987 487.822 825.157 420.189 860.52C364.427 889.649 328.452 943.832 298.113 999.933C290.199 1014.56 300.991 1032.18 317.54 1031.94H318.019C327.133 1031.82 335.168 1025.95 338.166 1017.32C354.354 971.164 384.813 921.895 430.861 929.807C466.956 936.041 485.543 974.76 507.728 1003.89C509.167 1005.69 510.606 1007.49 512.165 1009.28C531.111 1030.38 563.129 1002.93 545.621 980.514C531.711 962.772 524.996 942.634 534.469 922.255C548.619 891.927 588.791 887.252 622.008 882.697C804.521 857.643 949.261 712.116 1040.52 552.084C1080.33 482.318 1114.27 406.557 1173.74 352.494C1238.02 294.116 1324.96 267.624 1395.11 216.557C1440.32 183.592 1478.09 140.317 1504.71 91.0493C1521.02 60.9609 1533.14 24.5193 1519.82 -7.00757C1501.6 -49.8026 1448.23 -61.5501 1404.1 -76.1747C1299.78 -110.698 1212.36 -192.932 1171.59 -294.945C1157.8 -329.348 1164.99 -385.929 1201.81 -381.374C1231.42 -377.658 1235.98 -337.859 1243.18 -308.85C1265.96 -216.907 1374.25 -182.143 1453.99 -131.077C1541.41 -75.2158 1607.96 29.4341 1582.9 130.008C1563.11 209.605 1492.72 266.185 1420.65 305.384C1388.88 322.646 1355.78 337.99 1323.4 354.292C1302.66 364.721 1316.33 396.128 1338.03 387.977C1409.02 361.485 1477.25 327.56 1541.17 286.684C1569.71 268.463 1598.01 248.204 1616.84 220.154C1653.65 165.611 1647.54 92.4878 1627.03 30.0335C1585.06 -97.2726 1486.85 -204.919 1363.81 -258.263C1337.67 -269.531 1304.57 -290.03 1313.81 -317.001C1324 -346.85 1368.61 -337.02 1395.83 -320.957C1471.02 -276.724 1543.81 -228.415 1613.84 -176.389C1659.17 -142.705 1705.22 -104.585 1724.4 -51.6006C1751.26 22.841 1719.61 112.986 1760.74 180.715C1767.93 192.583 1777.88 203.611 1791.2 207.567C1817.94 215.478 1843.24 191.743 1857.87 168.128C1925.62 58.8033 1906.8 -83.0076 1950.57 -203.96C1956.44 -220.263 1963.76 -236.566 1976.23 -248.553C2012.8 -283.677 2073.6 -267.254 2117.37 -241.721C2161.14 -216.187 2206.23 -182.143 2256.59 -188.616C2294.97 -193.531 2325.78 -221.102 2359.84 -239.563C2393.9 -258.023 2441.86 -265.096 2466.69 -235.367C2481.92 -217.146 2482.76 -191.014 2481.08 -167.279C2470.52 -13.1211 2384.3 134.084 2255.03 218.835C2157.42 282.848 2038.82 311.977 1946.73 383.781C1895.88 423.34 1854.27 475.005 1798.15 506.652C1674.52 576.419 1503.04 536.74 1395.23 629.163C1376.4 645.346 1359.5 671.599 1370.89 693.775C1378.2 707.801 1394.27 714.513 1409.14 719.788C1488.17 747.958 1569.59 769.296 1652.33 783.561C1678.59 788.116 1705.93 791.952 1731.6 784.52C1759.66 776.488 1782.32 756.11 1803.67 736.331C1949.97 601.113 2093.51 462.778 2233.93 321.447C2366.08 189.226 2501.94 40.5824 2526.17 -144.863C2533.12 -198.686 2519.69 -265.456 2479.88 -294.705ZM1055.63 -586.478C1053.23 -583.601 1045.79 -580.005 1041.36 -578.566C1017.97 -570.535 993.87 -566.099 969.047 -565.38C962.212 -565.14 953.578 -565.62 948.182 -569.576C939.548 -575.689 943.865 -584.68 950.94 -590.074C968.807 -603.5 1003.22 -606.377 1024.45 -604.939C1030.92 -604.339 1067.86 -601.222 1055.63 -586.478ZM2049.26 427.176C2036.19 495.024 1991.58 536.141 1934.5 569.466C1887.13 597.037 1854.99 616.337 1817.7 643.668C1776.33 673.996 1736.51 710.318 1683.03 716.432V716.312C1646.7 717.51 1619.24 717.87 1600.77 717.51C1571.39 716.911 1445.48 708.52 1438.76 670.52C1434.44 645.706 1474.14 631.441 1491.4 625.807C1516.95 617.416 1542.25 608.305 1567.19 598.476C1605.08 583.491 1642.38 581.094 1683.03 584.57C1696.46 585.289 1708.69 585.409 1719.85 585.17C1779.56 583.731 1835.33 557.719 1877.06 515.163C1883.17 508.93 1890.97 499.699 1900.56 487.352C1907.39 478.482 1922.74 458.343 1946.37 427.056C1958.48 410.873 1974.79 395.409 1993.26 387.617C2005.25 382.583 2025.03 378.027 2037.26 384.74C2051.17 392.532 2052.01 413.151 2049.26 427.176Z" fill="#66049B"/>
<path d="M296.075 299.991C274.49 302.628 252.905 305.266 231.32 308.023C219.329 309.461 207.097 311.02 196.065 315.814C194.026 316.654 191.988 317.733 190.429 319.291C185.632 324.326 190.309 328.881 195.345 330.559C200.861 332.357 206.617 332.957 212.373 333.316C223.406 334.035 234.438 333.676 245.47 332.477C262.738 330.439 280.126 325.884 294.516 316.174C298.354 313.537 302.071 310.54 304.11 306.344C304.589 305.505 304.949 304.546 304.829 303.467C304.709 301.789 303.15 300.471 301.472 299.991C299.793 299.512 298.114 299.751 296.435 299.991C296.315 299.871 296.195 299.991 296.075 299.991Z" fill="#66049B"/>
<path d="M561.93 249.884C562.769 249.884 563.489 250.603 563.609 251.442C563.849 263.43 539.506 288.963 527.394 288.124C526.914 288.124 526.555 287.884 526.315 287.404C521.039 276.496 551.138 249.884 561.93 249.884Z" fill="#66049B"/>
</g>
<defs>
<clipPath id="clip0_1333_15040">
<rect width="1439" height="809" fill="white"/>
</clipPath>
</defs>
</svg>
