<svg width="1440" height="590" viewBox="0 0 1440 590" fill="none" xmlns="http://www.w3.org/2000/svg">
<g clip-path="url(#clip0_877_13247)">
<rect width="173.556" height="173.556" transform="translate(-78.6377 118.74) rotate(-5.00786)" fill="#4D0374"/>
<path d="M15.3836 197.611L94.2552 103.59L109.405 276.483L15.3836 197.611Z" fill="#4D0374"/>
<path d="M15.3844 197.611L109.406 276.483L-63.4872 291.633L15.3844 197.611Z" fill="#4D0374"/>
<path d="M15.3836 197.611L-78.638 118.74L-63.4879 291.633L15.3836 197.611Z" fill="#4D0374"/>
<path d="M15.3844 197.611L94.256 103.59L-78.6372 118.74L15.3844 197.611Z" fill="#4D0374"/>
<path fill-rule="evenodd" clip-rule="evenodd" d="M94.2555 103.59L7.80892 111.165C11.9925 158.908 -23.3195 201.003 -71.0626 205.186L-63.4876 291.633C31.9987 283.266 102.623 199.076 94.2555 103.59Z" fill="#2D0244"/>
</g>
<rect width="173.556" height="173.556" transform="translate(94.2988 103.586) rotate(-5.00786)" fill="#4D0374"/>
<rect x="150.712" y="150.909" width="69.4223" height="69.4223" transform="rotate(-5.00786 150.712 150.909)" fill="#2D0244"/>
<g clip-path="url(#clip1_877_13247)">
<rect width="173.556" height="173.556" transform="translate(267.235 88.4323) rotate(-5.00786)" fill="#2D0244"/>
<path d="M361.256 167.304L440.128 73.2821L455.278 246.175L361.256 167.304Z" fill="#4D0374"/>
<path d="M361.257 167.304L455.279 246.175L282.385 261.325L361.257 167.304Z" fill="#4D0374"/>
<path d="M361.256 167.304L267.235 88.4322L282.385 261.325L361.256 167.304Z" fill="#4D0374"/>
<path d="M361.257 167.304L440.129 73.2821L267.235 88.4322L361.257 167.304Z" fill="#4D0374"/>
<rect x="316.964" y="258.296" width="173.556" height="34.7111" transform="rotate(-95.0079 316.964 258.296)" fill="#2D0244"/>
<rect x="386.121" y="252.236" width="173.556" height="34.7111" transform="rotate(-95.0079 386.121 252.236)" fill="#2D0244"/>
</g>
<rect width="173.556" height="173.556" transform="translate(440.171 73.278) rotate(-5.00786)" fill="#4D0374"/>
<path fill-rule="evenodd" clip-rule="evenodd" d="M527.565 76.5087C485.789 80.1693 454.891 117.002 458.552 158.778C462.213 200.553 499.046 231.451 540.821 227.79C582.596 224.13 613.494 187.297 609.834 145.521C606.173 103.746 569.34 72.848 527.565 76.5087ZM529.431 97.8144L479.858 156.911L538.954 206.485L588.528 147.388L529.431 97.8144Z" fill="#2D0244"/>
<g clip-path="url(#clip2_877_13247)">
<rect width="173.556" height="173.556" transform="translate(613.107 58.1244) rotate(-5.00786)" fill="#2D0244"/>
<path d="M628.257 231.018C619.89 135.531 690.514 51.3415 786 42.9743L801.15 215.868L628.257 231.018Z" fill="#4D0374"/>
</g>
<g clip-path="url(#clip3_877_13247)">
<rect width="173.556" height="173.556" transform="translate(786.044 42.9706) rotate(-5.00786)" fill="#2D0244"/>
<path d="M801.194 215.864C792.827 120.378 863.451 36.1877 958.937 27.8205L974.087 200.714L801.194 215.864Z" fill="#4D0374"/>
</g>
<g clip-path="url(#clip4_877_13247)">
<rect width="173.556" height="173.556" transform="translate(958.979 27.8163) rotate(-5.00786)" fill="#2D0244"/>
<path d="M1053 106.688L1131.87 12.6662L1147.02 185.559L1053 106.688Z" fill="#4D0374"/>
<path d="M1053 106.688L1147.02 185.559L974.13 200.709L1053 106.688Z" fill="#4D0374"/>
<path d="M1053 106.688L958.98 27.8163L974.13 200.71L1053 106.688Z" fill="#4D0374"/>
<path d="M1053 106.688L1131.87 12.6662L958.98 27.8163L1053 106.688Z" fill="#4D0374"/>
<rect x="1045.43" y="20.2412" width="86.7779" height="86.7779" transform="rotate(-5.00786 1045.43 20.2412)" fill="#2D0244"/>
</g>
<g clip-path="url(#clip5_877_13247)">
<rect width="173.556" height="173.556" transform="translate(1131.92 12.6628) rotate(-5.00786)" fill="#2D0244"/>
<path d="M1225.94 91.5344L1304.81 -2.48728L1319.96 170.406L1225.94 91.5344Z" fill="#4D0374"/>
<path d="M1225.94 91.5344L1319.96 170.406L1147.07 185.556L1225.94 91.5344Z" fill="#4D0374"/>
<path d="M1225.94 91.5344L1131.92 12.6628L1147.07 185.556L1225.94 91.5344Z" fill="#4D0374"/>
<path d="M1225.94 91.5344L1304.81 -2.48727L1131.92 12.6628L1225.94 91.5344Z" fill="#4D0374"/>
<rect x="1131.92" y="12.6628" width="86.7779" height="86.7779" transform="rotate(-5.00786 1131.92 12.6628)" fill="#2D0244"/>
</g>
<g clip-path="url(#clip6_877_13247)">
<rect width="173.556" height="173.556" transform="translate(1304.85 -2.49121) rotate(-5.00786)" fill="#2D0244"/>
<path d="M1398.87 76.3803L1477.75 -17.6413L1492.9 155.252L1398.87 76.3803Z" fill="#2D0244"/>
<path d="M1398.87 76.3803L1492.9 155.252L1320 170.402L1398.87 76.3803Z" fill="#2D0244"/>
<path d="M1398.87 76.3803L1304.85 -2.49124L1320 170.402L1398.87 76.3803Z" fill="#2D0244"/>
<path d="M1398.87 76.3803L1477.75 -17.6413L1304.85 -2.49123L1398.87 76.3803Z" fill="#2D0244"/>
<path d="M1304.85 -2.49121L1477.75 -17.6413L1492.9 155.252C1397.41 163.619 1313.22 92.9951 1304.85 -2.49121Z" fill="#4D0374"/>
<path d="M1391.3 -10.0663L1477.75 -17.6413L1485.32 68.8053C1437.58 72.9889 1395.48 37.6769 1391.3 -10.0663Z" fill="#4D0374"/>
</g>
<g clip-path="url(#clip7_877_13247)">
<rect width="173.556" height="173.556" transform="translate(-63.4839 291.676) rotate(-5.00786)" fill="#4D0374"/>
<path d="M30.5374 370.548L109.409 276.526L124.559 449.419L30.5374 370.548Z" fill="#4D0374"/>
<path d="M30.5382 370.548L124.56 449.419L-48.3333 464.569L30.5382 370.548Z" fill="#4D0374"/>
<path d="M30.5374 370.548L-63.4842 291.676L-48.3341 464.569L30.5374 370.548Z" fill="#4D0374"/>
<path d="M30.5382 370.548L109.41 276.526L-63.4834 291.676L30.5382 370.548Z" fill="#4D0374"/>
<path d="M-63.4839 291.676C32.0024 283.309 116.192 353.933 124.559 449.419L-48.3338 464.569L-63.4839 291.676Z" fill="#2D0244"/>
<path d="M-55.9087 378.123C-8.16556 373.939 33.9294 409.251 38.113 456.994L-48.3336 464.569L-55.9087 378.123Z" fill="#4D0374"/>
</g>
<g clip-path="url(#clip8_877_13247)">
<rect width="173.556" height="173.556" transform="translate(-48.3301 464.612) rotate(-5.00786)" fill="#4D0374"/>
<rect x="-45.3003" y="499.191" width="173.556" height="34.7111" transform="rotate(-5.00786 -45.3003 499.191)" fill="#2D0244"/>
<rect x="-39.2402" y="568.348" width="173.556" height="34.7111" transform="rotate(-5.00786 -39.2402 568.348)" fill="#2D0244"/>
</g>
<rect width="173.556" height="173.556" transform="translate(109.453 276.522) rotate(-5.00786)" fill="#4D0374"/>
<rect x="203.474" y="355.394" width="86.7779" height="86.7779" transform="rotate(-5.00786 203.474 355.394)" fill="#2D0244"/>
<g clip-path="url(#clip9_877_13247)">
<rect width="173.556" height="173.556" transform="translate(124.606 449.458) rotate(-5.00786)" fill="#4D0374"/>
<path d="M218.628 528.33L297.499 434.308L312.649 607.202L218.628 528.33Z" fill="#4D0374"/>
<path d="M218.629 528.33L312.65 607.202L139.757 622.352L218.629 528.33Z" fill="#4D0374"/>
<path d="M218.628 528.33L124.606 449.458L139.756 622.352L218.628 528.33Z" fill="#4D0374"/>
<path d="M218.629 528.33L297.5 434.308L124.607 449.458L218.629 528.33Z" fill="#4D0374"/>
<rect x="211.053" y="441.883" width="86.7779" height="86.7779" transform="rotate(-5.00786 211.053 441.883)" fill="#2D0244"/>
</g>
<g clip-path="url(#clip10_877_13247)">
<rect width="173.556" height="173.556" transform="translate(282.389 261.369) rotate(-5.00786)" fill="#4D0374"/>
<path d="M376.41 340.24L455.282 246.218L470.432 419.112L376.41 340.24Z" fill="#4D0374"/>
<path d="M376.411 340.24L470.432 419.112L297.539 434.262L376.411 340.24Z" fill="#4D0374"/>
<path d="M376.41 340.24L282.388 261.369L297.538 434.262L376.41 340.24Z" fill="#4D0374"/>
<path d="M376.411 340.24L455.282 246.218L282.389 261.369L376.411 340.24Z" fill="#4D0374"/>
<rect x="289.964" y="347.815" width="86.7779" height="86.7779" transform="rotate(-5.00786 289.964 347.815)" fill="#2D0244"/>
</g>
<g clip-path="url(#clip11_877_13247)">
<rect width="173.556" height="173.556" transform="translate(297.542 434.304) rotate(-5.00786)" fill="#2D0244"/>
<path d="M391.564 513.176L470.435 419.154L485.585 592.048L391.564 513.176Z" fill="#2D0244"/>
<path d="M391.565 513.176L485.586 592.048L312.693 607.198L391.565 513.176Z" fill="#2D0244"/>
<path d="M391.564 513.176L297.542 434.304L312.692 607.198L391.564 513.176Z" fill="#2D0244"/>
<path d="M391.565 513.176L470.436 419.154L297.543 434.304L391.565 513.176Z" fill="#2D0244"/>
<rect x="297.542" y="434.304" width="86.7779" height="86.7779" transform="rotate(-5.00786 297.542 434.304)" fill="#4D0374"/>
</g>
<g clip-path="url(#clip12_877_13247)">
<rect width="173.556" height="173.556" transform="translate(455.325 246.215) rotate(-5.00786)" fill="#4D0374"/>
<path fill-rule="evenodd" clip-rule="evenodd" d="M643.368 403.958L628.218 231.064L628.218 231.065L643.369 403.958L470.475 419.108L455.325 246.215L541.772 238.64L556.922 411.533L643.368 403.958Z" fill="#2D0244"/>
</g>
<g clip-path="url(#clip13_877_13247)">
<rect width="173.556" height="173.556" transform="translate(470.479 419.15) rotate(-5.00786)" fill="#2D0244"/>
<path d="M564.5 498.022L643.372 404L658.522 576.894L564.5 498.022Z" fill="#2D0244"/>
<path d="M564.501 498.022L658.523 576.894L485.63 592.044L564.501 498.022Z" fill="#2D0244"/>
<path d="M564.5 498.022L470.479 419.15L485.629 592.044L564.5 498.022Z" fill="#2D0244"/>
<path d="M564.501 498.022L643.373 404L470.479 419.15L564.501 498.022Z" fill="#2D0244"/>
<rect x="478.054" y="505.597" width="86.7779" height="86.7779" transform="rotate(-5.00786 478.054 505.597)" fill="#4D0374"/>
</g>
<rect width="173.556" height="173.556" transform="translate(485.633 592.087) rotate(-5.00786)" fill="#2D0244"/>
<g clip-path="url(#clip14_877_13247)">
<rect width="173.556" height="173.556" transform="translate(628.261 231.061) rotate(-5.00786)" fill="#2D0244"/>
<path fill-rule="evenodd" clip-rule="evenodd" d="M801.154 215.911L628.261 231.061L643.411 403.954L816.304 388.804L801.154 215.911ZM729.151 385.775C770.927 382.115 801.825 345.281 798.164 303.506C794.503 261.731 757.67 230.833 715.895 234.494C674.12 238.154 643.222 274.987 646.882 316.763C650.543 358.538 687.376 389.436 729.151 385.775Z" fill="#4D0374"/>
</g>
<g clip-path="url(#clip15_877_13247)">
<rect width="173.556" height="173.556" transform="translate(643.415 403.997) rotate(-5.00786)" fill="#2D0244"/>
<rect x="646.445" y="438.576" width="173.556" height="34.7111" transform="rotate(-5.00786 646.445 438.576)" fill="#4D0374"/>
<rect x="652.505" y="507.733" width="173.556" height="34.7111" transform="rotate(-5.00786 652.505 507.733)" fill="#4D0374"/>
</g>
<rect width="173.556" height="173.556" transform="translate(658.568 576.933) rotate(-5.00786)" fill="#2D0244"/>
<g clip-path="url(#clip16_877_13247)">
<rect width="173.556" height="173.556" transform="translate(801.197 215.907) rotate(-5.00786)" fill="#2D0244"/>
<path d="M902.794 381.225C898.61 333.482 933.922 291.387 981.665 287.203L989.24 373.65L902.794 381.225Z" fill="#4D0374"/>
<path fill-rule="evenodd" clip-rule="evenodd" d="M974.09 200.757L801.197 215.907L816.347 388.8C807.98 293.314 878.604 209.124 974.09 200.757Z" fill="#4D0374"/>
</g>
<g clip-path="url(#clip17_877_13247)">
<rect width="173.556" height="173.556" transform="translate(816.352 388.843) rotate(-5.00786)" fill="#2D0244"/>
<path d="M910.374 467.715L989.245 373.693L1004.4 546.586L910.374 467.715Z" fill="#2D0244"/>
<path d="M910.374 467.715L1004.4 546.586L831.502 561.736L910.374 467.715Z" fill="#2D0244"/>
<path d="M910.374 467.715L816.352 388.843L831.502 561.736L910.374 467.715Z" fill="#2D0244"/>
<path d="M910.374 467.715L989.245 373.693L816.352 388.843L910.374 467.715Z" fill="#2D0244"/>
<path d="M902.799 381.268L989.245 373.693L996.82 460.14C949.077 464.323 906.982 429.011 902.799 381.268Z" fill="#4D0374"/>
</g>
<rect width="173.556" height="173.556" transform="translate(831.506 561.779) rotate(-5.00786)" fill="#2D0244"/>
<rect x="938.272" y="587.268" width="34.7111" height="34.7111" rx="17.3556" transform="rotate(-5.00786 938.272 587.268)" fill="#4D0374"/>
<g clip-path="url(#clip18_877_13247)">
<rect width="173.556" height="173.556" transform="translate(974.134 200.753) rotate(-5.00786)" fill="#4D0374"/>
<rect x="974.134" y="200.753" width="173.556" height="173.556" transform="rotate(-5.00786 974.134 200.753)" fill="#4D0374"/>
<g clip-path="url(#clip19_877_13247)">
<rect x="1036.81" y="253.334" width="57.8519" height="57.8519" transform="rotate(-5.00786 1036.81 253.334)" fill="#2D0244"/>
<rect x="979.185" y="258.384" width="57.8519" height="57.8519" transform="rotate(-5.00786 979.185 258.384)" fill="#2D0244"/>
<rect x="1094.45" y="248.284" width="57.8519" height="57.8519" transform="rotate(-5.00786 1094.45 248.284)" fill="#2D0244"/>
<rect x="1031.76" y="195.703" width="57.8519" height="57.8519" transform="rotate(-5.00786 1031.76 195.703)" fill="#2D0244"/>
<rect x="1041.87" y="310.965" width="57.8519" height="57.8519" transform="rotate(-5.00786 1041.87 310.965)" fill="#2D0244"/>
</g>
</g>
<g clip-path="url(#clip20_877_13247)">
<rect width="173.556" height="173.556" transform="translate(989.288 373.689) rotate(-5.00786)" fill="#2D0244"/>
<path d="M1083.31 452.561L1162.18 358.539L1177.33 531.432L1083.31 452.561Z" fill="#2D0244"/>
<path d="M1083.31 452.561L1177.33 531.432L1004.44 546.582L1083.31 452.561Z" fill="#2D0244"/>
<path d="M1083.31 452.561L989.289 373.689L1004.44 546.582L1083.31 452.561Z" fill="#2D0244"/>
<path d="M1083.31 452.561L1162.18 358.539L989.289 373.689L1083.31 452.561Z" fill="#2D0244"/>
<path d="M989.288 373.689L1162.18 358.539C1170.55 454.025 1099.92 538.215 1004.44 546.582L989.288 373.689Z" fill="#4D0374"/>
<path d="M989.288 373.689L1075.73 366.114C1079.92 413.857 1044.61 455.952 996.863 460.136L989.288 373.689Z" fill="#4D0374"/>
</g>
<g clip-path="url(#clip21_877_13247)">
<rect width="173.556" height="173.556" transform="translate(1004.44 546.625) rotate(-5.00786)" fill="#4D0374"/>
<path d="M1098.46 625.497L1177.34 531.475L1192.49 704.368L1098.46 625.497Z" fill="#2D0244"/>
<path d="M1098.46 625.497L1004.44 546.625L1019.59 719.519L1098.46 625.497Z" fill="#2D0244"/>
<path d="M1098.46 625.497L1177.34 531.475L1004.44 546.625L1098.46 625.497Z" fill="#2D0244"/>
</g>
<rect width="173.556" height="173.556" transform="translate(1147.07 185.599) rotate(-5.00786)" fill="#4D0374"/>
<rect x="1184.68" y="217.148" width="34.7111" height="34.7111" rx="17.3556" transform="rotate(-5.00786 1184.68 217.148)" fill="#2D0244"/>
<rect x="1190.74" y="286.305" width="34.7111" height="34.7111" rx="17.3556" transform="rotate(-5.00786 1190.74 286.305)" fill="#2D0244"/>
<rect x="1253.84" y="211.088" width="34.7111" height="34.7111" rx="17.3556" transform="rotate(-5.00786 1253.84 211.088)" fill="#2D0244"/>
<rect x="1259.9" y="280.245" width="34.7111" height="34.7111" rx="17.3556" transform="rotate(-5.00786 1259.9 280.245)" fill="#2D0244"/>
<rect width="173.556" height="173.556" transform="translate(1162.22 358.535) rotate(-5.00786)" fill="#4D0374"/>
<path fill-rule="evenodd" clip-rule="evenodd" d="M1249.62 361.766C1207.84 365.427 1176.94 402.26 1180.6 444.035C1184.26 485.81 1221.1 516.708 1262.87 513.047C1304.65 509.387 1335.55 472.554 1331.89 430.778C1328.22 389.003 1291.39 358.105 1249.62 361.766ZM1251.48 383.072L1201.91 442.168L1261.01 491.742L1310.58 432.646L1251.48 383.072Z" fill="#2D0244"/>
<rect width="173.556" height="173.556" transform="translate(1177.38 531.471) rotate(-5.00786)" fill="#2D0244"/>
<rect x="1233.79" y="578.794" width="69.4223" height="69.4223" rx="34.7111" transform="rotate(-5.00786 1233.79 578.794)" fill="#4D0374"/>
<rect width="173.556" height="173.556" transform="translate(1320.01 170.445) rotate(-5.00786)" fill="#4D0374"/>
<rect x="1376.42" y="217.768" width="69.4223" height="69.4223" transform="rotate(-5.00786 1376.42 217.768)" fill="#2D0244"/>
<g clip-path="url(#clip22_877_13247)">
<rect width="173.556" height="173.556" transform="translate(1335.16 343.382) rotate(-5.00786)" fill="#2D0244"/>
<path d="M1436.76 508.7C1432.57 460.957 1467.89 418.862 1515.63 414.678L1523.2 501.125L1436.76 508.7Z" fill="#4D0374"/>
<path fill-rule="evenodd" clip-rule="evenodd" d="M1508.05 328.231L1335.16 343.382L1350.31 516.275C1341.94 420.789 1412.57 336.599 1508.05 328.231Z" fill="#4D0374"/>
</g>
<g clip-path="url(#clip23_877_13247)">
<rect width="173.556" height="173.556" transform="translate(1350.31 516.318) rotate(-5.00786)" fill="#2D0244"/>
<path d="M1444.34 595.189L1523.21 501.168L1538.36 674.061L1444.34 595.189Z" fill="#2D0244"/>
<path d="M1444.34 595.189L1538.36 674.061L1365.46 689.211L1444.34 595.189Z" fill="#2D0244"/>
<path d="M1444.34 595.189L1350.32 516.318L1365.47 689.211L1444.34 595.189Z" fill="#2D0244"/>
<path d="M1444.34 595.189L1523.21 501.168L1350.31 516.318L1444.34 595.189Z" fill="#2D0244"/>
<path d="M1436.76 508.743L1523.21 501.168L1530.78 587.614C1483.04 591.798 1440.95 556.486 1436.76 508.743Z" fill="#4D0374"/>
</g>
<defs>
<clipPath id="clip0_877_13247">
<rect width="173.556" height="173.556" fill="white" transform="translate(-78.6377 118.74) rotate(-5.00786)"/>
</clipPath>
<clipPath id="clip1_877_13247">
<rect width="173.556" height="173.556" fill="white" transform="translate(267.235 88.4323) rotate(-5.00786)"/>
</clipPath>
<clipPath id="clip2_877_13247">
<rect width="173.556" height="173.556" fill="white" transform="translate(613.107 58.1244) rotate(-5.00786)"/>
</clipPath>
<clipPath id="clip3_877_13247">
<rect width="173.556" height="173.556" fill="white" transform="translate(786.044 42.9706) rotate(-5.00786)"/>
</clipPath>
<clipPath id="clip4_877_13247">
<rect width="173.556" height="173.556" fill="white" transform="translate(958.979 27.8163) rotate(-5.00786)"/>
</clipPath>
<clipPath id="clip5_877_13247">
<rect width="173.556" height="173.556" fill="white" transform="translate(1131.92 12.6628) rotate(-5.00786)"/>
</clipPath>
<clipPath id="clip6_877_13247">
<rect width="173.556" height="173.556" fill="white" transform="translate(1304.85 -2.49121) rotate(-5.00786)"/>
</clipPath>
<clipPath id="clip7_877_13247">
<rect width="173.556" height="173.556" fill="white" transform="translate(-63.4839 291.676) rotate(-5.00786)"/>
</clipPath>
<clipPath id="clip8_877_13247">
<rect width="173.556" height="173.556" fill="white" transform="translate(-48.3301 464.612) rotate(-5.00786)"/>
</clipPath>
<clipPath id="clip9_877_13247">
<rect width="173.556" height="173.556" fill="white" transform="translate(124.606 449.458) rotate(-5.00786)"/>
</clipPath>
<clipPath id="clip10_877_13247">
<rect width="173.556" height="173.556" fill="white" transform="translate(282.389 261.369) rotate(-5.00786)"/>
</clipPath>
<clipPath id="clip11_877_13247">
<rect width="173.556" height="173.556" fill="white" transform="translate(297.542 434.304) rotate(-5.00786)"/>
</clipPath>
<clipPath id="clip12_877_13247">
<rect width="173.556" height="173.556" fill="white" transform="translate(455.325 246.215) rotate(-5.00786)"/>
</clipPath>
<clipPath id="clip13_877_13247">
<rect width="173.556" height="173.556" fill="white" transform="translate(470.479 419.15) rotate(-5.00786)"/>
</clipPath>
<clipPath id="clip14_877_13247">
<rect width="173.556" height="173.556" fill="white" transform="translate(628.261 231.061) rotate(-5.00786)"/>
</clipPath>
<clipPath id="clip15_877_13247">
<rect width="173.556" height="173.556" fill="white" transform="translate(643.415 403.997) rotate(-5.00786)"/>
</clipPath>
<clipPath id="clip16_877_13247">
<rect width="173.556" height="173.556" fill="white" transform="translate(801.197 215.907) rotate(-5.00786)"/>
</clipPath>
<clipPath id="clip17_877_13247">
<rect width="173.556" height="173.556" fill="white" transform="translate(816.352 388.843) rotate(-5.00786)"/>
</clipPath>
<clipPath id="clip18_877_13247">
<rect width="173.556" height="173.556" fill="white" transform="translate(974.134 200.753) rotate(-5.00786)"/>
</clipPath>
<clipPath id="clip19_877_13247">
<rect width="173.556" height="173.556" fill="white" transform="translate(974.134 200.753) rotate(-5.00786)"/>
</clipPath>
<clipPath id="clip20_877_13247">
<rect width="173.556" height="173.556" fill="white" transform="translate(989.288 373.689) rotate(-5.00786)"/>
</clipPath>
<clipPath id="clip21_877_13247">
<rect width="173.556" height="173.556" fill="white" transform="translate(1004.44 546.625) rotate(-5.00786)"/>
</clipPath>
<clipPath id="clip22_877_13247">
<rect width="173.556" height="173.556" fill="white" transform="translate(1335.16 343.382) rotate(-5.00786)"/>
</clipPath>
<clipPath id="clip23_877_13247">
<rect width="173.556" height="173.556" fill="white" transform="translate(1350.31 516.318) rotate(-5.00786)"/>
</clipPath>
</defs>
</svg>
