<svg xmlns="http://www.w3.org/2000/svg" width="1440" height="611" fill="none" viewBox="0 0 1440 611"><g opacity=".2"><mask id="mask0_931_25466" style="mask-type:alpha" width="1579" height="590" x="-71" y="11" maskUnits="userSpaceOnUse"><rect width="1561.64" height="473.853" x="-80.413" y="137.952" fill="#8005C2" stroke="#D8B2EC" stroke-width="1.603" rx="92.176" transform="rotate(-5.00786 -80.4128 137.952)"/></mask><g mask="url(#mask0_931_25466)"><g clip-path="url(#clip0_931_25466)"><rect width="173.556" height="173.556" fill="#4D0374" transform="translate(-81.4021 129.594) rotate(-5.00786)"/><path fill="#4D0374" d="M12.6197 208.466L91.4913 114.444L106.641 287.338L12.6197 208.466Z"/><path fill="#4D0374" d="M12.6195 208.466L106.641 287.337L-66.252 302.488L12.6195 208.466Z"/><path fill="#4D0374" d="M12.6197 208.466L-81.4019 129.594L-66.2518 302.488L12.6197 208.466Z"/><path fill="#4D0374" d="M12.6195 208.466L91.4911 114.444L-81.4021 129.594L12.6195 208.466Z"/><path fill="#2D0244" fill-rule="evenodd" d="M91.4911 114.444L5.04452 122.019C9.2281 169.762 -26.0839 211.857 -73.8271 216.041L-66.252 302.488C29.2343 294.12 99.8583 209.931 91.4911 114.444Z" clip-rule="evenodd"/></g><rect width="173.556" height="173.556" fill="#4D0374" transform="translate(91.5344 114.44) rotate(-5.00786)"/><rect width="69.422" height="69.422" x="147.948" y="161.763" fill="#2D0244" transform="rotate(-5.00786 147.948 161.763)"/><g clip-path="url(#clip1_931_25466)"><rect width="173.556" height="173.556" fill="#2D0244" transform="translate(264.47 99.2867) rotate(-5.00786)"/><path fill="#4D0374" d="M358.492 178.158L437.363 84.1367L452.513 257.03L358.492 178.158Z"/><path fill="#4D0374" d="M358.493 178.158L452.514 257.03L279.621 272.18L358.493 178.158Z"/><path fill="#4D0374" d="M358.492 178.158L264.47 99.2867L279.62 272.18L358.492 178.158Z"/><path fill="#4D0374" d="M358.493 178.158L437.364 84.1367L264.471 99.2867L358.493 178.158Z"/><rect width="173.556" height="34.711" x="314.199" y="269.15" fill="#2D0244" transform="rotate(-95.0079 314.199 269.15)"/><rect width="173.556" height="34.711" x="383.356" y="263.09" fill="#2D0244" transform="rotate(-95.0079 383.356 263.09)"/></g><rect width="173.556" height="173.556" fill="#4D0374" transform="translate(437.406 84.1325) rotate(-5.00786)"/><path fill="#2D0244" fill-rule="evenodd" d="M524.8 87.3633C483.025 91.0239 452.127 127.857 455.788 169.632C459.448 211.408 496.281 242.305 538.057 238.645C579.832 234.984 610.73 198.151 607.069 156.376C603.409 114.601 566.575 83.7027 524.8 87.3633ZM526.667 108.669L477.093 167.765L536.189 217.339L585.763 158.243L526.667 108.669Z" clip-rule="evenodd"/><g clip-path="url(#clip2_931_25466)"><rect width="173.556" height="173.556" fill="#2D0244" transform="translate(610.343 68.9789) rotate(-5.00786)"/><path fill="#4D0374" d="M625.493 241.872C617.126 146.386 687.75 62.196 783.236 53.8288L798.386 226.722L625.493 241.872Z"/></g><g clip-path="url(#clip3_931_25466)"><rect width="173.556" height="173.556" fill="#2D0244" transform="translate(783.28 53.8251) rotate(-5.00786)"/><path fill="#4D0374" d="M798.43 226.718C790.062 131.232 860.686 47.0422 956.173 38.675L971.323 211.568L798.43 226.718Z"/></g><g clip-path="url(#clip4_931_25466)"><rect width="173.556" height="173.556" fill="#2D0244" transform="translate(956.216 38.6708) rotate(-5.00786)"/><path fill="#4D0374" d="M1050.24 117.542L1129.11 23.5207L1144.26 196.414L1050.24 117.542Z"/><path fill="#4D0374" d="M1050.24 117.542L1144.26 196.414L971.366 211.564L1050.24 117.542Z"/><path fill="#4D0374" d="M1050.24 117.542L956.216 38.6708L971.366 211.564L1050.24 117.542Z"/><path fill="#4D0374" d="M1050.24 117.542L1129.11 23.5208L956.216 38.6708L1050.24 117.542Z"/><rect width="86.778" height="86.778" x="1042.66" y="31.096" fill="#2D0244" transform="rotate(-5.00786 1042.66 31.0958)"/></g><g clip-path="url(#clip5_931_25466)"><rect width="173.556" height="173.556" fill="#2D0244" transform="translate(1129.15 23.5173) rotate(-5.00786)"/><path fill="#4D0374" d="M1223.17 102.389L1302.05 8.36718L1317.2 181.26L1223.17 102.389Z"/><path fill="#4D0374" d="M1223.17 102.389L1317.2 181.26L1144.3 196.411L1223.17 102.389Z"/><path fill="#4D0374" d="M1223.17 102.389L1129.15 23.5173L1144.3 196.411L1223.17 102.389Z"/><path fill="#4D0374" d="M1223.17 102.389L1302.05 8.3672L1129.15 23.5173L1223.17 102.389Z"/><rect width="86.778" height="86.778" x="1129.15" y="23.517" fill="#2D0244" transform="rotate(-5.00786 1129.15 23.5173)"/></g><g clip-path="url(#clip6_931_25466)"><rect width="173.556" height="173.556" fill="#2D0244" transform="translate(1302.09 8.36322) rotate(-5.00786)"/><path fill="#2D0244" d="M1396.11 87.2348L1474.98 -6.78687L1490.13 166.106L1396.11 87.2348Z"/><path fill="#2D0244" d="M1396.11 87.2348L1490.13 166.106L1317.24 181.256L1396.11 87.2348Z"/><path fill="#2D0244" d="M1396.11 87.2348L1302.09 8.36322L1317.24 181.256L1396.11 87.2348Z"/><path fill="#2D0244" d="M1396.11 87.2348L1474.98 -6.78686L1302.09 8.36323L1396.11 87.2348Z"/><path fill="#4D0374" d="M1302.09 8.36322L1474.98 -6.78687L1490.13 166.106C1394.65 174.474 1310.46 103.849 1302.09 8.36322Z"/><path fill="#4D0374" d="M1388.54 0.788177L1474.98 -6.78687L1482.56 79.6597C1434.81 83.8433 1392.72 48.5313 1388.54 0.788177Z"/></g><g clip-path="url(#clip7_931_25466)"><rect width="173.556" height="173.556" fill="#4D0374" transform="translate(-66.2483 302.531) rotate(-5.00786)"/><path fill="#4D0374" d="M27.773 381.402L106.645 287.381L121.795 460.274L27.773 381.402Z"/><path fill="#4D0374" d="M27.7738 381.402L121.796 460.274L-51.0977 475.424L27.7738 381.402Z"/><path fill="#4D0374" d="M27.773 381.402L-66.2486 302.531L-51.0985 475.424L27.773 381.402Z"/><path fill="#4D0374" d="M27.7738 381.402L106.645 287.381L-66.2478 302.531L27.7738 381.402Z"/><path fill="#2D0244" d="M-66.2483 302.531C29.238 294.163 113.428 364.788 121.795 460.274L-51.0982 475.424L-66.2483 302.531Z"/><path fill="#4D0374" d="M-58.6733 388.977C-10.9302 384.794 31.1647 420.106 35.3483 467.849L-51.0983 475.424L-58.6733 388.977Z"/></g><g clip-path="url(#clip8_931_25466)"><rect width="173.556" height="173.556" fill="#4D0374" transform="translate(-51.0942 475.467) rotate(-5.00786)"/><rect width="173.556" height="34.711" x="-48.065" y="510.045" fill="#2D0244" transform="rotate(-5.00786 -48.0647 510.045)"/><rect width="173.556" height="34.711" x="-42.005" y="579.203" fill="#2D0244" transform="rotate(-5.00786 -42.0046 579.203)"/></g><rect width="173.556" height="173.556" fill="#4D0374" transform="translate(106.688 287.377) rotate(-5.00786)"/><rect width="86.778" height="86.778" x="200.71" y="366.248" fill="#2D0244" transform="rotate(-5.00786 200.71 366.248)"/><g clip-path="url(#clip9_931_25466)"><rect width="173.556" height="173.556" fill="#4D0374" transform="translate(121.842 460.313) rotate(-5.00786)"/><path fill="#4D0374" d="M215.864 539.185L294.736 445.163L309.886 618.056L215.864 539.185Z"/><path fill="#4D0374" d="M215.864 539.185L309.886 618.056L136.992 633.206L215.864 539.185Z"/><path fill="#4D0374" d="M215.864 539.185L121.842 460.313L136.993 633.206L215.864 539.185Z"/><path fill="#4D0374" d="M215.864 539.185L294.736 445.163L121.842 460.313L215.864 539.185Z"/><rect width="86.778" height="86.778" x="208.289" y="452.738" fill="#2D0244" transform="rotate(-5.00786 208.289 452.738)"/></g><g clip-path="url(#clip10_931_25466)"><rect width="173.556" height="173.556" fill="#4D0374" transform="translate(279.624 272.223) rotate(-5.00786)"/><path fill="#4D0374" d="M373.646 351.095L452.518 257.073L467.668 429.966L373.646 351.095Z"/><path fill="#4D0374" d="M373.646 351.095L467.668 429.966L294.774 445.116L373.646 351.095Z"/><path fill="#4D0374" d="M373.646 351.095L279.624 272.223L294.775 445.116L373.646 351.095Z"/><path fill="#4D0374" d="M373.646 351.095L452.517 257.073L279.624 272.223L373.646 351.095Z"/><rect width="86.778" height="86.778" x="287.199" y="358.67" fill="#2D0244" transform="rotate(-5.00786 287.199 358.67)"/></g><g clip-path="url(#clip11_931_25466)"><rect width="173.556" height="173.556" fill="#2D0244" transform="translate(294.778 445.159) rotate(-5.00786)"/><path fill="#2D0244" d="M388.799 524.031L467.671 430.009L482.821 602.902L388.799 524.031Z"/><path fill="#2D0244" d="M388.8 524.031L482.822 602.902L309.929 618.052L388.8 524.031Z"/><path fill="#2D0244" d="M388.799 524.031L294.778 445.159L309.928 618.052L388.799 524.031Z"/><path fill="#2D0244" d="M388.8 524.031L467.672 430.009L294.779 445.159L388.8 524.031Z"/><rect width="86.778" height="86.778" x="294.778" y="445.159" fill="#4D0374" transform="rotate(-5.00786 294.778 445.159)"/></g><g clip-path="url(#clip12_931_25466)"><rect width="173.556" height="173.556" fill="#4D0374" transform="translate(452.561 257.069) rotate(-5.00786)"/><path fill="#2D0244" fill-rule="evenodd" d="M539.007 249.494L452.561 257.069L467.711 429.962L640.604 414.812L625.454 241.919L625.454 241.919L640.604 414.812L554.157 422.387L539.007 249.494Z" clip-rule="evenodd"/></g><g clip-path="url(#clip13_931_25466)"><rect width="173.556" height="173.556" fill="#2D0244" transform="translate(467.715 430.005) rotate(-5.00786)"/><path fill="#2D0244" d="M561.736 508.876L640.608 414.855L655.758 587.748L561.736 508.876Z"/><path fill="#2D0244" d="M561.736 508.876L655.758 587.748L482.865 602.898L561.736 508.876Z"/><path fill="#2D0244" d="M561.736 508.876L467.715 430.005L482.865 602.898L561.736 508.876Z"/><path fill="#2D0244" d="M561.736 508.876L640.608 414.855L467.715 430.005L561.736 508.876Z"/><rect width="86.778" height="86.778" x="475.29" y="516.451" fill="#4D0374" transform="rotate(-5.00786 475.29 516.451)"/></g><rect width="173.556" height="173.556" fill="#2D0244" transform="translate(482.868 602.941) rotate(-5.00786)"/><g clip-path="url(#clip14_931_25466)"><rect width="173.556" height="173.556" fill="#2D0244" transform="translate(625.497 241.915) rotate(-5.00786)"/><path fill="#4D0374" fill-rule="evenodd" d="M798.39 226.765L625.497 241.915L640.647 414.808L813.54 399.658L798.39 226.765ZM726.387 396.629C768.163 392.969 799.061 356.136 795.4 314.361C791.739 272.585 754.906 241.687 713.131 245.348C671.356 249.009 640.458 285.842 644.118 327.617C647.779 369.392 684.612 400.29 726.387 396.629Z" clip-rule="evenodd"/></g><g clip-path="url(#clip15_931_25466)"><rect width="173.556" height="173.556" fill="#2D0244" transform="translate(640.65 414.852) rotate(-5.00786)"/><rect width="173.556" height="34.711" x="643.68" y="449.43" fill="#4D0374" transform="rotate(-5.00786 643.68 449.43)"/><rect width="173.556" height="34.711" x="649.741" y="518.587" fill="#4D0374" transform="rotate(-5.00786 649.741 518.587)"/></g><rect width="173.556" height="173.556" fill="#2D0244" transform="translate(655.804 587.788) rotate(-5.00786)"/><g clip-path="url(#clip16_931_25466)"><rect width="173.556" height="173.556" fill="#2D0244" transform="translate(798.433 226.761) rotate(-5.00786)"/><path fill="#4D0374" d="M900.03 392.08C895.847 344.336 931.159 302.242 978.902 298.058L986.477 384.505L900.03 392.08Z"/><path fill="#4D0374" fill-rule="evenodd" d="M971.326 211.611L798.433 226.761L813.583 399.655C805.216 304.168 875.84 219.978 971.326 211.611Z" clip-rule="evenodd"/></g><g clip-path="url(#clip17_931_25466)"><rect width="173.556" height="173.556" fill="#2D0244" transform="translate(813.587 399.698) rotate(-5.00786)"/><path fill="#2D0244" d="M907.609 478.569L986.481 384.547L1001.63 557.441L907.609 478.569Z"/><path fill="#2D0244" d="M907.609 478.569L1001.63 557.441L828.737 572.591L907.609 478.569Z"/><path fill="#2D0244" d="M907.609 478.569L813.587 399.698L828.737 572.591L907.609 478.569Z"/><path fill="#2D0244" d="M907.609 478.569L986.48 384.547L813.587 399.698L907.609 478.569Z"/><path fill="#4D0374" d="M900.034 392.122L986.481 384.547L994.056 470.994C946.312 475.178 904.218 439.866 900.034 392.122Z"/></g><rect width="173.556" height="173.556" fill="#2D0244" transform="translate(828.741 572.634) rotate(-5.00786)"/><rect width="34.711" height="34.711" x="935.507" y="598.122" fill="#4D0374" rx="17.356" transform="rotate(-5.00786 935.507 598.122)"/><g clip-path="url(#clip18_931_25466)"><rect width="173.556" height="173.556" fill="#4D0374" transform="translate(971.369 211.607) rotate(-5.00786)"/><rect width="173.556" height="173.556" x="971.369" y="211.607" fill="#4D0374" transform="rotate(-5.00786 971.369 211.607)"/><g clip-path="url(#clip19_931_25466)"><rect width="57.852" height="57.852" x="1034.05" y="264.188" fill="#2D0244" transform="rotate(-5.00786 1034.05 264.188)"/><rect width="57.852" height="57.852" x="976.419" y="269.238" fill="#2D0244" transform="rotate(-5.00786 976.419 269.238)"/><rect width="57.852" height="57.852" x="1091.68" y="259.138" fill="#2D0244" transform="rotate(-5.00786 1091.68 259.138)"/><rect width="57.852" height="57.852" x="1029" y="206.557" fill="#2D0244" transform="rotate(-5.00786 1029 206.557)"/><rect width="57.852" height="57.852" x="1039.1" y="321.82" fill="#2D0244" transform="rotate(-5.00786 1039.1 321.82)"/></g></g><g clip-path="url(#clip20_931_25466)"><rect width="173.556" height="173.556" fill="#2D0244" transform="translate(986.524 384.544) rotate(-5.00786)"/><path fill="#2D0244" d="M1080.55 463.415L1159.42 369.394L1174.57 542.287L1080.55 463.415Z"/><path fill="#2D0244" d="M1080.55 463.415L1174.57 542.287L1001.67 557.437L1080.55 463.415Z"/><path fill="#2D0244" d="M1080.55 463.415L986.523 384.544L1001.67 557.437L1080.55 463.415Z"/><path fill="#2D0244" d="M1080.55 463.415L1159.42 369.394L986.524 384.544L1080.55 463.415Z"/><path fill="#4D0374" d="M986.524 384.544L1159.42 369.394C1167.78 464.88 1097.16 549.07 1001.67 557.437L986.524 384.544Z"/><path fill="#4D0374" d="M986.524 384.544L1072.97 376.969C1077.15 424.712 1041.84 466.807 994.099 470.99L986.524 384.544Z"/></g><g clip-path="url(#clip21_931_25466)"><rect width="173.556" height="173.556" fill="#4D0374" transform="translate(1001.68 557.48) rotate(-5.00786)"/><path fill="#2D0244" d="M1095.7 636.351L1174.57 542.33L1189.72 715.223L1095.7 636.351Z"/><path fill="#2D0244" d="M1095.7 636.351L1001.68 557.48L1016.83 730.373L1095.7 636.351Z"/><path fill="#2D0244" d="M1095.7 636.351L1174.57 542.33L1001.68 557.48L1095.7 636.351Z"/></g><rect width="173.556" height="173.556" fill="#4D0374" transform="translate(1144.31 196.454) rotate(-5.00786)"/><rect width="34.711" height="34.711" x="1181.91" y="228.002" fill="#2D0244" rx="17.356" transform="rotate(-5.00786 1181.91 228.002)"/><rect width="34.711" height="34.711" x="1187.98" y="297.16" fill="#2D0244" rx="17.356" transform="rotate(-5.00786 1187.98 297.16)"/><rect width="34.711" height="34.711" x="1251.07" y="221.942" fill="#2D0244" rx="17.356" transform="rotate(-5.00786 1251.07 221.942)"/><rect width="34.711" height="34.711" x="1257.13" y="291.099" fill="#2D0244" rx="17.356" transform="rotate(-5.00786 1257.13 291.099)"/><rect width="173.556" height="173.556" fill="#4D0374" transform="translate(1159.46 369.39) rotate(-5.00786)"/><path fill="#2D0244" fill-rule="evenodd" d="M1246.85 372.62C1205.08 376.281 1174.18 413.114 1177.84 454.889C1181.5 496.665 1218.33 527.563 1260.11 523.902C1301.88 520.241 1332.78 483.408 1329.12 441.633C1325.46 399.858 1288.63 368.96 1246.85 372.62ZM1248.72 393.926L1199.15 453.022L1258.24 502.596L1307.82 443.5L1248.72 393.926Z" clip-rule="evenodd"/><rect width="173.556" height="173.556" fill="#2D0244" transform="translate(1174.61 542.326) rotate(-5.00786)"/><rect width="69.422" height="69.422" x="1231.03" y="589.649" fill="#4D0374" rx="34.711" transform="rotate(-5.00786 1231.03 589.649)"/><rect width="173.556" height="173.556" fill="#4D0374" transform="translate(1317.24 181.3) rotate(-5.00786)"/><rect width="69.422" height="69.422" x="1373.66" y="228.623" fill="#2D0244" transform="rotate(-5.00786 1373.66 228.623)"/><g clip-path="url(#clip22_931_25466)"><rect width="173.556" height="173.556" fill="#2D0244" transform="translate(1332.4 354.236) rotate(-5.00786)"/><path fill="#4D0374" d="M1433.99 519.554C1429.81 471.811 1465.12 429.716 1512.86 425.533L1520.44 511.979L1433.99 519.554Z"/><path fill="#4D0374" fill-rule="evenodd" d="M1505.29 339.086L1332.4 354.236L1347.55 527.129C1339.18 431.643 1409.8 347.453 1505.29 339.086Z" clip-rule="evenodd"/></g><g clip-path="url(#clip23_931_25466)"><rect width="173.556" height="173.556" fill="#2D0244" transform="translate(1347.55 527.172) rotate(-5.00786)"/><path fill="#2D0244" d="M1441.57 606.044L1520.44 512.022L1535.59 684.915L1441.57 606.044Z"/><path fill="#2D0244" d="M1441.57 606.044L1535.59 684.915L1362.7 700.065L1441.57 606.044Z"/><path fill="#2D0244" d="M1441.57 606.044L1347.55 527.172L1362.7 700.065L1441.57 606.044Z"/><path fill="#2D0244" d="M1441.57 606.044L1520.44 512.022L1347.55 527.172L1441.57 606.044Z"/><path fill="#4D0374" d="M1434 519.597L1520.44 512.022L1528.02 598.469C1480.27 602.652 1438.18 567.34 1434 519.597Z"/></g></g></g><defs><clipPath id="clip0_931_25466"><rect width="173.556" height="173.556" fill="#fff" transform="translate(-81.4021 129.594) rotate(-5.00786)"/></clipPath><clipPath id="clip1_931_25466"><rect width="173.556" height="173.556" fill="#fff" transform="translate(264.47 99.2867) rotate(-5.00786)"/></clipPath><clipPath id="clip2_931_25466"><rect width="173.556" height="173.556" fill="#fff" transform="translate(610.343 68.9789) rotate(-5.00786)"/></clipPath><clipPath id="clip3_931_25466"><rect width="173.556" height="173.556" fill="#fff" transform="translate(783.28 53.8251) rotate(-5.00786)"/></clipPath><clipPath id="clip4_931_25466"><rect width="173.556" height="173.556" fill="#fff" transform="translate(956.216 38.6708) rotate(-5.00786)"/></clipPath><clipPath id="clip5_931_25466"><rect width="173.556" height="173.556" fill="#fff" transform="translate(1129.15 23.5173) rotate(-5.00786)"/></clipPath><clipPath id="clip6_931_25466"><rect width="173.556" height="173.556" fill="#fff" transform="translate(1302.09 8.36322) rotate(-5.00786)"/></clipPath><clipPath id="clip7_931_25466"><rect width="173.556" height="173.556" fill="#fff" transform="translate(-66.2483 302.531) rotate(-5.00786)"/></clipPath><clipPath id="clip8_931_25466"><rect width="173.556" height="173.556" fill="#fff" transform="translate(-51.0942 475.467) rotate(-5.00786)"/></clipPath><clipPath id="clip9_931_25466"><rect width="173.556" height="173.556" fill="#fff" transform="translate(121.842 460.313) rotate(-5.00786)"/></clipPath><clipPath id="clip10_931_25466"><rect width="173.556" height="173.556" fill="#fff" transform="translate(279.624 272.223) rotate(-5.00786)"/></clipPath><clipPath id="clip11_931_25466"><rect width="173.556" height="173.556" fill="#fff" transform="translate(294.778 445.159) rotate(-5.00786)"/></clipPath><clipPath id="clip12_931_25466"><rect width="173.556" height="173.556" fill="#fff" transform="translate(452.561 257.069) rotate(-5.00786)"/></clipPath><clipPath id="clip13_931_25466"><rect width="173.556" height="173.556" fill="#fff" transform="translate(467.715 430.005) rotate(-5.00786)"/></clipPath><clipPath id="clip14_931_25466"><rect width="173.556" height="173.556" fill="#fff" transform="translate(625.497 241.915) rotate(-5.00786)"/></clipPath><clipPath id="clip15_931_25466"><rect width="173.556" height="173.556" fill="#fff" transform="translate(640.65 414.852) rotate(-5.00786)"/></clipPath><clipPath id="clip16_931_25466"><rect width="173.556" height="173.556" fill="#fff" transform="translate(798.433 226.761) rotate(-5.00786)"/></clipPath><clipPath id="clip17_931_25466"><rect width="173.556" height="173.556" fill="#fff" transform="translate(813.587 399.698) rotate(-5.00786)"/></clipPath><clipPath id="clip18_931_25466"><rect width="173.556" height="173.556" fill="#fff" transform="translate(971.369 211.607) rotate(-5.00786)"/></clipPath><clipPath id="clip19_931_25466"><rect width="173.556" height="173.556" fill="#fff" transform="translate(971.369 211.607) rotate(-5.00786)"/></clipPath><clipPath id="clip20_931_25466"><rect width="173.556" height="173.556" fill="#fff" transform="translate(986.524 384.544) rotate(-5.00786)"/></clipPath><clipPath id="clip21_931_25466"><rect width="173.556" height="173.556" fill="#fff" transform="translate(1001.68 557.48) rotate(-5.00786)"/></clipPath><clipPath id="clip22_931_25466"><rect width="173.556" height="173.556" fill="#fff" transform="translate(1332.4 354.236) rotate(-5.00786)"/></clipPath><clipPath id="clip23_931_25466"><rect width="173.556" height="173.556" fill="#fff" transform="translate(1347.55 527.172) rotate(-5.00786)"/></clipPath></defs></svg>