<svg width="157" height="157" viewBox="0 0 157 157" fill="none" xmlns="http://www.w3.org/2000/svg">
<circle cx="78.7754" cy="78.5959" r="78" fill="url(#paint0_linear_930_23278)"/>
<circle cx="78.7754" cy="78.5959" r="60" transform="rotate(90 78.7754 78.5959)" fill="url(#paint1_linear_930_23278)"/>
<path opacity="0.5" d="M51.2754 78.5957C51.2754 65.6321 51.2754 59.1503 55.3027 55.123C59.33 51.0957 65.8118 51.0957 78.7754 51.0957C91.739 51.0957 98.2208 51.0957 102.248 55.123C106.275 59.1503 106.275 65.6321 106.275 78.5957C106.275 91.5593 106.275 98.0411 102.248 102.068C98.2208 106.096 91.739 106.096 78.7754 106.096C65.8118 106.096 59.33 106.096 55.3027 102.068C51.2754 98.0411 51.2754 91.5593 51.2754 78.5957Z" fill="#8005C2"/>
<path d="M74.7689 66.2686C75.5545 65.4438 75.5227 64.1382 74.6978 63.3527C73.873 62.5671 72.5674 62.5989 71.7819 63.4238L65.4183 70.1056L63.7689 68.3738C62.9834 67.5489 61.6778 67.5171 60.853 68.3027C60.0281 69.0882 59.9963 70.3938 60.7819 71.2186L63.9247 74.5186C64.314 74.9274 64.8538 75.1587 65.4183 75.1587C65.9827 75.1587 66.5225 74.9274 66.9118 74.5186L74.7689 66.2686Z" fill="#8005C2"/>
<path d="M81.5254 68.2837C80.3863 68.2837 79.4629 69.2071 79.4629 70.3462C79.4629 71.4853 80.3863 72.4087 81.5254 72.4087H95.2754C96.4145 72.4087 97.3379 71.4853 97.3379 70.3462C97.3379 69.2071 96.4145 68.2837 95.2754 68.2837H81.5254Z" fill="#8005C2"/>
<path d="M74.7689 85.5186C75.5545 84.6938 75.5227 83.3882 74.6978 82.6027C73.873 81.8171 72.5674 81.8489 71.7819 82.6738L65.4183 89.3556L63.7689 87.6238C62.9834 86.7989 61.6778 86.7671 60.853 87.5527C60.0281 88.3382 59.9963 89.6438 60.7819 90.4686L63.9247 93.7686C64.314 94.1774 64.8538 94.4087 65.4183 94.4087C65.9827 94.4087 66.5225 94.1774 66.9118 93.7686L74.7689 85.5186Z" fill="#8005C2"/>
<path d="M81.5254 87.5337C80.3863 87.5337 79.4629 88.4571 79.4629 89.5962C79.4629 90.7353 80.3863 91.6587 81.5254 91.6587H95.2754C96.4145 91.6587 97.3379 90.7353 97.3379 89.5962C97.3379 88.4571 96.4145 87.5337 95.2754 87.5337H81.5254Z" fill="#8005C2"/>
<defs>
<linearGradient id="paint0_linear_930_23278" x1="78.7754" y1="0.595947" x2="78.7754" y2="156.596" gradientUnits="userSpaceOnUse">
<stop stop-color="#F2E6F9"/>
<stop offset="1" stop-color="#911BD1"/>
</linearGradient>
<linearGradient id="paint1_linear_930_23278" x1="78.7754" y1="18.5959" x2="78.7754" y2="138.596" gradientUnits="userSpaceOnUse">
<stop stop-color="#F2E6F9"/>
<stop offset="1" stop-color="#C086DE"/>
</linearGradient>
</defs>
</svg>
