<svg xmlns="http://www.w3.org/2000/svg" width="149" height="150" fill="none" viewBox="0 0 149 150"><g opacity=".05"><circle cx="74.467" cy="75.183" r="53.311" fill="url(#paint0_linear_931_27783)" transform="rotate(36.011 74.4666 75.1834)"/><circle cx="74.467" cy="75.183" r="41.008" fill="url(#paint1_linear_931_27783)" transform="rotate(126.011 74.4666 75.1834)"/><path fill="#8005C2" d="M45.4086 87.0322L56.2878 72.0642L51.745 68.7623L54.4543 65.0349L58.9971 68.3368L62.4683 63.561L57.9255 60.2591L60.6347 56.5317L65.1775 59.8336L75.6334 45.448L81.6905 49.8505L76.7675 68.2576L83.6399 73.2527L94.0959 58.8672L98.6969 62.2114L88.241 76.5969L92.7838 79.8988L90.0745 83.6262L85.5317 80.3244L82.0605 85.1001L86.6033 88.402L83.8941 92.1294L79.3513 88.8276L68.4721 103.796L62.3567 99.3507L67.7031 80.3612L60.8306 75.3661L49.9514 90.334L45.4086 87.0322ZM63.5399 71.6387L69.0145 75.6178L70.7385 69.5721L66.8946 66.7782L63.5399 71.6387ZM69.8398 92.2393L70.0727 92.4087L74.8085 85.5257L72.3624 83.7478L69.8398 92.2393ZM69.6038 63.0508L72.0499 64.8287L74.8529 55.8289L74.62 55.6596L69.6038 63.0508ZM73.6738 79.0044L77.576 81.8406L80.9307 76.9802L75.3978 72.9586L73.6738 79.0044Z"/></g><defs><linearGradient id="paint0_linear_931_27783" x1="74.467" x2="74.467" y1="21.873" y2="128.494" gradientUnits="userSpaceOnUse"><stop stop-color="#F2E6F9"/><stop offset="1" stop-color="#911BD1"/></linearGradient><linearGradient id="paint1_linear_931_27783" x1="74.467" x2="74.467" y1="34.175" y2="116.192" gradientUnits="userSpaceOnUse"><stop stop-color="#F2E6F9"/><stop offset="1" stop-color="#C086DE"/></linearGradient></defs></svg>