<svg width="150" height="150" viewBox="0 0 150 150" fill="none" xmlns="http://www.w3.org/2000/svg">
<g opacity="0.05">
<circle cx="74.7836" cy="75.2725" r="53.3106" transform="rotate(36.011 74.7836 75.2725)" fill="url(#paint0_linear_911_34758)"/>
<circle cx="74.7836" cy="75.2725" r="41.0082" transform="rotate(126.011 74.7836 75.2725)" fill="url(#paint1_linear_911_34758)"/>
<path d="M45.7256 87.1213L56.6049 72.1533L52.0621 68.8514L54.7713 65.124L59.3141 68.4259L62.7853 63.6501L58.2425 60.3482L60.9517 56.6208L65.4945 59.9227L75.9504 45.5371L82.0075 49.9396L77.0845 68.3467L83.9569 73.3418L94.4129 58.9563L99.0139 62.3005L88.558 76.686L93.1008 79.9879L90.3916 83.7153L85.8488 80.4135L82.3776 85.1892L86.9204 88.4911L84.2111 92.2185L79.6683 88.9167L68.7891 103.885L62.6738 99.4398L68.0201 80.4503L61.1477 75.4552L50.2684 90.4232L45.7256 87.1213ZM63.8569 71.7278L69.3316 75.7069L71.0555 69.6612L67.2116 66.8673L63.8569 71.7278ZM70.1568 92.3284L70.3898 92.4978L75.1255 85.6148L72.6794 83.8369L70.1568 92.3284ZM69.9208 63.1399L72.367 64.9178L75.17 55.918L74.937 55.7487L69.9208 63.1399ZM73.9908 79.0935L77.893 81.9297L81.2477 77.0693L75.7148 73.0477L73.9908 79.0935Z" fill="#8005C2"/>
</g>
<defs>
<linearGradient id="paint0_linear_911_34758" x1="74.7836" y1="21.9619" x2="74.7836" y2="128.583" gradientUnits="userSpaceOnUse">
<stop stop-color="#F2E6F9"/>
<stop offset="1" stop-color="#911BD1"/>
</linearGradient>
<linearGradient id="paint1_linear_911_34758" x1="74.7836" y1="34.2644" x2="74.7836" y2="116.281" gradientUnits="userSpaceOnUse">
<stop stop-color="#F2E6F9"/>
<stop offset="1" stop-color="#C086DE"/>
</linearGradient>
</defs>
</svg>
