<svg width="371" height="1128" viewBox="0 0 371 1128" fill="none" xmlns="http://www.w3.org/2000/svg">
<g opacity="0.05">
<mask id="mask0_923_20758" style="mask-type:alpha" maskUnits="userSpaceOnUse" x="16" y="16" width="883" height="1095">
<rect x="0.712484" y="927.049" width="974.155" height="644.216" rx="57.5" transform="rotate(-71.9693 0.712484 927.049)" fill="#8005C2" stroke="#D8B2EC"/>
</mask>
<g mask="url(#mask0_923_20758)">
<g clip-path="url(#clip0_923_20758)">
<rect width="108.275" height="108.275" transform="translate(-4.32666 925.577) rotate(-71.9693)" fill="#8005C2"/>
<path d="M63.9093 890.855L29.1874 822.619L132.145 856.133L63.9093 890.855Z" fill="#8005C2"/>
<path d="M63.9093 890.855L132.145 856.133L98.6311 959.091L63.9093 890.855Z" fill="#8005C2"/>
<path d="M63.9093 890.855L-4.32658 925.577L98.6311 959.091L63.9093 890.855Z" fill="#8005C2"/>
<path d="M63.9093 890.855L29.1874 822.619L-4.32659 925.577L63.9093 890.855Z" fill="#8005C2"/>
<path fill-rule="evenodd" clip-rule="evenodd" d="M29.1873 822.619L12.4303 874.098C40.8613 883.353 56.4068 913.903 47.1522 942.334L98.631 959.091C117.14 902.229 86.0493 841.128 29.1873 822.619Z" fill="#ECDAF6"/>
</g>
<rect width="108.275" height="108.275" transform="translate(29.1926 822.603) rotate(-71.9693)" fill="#8005C2"/>
<rect x="70.134" y="801.77" width="43.31" height="43.31" transform="rotate(-71.9693 70.134 801.77)" fill="#ECDAF6"/>
<g clip-path="url(#clip1_923_20758)">
<rect width="108.275" height="108.275" transform="translate(62.7117 719.63) rotate(-71.9693)" fill="#ECDAF6"/>
<path d="M130.948 684.908L96.2258 616.672L199.183 650.186L130.948 684.908Z" fill="#8005C2"/>
<path d="M130.948 684.908L199.183 650.186L165.669 753.144L130.948 684.908Z" fill="#8005C2"/>
<path d="M130.948 684.908L62.7117 719.629L165.669 753.143L130.948 684.908Z" fill="#8005C2"/>
<path d="M130.948 684.908L96.2258 616.672L62.7117 719.63L130.948 684.908Z" fill="#8005C2"/>
<rect x="172.372" y="732.552" width="108.275" height="21.655" transform="rotate(-161.969 172.372 732.552)" fill="#ECDAF6"/>
<rect x="185.778" y="691.369" width="108.275" height="21.655" transform="rotate(-161.969 185.778 691.369)" fill="#ECDAF6"/>
</g>
<g clip-path="url(#clip2_923_20758)">
<rect width="108.275" height="108.275" transform="translate(96.2307 616.656) rotate(-71.9693)" fill="#8005C2"/>
<path fill-rule="evenodd" clip-rule="evenodd" d="M119.423 567.272C111.325 592.149 124.927 618.881 149.804 626.978C174.681 635.076 201.413 621.474 209.511 596.597C217.608 571.72 204.006 544.988 179.129 536.89C154.252 528.793 127.52 542.395 119.423 567.272ZM132.11 571.402L153.934 614.291L196.823 592.467L174.999 549.578L132.11 571.402Z" fill="#ECDAF6"/>
</g>
<g clip-path="url(#clip3_923_20758)">
<rect width="108.275" height="108.275" transform="translate(129.75 513.683) rotate(-71.9693)" fill="#ECDAF6"/>
<path d="M232.708 547.197C175.846 528.687 144.755 467.587 163.264 410.725L266.222 444.239L232.708 547.197Z" fill="#8005C2"/>
</g>
<g clip-path="url(#clip4_923_20758)">
<rect width="108.275" height="108.275" transform="translate(163.269 410.709) rotate(-71.9693)" fill="#ECDAF6"/>
<path d="M266.227 444.223C209.365 425.713 178.274 364.613 196.783 307.751L299.741 341.265L266.227 444.223Z" fill="#8005C2"/>
</g>
<g clip-path="url(#clip5_923_20758)">
<rect width="108.275" height="108.275" transform="translate(196.788 307.735) rotate(-71.9693)" fill="#ECDAF6"/>
<path d="M265.024 273.014L230.302 204.778L333.26 238.292L265.024 273.014Z" fill="#8005C2"/>
<path d="M265.024 273.014L333.26 238.292L299.746 341.249L265.024 273.014Z" fill="#8005C2"/>
<path d="M265.024 273.014L196.788 307.735L299.746 341.249L265.024 273.014Z" fill="#8005C2"/>
<path d="M265.024 273.014L230.302 204.778L196.788 307.735L265.024 273.014Z" fill="#8005C2"/>
<rect x="213.545" y="256.257" width="54.1375" height="54.1375" transform="rotate(-71.9693 213.545 256.257)" fill="#ECDAF6"/>
</g>
<g clip-path="url(#clip6_923_20758)">
<rect width="108.275" height="108.275" transform="translate(230.308 204.762) rotate(-71.9693)" fill="#ECDAF6"/>
<path d="M298.543 170.04L263.821 101.804L366.779 135.318L298.543 170.04Z" fill="#8005C2"/>
<path d="M298.543 170.04L366.779 135.318L333.265 238.276L298.543 170.04Z" fill="#8005C2"/>
<path d="M298.543 170.04L230.307 204.762L333.265 238.276L298.543 170.04Z" fill="#8005C2"/>
<path d="M298.543 170.04L263.821 101.804L230.307 204.762L298.543 170.04Z" fill="#8005C2"/>
<rect x="230.308" y="204.762" width="54.1375" height="54.1375" transform="rotate(-71.9693 230.308 204.762)" fill="#ECDAF6"/>
</g>
<g clip-path="url(#clip7_923_20758)">
<rect width="108.275" height="108.275" transform="translate(263.827 101.788) rotate(-71.9693)" fill="#ECDAF6"/>
<path d="M332.062 67.0666L297.34 -1.16927L400.298 32.3447L332.062 67.0666Z" fill="#ECDAF6"/>
<path d="M332.062 67.0665L400.298 32.3446L366.784 135.302L332.062 67.0665Z" fill="#ECDAF6"/>
<path d="M332.062 67.0666L263.826 101.788L366.784 135.302L332.062 67.0666Z" fill="#ECDAF6"/>
<path d="M332.062 67.0665L297.34 -1.16936L263.826 101.788L332.062 67.0665Z" fill="#ECDAF6"/>
<path d="M263.827 101.788L297.341 -1.16935L400.298 32.3447C381.789 89.2066 320.689 120.298 263.827 101.788Z" fill="#8005C2"/>
<path d="M280.583 50.3096L297.34 -1.16927L348.819 15.5877C339.565 44.0187 309.014 59.5642 280.583 50.3096Z" fill="#8005C2"/>
</g>
<g clip-path="url(#clip8_923_20758)">
<rect width="108.275" height="108.275" transform="translate(98.647 959.096) rotate(-71.9693)" fill="#8005C2"/>
<path d="M166.883 924.374L132.161 856.138L235.119 889.652L166.883 924.374Z" fill="#8005C2"/>
<path d="M166.883 924.374L235.118 889.652L201.604 992.61L166.883 924.374Z" fill="#8005C2"/>
<path d="M166.883 924.374L98.6471 959.096L201.605 992.61L166.883 924.374Z" fill="#8005C2"/>
<path d="M166.883 924.374L132.161 856.138L98.6468 959.096L166.883 924.374Z" fill="#8005C2"/>
<path d="M98.647 959.096C117.156 902.234 178.257 871.143 235.119 889.652L201.605 992.61L98.647 959.096Z" fill="#ECDAF6"/>
<path d="M150.126 975.853C159.38 947.422 189.931 931.876 218.362 941.131L201.605 992.61L150.126 975.853Z" fill="#8005C2"/>
</g>
<g clip-path="url(#clip9_923_20758)">
<rect width="108.275" height="108.275" transform="translate(201.621 992.615) rotate(-71.9693)" fill="#8005C2"/>
<rect x="222.212" y="999.318" width="108.275" height="21.655" transform="rotate(-71.9693 222.212 999.318)" fill="#ECDAF6"/>
<rect x="263.395" y="1012.72" width="108.275" height="21.655" transform="rotate(-71.9693 263.395 1012.72)" fill="#ECDAF6"/>
</g>
<rect width="108.275" height="108.275" transform="translate(304.594 1026.13) rotate(-71.9693)" fill="#ECDAF6"/>
<rect x="345.535" y="1005.3" width="43.31" height="43.31" rx="21.655" transform="rotate(-71.9693 345.535 1005.3)" fill="#8005C2"/>
<rect width="108.275" height="108.275" transform="translate(132.166 856.122) rotate(-71.9693)" fill="#8005C2"/>
<rect x="200.402" y="821.4" width="54.1375" height="54.1375" transform="rotate(-71.9693 200.402 821.4)" fill="#ECDAF6"/>
<g clip-path="url(#clip10_923_20758)">
<rect width="108.275" height="108.275" transform="translate(235.14 889.641) rotate(-71.9693)" fill="#8005C2"/>
<path d="M303.375 854.919L268.653 786.684L371.611 820.198L303.375 854.919Z" fill="#8005C2"/>
<path d="M303.375 854.92L371.611 820.198L338.097 923.155L303.375 854.92Z" fill="#8005C2"/>
<path d="M303.375 854.919L235.139 889.641L338.097 923.155L303.375 854.919Z" fill="#8005C2"/>
<path d="M303.375 854.92L268.653 786.684L235.139 889.641L303.375 854.92Z" fill="#8005C2"/>
<rect x="251.896" y="838.162" width="54.1375" height="54.1375" transform="rotate(-71.9693 251.896 838.162)" fill="#ECDAF6"/>
</g>
<g clip-path="url(#clip11_923_20758)">
<rect width="108.275" height="108.275" transform="translate(338.113 923.161) rotate(-71.9693)" fill="#8005C2"/>
<path fill-rule="evenodd" clip-rule="evenodd" d="M371.627 820.203L338.113 923.161L441.071 956.675L474.585 853.717L371.627 820.203ZM451.22 903.189C459.318 878.312 445.715 851.581 420.838 843.483C395.961 835.385 369.23 848.987 361.132 873.864C353.034 898.742 366.636 925.473 391.513 933.571C416.391 941.669 443.122 928.066 451.22 903.189Z" fill="#ECDAF6"/>
</g>
<g clip-path="url(#clip12_923_20758)">
<rect width="108.275" height="108.275" transform="translate(165.685 753.149) rotate(-71.9693)" fill="#8005C2"/>
<path d="M233.921 718.427L199.199 650.191L302.157 683.705L233.921 718.427Z" fill="#8005C2"/>
<path d="M233.921 718.427L302.157 683.705L268.643 786.663L233.921 718.427Z" fill="#8005C2"/>
<path d="M233.921 718.427L165.685 753.149L268.643 786.663L233.921 718.427Z" fill="#8005C2"/>
<path d="M233.921 718.427L199.199 650.191L165.685 753.149L233.921 718.427Z" fill="#8005C2"/>
<rect x="217.164" y="769.906" width="54.1375" height="54.1375" transform="rotate(-71.9693 217.164 769.906)" fill="#ECDAF6"/>
</g>
<g clip-path="url(#clip13_923_20758)">
<rect width="108.275" height="108.275" transform="translate(268.659 786.668) rotate(-71.9693)" fill="#ECDAF6"/>
<path d="M336.894 751.946L302.173 683.71L405.13 717.224L336.894 751.946Z" fill="#ECDAF6"/>
<path d="M336.894 751.946L405.13 717.224L371.616 820.182L336.894 751.946Z" fill="#ECDAF6"/>
<path d="M336.894 751.946L268.659 786.668L371.616 820.182L336.894 751.946Z" fill="#ECDAF6"/>
<path d="M336.894 751.946L302.173 683.71L268.659 786.668L336.894 751.946Z" fill="#ECDAF6"/>
<rect x="268.659" y="786.668" width="54.1375" height="54.1375" transform="rotate(-71.9693 268.659 786.668)" fill="#8005C2"/>
</g>
<g clip-path="url(#clip14_923_20758)">
<rect width="108.275" height="108.275" transform="translate(199.204 650.175) rotate(-71.9693)" fill="#8005C2"/>
<path fill-rule="evenodd" clip-rule="evenodd" d="M215.961 598.697L199.204 650.175L302.162 683.689L335.676 580.732L318.919 632.211L215.961 598.697Z" fill="#ECDAF6"/>
</g>
<g clip-path="url(#clip15_923_20758)">
<rect width="108.275" height="108.275" transform="translate(302.178 683.694) rotate(-71.9693)" fill="#ECDAF6"/>
<path d="M370.413 648.972L335.692 580.737L438.649 614.251L370.413 648.972Z" fill="#ECDAF6"/>
<path d="M370.413 648.972L438.649 614.251L405.135 717.208L370.413 648.972Z" fill="#ECDAF6"/>
<path d="M370.413 648.972L302.178 683.694L405.135 717.208L370.413 648.972Z" fill="#ECDAF6"/>
<path d="M370.413 648.972L335.692 580.737L302.178 683.694L370.413 648.972Z" fill="#ECDAF6"/>
<rect x="353.657" y="700.451" width="54.1375" height="54.1375" transform="rotate(-71.9693 353.657 700.451)" fill="#8005C2"/>
</g>
<g clip-path="url(#clip16_923_20758)">
<rect width="108.275" height="108.275" transform="translate(232.724 547.202) rotate(-71.9693)" fill="#ECDAF6"/>
<path fill-rule="evenodd" clip-rule="evenodd" d="M266.238 444.244L232.724 547.202L335.681 580.716L369.195 477.758L266.238 444.244ZM345.83 527.23C353.928 502.353 340.326 475.622 315.449 467.524C290.571 459.426 263.84 473.029 255.742 497.906C247.644 522.783 261.247 549.514 286.124 557.612C311.001 565.71 337.732 552.108 345.83 527.23Z" fill="#8005C2"/>
</g>
<g clip-path="url(#clip17_923_20758)">
<rect width="108.275" height="108.275" transform="translate(335.697 580.721) rotate(-71.9693)" fill="#ECDAF6"/>
<rect x="356.288" y="587.424" width="108.275" height="21.655" transform="rotate(-71.9693 356.288 587.424)" fill="#8005C2"/>
</g>
<g clip-path="url(#clip18_923_20758)">
<rect width="108.275" height="108.275" transform="translate(266.243 444.228) rotate(-71.9693)" fill="#ECDAF6"/>
<path d="M385.957 426.263C357.526 417.008 341.981 386.458 351.236 358.027L402.714 374.784L385.957 426.263Z" fill="#8005C2"/>
<path fill-rule="evenodd" clip-rule="evenodd" d="M299.757 341.27L266.243 444.228L369.2 477.742C312.338 459.233 281.247 398.132 299.757 341.27Z" fill="#8005C2"/>
</g>
<g clip-path="url(#clip19_923_20758)">
<rect width="108.275" height="108.275" transform="translate(369.216 477.747) rotate(-71.9693)" fill="#ECDAF6"/>
<path d="M437.452 443.026L369.216 477.747L472.174 511.261L437.452 443.026Z" fill="#ECDAF6"/>
<path d="M437.452 443.025L402.73 374.789L369.216 477.747L437.452 443.025Z" fill="#ECDAF6"/>
</g>
<g clip-path="url(#clip20_923_20758)">
<rect width="108.275" height="108.275" transform="translate(299.762 341.255) rotate(-71.9693)" fill="#8005C2"/>
<rect x="299.762" y="341.255" width="108.275" height="108.275" transform="rotate(-71.9693 299.762 341.255)" fill="#8005C2"/>
<g clip-path="url(#clip21_923_20758)">
<rect x="345.252" y="318.107" width="36.0917" height="36.0917" transform="rotate(-71.9693 345.252 318.107)" fill="#ECDAF6"/>
<rect x="334.081" y="352.426" width="36.0917" height="36.0917" transform="rotate(-71.9693 334.081 352.426)" fill="#ECDAF6"/>
<rect x="356.424" y="283.787" width="36.0917" height="36.0917" transform="rotate(-71.9693 356.424 283.787)" fill="#ECDAF6"/>
<rect x="310.933" y="306.935" width="36.0917" height="36.0917" transform="rotate(-71.9693 310.933 306.935)" fill="#ECDAF6"/>
</g>
</g>
<rect width="108.275" height="108.275" transform="translate(333.281 238.281) rotate(-71.9693)" fill="#8005C2"/>
<rect x="360.575" y="224.393" width="21.655" height="21.655" rx="10.8275" transform="rotate(-71.9693 360.575 224.393)" fill="#ECDAF6"/>
<rect width="108.275" height="108.275" transform="translate(366.8 135.307) rotate(-71.9693)" fill="#8005C2"/>
</g>
</g>
<defs>
<clipPath id="clip0_923_20758">
<rect width="108.275" height="108.275" fill="white" transform="translate(-4.32666 925.577) rotate(-71.9693)"/>
</clipPath>
<clipPath id="clip1_923_20758">
<rect width="108.275" height="108.275" fill="white" transform="translate(62.7117 719.63) rotate(-71.9693)"/>
</clipPath>
<clipPath id="clip2_923_20758">
<rect width="108.275" height="108.275" fill="white" transform="translate(96.2307 616.656) rotate(-71.9693)"/>
</clipPath>
<clipPath id="clip3_923_20758">
<rect width="108.275" height="108.275" fill="white" transform="translate(129.75 513.683) rotate(-71.9693)"/>
</clipPath>
<clipPath id="clip4_923_20758">
<rect width="108.275" height="108.275" fill="white" transform="translate(163.269 410.709) rotate(-71.9693)"/>
</clipPath>
<clipPath id="clip5_923_20758">
<rect width="108.275" height="108.275" fill="white" transform="translate(196.788 307.735) rotate(-71.9693)"/>
</clipPath>
<clipPath id="clip6_923_20758">
<rect width="108.275" height="108.275" fill="white" transform="translate(230.308 204.762) rotate(-71.9693)"/>
</clipPath>
<clipPath id="clip7_923_20758">
<rect width="108.275" height="108.275" fill="white" transform="translate(263.827 101.788) rotate(-71.9693)"/>
</clipPath>
<clipPath id="clip8_923_20758">
<rect width="108.275" height="108.275" fill="white" transform="translate(98.647 959.096) rotate(-71.9693)"/>
</clipPath>
<clipPath id="clip9_923_20758">
<rect width="108.275" height="108.275" fill="white" transform="translate(201.621 992.615) rotate(-71.9693)"/>
</clipPath>
<clipPath id="clip10_923_20758">
<rect width="108.275" height="108.275" fill="white" transform="translate(235.14 889.641) rotate(-71.9693)"/>
</clipPath>
<clipPath id="clip11_923_20758">
<rect width="108.275" height="108.275" fill="white" transform="translate(338.113 923.161) rotate(-71.9693)"/>
</clipPath>
<clipPath id="clip12_923_20758">
<rect width="108.275" height="108.275" fill="white" transform="translate(165.685 753.149) rotate(-71.9693)"/>
</clipPath>
<clipPath id="clip13_923_20758">
<rect width="108.275" height="108.275" fill="white" transform="translate(268.659 786.668) rotate(-71.9693)"/>
</clipPath>
<clipPath id="clip14_923_20758">
<rect width="108.275" height="108.275" fill="white" transform="translate(199.204 650.175) rotate(-71.9693)"/>
</clipPath>
<clipPath id="clip15_923_20758">
<rect width="108.275" height="108.275" fill="white" transform="translate(302.178 683.694) rotate(-71.9693)"/>
</clipPath>
<clipPath id="clip16_923_20758">
<rect width="108.275" height="108.275" fill="white" transform="translate(232.724 547.202) rotate(-71.9693)"/>
</clipPath>
<clipPath id="clip17_923_20758">
<rect width="108.275" height="108.275" fill="white" transform="translate(335.697 580.721) rotate(-71.9693)"/>
</clipPath>
<clipPath id="clip18_923_20758">
<rect width="108.275" height="108.275" fill="white" transform="translate(266.243 444.228) rotate(-71.9693)"/>
</clipPath>
<clipPath id="clip19_923_20758">
<rect width="108.275" height="108.275" fill="white" transform="translate(369.216 477.747) rotate(-71.9693)"/>
</clipPath>
<clipPath id="clip20_923_20758">
<rect width="108.275" height="108.275" fill="white" transform="translate(299.762 341.255) rotate(-71.9693)"/>
</clipPath>
<clipPath id="clip21_923_20758">
<rect width="108.275" height="108.275" fill="white" transform="translate(299.762 341.255) rotate(-71.9693)"/>
</clipPath>
</defs>
</svg>
