<svg width="145" height="145" viewBox="0 0 145 145" fill="none" xmlns="http://www.w3.org/2000/svg">
<g opacity="0.05">
<circle cx="72.4888" cy="72.5294" r="53.3106" transform="rotate(28.8713 72.4888 72.5294)" fill="url(#paint0_linear_931_27768)"/>
<circle cx="72.4888" cy="72.5294" r="41.0082" transform="rotate(118.871 72.4888 72.5294)" fill="url(#paint1_linear_931_27768)"/>
<path d="M52.849 68.2288L55.7693 62.9325C56.1401 62.26 56.6618 62.1091 57.3343 62.4799L60.1716 64.0443L63.7871 57.4871C66.1511 53.1996 69.2032 50.4974 72.9434 49.3805C76.6836 48.2636 80.7814 48.9335 85.237 51.3902C94.1482 56.3036 96.3826 63.2362 91.9402 72.1878C91.5462 72.9024 91.0129 73.0743 90.3404 72.7034L82.9004 68.6012C82.2699 68.2535 82.1096 67.6993 82.4195 66.9383C83.1089 65.2904 83.2912 63.9657 82.9663 62.9644C82.7066 61.9442 81.9252 61.0749 80.6222 60.3564C77.7218 58.7572 75.2287 59.8492 73.1428 63.6322L69.9445 69.4329L82.1133 76.1425C82.7858 76.5133 82.9367 77.035 82.5659 77.7075L79.6456 83.0038C79.2748 83.6764 78.7531 83.8272 78.0806 83.4564L65.9118 76.7468L61.149 85.3848L77.9836 94.6669C78.6561 95.0378 78.807 95.5595 78.4361 96.232L74.7511 102.915C74.3802 103.588 73.8586 103.739 73.186 103.368L43.7413 87.1328C43.0687 86.762 42.9179 86.2403 43.2887 85.5678L46.9738 78.8844C47.3446 78.2118 47.8663 78.061 48.5388 78.4318L51.3761 79.9962L56.1389 71.3582L53.3016 69.7938C52.629 69.423 52.4782 68.9013 52.849 68.2288Z" fill="#8005C2"/>
</g>
<defs>
<linearGradient id="paint0_linear_931_27768" x1="72.4888" y1="19.2188" x2="72.4888" y2="125.84" gradientUnits="userSpaceOnUse">
<stop stop-color="#F2E6F9"/>
<stop offset="1" stop-color="#911BD1"/>
</linearGradient>
<linearGradient id="paint1_linear_931_27768" x1="72.4888" y1="31.5212" x2="72.4888" y2="113.538" gradientUnits="userSpaceOnUse">
<stop stop-color="#F2E6F9"/>
<stop offset="1" stop-color="#C086DE"/>
</linearGradient>
</defs>
</svg>
