<svg width="977" height="646" viewBox="0 0 977 646" fill="none" xmlns="http://www.w3.org/2000/svg">
<g clip-path="url(#clip0_931_27552)">
<rect width="108.275" height="108.275" transform="translate(1.32673 -4.18457)" fill="#B0B0B0"/>
<path d="M55.4642 49.9529L109.602 -4.18457V104.09L55.4642 49.9529Z" fill="#B0B0B0"/>
<path d="M55.4642 49.9529L109.602 104.09L1.32673 104.09L55.4642 49.9529Z" fill="#B0B0B0"/>
<path d="M55.4642 49.9529L1.32674 -4.18457V104.09L55.4642 49.9529Z" fill="#B0B0B0"/>
<path d="M55.4642 49.9529L109.602 -4.18461L1.32673 -4.18461L55.4642 49.9529Z" fill="#B0B0B0"/>
<path fill-rule="evenodd" clip-rule="evenodd" d="M109.602 -4.18457H55.4642C55.4642 25.7147 31.226 49.9529 1.32673 49.9529V104.09C61.1253 104.09 109.602 55.614 109.602 -4.18457Z" fill="#F2F2F2"/>
</g>
<rect width="108.275" height="108.275" transform="translate(109.619 -4.18457)" fill="#B0B0B0"/>
<rect x="142.101" y="28.2979" width="43.31" height="43.31" fill="#F2F2F2"/>
<g clip-path="url(#clip1_931_27552)">
<rect width="108.275" height="108.275" transform="translate(217.91 -4.18457)" fill="#F2F2F2"/>
<path d="M272.048 49.9529L326.185 -4.18457V104.09L272.048 49.9529Z" fill="#B0B0B0"/>
<path d="M272.048 49.9529L326.185 104.09L217.91 104.09L272.048 49.9529Z" fill="#B0B0B0"/>
<path d="M272.048 49.9529L217.91 -4.18457V104.09L272.048 49.9529Z" fill="#B0B0B0"/>
<path d="M272.048 49.9529L326.185 -4.18461L217.91 -4.18461L272.048 49.9529Z" fill="#B0B0B0"/>
<rect x="239.565" y="104.09" width="108.275" height="21.655" transform="rotate(-90 239.565 104.09)" fill="#F2F2F2"/>
<rect x="282.875" y="104.09" width="108.275" height="21.655" transform="rotate(-90 282.875 104.09)" fill="#F2F2F2"/>
</g>
<rect width="108.275" height="108.275" transform="translate(326.202 -4.18457)" fill="#B0B0B0"/>
<path fill-rule="evenodd" clip-rule="evenodd" d="M380.339 2.58252C354.177 2.58252 332.969 23.7909 332.969 49.9528C332.969 76.1147 354.177 97.3231 380.339 97.3231C406.501 97.3231 427.709 76.1147 427.709 49.9528C427.709 23.7909 406.501 2.58252 380.339 2.58252ZM380.339 15.9254L346.312 49.9529L380.339 83.9805L414.367 49.9529L380.339 15.9254Z" fill="#F2F2F2"/>
<g clip-path="url(#clip2_931_27552)">
<rect width="108.275" height="108.275" transform="translate(434.493 -4.18457)" fill="#F2F2F2"/>
<path d="M434.493 104.09C434.493 44.2918 482.97 -4.18457 542.768 -4.18457V104.09H434.493Z" fill="#B0B0B0"/>
</g>
<g clip-path="url(#clip3_931_27552)">
<rect width="108.275" height="108.275" transform="translate(542.785 -4.18457)" fill="#F2F2F2"/>
<path d="M542.785 104.09C542.785 44.2918 591.262 -4.18457 651.06 -4.18457V104.09H542.785Z" fill="#B0B0B0"/>
</g>
<g clip-path="url(#clip4_931_27552)">
<rect width="108.275" height="108.275" transform="translate(651.077 -4.18457)" fill="#F2F2F2"/>
<path d="M705.214 49.9529L759.352 -4.18457V104.09L705.214 49.9529Z" fill="#B0B0B0"/>
<path d="M705.214 49.9529L759.352 104.09L651.077 104.09L705.214 49.9529Z" fill="#B0B0B0"/>
<path d="M705.214 49.9529L651.077 -4.18457V104.09L705.214 49.9529Z" fill="#B0B0B0"/>
<path d="M705.214 49.9529L759.352 -4.18461L651.077 -4.18461L705.214 49.9529Z" fill="#B0B0B0"/>
<rect x="705.214" y="-4.18457" width="54.1375" height="54.1375" fill="#F2F2F2"/>
</g>
<g clip-path="url(#clip5_931_27552)">
<rect width="108.275" height="108.275" transform="translate(759.368 -4.18457)" fill="#F2F2F2"/>
<path d="M813.506 49.9529L867.643 -4.18457V104.09L813.506 49.9529Z" fill="#B0B0B0"/>
<path d="M813.506 49.9529L867.643 104.09L759.368 104.09L813.506 49.9529Z" fill="#B0B0B0"/>
<path d="M813.506 49.9529L759.368 -4.18457V104.09L813.506 49.9529Z" fill="#B0B0B0"/>
<path d="M813.506 49.9529L867.643 -4.18461L759.368 -4.18461L813.506 49.9529Z" fill="#B0B0B0"/>
<rect x="759.368" y="-4.18457" width="54.1375" height="54.1375" fill="#F2F2F2"/>
</g>
<g clip-path="url(#clip6_931_27552)">
<rect width="108.275" height="108.275" transform="translate(867.66 -4.18457)" fill="#F2F2F2"/>
<path d="M921.798 49.9529L975.935 -4.18457V104.09L921.798 49.9529Z" fill="#F2F2F2"/>
<path d="M921.798 49.9529L975.935 104.09L867.66 104.09L921.798 49.9529Z" fill="#F2F2F2"/>
<path d="M921.798 49.9529L867.66 -4.18457V104.09L921.798 49.9529Z" fill="#F2F2F2"/>
<path d="M921.798 49.9529L975.935 -4.18461L867.66 -4.18461L921.798 49.9529Z" fill="#F2F2F2"/>
<path d="M867.66 -4.18457H975.935V104.09C916.137 104.09 867.66 55.614 867.66 -4.18457Z" fill="#B0B0B0"/>
<path d="M921.798 -4.18457H975.935V49.9529C946.036 49.9529 921.798 25.7147 921.798 -4.18457Z" fill="#B0B0B0"/>
</g>
<g clip-path="url(#clip7_931_27552)">
<rect width="108.275" height="108.275" transform="translate(1.32684 104.107)" fill="#B0B0B0"/>
<path d="M55.4643 158.245L109.602 104.107V212.382L55.4643 158.245Z" fill="#B0B0B0"/>
<path d="M55.4643 158.245L109.602 212.382L1.32683 212.382L55.4643 158.245Z" fill="#B0B0B0"/>
<path d="M55.4643 158.245L1.32684 104.107V212.382L55.4643 158.245Z" fill="#B0B0B0"/>
<path d="M55.4643 158.245L109.602 104.107L1.32684 104.107L55.4643 158.245Z" fill="#B0B0B0"/>
<path d="M1.32684 104.107C61.1254 104.107 109.602 152.584 109.602 212.382H1.32684V104.107Z" fill="#F2F2F2"/>
<path d="M1.32684 158.245C31.2261 158.245 55.4643 182.483 55.4643 212.382H1.32684V158.245Z" fill="#B0B0B0"/>
</g>
<g clip-path="url(#clip8_931_27552)">
<rect width="108.275" height="108.275" transform="translate(1.32684 212.399)" fill="#B0B0B0"/>
<rect x="1.32684" y="234.054" width="108.275" height="21.655" fill="#F2F2F2"/>
<rect x="1.32684" y="277.364" width="108.275" height="21.655" fill="#F2F2F2"/>
</g>
<rect width="108.275" height="108.275" transform="translate(1.32684 320.69)" fill="#F2F2F2"/>
<rect x="33.8093" y="353.173" width="43.31" height="43.31" rx="21.655" fill="#B0B0B0"/>
<rect width="108.275" height="108.275" transform="translate(1.32684 428.982)" fill="#F2F2F2"/>
<rect x="22.9818" y="450.637" width="21.655" height="21.655" fill="#B0B0B0"/>
<rect x="22.9818" y="493.947" width="21.655" height="21.655" fill="#B0B0B0"/>
<rect x="66.2918" y="450.637" width="21.655" height="21.655" fill="#B0B0B0"/>
<rect x="66.2918" y="493.947" width="21.655" height="21.655" fill="#B0B0B0"/>
<g clip-path="url(#clip9_931_27552)">
<rect width="108.275" height="108.275" transform="translate(1.32684 537.274)" fill="#F2F2F2"/>
<path d="M55.4643 591.411L109.602 537.274V645.549L55.4643 591.411Z" fill="#F2F2F2"/>
<path d="M55.4643 591.411L109.602 645.549L1.32683 645.549L55.4643 591.411Z" fill="#F2F2F2"/>
<path d="M55.4643 591.411L1.32684 537.274V645.549L55.4643 591.411Z" fill="#F2F2F2"/>
<path d="M55.4643 591.411L109.602 537.274L1.32684 537.274L55.4643 591.411Z" fill="#F2F2F2"/>
<path d="M1.32684 591.411C31.2261 591.411 55.4643 615.65 55.4643 645.549H1.32684V591.411Z" fill="#B0B0B0"/>
</g>
<g clip-path="url(#clip10_931_27552)">
<rect width="108.275" height="108.275" transform="translate(109.619 104.107)" fill="#B0B0B0"/>
<rect x="163.756" y="158.245" width="54.1375" height="54.1375" fill="#F2F2F2"/>
</g>
<g clip-path="url(#clip11_931_27552)">
<rect width="108.275" height="108.275" transform="translate(109.619 212.399)" fill="#B0B0B0"/>
<path d="M163.756 266.536L217.894 212.399V320.674L163.756 266.536Z" fill="#B0B0B0"/>
<path d="M163.756 266.536L217.894 320.674L109.619 320.674L163.756 266.536Z" fill="#B0B0B0"/>
<path d="M163.756 266.536L109.619 212.399V320.674L163.756 266.536Z" fill="#B0B0B0"/>
<path d="M163.756 266.536L217.894 212.399L109.619 212.399L163.756 266.536Z" fill="#B0B0B0"/>
<rect x="163.756" y="212.399" width="54.1375" height="54.1375" fill="#F2F2F2"/>
</g>
<g clip-path="url(#clip12_931_27552)">
<rect width="108.275" height="108.275" transform="translate(109.619 320.69)" fill="#B0B0B0"/>
<path fill-rule="evenodd" clip-rule="evenodd" d="M217.894 320.69H109.619V428.965H217.894V320.69ZM163.619 422.061C189.78 422.061 210.989 400.852 210.989 374.69C210.989 348.529 189.78 327.32 163.619 327.32C137.457 327.32 116.248 348.529 116.248 374.69C116.248 400.852 137.457 422.061 163.619 422.061Z" fill="#F2F2F2"/>
</g>
<g clip-path="url(#clip13_931_27552)">
<rect width="108.275" height="108.275" transform="translate(109.619 428.982)" fill="#F2F2F2"/>
<path d="M163.756 483.119L217.894 428.982V537.257L163.756 483.119Z" fill="#F2F2F2"/>
<path d="M163.756 483.119L217.894 537.257L109.619 537.257L163.756 483.119Z" fill="#F2F2F2"/>
<path d="M163.756 483.119L109.619 428.982V537.257L163.756 483.119Z" fill="#F2F2F2"/>
<path d="M163.756 483.119L217.894 428.982L109.619 428.982L163.756 483.119Z" fill="#F2F2F2"/>
<path d="M109.619 483.119C139.518 483.119 163.756 507.358 163.756 537.257H109.619V483.119Z" fill="#B0B0B0"/>
</g>
<g clip-path="url(#clip14_931_27552)">
<rect width="108.275" height="108.275" transform="translate(109.619 537.274)" fill="#F2F2F2"/>
<path d="M163.756 591.411L217.894 537.274V645.549L163.756 591.411Z" fill="#F2F2F2"/>
<path d="M163.756 591.411L217.894 645.549L109.619 645.549L163.756 591.411Z" fill="#F2F2F2"/>
<path d="M163.756 591.411L109.619 537.274V645.549L163.756 591.411Z" fill="#F2F2F2"/>
<path d="M163.756 591.411L217.894 537.274L109.619 537.274L163.756 591.411Z" fill="#F2F2F2"/>
<path d="M163.756 537.274H217.894V591.411C187.994 591.411 163.756 567.173 163.756 537.274Z" fill="#B0B0B0"/>
</g>
<g clip-path="url(#clip15_931_27552)">
<rect width="108.275" height="108.275" transform="translate(217.91 104.107)" fill="#B0B0B0"/>
<path d="M272.048 158.245L326.185 104.107V212.382L272.048 158.245Z" fill="#B0B0B0"/>
<path d="M272.048 158.245L326.185 212.382L217.91 212.382L272.048 158.245Z" fill="#B0B0B0"/>
<path d="M272.048 158.245L217.91 104.107V212.382L272.048 158.245Z" fill="#B0B0B0"/>
<path d="M272.048 158.245L326.185 104.107L217.91 104.107L272.048 158.245Z" fill="#B0B0B0"/>
<rect x="217.91" y="158.245" width="54.1375" height="54.1375" fill="#F2F2F2"/>
</g>
<g clip-path="url(#clip16_931_27552)">
<rect width="108.275" height="108.275" transform="translate(217.91 212.399)" fill="#F2F2F2"/>
<path d="M272.048 266.536L326.185 212.399V320.674L272.048 266.536Z" fill="#F2F2F2"/>
<path d="M272.048 266.536L326.185 320.674L217.91 320.674L272.048 266.536Z" fill="#F2F2F2"/>
<path d="M272.048 266.536L217.91 212.399V320.674L272.048 266.536Z" fill="#F2F2F2"/>
<path d="M272.048 266.536L326.185 212.399L217.91 212.399L272.048 266.536Z" fill="#F2F2F2"/>
<rect x="217.91" y="212.399" width="54.1375" height="54.1375" fill="#B0B0B0"/>
</g>
<g clip-path="url(#clip17_931_27552)">
<rect width="108.275" height="108.275" transform="translate(217.91 320.69)" fill="#F2F2F2"/>
<path d="M272.048 428.965C272.048 399.066 296.286 374.828 326.185 374.828V428.965H272.048Z" fill="#B0B0B0"/>
</g>
<g clip-path="url(#clip18_931_27552)">
<rect width="108.275" height="108.275" transform="translate(217.91 428.982)" fill="#F2F2F2"/>
<path d="M272.048 483.119L326.185 428.982V537.257L272.048 483.119Z" fill="#F2F2F2"/>
<path d="M272.048 483.119L326.185 537.257L217.91 537.257L272.048 483.119Z" fill="#F2F2F2"/>
<path d="M272.048 483.119L217.91 428.982V537.257L272.048 483.119Z" fill="#F2F2F2"/>
<path d="M272.048 483.119L326.185 428.982L217.91 428.982L272.048 483.119Z" fill="#F2F2F2"/>
<path fill-rule="evenodd" clip-rule="evenodd" d="M272.048 428.982H217.91C217.91 488.781 266.387 537.257 326.185 537.257V483.119C296.286 483.119 272.048 458.881 272.048 428.982Z" fill="#B0B0B0"/>
</g>
<g clip-path="url(#clip19_931_27552)">
<rect width="108.275" height="108.275" transform="translate(217.91 537.274)" fill="#F2F2F2"/>
<rect x="272.048" y="591.411" width="54.1375" height="54.1375" fill="#B0B0B0"/>
</g>
<g clip-path="url(#clip20_931_27552)">
<rect width="108.275" height="108.275" transform="translate(326.202 104.107)" fill="#B0B0B0"/>
<path fill-rule="evenodd" clip-rule="evenodd" d="M380.339 104.107H326.202V212.382H380.339V104.107Z" fill="#F2F2F2"/>
</g>
<g clip-path="url(#clip21_931_27552)">
<rect width="108.275" height="108.275" transform="translate(326.202 212.399)" fill="#F2F2F2"/>
<path d="M380.339 266.536L434.477 212.399V320.674L380.339 266.536Z" fill="#F2F2F2"/>
<path d="M380.339 266.536L434.477 320.674L326.202 320.674L380.339 266.536Z" fill="#F2F2F2"/>
<path d="M380.339 266.536L326.202 212.399V320.674L380.339 266.536Z" fill="#F2F2F2"/>
<path d="M380.339 266.536L434.477 212.399L326.202 212.399L380.339 266.536Z" fill="#F2F2F2"/>
<rect x="326.202" y="266.536" width="54.1375" height="54.1375" fill="#B0B0B0"/>
</g>
<rect width="108.275" height="108.275" transform="translate(326.202 320.69)" fill="#F2F2F2"/>
<rect x="349.715" y="374.828" width="43.31" height="43.31" transform="rotate(-45 349.715 374.828)" fill="#B0B0B0"/>
<g clip-path="url(#clip22_931_27552)">
<rect width="108.275" height="108.275" transform="translate(326.202 428.982)" fill="#F2F2F2"/>
<path d="M380.339 483.119L434.477 428.982V537.257L380.339 483.119Z" fill="#F2F2F2"/>
<path d="M380.339 483.119L434.477 537.257L326.202 537.257L380.339 483.119Z" fill="#F2F2F2"/>
<path d="M380.339 483.119L326.202 428.982V537.257L380.339 483.119Z" fill="#F2F2F2"/>
<path d="M380.339 483.119L434.477 428.982L326.202 428.982L380.339 483.119Z" fill="#F2F2F2"/>
<path d="M326.202 428.982H380.339C380.339 458.881 356.101 483.119 326.202 483.119V428.982Z" fill="#B0B0B0"/>
</g>
<rect width="108.275" height="108.275" transform="translate(326.202 537.274)" fill="#F2F2F2"/>
<rect x="347.857" y="558.929" width="21.655" height="21.655" rx="10.8275" fill="#B0B0B0"/>
<rect x="347.857" y="602.239" width="21.655" height="21.655" rx="10.8275" fill="#B0B0B0"/>
<rect x="391.167" y="558.929" width="21.655" height="21.655" rx="10.8275" fill="#B0B0B0"/>
<rect x="391.167" y="602.239" width="21.655" height="21.655" rx="10.8275" fill="#B0B0B0"/>
<g clip-path="url(#clip23_931_27552)">
<rect width="108.275" height="108.275" transform="translate(434.493 104.107)" fill="#F2F2F2"/>
<path fill-rule="evenodd" clip-rule="evenodd" d="M542.768 104.107H434.493V212.382H542.768V104.107ZM488.493 205.478C514.655 205.478 535.864 184.269 535.864 158.107C535.864 131.945 514.655 110.737 488.493 110.737C462.331 110.737 441.123 131.945 441.123 158.107C441.123 184.269 462.331 205.478 488.493 205.478Z" fill="#B0B0B0"/>
</g>
<g clip-path="url(#clip24_931_27552)">
<rect width="108.275" height="108.275" transform="translate(434.493 212.399)" fill="#F2F2F2"/>
<rect x="434.493" y="234.054" width="108.275" height="21.655" fill="#B0B0B0"/>
<rect x="434.493" y="277.364" width="108.275" height="21.655" fill="#B0B0B0"/>
</g>
<rect width="108.275" height="108.275" transform="translate(434.493 320.69)" fill="#F2F2F2"/>
<rect x="466.976" y="353.173" width="43.31" height="43.31" fill="#B0B0B0"/>
<g clip-path="url(#clip25_931_27552)">
<rect width="108.275" height="108.275" transform="translate(434.493 428.982)" fill="#F2F2F2"/>
<path d="M488.631 483.119L542.768 428.982V537.257L488.631 483.119Z" fill="#F2F2F2"/>
<path d="M488.631 483.119L542.768 537.257L434.493 537.257L488.631 483.119Z" fill="#F2F2F2"/>
<path d="M488.631 483.119L434.493 428.982V537.257L488.631 483.119Z" fill="#F2F2F2"/>
<path d="M488.631 483.119L542.768 428.982L434.493 428.982L488.631 483.119Z" fill="#F2F2F2"/>
<rect x="434.493" y="483.119" width="54.1375" height="54.1375" fill="#B0B0B0"/>
</g>
<g clip-path="url(#clip26_931_27552)">
<rect width="108.275" height="108.275" transform="translate(434.493 537.274)" fill="#F2F2F2"/>
<path d="M488.631 645.549C488.631 615.65 512.869 591.411 542.768 591.411V645.549H488.631Z" fill="#B0B0B0"/>
</g>
<g clip-path="url(#clip27_931_27552)">
<rect width="108.275" height="108.275" transform="translate(542.785 104.107)" fill="#F2F2F2"/>
<path d="M596.923 212.382C596.923 182.483 621.161 158.245 651.06 158.245V212.382H596.923Z" fill="#B0B0B0"/>
<path fill-rule="evenodd" clip-rule="evenodd" d="M651.06 104.107H542.785V212.382C542.785 152.584 591.262 104.107 651.06 104.107Z" fill="#B0B0B0"/>
</g>
<g clip-path="url(#clip28_931_27552)">
<rect width="108.275" height="108.275" transform="translate(542.785 212.399)" fill="#F2F2F2"/>
<path d="M596.923 266.536L651.06 212.399V320.674L596.923 266.536Z" fill="#F2F2F2"/>
<path d="M596.923 266.536L651.06 320.674L542.785 320.674L596.923 266.536Z" fill="#F2F2F2"/>
<path d="M596.923 266.536L542.785 212.399V320.674L596.923 266.536Z" fill="#F2F2F2"/>
<path d="M596.923 266.536L651.06 212.399L542.785 212.399L596.923 266.536Z" fill="#F2F2F2"/>
<path d="M596.923 212.399H651.06V266.536C621.161 266.536 596.923 242.298 596.923 212.399Z" fill="#B0B0B0"/>
</g>
<rect width="108.275" height="108.275" transform="translate(542.785 320.69)" fill="#F2F2F2"/>
<rect x="564.44" y="342.345" width="21.655" height="21.655" rx="10.8275" fill="#B0B0B0"/>
<rect x="564.44" y="385.656" width="21.655" height="21.655" rx="10.8275" fill="#B0B0B0"/>
<rect x="607.75" y="342.345" width="21.655" height="21.655" rx="10.8275" fill="#B0B0B0"/>
<rect x="607.75" y="385.656" width="21.655" height="21.655" rx="10.8275" fill="#B0B0B0"/>
<g clip-path="url(#clip29_931_27552)">
<rect width="108.275" height="108.275" transform="translate(542.785 428.982)" fill="#F2F2F2"/>
<path d="M596.923 537.257C596.923 507.358 621.161 483.119 651.06 483.119V537.257H596.923Z" fill="#B0B0B0"/>
</g>
<g clip-path="url(#clip30_931_27552)">
<rect width="108.275" height="108.275" transform="translate(542.785 537.274)" fill="#F2F2F2"/>
<path d="M596.923 591.411L651.06 537.274V645.549L596.923 591.411Z" fill="#F2F2F2"/>
<path d="M596.923 591.411L651.06 645.549L542.785 645.549L596.923 591.411Z" fill="#F2F2F2"/>
<path d="M596.923 591.411L542.785 537.274V645.549L596.923 591.411Z" fill="#F2F2F2"/>
<path d="M596.923 591.411L651.06 537.274L542.785 537.274L596.923 591.411Z" fill="#F2F2F2"/>
<path fill-rule="evenodd" clip-rule="evenodd" d="M596.923 537.274H542.785C542.785 597.073 591.262 645.549 651.06 645.549V591.411C621.161 591.411 596.923 567.173 596.923 537.274Z" fill="#B0B0B0"/>
</g>
<g clip-path="url(#clip31_931_27552)">
<rect width="108.275" height="108.275" transform="translate(651.077 104.107)" fill="#B0B0B0"/>
<rect x="651.077" y="104.107" width="108.275" height="108.275" fill="#B0B0B0"/>
<g clip-path="url(#clip32_931_27552)">
<rect x="687.168" y="140.199" width="36.0917" height="36.0917" fill="#F2F2F2"/>
<rect x="651.077" y="140.199" width="36.0917" height="36.0917" fill="#F2F2F2"/>
<rect x="723.26" y="140.199" width="36.0917" height="36.0917" fill="#F2F2F2"/>
<rect x="687.168" y="104.107" width="36.0917" height="36.0917" fill="#F2F2F2"/>
<rect x="687.168" y="176.29" width="36.0917" height="36.0917" fill="#F2F2F2"/>
</g>
</g>
<g clip-path="url(#clip33_931_27552)">
<rect width="108.275" height="108.275" transform="translate(651.077 212.399)" fill="#F2F2F2"/>
<path d="M705.214 266.536L759.352 212.399V320.674L705.214 266.536Z" fill="#F2F2F2"/>
<path d="M705.214 266.536L759.352 320.674L651.077 320.674L705.214 266.536Z" fill="#F2F2F2"/>
<path d="M705.214 266.536L651.077 212.399V320.674L705.214 266.536Z" fill="#F2F2F2"/>
<path d="M705.214 266.536L759.352 212.399L651.077 212.399L705.214 266.536Z" fill="#F2F2F2"/>
<path d="M651.077 212.399H759.352C759.352 272.197 710.875 320.674 651.077 320.674V212.399Z" fill="#B0B0B0"/>
<path d="M651.077 212.399H705.214C705.214 242.298 680.976 266.536 651.077 266.536V212.399Z" fill="#B0B0B0"/>
</g>
<g clip-path="url(#clip34_931_27552)">
<rect width="108.275" height="108.275" transform="translate(651.077 320.69)" fill="#B0B0B0"/>
<path d="M705.214 374.828L759.352 320.69V428.965L705.214 374.828Z" fill="#F2F2F2"/>
<path d="M705.214 374.828L759.352 428.965L651.077 428.965L705.214 374.828Z" fill="#F2F2F2"/>
<path d="M705.214 374.828L651.077 320.69V428.965L705.214 374.828Z" fill="#F2F2F2"/>
<path d="M705.214 374.828L759.352 320.69L651.077 320.69L705.214 374.828Z" fill="#F2F2F2"/>
<rect x="651.077" y="374.828" width="54.1375" height="54.1375" fill="#B0B0B0"/>
</g>
<g clip-path="url(#clip35_931_27552)">
<rect width="108.275" height="108.275" transform="translate(651.077 428.982)" fill="#F2F2F2"/>
<path d="M705.214 483.119L759.352 428.982V537.257L705.214 483.119Z" fill="#F2F2F2"/>
<path d="M705.214 483.119L759.352 537.257L651.077 537.257L705.214 483.119Z" fill="#F2F2F2"/>
<path d="M705.214 483.119L651.077 428.982V537.257L705.214 483.119Z" fill="#F2F2F2"/>
<path d="M705.214 483.119L759.352 428.982L651.077 428.982L705.214 483.119Z" fill="#F2F2F2"/>
<path d="M651.077 428.982H705.214C705.214 458.881 680.976 483.119 651.077 483.119V428.982Z" fill="#B0B0B0"/>
</g>
<g clip-path="url(#clip36_931_27552)">
<rect width="108.275" height="108.275" transform="translate(651.077 537.274)" fill="#F2F2F2"/>
<path d="M705.214 591.411L759.352 537.274V645.549L705.214 591.411Z" fill="#F2F2F2"/>
<path d="M705.214 591.411L759.352 645.549L651.077 645.549L705.214 591.411Z" fill="#F2F2F2"/>
<path d="M705.214 591.411L651.077 537.274V645.549L705.214 591.411Z" fill="#F2F2F2"/>
<path d="M705.214 591.411L759.352 537.274L651.077 537.274L705.214 591.411Z" fill="#F2F2F2"/>
<path d="M651.077 591.411C680.976 591.411 705.214 615.65 705.214 645.549H651.077V591.411Z" fill="#B0B0B0"/>
</g>
<rect width="108.275" height="108.275" transform="translate(759.368 104.107)" fill="#B0B0B0"/>
<rect x="781.023" y="125.762" width="21.655" height="21.655" rx="10.8275" fill="#F2F2F2"/>
<rect x="781.023" y="169.072" width="21.655" height="21.655" rx="10.8275" fill="#F2F2F2"/>
<rect x="824.333" y="125.762" width="21.655" height="21.655" rx="10.8275" fill="#F2F2F2"/>
<rect x="824.333" y="169.072" width="21.655" height="21.655" rx="10.8275" fill="#F2F2F2"/>
<rect width="108.275" height="108.275" transform="translate(759.368 212.399)" fill="#B0B0B0"/>
<path fill-rule="evenodd" clip-rule="evenodd" d="M813.506 219.166C787.344 219.166 766.135 240.374 766.135 266.536C766.135 292.698 787.344 313.906 813.506 313.906C839.668 313.906 860.876 292.698 860.876 266.536C860.876 240.374 839.668 219.166 813.506 219.166ZM813.506 232.509L779.478 266.536L813.506 300.564L847.533 266.536L813.506 232.509Z" fill="#F2F2F2"/>
<rect width="108.275" height="108.275" transform="translate(759.368 320.69)" fill="#F2F2F2"/>
<rect x="791.851" y="353.173" width="43.31" height="43.31" rx="21.655" fill="#B0B0B0"/>
<rect width="108.275" height="108.275" transform="translate(759.368 428.982)" fill="#F2F2F2"/>
<rect x="781.023" y="450.637" width="21.655" height="21.655" fill="#B0B0B0"/>
<rect x="781.023" y="493.947" width="21.655" height="21.655" fill="#B0B0B0"/>
<rect x="824.333" y="450.637" width="21.655" height="21.655" fill="#B0B0B0"/>
<rect x="824.333" y="493.947" width="21.655" height="21.655" fill="#B0B0B0"/>
<g clip-path="url(#clip37_931_27552)">
<rect width="108.275" height="108.275" transform="translate(759.368 537.274)" fill="#F2F2F2"/>
<path fill-rule="evenodd" clip-rule="evenodd" d="M867.643 537.274H759.368V645.549H867.643V537.274ZM813.368 638.644C839.53 638.644 860.739 617.436 860.739 591.274C860.739 565.112 839.53 543.904 813.368 543.904C787.206 543.904 765.998 565.112 765.998 591.274C765.998 617.436 787.206 638.644 813.368 638.644Z" fill="#B0B0B0"/>
</g>
<rect width="108.275" height="108.275" transform="translate(867.66 104.107)" fill="#B0B0B0"/>
<rect x="900.143" y="136.59" width="43.31" height="43.31" fill="#F2F2F2"/>
<g clip-path="url(#clip38_931_27552)">
<rect width="108.275" height="108.275" transform="translate(867.66 212.399)" fill="#F2F2F2"/>
<path d="M921.798 320.674C921.798 290.774 946.036 266.536 975.935 266.536V320.674H921.798Z" fill="#B0B0B0"/>
<path fill-rule="evenodd" clip-rule="evenodd" d="M975.935 212.399H867.66V320.674C867.66 260.875 916.137 212.399 975.935 212.399Z" fill="#B0B0B0"/>
</g>
<g clip-path="url(#clip39_931_27552)">
<rect width="108.275" height="108.275" transform="translate(867.66 320.69)" fill="#F2F2F2"/>
<path d="M921.798 374.828L975.935 320.69V428.965L921.798 374.828Z" fill="#F2F2F2"/>
<path d="M921.798 374.828L975.935 428.965L867.66 428.965L921.798 374.828Z" fill="#F2F2F2"/>
<path d="M921.798 374.828L867.66 320.69V428.965L921.798 374.828Z" fill="#F2F2F2"/>
<path d="M921.798 374.828L975.935 320.69L867.66 320.69L921.798 374.828Z" fill="#F2F2F2"/>
<path d="M921.798 320.69H975.935V374.828C946.036 374.828 921.798 350.59 921.798 320.69Z" fill="#B0B0B0"/>
</g>
<g clip-path="url(#clip40_931_27552)">
<rect width="108.275" height="108.275" transform="translate(867.66 428.982)" fill="#B0B0B0"/>
<rect x="867.66" y="450.637" width="108.275" height="21.655" fill="#F2F2F2"/>
<rect x="867.66" y="493.947" width="108.275" height="21.655" fill="#F2F2F2"/>
</g>
<g clip-path="url(#clip41_931_27552)">
<rect width="108.275" height="108.275" transform="translate(867.66 537.274)" fill="#F2F2F2"/>
<path d="M921.798 591.411L975.935 537.274V645.549L921.798 591.411Z" fill="#F2F2F2"/>
<path d="M921.798 591.411L975.935 645.549L867.66 645.549L921.798 591.411Z" fill="#F2F2F2"/>
<path d="M921.798 591.411L867.66 537.274V645.549L921.798 591.411Z" fill="#F2F2F2"/>
<path d="M921.798 591.411L975.935 537.274L867.66 537.274L921.798 591.411Z" fill="#F2F2F2"/>
<rect x="921.798" y="591.411" width="54.1375" height="54.1375" fill="#B0B0B0"/>
</g>
<defs>
<clipPath id="clip0_931_27552">
<rect width="108.275" height="108.275" fill="white" transform="translate(1.32673 -4.18457)"/>
</clipPath>
<clipPath id="clip1_931_27552">
<rect width="108.275" height="108.275" fill="white" transform="translate(217.91 -4.18457)"/>
</clipPath>
<clipPath id="clip2_931_27552">
<rect width="108.275" height="108.275" fill="white" transform="translate(434.493 -4.18457)"/>
</clipPath>
<clipPath id="clip3_931_27552">
<rect width="108.275" height="108.275" fill="white" transform="translate(542.785 -4.18457)"/>
</clipPath>
<clipPath id="clip4_931_27552">
<rect width="108.275" height="108.275" fill="white" transform="translate(651.077 -4.18457)"/>
</clipPath>
<clipPath id="clip5_931_27552">
<rect width="108.275" height="108.275" fill="white" transform="translate(759.368 -4.18457)"/>
</clipPath>
<clipPath id="clip6_931_27552">
<rect width="108.275" height="108.275" fill="white" transform="translate(867.66 -4.18457)"/>
</clipPath>
<clipPath id="clip7_931_27552">
<rect width="108.275" height="108.275" fill="white" transform="translate(1.32684 104.107)"/>
</clipPath>
<clipPath id="clip8_931_27552">
<rect width="108.275" height="108.275" fill="white" transform="translate(1.32684 212.399)"/>
</clipPath>
<clipPath id="clip9_931_27552">
<rect width="108.275" height="108.275" fill="white" transform="translate(1.32684 537.274)"/>
</clipPath>
<clipPath id="clip10_931_27552">
<rect width="108.275" height="108.275" fill="white" transform="translate(109.619 104.107)"/>
</clipPath>
<clipPath id="clip11_931_27552">
<rect width="108.275" height="108.275" fill="white" transform="translate(109.619 212.399)"/>
</clipPath>
<clipPath id="clip12_931_27552">
<rect width="108.275" height="108.275" fill="white" transform="translate(109.619 320.69)"/>
</clipPath>
<clipPath id="clip13_931_27552">
<rect width="108.275" height="108.275" fill="white" transform="translate(109.619 428.982)"/>
</clipPath>
<clipPath id="clip14_931_27552">
<rect width="108.275" height="108.275" fill="white" transform="translate(109.619 537.274)"/>
</clipPath>
<clipPath id="clip15_931_27552">
<rect width="108.275" height="108.275" fill="white" transform="translate(217.91 104.107)"/>
</clipPath>
<clipPath id="clip16_931_27552">
<rect width="108.275" height="108.275" fill="white" transform="translate(217.91 212.399)"/>
</clipPath>
<clipPath id="clip17_931_27552">
<rect width="108.275" height="108.275" fill="white" transform="translate(217.91 320.69)"/>
</clipPath>
<clipPath id="clip18_931_27552">
<rect width="108.275" height="108.275" fill="white" transform="translate(217.91 428.982)"/>
</clipPath>
<clipPath id="clip19_931_27552">
<rect width="108.275" height="108.275" fill="white" transform="translate(217.91 537.274)"/>
</clipPath>
<clipPath id="clip20_931_27552">
<rect width="108.275" height="108.275" fill="white" transform="translate(326.202 104.107)"/>
</clipPath>
<clipPath id="clip21_931_27552">
<rect width="108.275" height="108.275" fill="white" transform="translate(326.202 212.399)"/>
</clipPath>
<clipPath id="clip22_931_27552">
<rect width="108.275" height="108.275" fill="white" transform="translate(326.202 428.982)"/>
</clipPath>
<clipPath id="clip23_931_27552">
<rect width="108.275" height="108.275" fill="white" transform="translate(434.493 104.107)"/>
</clipPath>
<clipPath id="clip24_931_27552">
<rect width="108.275" height="108.275" fill="white" transform="translate(434.493 212.399)"/>
</clipPath>
<clipPath id="clip25_931_27552">
<rect width="108.275" height="108.275" fill="white" transform="translate(434.493 428.982)"/>
</clipPath>
<clipPath id="clip26_931_27552">
<rect width="108.275" height="108.275" fill="white" transform="translate(434.493 537.274)"/>
</clipPath>
<clipPath id="clip27_931_27552">
<rect width="108.275" height="108.275" fill="white" transform="translate(542.785 104.107)"/>
</clipPath>
<clipPath id="clip28_931_27552">
<rect width="108.275" height="108.275" fill="white" transform="translate(542.785 212.399)"/>
</clipPath>
<clipPath id="clip29_931_27552">
<rect width="108.275" height="108.275" fill="white" transform="translate(542.785 428.982)"/>
</clipPath>
<clipPath id="clip30_931_27552">
<rect width="108.275" height="108.275" fill="white" transform="translate(542.785 537.274)"/>
</clipPath>
<clipPath id="clip31_931_27552">
<rect width="108.275" height="108.275" fill="white" transform="translate(651.077 104.107)"/>
</clipPath>
<clipPath id="clip32_931_27552">
<rect width="108.275" height="108.275" fill="white" transform="translate(651.077 104.107)"/>
</clipPath>
<clipPath id="clip33_931_27552">
<rect width="108.275" height="108.275" fill="white" transform="translate(651.077 212.399)"/>
</clipPath>
<clipPath id="clip34_931_27552">
<rect width="108.275" height="108.275" fill="white" transform="translate(651.077 320.69)"/>
</clipPath>
<clipPath id="clip35_931_27552">
<rect width="108.275" height="108.275" fill="white" transform="translate(651.077 428.982)"/>
</clipPath>
<clipPath id="clip36_931_27552">
<rect width="108.275" height="108.275" fill="white" transform="translate(651.077 537.274)"/>
</clipPath>
<clipPath id="clip37_931_27552">
<rect width="108.275" height="108.275" fill="white" transform="translate(759.368 537.274)"/>
</clipPath>
<clipPath id="clip38_931_27552">
<rect width="108.275" height="108.275" fill="white" transform="translate(867.66 212.399)"/>
</clipPath>
<clipPath id="clip39_931_27552">
<rect width="108.275" height="108.275" fill="white" transform="translate(867.66 320.69)"/>
</clipPath>
<clipPath id="clip40_931_27552">
<rect width="108.275" height="108.275" fill="white" transform="translate(867.66 428.982)"/>
</clipPath>
<clipPath id="clip41_931_27552">
<rect width="108.275" height="108.275" fill="white" transform="translate(867.66 537.274)"/>
</clipPath>
</defs>
</svg>
