<svg width="1167" height="242" viewBox="0 0 1167 242" fill="none" xmlns="http://www.w3.org/2000/svg">
<path d="M5.00201 129.6H30.346C33.0767 129.6 34.698 130.966 35.21 133.696C38.6233 148.374 50.57 155.712 71.05 155.712C82.1433 155.712 90.5913 153.664 96.394 149.568C102.197 145.302 105.098 139.499 105.098 132.16C105.098 119.702 96.3087 112.022 78.73 109.12L52.618 104.768C18.6553 98.6242 1.67401 81.7282 1.67401 54.0802C1.67401 37.8669 7.47667 24.9816 19.082 15.4242C30.6873 5.69624 47.242 0.832245 68.746 0.832245C89.3967 0.832245 105.525 5.35491 117.13 14.4002C128.735 23.4456 135.391 36.5869 137.098 53.8242C137.098 54.1656 137.098 54.5922 137.098 55.1042C137.098 57.3229 135.733 58.4322 133.002 58.4322H107.658C105.098 58.4322 103.562 56.9816 103.05 54.0802C101.855 46.0589 98.442 40.2562 92.81 36.6722C87.3487 33.0882 79.3273 31.2962 68.746 31.2962C47.0713 31.2962 36.234 38.7202 36.234 53.5682C36.234 59.7122 38.4527 64.5762 42.89 68.1602C47.3273 71.5736 55.2633 74.3042 66.698 76.3522L92.81 80.9602C124.213 86.0802 139.914 102.635 139.914 130.624C139.914 148.203 133.855 161.856 121.738 171.584C109.621 181.312 92.81 186.176 71.306 186.176C50.6553 186.176 34.2713 181.654 22.154 172.608C10.0367 163.563 2.86867 150.763 0.650005 134.208C0.650005 133.867 0.650005 133.526 0.650005 133.184C0.650005 130.795 2.10067 129.6 5.00201 129.6ZM171.086 76.3522C182.35 64.2349 196.43 58.1762 213.326 58.1762C221.859 58.1762 229.539 59.8829 236.366 63.2962C243.193 66.7096 248.313 71.5736 251.726 77.8882H252.494V65.8562C252.494 62.7842 254.03 61.2482 257.102 61.2482H279.63C282.702 61.2482 284.238 62.7842 284.238 65.8562V178.496C284.238 181.568 282.702 183.104 279.63 183.104H257.102C254.03 183.104 252.494 181.568 252.494 178.496V166.464H251.726C248.313 172.779 243.193 177.643 236.366 181.056C229.539 184.47 221.859 186.176 213.326 186.176C196.43 186.176 182.35 180.118 171.086 168C159.822 155.712 154.19 140.438 154.19 122.176C154.19 103.915 159.822 88.6402 171.086 76.3522ZM196.43 147.008C202.403 153.664 210.339 156.992 220.238 156.992C230.137 156.992 238.073 153.75 244.046 147.264C250.019 140.608 253.006 132.246 253.006 122.176C253.006 112.107 250.019 103.83 244.046 97.3442C238.073 90.8589 230.137 87.6162 220.238 87.6162C210.339 87.6162 202.403 90.8589 196.43 97.3442C190.286 103.83 187.214 112.107 187.214 122.176C187.214 132.246 190.286 140.523 196.43 147.008ZM301.718 61.2482H327.062C329.793 61.2482 331.499 62.4429 332.182 64.8322L363.158 144.96H363.67L394.646 64.8322C395.67 62.4429 397.462 61.2482 400.022 61.2482H425.11C427.841 61.2482 429.206 62.1869 429.206 64.0642C429.206 64.7469 429.035 65.5149 428.694 66.3682L380.822 179.52C379.969 181.91 378.177 183.104 375.446 183.104H351.382C348.651 183.104 346.859 181.91 346.006 179.52L298.134 66.3682C297.793 65.5149 297.622 64.7469 297.622 64.0642C297.622 62.1869 298.987 61.2482 301.718 61.2482ZM431.58 122.432C431.58 103.83 437.553 88.4696 449.5 76.3522C461.617 64.2349 477.233 58.1762 496.348 58.1762C514.951 58.1762 530.14 64.0642 541.916 75.8402C553.692 87.6162 559.58 102.976 559.58 121.92V125.248C559.58 129.515 557.532 131.648 553.436 131.648H463.836C466.567 150.934 477.831 160.576 497.628 160.576C511.623 160.576 520.753 156.395 525.02 148.032C526.385 145.643 528.177 144.448 530.396 144.448H551.9C553.436 144.448 554.545 144.79 555.228 145.472C556.081 145.984 556.508 146.582 556.508 147.264C556.508 147.606 556.423 147.947 556.252 148.288C552.839 159.552 545.927 168.683 535.516 175.68C525.105 182.678 512.305 186.176 497.116 186.176C477.489 186.176 461.617 180.288 449.5 168.512C437.553 156.566 431.58 141.206 431.58 122.432ZM464.348 110.4H527.068C524.167 92.4802 513.927 83.5202 496.348 83.5202C478.428 83.5202 467.761 92.4802 464.348 110.4ZM564.566 62.5282C565.249 61.6749 566.358 61.2482 567.894 61.2482H592.47C595.201 61.2482 596.907 62.5282 597.59 65.0882L623.19 144.192H623.958L650.838 65.0882C651.691 62.5282 653.398 61.2482 655.958 61.2482H677.462C680.022 61.2482 681.729 62.5282 682.582 65.0882L709.462 144.192H710.23L735.83 65.0882C736.683 62.5282 738.39 61.2482 740.95 61.2482H765.526C767.062 61.2482 768.086 61.6749 768.598 62.5282C769.11 63.2109 769.366 63.8936 769.366 64.5762C769.366 65.0882 769.281 65.6856 769.11 66.3682L728.918 179.52C727.894 181.91 726.187 183.104 723.798 183.104H698.454C696.065 183.104 694.358 181.91 693.334 179.52L666.966 104H666.454L640.086 179.52C639.233 181.91 637.526 183.104 634.966 183.104H609.622C607.062 183.104 605.355 181.91 604.502 179.52L564.31 66.3682C564.139 65.6856 564.054 65.0882 564.054 64.5762C564.054 63.7229 564.225 63.0402 564.566 62.5282ZM787.186 196.416H809.458C811.847 196.416 813.469 197.782 814.322 200.512C817.735 209.899 826.61 214.592 840.946 214.592C861.085 214.592 871.154 204.182 871.154 183.36V162.368H870.13C866.887 168.512 861.767 173.376 854.77 176.96C847.943 180.544 839.922 182.336 830.706 182.336C816.029 182.336 804.509 177.899 796.146 169.024C787.954 160.15 783.858 147.776 783.858 131.904V65.8562C783.858 62.7842 785.394 61.2482 788.466 61.2482H811.762C814.663 61.2482 816.114 62.7842 816.114 65.8562V123.968C816.114 143.595 824.477 153.408 841.202 153.408C850.077 153.408 857.074 150.763 862.194 145.472C867.314 140.182 869.874 132.843 869.874 123.456V65.8562C869.874 62.7842 871.41 61.2482 874.482 61.2482H897.522C900.594 61.2482 902.13 62.7842 902.13 65.8562V183.36C902.13 201.622 896.669 215.872 885.746 226.112C874.994 236.352 860.061 241.472 840.946 241.472C824.391 241.472 810.994 237.803 800.754 230.464C790.685 223.296 784.711 213.483 782.834 201.024C782.834 200.683 782.834 200.342 782.834 200C782.834 197.611 784.285 196.416 787.186 196.416ZM923.332 158.528L984.26 89.1522H927.428C924.527 89.1522 923.076 87.6162 923.076 84.5442V65.8562C923.076 62.7842 924.527 61.2482 927.428 61.2482H1022.4C1025.31 61.2482 1026.76 62.7842 1026.76 65.8562V80.1922C1026.76 82.5816 1026.07 84.4589 1024.71 85.8242L964.036 155.2H1022.92C1025.82 155.2 1027.27 156.736 1027.27 159.808V178.496C1027.27 181.568 1025.82 183.104 1022.92 183.104H925.636C922.564 183.104 921.028 181.568 921.028 178.496V164.16C921.028 162.112 921.796 160.235 923.332 158.528ZM1038.61 122.432C1038.61 103.83 1044.58 88.4696 1056.53 76.3522C1068.65 64.2349 1084.26 58.1762 1103.38 58.1762C1121.98 58.1762 1137.17 64.0642 1148.95 75.8402C1160.72 87.6162 1166.61 102.976 1166.61 121.92V125.248C1166.61 129.515 1164.56 131.648 1160.47 131.648H1070.87C1073.6 150.934 1084.86 160.576 1104.66 160.576C1118.65 160.576 1127.78 156.395 1132.05 148.032C1133.42 145.643 1135.21 144.448 1137.43 144.448H1158.93C1160.47 144.448 1161.58 144.79 1162.26 145.472C1163.11 145.984 1163.54 146.582 1163.54 147.264C1163.54 147.606 1163.45 147.947 1163.28 148.288C1159.87 159.552 1152.96 168.683 1142.55 175.68C1132.14 182.678 1119.34 186.176 1104.15 186.176C1084.52 186.176 1068.65 180.288 1056.53 168.512C1044.58 156.566 1038.61 141.206 1038.61 122.432ZM1071.38 110.4H1134.1C1131.2 92.4802 1120.96 83.5202 1103.38 83.5202C1085.46 83.5202 1074.79 92.4802 1071.38 110.4Z" fill="url(#paint0_linear_931_27370)"/>
<defs>
<linearGradient id="paint0_linear_931_27370" x1="583" y1="67.1042" x2="583" y2="167.104" gradientUnits="userSpaceOnUse">
<stop stop-color="#F2E6F9" stop-opacity="0.3"/>
<stop offset="1" stop-color="#D2A1EE" stop-opacity="0.27"/>
</linearGradient>
</defs>
</svg>
