<svg xmlns="http://www.w3.org/2000/svg" width="302" height="172" fill="none" viewBox="0 0 302 172"><path fill="#841DE7" d="M103.789 93.4046C103.789 94.6649 103.477 95.8004 102.853 96.8157C102.228 97.8311 101.281 98.6304 100.012 99.2182C98.7431 99.806 97.2202 100.1 95.4456 100.1C94.4877 100.1 93.2737 100.033 91.8038 99.8995C90.3338 99.7659 89.0006 99.5455 87.8088 99.2382C87.268 99.098 86.9965 98.7707 86.9965 98.2519V95.6713C86.9965 95.5043 87.0716 95.3507 87.2261 95.2104C87.3784 95.0701 87.5594 95.0011 87.7668 95.0011H87.8926C90.4176 95.3084 92.8036 95.462 95.0505 95.462C96.2424 95.462 97.048 95.2839 97.4629 94.9276C97.8779 94.5714 98.0876 94.0637 98.0876 93.4069C98.0876 92.9883 97.9419 92.6164 97.6506 92.2936C97.3592 91.973 96.8803 91.6078 96.2159 91.2026L90.3691 87.5933C89.2743 86.9075 88.4025 86.0548 87.758 85.0328C87.1135 84.0108 86.7913 82.893 86.7913 81.6751C86.7913 77.3801 89.4884 75.2314 94.885 75.2314C96.5492 75.2314 97.9265 75.3049 99.0146 75.4519C100.103 75.5988 101.257 75.8126 102.478 76.0931C102.99 76.22 103.248 76.5473 103.248 77.0795V79.5554C103.248 80.1009 103.005 80.3748 102.52 80.3748H102.394C99.9813 80.0386 97.6373 79.8716 95.3617 79.8716C94.3221 79.8716 93.5695 80.0052 93.1038 80.2702C92.6381 80.5351 92.4063 81.0049 92.4063 81.6773C92.4063 82.0002 92.5145 82.2585 92.7286 82.4544C92.9427 82.6504 93.404 82.9799 94.1125 83.4408L99.7099 86.883C100.847 87.5822 101.714 88.2902 102.31 89.0027C102.906 89.7175 103.301 90.43 103.495 91.1447C103.692 91.8505 103.789 92.6075 103.789 93.4046Z"/><path fill="#841DE7" d="M125.525 97.8336C125.525 98.1698 125.452 98.4147 125.306 98.5684C125.161 98.722 124.845 98.8623 124.36 98.987C122.932 99.3521 121.488 99.6282 120.031 99.8153C118.575 100.005 117.166 100.098 115.807 100.098C112.463 100.098 109.929 99.154 108.203 97.2636C106.477 95.3755 105.612 92.7237 105.612 89.3081V86.0128C105.612 83.7751 105.987 81.8424 106.735 80.2193C107.484 78.5961 108.618 77.3581 110.137 76.5054C111.655 75.6526 113.544 75.2251 115.807 75.2251C116.723 75.2251 117.67 75.2696 118.647 75.3609C119.625 75.4522 120.632 75.588 121.665 75.7706C122.698 75.9532 123.596 76.1424 124.36 76.3384C124.845 76.4653 125.161 76.6033 125.306 76.757C125.452 76.9106 125.525 77.1555 125.525 77.4917V97.8336ZM119.888 95.1684V80.1614C119.415 80.0634 118.839 79.9899 118.162 79.941C117.482 79.892 116.698 79.8675 115.811 79.8675C114.092 79.8675 112.898 80.4019 112.233 81.4728C111.567 82.5438 111.236 84.0579 111.236 86.0172V89.3126C111.236 91.2586 111.571 92.7682 112.244 93.8458C112.918 94.9235 114.107 95.4623 115.813 95.4623C117.586 95.4623 118.945 95.3644 119.888 95.1684Z"/><path fill="#841DE7" d="M147.678 76.2159C147.678 76.3562 147.665 76.4541 147.637 76.5098L142.269 96.0702C141.547 98.7554 139.772 100.1 136.943 100.1C134.142 100.1 132.378 98.7576 131.659 96.0702L126.291 76.5098C126.262 76.4541 126.249 76.3562 126.249 76.2159C126.249 76.0333 126.311 75.873 126.437 75.7327C126.562 75.5925 126.728 75.5234 126.935 75.5234H131.2C131.643 75.5234 131.928 75.8107 132.052 76.3851L136.131 94.3936C136.27 95.1061 136.539 95.4645 136.943 95.4645C137.344 95.4645 137.616 95.1083 137.755 94.3936L141.854 76.3851C141.909 76.1046 142.017 75.8908 142.176 75.7439C142.335 75.5969 142.527 75.5234 142.748 75.5234H147.012C147.206 75.5234 147.365 75.5858 147.491 75.7127C147.617 75.8396 147.678 76.0044 147.678 76.2159Z"/><path fill="#841DE7" d="M168.042 88.5354C168.042 89.2635 167.757 89.6264 167.19 89.6264H153.313V89.7534C153.313 91.2496 153.702 92.5343 154.479 93.6053C155.255 94.6763 156.567 95.2107 158.412 95.2107C160.853 95.2107 163.468 95.0637 166.256 94.7698H166.382C166.896 94.7698 167.152 94.988 167.152 95.42V98.2521C167.152 98.6307 167.093 98.8934 166.976 99.0381C166.859 99.1851 166.618 99.3009 166.258 99.3855C164.912 99.6371 163.623 99.8196 162.389 99.931C161.155 100.042 159.692 100.1 157.999 100.1C156.834 100.1 155.659 99.9176 154.472 99.5547C153.287 99.1918 152.172 98.5995 151.132 97.7823C150.093 96.963 149.256 95.8519 148.625 94.4447C147.994 93.0375 147.678 91.3275 147.678 89.3125V86.1441C147.678 82.7731 148.577 80.1101 150.373 78.1574C152.17 76.2047 154.684 75.2295 157.915 75.2295C160.038 75.2295 161.864 75.6904 163.398 76.6144C164.929 77.5384 166.088 78.8187 166.872 80.4552C167.655 82.0918 168.048 83.9888 168.048 86.1441V88.5354H168.042ZM162.382 85.5763V85.4071C162.382 84.3294 162.195 83.3898 161.822 82.5838C161.447 81.78 160.923 81.1677 160.25 80.7469C159.577 80.3261 158.798 80.1168 157.908 80.1168C156.549 80.1168 155.45 80.5821 154.611 81.5129C153.772 82.4436 153.353 83.7416 153.353 85.4071V85.5763H162.382Z"/><path fill="#841DE7" d="M199.494 90.4456C199.494 93.9436 198.693 96.4195 197.09 97.8757C195.488 99.3319 193.424 100.058 190.901 100.058C189.03 100.058 187.149 99.7148 185.262 99.029C183.375 99.7148 181.49 100.058 179.603 100.058C177.078 100.058 175.012 99.3274 173.403 97.8645C171.794 96.4017 170.99 93.9302 170.99 90.4456V76.9928C170.99 76.7545 171.074 76.5519 171.24 76.3849C171.408 76.2179 171.608 76.1333 171.842 76.1333H173.84C174.103 76.1333 174.312 76.2112 174.465 76.3649C174.617 76.5185 174.694 76.7278 174.694 76.995V90.4479C174.694 91.9864 174.882 93.2288 175.257 94.1729C175.632 95.117 176.204 95.7983 176.974 96.2191C177.744 96.6377 178.733 96.8492 179.938 96.8492C180.437 96.8492 180.921 96.8069 181.384 96.7223C181.85 96.6377 182.503 96.4908 183.351 96.2815V76.9928C183.351 76.7545 183.435 76.5519 183.6 76.3849C183.766 76.2179 183.966 76.1333 184.203 76.1333H186.284C186.547 76.1333 186.756 76.2112 186.909 76.3649C187.061 76.5185 187.138 76.7278 187.138 76.995V96.2837C188.747 96.6622 189.884 96.8515 190.55 96.8515C192.34 96.8515 193.66 96.3572 194.515 95.3708C195.369 94.3844 195.795 92.7435 195.795 90.4501V76.9972C195.795 76.759 195.879 76.5563 196.044 76.3894C196.212 76.2224 196.41 76.1378 196.647 76.1378H198.644C198.907 76.1378 199.116 76.2157 199.269 76.3693C199.421 76.5229 199.498 76.7322 199.498 76.9994V90.4456H199.494Z"/><path fill="#841DE7" d="M221.23 99.7639C221.23 101.414 221.054 102.796 220.7 103.91C220.347 105.023 219.807 105.9 219.078 106.544C218.35 107.187 217.463 107.639 216.414 107.898C215.368 108.156 214.081 108.285 212.554 108.285C209.766 108.285 207.422 108.04 205.522 107.55C205.202 107.439 204.988 107.319 204.877 107.194C204.767 107.067 204.709 106.887 204.709 106.648V105.43C204.709 105.206 204.778 105.032 204.917 104.905C205.056 104.778 205.244 104.716 205.478 104.716H205.603C205.729 104.729 206.248 104.785 207.164 104.883C208.08 104.981 209.064 105.061 210.119 105.123C211.172 105.186 211.984 105.217 212.554 105.217C213.871 105.217 214.887 105.072 215.602 104.787C216.317 104.5 216.822 103.968 217.12 103.193C217.418 102.416 217.568 101.273 217.568 99.7616V99.5523C217.083 99.6926 216.337 99.8106 215.333 99.9086C214.326 100.007 213.498 100.056 212.847 100.056C206.48 100.056 203.297 97.0898 203.297 91.156V76.9884C203.297 76.7501 203.381 76.5475 203.546 76.3805C203.714 76.2135 203.915 76.1289 204.149 76.1289H206.208C206.458 76.1289 206.658 76.2068 206.811 76.3605C206.963 76.5141 207.04 76.7234 207.04 76.9906V91.1582C207.04 93.3269 207.521 94.8165 208.486 95.6291C209.45 96.4418 210.903 96.8471 212.845 96.8471C214.357 96.8471 215.904 96.6578 217.485 96.2793V76.9906C217.485 76.7523 217.568 76.5497 217.734 76.3827C217.9 76.2157 218.1 76.1311 218.337 76.1311H220.396C220.645 76.1311 220.846 76.2091 220.998 76.3627C221.151 76.5163 221.228 76.7256 221.228 76.9928V99.7639H221.23Z"/><path fill="#841DE7" d="M240.554 98.9019C240.554 99.1401 240.464 99.3428 240.283 99.5098C240.102 99.6768 239.908 99.7614 239.7 99.7614H228.444C227.113 99.7614 226.075 99.5387 225.334 99.0889C224.592 98.6414 224.221 97.8153 224.221 96.613C224.221 95.522 224.548 94.5779 225.199 93.7786L236.204 79.9895C236.314 79.8225 236.372 79.6889 236.372 79.5909C236.372 79.395 236.233 79.297 235.955 79.297H225.594C225.358 79.297 225.157 79.2124 224.991 79.0454C224.826 78.8784 224.742 78.6758 224.742 78.4376V76.9903C224.742 76.7521 224.822 76.5495 224.98 76.3825C225.139 76.2155 225.345 76.1309 225.594 76.1309H236.122C237.08 76.1309 237.873 76.2244 238.504 76.4136C239.135 76.6029 239.607 76.9102 239.919 77.3377C240.23 77.7652 240.387 78.3485 240.387 79.09C240.387 80.112 240.066 81.0004 239.429 81.7552L228.318 95.7758C228.179 95.9161 228.11 96.0697 228.11 96.2367C228.11 96.4616 228.249 96.5729 228.527 96.5729H239.7C239.908 96.5729 240.102 96.6642 240.283 96.8468C240.464 97.0294 240.554 97.2253 240.554 97.4346V98.9019V98.9019Z"/><path fill="#841DE7" d="M260.917 88.1993C260.917 88.8294 260.646 89.1434 260.105 89.1434H245.833V89.6688C245.833 91.2786 246.076 92.6257 246.562 93.71C247.047 94.7944 247.751 95.5959 248.674 96.1125C249.597 96.6313 250.722 96.8896 252.055 96.8896C253.108 96.8896 254.333 96.8272 255.728 96.7003C257.123 96.5734 258.326 96.4353 259.337 96.2817H259.544C260.001 96.2817 260.231 96.4843 260.231 96.8896V98.3368C260.231 98.6307 260.171 98.8512 260.054 98.9981C259.937 99.1451 259.71 99.2609 259.379 99.3455C258.2 99.5703 257.028 99.744 255.863 99.8709C254.697 99.9978 253.428 100.06 252.055 100.06C250.239 100.06 248.588 99.7307 247.102 99.0738C245.619 98.417 244.407 97.297 243.472 95.7162C242.536 94.1353 242.068 92.0423 242.068 89.4395V86.4381C242.068 84.4097 242.434 82.5861 243.171 80.9697C243.906 79.3532 244.992 78.0907 246.427 77.1823C247.862 76.2738 249.566 75.8174 251.534 75.8174C253.558 75.8174 255.276 76.2694 256.684 77.1711C258.092 78.0729 259.149 79.322 259.855 80.9184C260.564 82.5127 260.917 84.3407 260.917 86.3958V88.1993V88.1993ZM257.11 86.2689V86.0596C257.11 83.7506 256.644 82.0184 255.715 80.865C254.786 79.7116 253.391 79.1327 251.532 79.1327C250.325 79.1327 249.296 79.3977 248.442 79.9298C247.588 80.462 246.941 81.2524 246.498 82.3011C246.054 83.3498 245.831 84.6034 245.831 86.0573V86.2666H257.11V86.2689Z"/><path fill="url(#paint0_linear_1497_11574)" d="M57.1886 101.997C57.8088 100.25 57.6455 98.6219 56.8531 97.0678C54.7254 92.8841 52.569 88.7159 50.4258 84.5411C48.9647 81.6978 47.4947 78.8589 46.0534 76.0067C43.6454 71.2463 44.8549 65.2947 48.9073 61.9059C49.0596 61.779 49.2296 61.6766 49.5982 61.4205C49.5673 61.8525 49.5937 62.1241 49.5209 62.3668C48.5917 65.5018 48.616 68.6435 49.7946 71.6716C50.6179 73.7891 51.7281 75.7952 52.761 77.8258C55.69 83.5859 58.7601 89.2748 61.5588 95.0973C64.9866 102.233 60.2279 110.656 52.4057 111.467C47.5212 111.975 43.2106 109.519 41.0078 105.297C39.3216 102.066 37.6905 98.8089 36.002 95.5804C35.7106 95.0216 35.7835 94.7544 36.3463 94.5161C36.8782 94.2913 37.3726 93.9818 37.8935 93.7279C39.3127 93.0355 40.7099 93.5097 41.4427 94.9236C42.8795 97.7046 44.2634 100.514 45.7709 103.255C47.2144 105.878 50.481 107.021 53.2797 105.954C52.9597 105.74 52.6772 105.558 52.3991 105.366C50.5605 104.113 49.2914 102.394 48.3025 100.41C46.7774 97.3461 45.1971 94.3113 43.6233 91.2743C43.4004 90.8445 43.4997 90.6352 43.9081 90.446C44.4334 90.2033 44.9344 89.9116 45.4509 89.6511C47.0025 88.8673 48.3577 89.2882 49.1567 90.8267C50.5472 93.5053 51.9047 96.1994 53.304 98.8735C54.1207 100.441 55.4185 101.441 57.1886 101.997ZM61.9407 60.5232C62.5454 60.423 63.148 60.2404 63.7528 60.2337C66.5095 60.207 68.4982 61.4962 69.7651 63.941C71.1005 66.5216 72.4203 69.1133 73.7491 71.6961C74.4487 73.0565 75.8326 73.5419 77.1878 72.894C77.7705 72.6157 78.3223 72.2705 78.9161 72.0189C79.4237 71.8052 79.448 71.5491 79.2118 71.0949C77.5631 67.9198 75.9011 64.7514 74.3097 61.5496C72.001 56.9073 66.887 54.2176 61.5456 55.3353C54.401 56.8293 50.3442 65.0253 53.6439 71.5981C57.1445 78.5717 60.7378 85.5008 64.3112 92.4365C65.7922 95.311 66.5757 98.3169 66.1542 101.568C66.0239 102.563 65.7701 103.54 65.5869 104.529C65.5626 104.663 65.609 104.807 65.6222 104.948C65.7591 104.919 65.9092 104.916 66.0284 104.854C66.163 104.785 66.2756 104.667 66.3925 104.562C70.4979 100.895 71.5176 95.2464 68.9529 90.2411C65.5362 83.5748 62.0952 76.9241 58.6807 70.2555C58.3275 69.5653 58.0207 68.8372 57.8088 68.0935C57.4778 66.9312 57.5396 65.7645 58.0031 64.5978C59.8659 65.1767 61.1704 66.3011 62.0268 67.9866C63.3533 70.5984 64.693 73.2012 66.035 75.8041C66.7633 77.218 68.1561 77.6833 69.5863 76.9953C70.1271 76.7348 70.6369 76.403 71.1887 76.1737C71.7185 75.9533 71.7604 75.7084 71.4999 75.2096C70.0013 72.3351 68.496 69.4606 67.0701 66.5505C65.8805 64.1213 64.3443 62.0373 61.9385 60.7035C61.9341 60.6479 61.9385 60.5855 61.9407 60.5232Z"/><defs><linearGradient id="paint0_linear_1497_11574" x1="72.056" x2="42.697" y1="58.002" y2="108.411" gradientUnits="userSpaceOnUse"><stop stop-color="#0D91EA"/><stop offset=".076" stop-color="#148AEA"/><stop offset=".186" stop-color="#2777E9"/><stop offset=".316" stop-color="#4759E9"/><stop offset=".462" stop-color="#722EE7"/><stop offset=".514" stop-color="#841DE7"/><stop offset="1" stop-color="#20E3D0"/></linearGradient></defs></svg>