<svg width="156" height="157" viewBox="0 0 156 157" fill="none" xmlns="http://www.w3.org/2000/svg">
<circle cx="78" cy="78.697" r="78" fill="url(#paint0_linear_930_22114)"/>
<circle cx="78" cy="78.697" r="60" transform="rotate(90 78 78.697)" fill="url(#paint1_linear_930_22114)"/>
<path opacity="0.5" d="M56.3424 54.1422C53.1206 57.3641 53.1206 62.5495 53.1206 72.9204V83.9204C53.1206 94.2913 53.1206 99.4767 56.3424 102.699C59.5643 105.92 64.7497 105.92 75.1206 105.92H80.6206C90.9915 105.92 96.177 105.92 99.3988 102.699C102.621 99.4767 102.621 94.2913 102.621 83.9204V72.9204C102.621 62.5495 102.621 57.3641 99.3988 54.1422C96.177 50.9204 90.9915 50.9204 80.6206 50.9204H75.1206C64.7497 50.9204 59.5643 50.9204 56.3424 54.1422Z" fill="#8005C2"/>
<path d="M61.3706 78.4207C61.3706 74.5316 61.3706 72.587 62.5788 71.3788C63.787 70.1707 65.7315 70.1707 69.6206 70.1707H86.1206C90.0097 70.1707 91.9542 70.1707 93.1624 71.3788C94.3706 72.587 94.3706 74.5316 94.3706 78.4207V89.4207C94.3706 93.3097 94.3706 95.2543 93.1624 96.4625C91.9542 97.6707 90.0097 97.6707 86.1206 97.6707H69.6206C65.7315 97.6707 63.787 97.6707 62.5788 96.4625C61.3706 95.2543 61.3706 93.3097 61.3706 89.4207V78.4207Z" fill="#8005C2"/>
<path d="M64.1206 59.8582C62.9815 59.8582 62.0581 60.7816 62.0581 61.9207C62.0581 63.0597 62.9815 63.9832 64.1206 63.9832H77.8706C79.0097 63.9832 79.9331 63.0597 79.9331 61.9207C79.9331 60.7816 79.0097 59.8582 77.8706 59.8582H64.1206Z" fill="#8005C2"/>
<defs>
<linearGradient id="paint0_linear_930_22114" x1="78" y1="0.697021" x2="78" y2="156.697" gradientUnits="userSpaceOnUse">
<stop stop-color="#F2E6F9"/>
<stop offset="1" stop-color="#911BD1"/>
</linearGradient>
<linearGradient id="paint1_linear_930_22114" x1="78" y1="18.697" x2="78" y2="138.697" gradientUnits="userSpaceOnUse">
<stop stop-color="#F2E6F9"/>
<stop offset="1" stop-color="#C086DE"/>
</linearGradient>
</defs>
</svg>
