<svg width="159" height="38" viewBox="0 0 159 38" fill="none" xmlns="http://www.w3.org/2000/svg">
<path d="M14.5194 31.4394C14.9411 30.2687 14.8301 29.1786 14.2913 28.1377C12.8446 25.3356 11.3784 22.5439 9.92117 19.7477C8.92768 17.8433 7.9282 15.942 6.94822 14.0316C5.31092 10.8433 6.13332 6.85707 8.88866 4.58734C8.99222 4.50233 9.10777 4.43373 9.35839 4.26224C9.33738 4.55155 9.35539 4.73348 9.30587 4.89603C8.67406 6.99576 8.69057 9.09996 9.49196 11.1281C10.0517 12.5463 10.8066 13.89 11.5089 15.25C13.5004 19.108 15.5879 22.9182 17.4909 26.8179C19.8215 31.5975 16.5859 37.239 11.2673 37.7818C7.94621 38.1218 5.01528 36.4769 3.51754 33.6495C2.37099 31.4856 1.26194 29.3039 0.113883 27.1415C-0.0842135 26.7672 -0.0346897 26.5882 0.347997 26.4287C0.709673 26.278 1.04584 26.0708 1.40001 25.9008C2.36498 25.437 3.31495 25.7546 3.81319 26.7016C4.79017 28.5642 5.73112 30.4462 6.75612 32.282C7.7376 34.0387 9.95869 34.8037 11.8616 34.0894C11.644 33.9462 11.4519 33.8239 11.2628 33.6957C10.0127 32.8561 9.14979 31.7048 8.47746 30.3761C7.44046 28.3241 6.36593 26.2915 5.29591 24.2574C5.14434 23.9695 5.21187 23.8294 5.48951 23.7026C5.84668 23.5401 6.18735 23.3447 6.53852 23.1702C7.59353 22.6453 8.51498 22.9271 9.05825 23.9576C10.0037 25.7516 10.9267 27.5561 11.8781 29.3471C12.4334 30.397 13.3158 31.0666 14.5194 31.4394ZM17.7505 3.66125C18.1617 3.59414 18.5714 3.47186 18.9826 3.46738C20.857 3.44949 22.2092 4.31294 23.0706 5.95037C23.9785 7.67877 24.876 9.41462 25.7794 11.1445C26.2551 12.0557 27.1961 12.3808 28.1175 11.9468C28.5137 11.7604 28.8889 11.5293 29.2926 11.3607C29.6378 11.2176 29.6543 11.0461 29.4937 10.7419C28.3727 8.61529 27.2426 6.4932 26.1606 4.34873C24.5908 1.23941 21.1136 -0.562062 17.4819 0.186562C12.624 1.18721 9.86564 6.67663 12.1092 11.0789C14.4894 15.7496 16.9326 20.3905 19.3623 25.0358C20.3693 26.9611 20.902 28.9743 20.6154 31.1516C20.5268 31.8182 20.3543 32.4728 20.2297 33.135C20.2132 33.2244 20.2447 33.3214 20.2537 33.4153C20.3468 33.3959 20.4488 33.3944 20.5298 33.3527C20.6214 33.3065 20.6979 33.2274 20.7775 33.1573C23.5688 30.7012 24.2622 26.9178 22.5183 23.5654C20.1952 19.1005 17.8555 14.646 15.5339 10.1796C15.2938 9.71735 15.0852 9.2297 14.9411 8.73161C14.716 7.95316 14.758 7.17173 15.0732 6.3903C16.3398 6.77803 17.2267 7.53113 17.809 8.66003C18.711 10.4093 19.6219 12.1526 20.5343 13.8959C21.0296 14.8429 21.9766 15.1546 22.949 14.6938C23.3167 14.5193 23.6634 14.2971 24.0386 14.1435C24.3987 13.9958 24.4272 13.8318 24.2502 13.4978C23.2312 11.5725 22.2077 9.64726 21.2382 7.69815C20.4293 6.07116 19.3848 4.67532 17.749 3.78204C17.746 3.74476 17.749 3.70301 17.7505 3.66125Z" fill="url(#paint0_linear_1219_4855)"/>
<path d="M45.0566 25.6846C45.0566 26.5287 44.845 27.2892 44.4203 27.9693C43.9956 28.6493 43.3518 29.1847 42.4888 29.5784C41.6259 29.9721 40.5904 30.1689 39.3838 30.1689C38.7325 30.1689 37.9071 30.1242 36.9076 30.0347C35.9081 29.9452 35.0017 29.7976 34.1913 29.5918C33.8236 29.4978 33.639 29.2786 33.639 28.9311V27.2028C33.639 27.0909 33.69 26.988 33.7951 26.8941C33.8986 26.8001 34.0217 26.7539 34.1628 26.7539H34.2483C35.9652 26.9597 37.5874 27.0626 39.1152 27.0626C39.9256 27.0626 40.4734 26.9433 40.7555 26.7047C41.0376 26.4661 41.1802 26.126 41.1802 25.6861C41.1802 25.4058 41.0812 25.1567 40.8831 24.9405C40.685 24.7257 40.3593 24.4812 39.9076 24.2097L35.9321 21.7924C35.1878 21.3331 34.595 20.7619 34.1568 20.0774C33.7186 19.3929 33.4995 18.6443 33.4995 17.8285C33.4995 14.9519 35.3333 13.5128 39.0026 13.5128C40.1342 13.5128 41.0706 13.562 41.8105 13.6604C42.5504 13.7588 43.3353 13.902 44.1652 14.0899C44.5133 14.1749 44.6889 14.3941 44.6889 14.7505V16.4088C44.6889 16.7742 44.5238 16.9576 44.1937 16.9576H44.1081C42.4678 16.7325 40.8741 16.6206 39.3268 16.6206C38.62 16.6206 38.1082 16.7101 37.7915 16.8875C37.4749 17.065 37.3173 17.3797 37.3173 17.83C37.3173 18.0463 37.3908 18.2193 37.5364 18.3505C37.682 18.4817 37.9956 18.7024 38.4774 19.0111L42.2832 21.3167C43.0561 21.7849 43.6459 22.2591 44.0511 22.7364C44.4563 23.2151 44.7249 23.6923 44.857 24.171C44.9906 24.6437 45.0566 25.1507 45.0566 25.6846Z" fill="#841DE7"/>
<path d="M59.8358 28.6508C59.8358 28.876 59.7863 29.04 59.6872 29.1429C59.5882 29.2458 59.3736 29.3398 59.0434 29.4233C58.0724 29.6678 57.091 29.8528 56.1005 29.978C55.11 30.1048 54.1525 30.1674 53.2281 30.1674C50.9545 30.1674 49.2316 29.5351 48.0581 28.269C46.8845 27.0044 46.2962 25.2283 46.2962 22.9407V20.7336C46.2962 19.2348 46.5513 17.9404 47.0601 16.8532C47.5688 15.7661 48.3402 14.9369 49.3727 14.3658C50.4052 13.7946 51.6898 13.5083 53.2281 13.5083C53.8509 13.5083 54.4947 13.5381 55.1595 13.5993C55.8243 13.6604 56.5087 13.7514 57.211 13.8737C57.9134 13.996 58.5242 14.1227 59.0434 14.2539C59.3736 14.3389 59.5882 14.4314 59.6872 14.5343C59.7863 14.6372 59.8358 14.8012 59.8358 15.0264V28.6508ZM56.0029 26.8657V16.8145C55.6818 16.7489 55.2901 16.6996 54.8294 16.6668C54.3671 16.634 53.8344 16.6176 53.2311 16.6176C52.062 16.6176 51.2501 16.9755 50.7984 17.6928C50.3452 18.4101 50.1201 19.4242 50.1201 20.7365V22.9436C50.1201 24.247 50.3482 25.2581 50.8059 25.9799C51.2636 26.7017 52.0725 27.0626 53.2326 27.0626C54.4377 27.0626 55.3621 26.997 56.0029 26.8657Z" fill="#841DE7"/>
<path d="M74.8987 14.1719C74.8987 14.2659 74.8896 14.3315 74.8701 14.3688L71.2204 27.4697C70.7296 29.2682 69.523 30.1689 67.5991 30.1689C65.6947 30.1689 64.4956 29.2697 64.0063 27.4697L60.3566 14.3688C60.337 14.3315 60.328 14.2659 60.328 14.1719C60.328 14.0496 60.3701 13.9423 60.4556 13.8483C60.5411 13.7544 60.6537 13.7081 60.7948 13.7081H63.6942C63.9958 13.7081 64.1894 13.9005 64.2735 14.2853L67.0468 26.3468C67.1414 26.824 67.3245 27.0641 67.5991 27.0641C67.8722 27.0641 68.0568 26.8255 68.1514 26.3468L70.9382 14.2853C70.9757 14.0974 71.0493 13.9542 71.1573 13.8558C71.2654 13.7573 71.3959 13.7081 71.546 13.7081H74.4454C74.5775 13.7081 74.6855 13.7499 74.7711 13.8349C74.8566 13.9199 74.8987 14.0303 74.8987 14.1719Z" fill="#841DE7"/>
<path d="M88.7444 22.4232C88.7444 22.9108 88.5508 23.1539 88.1651 23.1539H78.73V23.2389C78.73 24.2411 78.9941 25.1015 79.5224 25.8188C80.0507 26.5361 80.9421 26.8941 82.1967 26.8941C83.8565 26.8941 85.6349 26.7956 87.5303 26.5988H87.6158C87.9655 26.5988 88.1396 26.7449 88.1396 27.0342V28.9311C88.1396 29.1847 88.0991 29.3606 88.0195 29.4576C87.94 29.556 87.7764 29.6335 87.5318 29.6902C86.6164 29.8587 85.7399 29.981 84.901 30.0556C84.0621 30.1301 83.0671 30.1689 81.9161 30.1689C81.1237 30.1689 80.3253 30.0466 79.5179 29.8036C78.712 29.5605 77.9541 29.1638 77.2473 28.6165C76.5404 28.0677 75.9717 27.3235 75.5425 26.3811C75.1133 25.4386 74.8987 24.2933 74.8987 22.9437V20.8216C74.8987 18.5638 75.5094 16.7802 76.731 15.4723C77.9526 14.1645 79.662 13.5113 81.859 13.5113C83.3027 13.5113 84.5438 13.82 85.5869 14.4389C86.6284 15.0577 87.4162 15.9152 87.949 17.0113C88.4818 18.1074 88.7489 19.378 88.7489 20.8216V22.4232H88.7444ZM84.8965 20.4413V20.3279C84.8965 19.6062 84.769 18.9768 84.5153 18.437C84.2602 17.8986 83.9045 17.4885 83.4468 17.2067C82.9891 16.9248 82.4593 16.7847 81.8545 16.7847C80.9301 16.7847 80.1827 17.0963 79.6124 17.7197C79.0422 18.343 78.757 19.2125 78.757 20.3279V20.4413H84.8965Z" fill="#841DE7"/>
<path d="M110.13 23.7027C110.13 26.0455 109.585 27.7038 108.496 28.6791C107.406 29.6544 106.003 30.1406 104.287 30.1406C103.015 30.1406 101.736 29.9109 100.453 29.4516C99.17 29.9109 97.8884 30.1406 96.6052 30.1406C94.8884 30.1406 93.4837 29.6514 92.3897 28.6717C91.2957 27.6919 90.7494 26.0366 90.7494 23.7027V14.6924C90.7494 14.5328 90.8064 14.3971 90.919 14.2853C91.033 14.1734 91.1696 14.1167 91.3287 14.1167H92.6868C92.8654 14.1167 93.008 14.1689 93.1115 14.2718C93.2151 14.3747 93.2676 14.5149 93.2676 14.6939V23.7042C93.2676 24.7347 93.3952 25.5668 93.6503 26.1991C93.9054 26.8314 94.2941 27.2878 94.8179 27.5696C95.3416 27.85 96.0139 27.9916 96.8333 27.9916C97.1725 27.9916 97.5012 27.9633 97.8163 27.9066C98.133 27.85 98.5772 27.7515 99.1535 27.6114V14.6924C99.1535 14.5328 99.2105 14.3971 99.3231 14.2853C99.4356 14.1734 99.5722 14.1167 99.7328 14.1167H101.148C101.327 14.1167 101.469 14.1689 101.573 14.2718C101.676 14.3747 101.729 14.5149 101.729 14.6939V27.6129C102.823 27.8664 103.596 27.9931 104.049 27.9931C105.266 27.9931 106.163 27.6621 106.744 27.0014C107.325 26.3408 107.615 25.2417 107.615 23.7057V14.6954C107.615 14.5358 107.672 14.4001 107.784 14.2882C107.898 14.1764 108.033 14.1197 108.194 14.1197H109.552C109.731 14.1197 109.873 14.1719 109.977 14.2748C110.08 14.3777 110.133 14.5179 110.133 14.6969V23.7027H110.13Z" fill="#841DE7"/>
<path d="M124.909 29.9437C124.909 31.0488 124.789 31.9749 124.549 32.7205C124.309 33.4661 123.941 34.0537 123.446 34.4847C122.951 34.9157 122.347 35.2184 121.634 35.3914C120.923 35.5644 120.048 35.6509 119.01 35.6509C117.114 35.6509 115.52 35.4868 114.228 35.1587C114.011 35.0842 113.865 35.0037 113.79 34.9201C113.715 34.8351 113.676 34.7143 113.676 34.5548V33.739C113.676 33.5884 113.723 33.4721 113.817 33.3871C113.912 33.3021 114.039 33.2603 114.198 33.2603H114.284C114.369 33.2693 114.722 33.3066 115.345 33.3722C115.968 33.4378 116.637 33.4915 117.354 33.5332C118.07 33.575 118.622 33.5959 119.01 33.5959C119.906 33.5959 120.596 33.4989 121.082 33.3081C121.568 33.1157 121.912 32.7593 122.115 32.2403C122.317 31.7198 122.419 30.9548 122.419 29.9422V29.8021C122.089 29.896 121.582 29.975 120.899 30.0407C120.215 30.1063 119.652 30.1391 119.209 30.1391C114.88 30.1391 112.716 28.1527 112.716 24.1784V14.6894C112.716 14.5298 112.773 14.3941 112.885 14.2823C112.999 14.1704 113.136 14.1138 113.295 14.1138H114.695C114.865 14.1138 115.001 14.166 115.105 14.2689C115.208 14.3718 115.261 14.5119 115.261 14.6909V24.1799C115.261 25.6324 115.588 26.6301 116.244 27.1744C116.9 27.7187 117.887 27.9901 119.208 27.9901C120.236 27.9901 121.288 27.8634 122.362 27.6099V14.6909C122.362 14.5313 122.419 14.3956 122.532 14.2838C122.644 14.1719 122.781 14.1153 122.942 14.1153H124.342C124.511 14.1153 124.648 14.1675 124.751 14.2703C124.855 14.3732 124.908 14.5134 124.908 14.6924V29.9437H124.909Z" fill="#841DE7"/>
<path d="M138.048 29.3666C138.048 29.5262 137.986 29.6619 137.863 29.7737C137.74 29.8856 137.608 29.9422 137.467 29.9422H129.813C128.909 29.9422 128.203 29.7931 127.699 29.4919C127.195 29.1921 126.943 28.6389 126.943 27.8336C126.943 27.1028 127.165 26.4705 127.607 25.9352L135.09 16.6996C135.165 16.5878 135.204 16.4983 135.204 16.4327C135.204 16.3015 135.11 16.2359 134.92 16.2359H127.876C127.715 16.2359 127.579 16.1792 127.466 16.0673C127.354 15.9555 127.297 15.8198 127.297 15.6602V14.6909C127.297 14.5313 127.351 14.3956 127.459 14.2838C127.567 14.1719 127.706 14.1153 127.876 14.1153H135.034C135.686 14.1153 136.225 14.1779 136.654 14.3046C137.083 14.4314 137.404 14.6372 137.616 14.9235C137.827 15.2099 137.934 15.6006 137.934 16.0972C137.934 16.7817 137.716 17.3767 137.283 17.8822L129.728 27.2728C129.633 27.3668 129.587 27.4697 129.587 27.5815C129.587 27.7322 129.681 27.8067 129.87 27.8067H137.467C137.608 27.8067 137.74 27.8679 137.863 27.9902C137.986 28.1124 138.048 28.2437 138.048 28.3838V29.3666Z" fill="#841DE7"/>
<path d="M151.894 22.198C151.894 22.62 151.709 22.8303 151.341 22.8303H141.638V23.1823C141.638 24.2604 141.803 25.1627 142.133 25.8889C142.463 26.6152 142.942 27.152 143.569 27.498C144.196 27.8455 144.962 28.0185 145.868 28.0185C146.584 28.0185 147.417 27.9767 148.365 27.8917C149.314 27.8067 150.132 27.7143 150.819 27.6114H150.96C151.271 27.6114 151.427 27.7471 151.427 28.0185V28.9878C151.427 29.1847 151.386 29.3323 151.307 29.4307C151.227 29.5292 151.073 29.6067 150.848 29.6634C150.046 29.814 149.249 29.9303 148.457 30.0153C147.665 30.1003 146.802 30.1421 145.868 30.1421C144.633 30.1421 143.511 29.9214 142.501 29.4814C141.492 29.0415 140.668 28.2914 140.032 27.2326C139.396 26.1738 139.077 24.772 139.077 23.0287V21.0184C139.077 19.6598 139.327 18.4385 139.828 17.3558C140.328 16.2731 141.066 15.4276 142.041 14.8191C143.017 14.2107 144.175 13.905 145.514 13.905C146.89 13.905 148.058 14.2077 149.015 14.8117C149.973 15.4157 150.692 16.2523 151.172 17.3215C151.654 18.3893 151.894 19.6136 151.894 20.9901V22.198ZM149.305 20.9051V20.7649C149.305 19.2184 148.988 18.0582 148.356 17.2857C147.725 16.5132 146.776 16.1255 145.513 16.1255C144.692 16.1255 143.992 16.303 143.412 16.6594C142.831 17.0158 142.391 17.5452 142.089 18.2476C141.788 18.95 141.636 19.7896 141.636 20.7634V20.9036H149.305V20.9051Z" fill="#841DE7"/>
<defs>
<linearGradient id="paint0_linear_1219_4855" x1="24.628" y1="1.9727" x2="5.11144" y2="35.9906" gradientUnits="userSpaceOnUse">
<stop stop-color="#0D91EA"/>
<stop offset="0.0758" stop-color="#148AEA"/>
<stop offset="0.1857" stop-color="#2777E9"/>
<stop offset="0.3164" stop-color="#4759E9"/>
<stop offset="0.462" stop-color="#722EE7"/>
<stop offset="0.5142" stop-color="#841DE7"/>
<stop offset="1" stop-color="#20E3D0"/>
</linearGradient>
</defs>
</svg>
