<svg width="1167" height="241" viewBox="0 0 1167 241" fill="none" xmlns="http://www.w3.org/2000/svg">
<path d="M5.00201 128.947H30.346C33.0767 128.947 34.698 130.313 35.21 133.043C38.6233 147.721 50.57 155.059 71.05 155.059C82.1433 155.059 90.5913 153.011 96.394 148.915C102.197 144.649 105.098 138.846 105.098 131.507C105.098 119.049 96.3087 111.369 78.73 108.467L52.618 104.115C18.6553 97.9712 1.67401 81.0752 1.67401 53.4272C1.67401 37.2138 7.47667 24.3285 19.082 14.7712C30.6873 5.04317 47.242 0.179169 68.746 0.179169C89.3967 0.179169 105.525 4.70183 117.13 13.7472C128.735 22.7925 135.391 35.9338 137.098 53.1712C137.098 53.5125 137.098 53.9392 137.098 54.4512C137.098 56.6698 135.733 57.7792 133.002 57.7792H107.658C105.098 57.7792 103.562 56.3285 103.05 53.4272C101.855 45.4058 98.442 39.6032 92.81 36.0192C87.3487 32.4352 79.3273 30.6432 68.746 30.6432C47.0713 30.6432 36.234 38.0672 36.234 52.9152C36.234 59.0592 38.4527 63.9232 42.89 67.5072C47.3273 70.9205 55.2633 73.6512 66.698 75.6992L92.81 80.3072C124.213 85.4272 139.914 101.982 139.914 129.971C139.914 147.55 133.855 161.203 121.738 170.931C109.621 180.659 92.81 185.523 71.306 185.523C50.6553 185.523 34.2713 181.001 22.154 171.955C10.0367 162.91 2.86867 150.11 0.650005 133.555C0.650005 133.214 0.650005 132.873 0.650005 132.531C0.650005 130.142 2.10067 128.947 5.00201 128.947ZM171.086 75.6992C182.35 63.5818 196.43 57.5232 213.326 57.5232C221.859 57.5232 229.539 59.2298 236.366 62.6432C243.193 66.0565 248.313 70.9205 251.726 77.2352H252.494V65.2032C252.494 62.1312 254.03 60.5952 257.102 60.5952H279.63C282.702 60.5952 284.238 62.1312 284.238 65.2032V177.843C284.238 180.915 282.702 182.451 279.63 182.451H257.102C254.03 182.451 252.494 180.915 252.494 177.843V165.811H251.726C248.313 172.126 243.193 176.99 236.366 180.403C229.539 183.817 221.859 185.523 213.326 185.523C196.43 185.523 182.35 179.465 171.086 167.347C159.822 155.059 154.19 139.785 154.19 121.523C154.19 103.262 159.822 87.9872 171.086 75.6992ZM196.43 146.355C202.403 153.011 210.339 156.339 220.238 156.339C230.137 156.339 238.073 153.097 244.046 146.611C250.019 139.955 253.006 131.593 253.006 121.523C253.006 111.454 250.019 103.177 244.046 96.6912C238.073 90.2058 230.137 86.9632 220.238 86.9632C210.339 86.9632 202.403 90.2058 196.43 96.6912C190.286 103.177 187.214 111.454 187.214 121.523C187.214 131.593 190.286 139.87 196.43 146.355ZM301.718 60.5952H327.062C329.793 60.5952 331.499 61.7898 332.182 64.1792L363.158 144.307H363.67L394.646 64.1792C395.67 61.7898 397.462 60.5952 400.022 60.5952H425.11C427.841 60.5952 429.206 61.5338 429.206 63.4112C429.206 64.0938 429.035 64.8618 428.694 65.7152L380.822 178.867C379.969 181.257 378.177 182.451 375.446 182.451H351.382C348.651 182.451 346.859 181.257 346.006 178.867L298.134 65.7152C297.793 64.8618 297.622 64.0938 297.622 63.4112C297.622 61.5338 298.987 60.5952 301.718 60.5952ZM431.58 121.779C431.58 103.177 437.553 87.8165 449.5 75.6992C461.617 63.5818 477.233 57.5232 496.348 57.5232C514.951 57.5232 530.14 63.4112 541.916 75.1872C553.692 86.9632 559.58 102.323 559.58 121.267V124.595C559.58 128.862 557.532 130.995 553.436 130.995H463.836C466.567 150.281 477.831 159.923 497.628 159.923C511.623 159.923 520.753 155.742 525.02 147.379C526.385 144.99 528.177 143.795 530.396 143.795H551.9C553.436 143.795 554.545 144.137 555.228 144.819C556.081 145.331 556.508 145.929 556.508 146.611C556.508 146.953 556.423 147.294 556.252 147.635C552.839 158.899 545.927 168.03 535.516 175.027C525.105 182.025 512.305 185.523 497.116 185.523C477.489 185.523 461.617 179.635 449.5 167.859C437.553 155.913 431.58 140.553 431.58 121.779ZM464.348 109.747H527.068C524.167 91.8272 513.927 82.8672 496.348 82.8672C478.428 82.8672 467.761 91.8272 464.348 109.747ZM564.566 61.8752C565.249 61.0218 566.358 60.5952 567.894 60.5952H592.47C595.201 60.5952 596.907 61.8752 597.59 64.4352L623.19 143.539H623.958L650.838 64.4352C651.691 61.8752 653.398 60.5952 655.958 60.5952H677.462C680.022 60.5952 681.729 61.8752 682.582 64.4352L709.462 143.539H710.23L735.83 64.4352C736.683 61.8752 738.39 60.5952 740.95 60.5952H765.526C767.062 60.5952 768.086 61.0218 768.598 61.8752C769.11 62.5578 769.366 63.2405 769.366 63.9232C769.366 64.4352 769.281 65.0325 769.11 65.7152L728.918 178.867C727.894 181.257 726.187 182.451 723.798 182.451H698.454C696.065 182.451 694.358 181.257 693.334 178.867L666.966 103.347H666.454L640.086 178.867C639.233 181.257 637.526 182.451 634.966 182.451H609.622C607.062 182.451 605.355 181.257 604.502 178.867L564.31 65.7152C564.139 65.0325 564.054 64.4352 564.054 63.9232C564.054 63.0698 564.225 62.3872 564.566 61.8752ZM787.186 195.763H809.458C811.847 195.763 813.469 197.129 814.322 199.859C817.735 209.246 826.61 213.939 840.946 213.939C861.085 213.939 871.154 203.529 871.154 182.707V161.715H870.13C866.887 167.859 861.767 172.723 854.77 176.307C847.943 179.891 839.922 181.683 830.706 181.683C816.029 181.683 804.509 177.246 796.146 168.371C787.954 159.497 783.858 147.123 783.858 131.251V65.2032C783.858 62.1312 785.394 60.5952 788.466 60.5952H811.762C814.663 60.5952 816.114 62.1312 816.114 65.2032V123.315C816.114 142.942 824.477 152.755 841.202 152.755C850.077 152.755 857.074 150.11 862.194 144.819C867.314 139.529 869.874 132.19 869.874 122.803V65.2032C869.874 62.1312 871.41 60.5952 874.482 60.5952H897.522C900.594 60.5952 902.13 62.1312 902.13 65.2032V182.707C902.13 200.969 896.669 215.219 885.746 225.459C874.994 235.699 860.061 240.819 840.946 240.819C824.391 240.819 810.994 237.15 800.754 229.811C790.685 222.643 784.711 212.83 782.834 200.371C782.834 200.03 782.834 199.689 782.834 199.347C782.834 196.958 784.285 195.763 787.186 195.763ZM923.332 157.875L984.26 88.4992H927.428C924.527 88.4992 923.076 86.9632 923.076 83.8912V65.2032C923.076 62.1312 924.527 60.5952 927.428 60.5952H1022.4C1025.31 60.5952 1026.76 62.1312 1026.76 65.2032V79.5392C1026.76 81.9285 1026.07 83.8058 1024.71 85.1712L964.036 154.547H1022.92C1025.82 154.547 1027.27 156.083 1027.27 159.155V177.843C1027.27 180.915 1025.82 182.451 1022.92 182.451H925.636C922.564 182.451 921.028 180.915 921.028 177.843V163.507C921.028 161.459 921.796 159.582 923.332 157.875ZM1038.61 121.779C1038.61 103.177 1044.58 87.8165 1056.53 75.6992C1068.65 63.5818 1084.26 57.5232 1103.38 57.5232C1121.98 57.5232 1137.17 63.4112 1148.95 75.1872C1160.72 86.9632 1166.61 102.323 1166.61 121.267V124.595C1166.61 128.862 1164.56 130.995 1160.47 130.995H1070.87C1073.6 150.281 1084.86 159.923 1104.66 159.923C1118.65 159.923 1127.78 155.742 1132.05 147.379C1133.42 144.99 1135.21 143.795 1137.43 143.795H1158.93C1160.47 143.795 1161.58 144.137 1162.26 144.819C1163.11 145.331 1163.54 145.929 1163.54 146.611C1163.54 146.953 1163.45 147.294 1163.28 147.635C1159.87 158.899 1152.96 168.03 1142.55 175.027C1132.14 182.025 1119.34 185.523 1104.15 185.523C1084.52 185.523 1068.65 179.635 1056.53 167.859C1044.58 155.913 1038.61 140.553 1038.61 121.779ZM1071.38 109.747H1134.1C1131.2 91.8272 1120.96 82.8672 1103.38 82.8672C1085.46 82.8672 1074.79 91.8272 1071.38 109.747Z" fill="url(#paint0_linear_931_27371)"/>
<defs>
<linearGradient id="paint0_linear_931_27371" x1="583" y1="66.4512" x2="583" y2="166.451" gradientUnits="userSpaceOnUse">
<stop stop-color="#F2E6F9" stop-opacity="0.3"/>
<stop offset="1" stop-color="#D2A1EE" stop-opacity="0.27"/>
</linearGradient>
</defs>
</svg>
