<svg width="159" height="38" viewBox="0 0 159 38" fill="none" xmlns="http://www.w3.org/2000/svg">
<path d="M14.5194 31.5175C14.9411 30.3468 14.8301 29.2567 14.2913 28.2158C12.8446 25.4137 11.3784 22.622 9.92117 19.8258C8.92768 17.9215 7.9282 16.0201 6.94822 14.1098C5.31092 10.9214 6.13332 6.93519 8.88866 4.66546C8.99222 4.58046 9.10777 4.51186 9.35839 4.34036C9.33738 4.62967 9.35539 4.81161 9.30587 4.97416C8.67406 7.07388 8.69057 9.17808 9.49196 11.2062C10.0517 12.6244 10.8066 13.9681 11.5089 15.3281C13.5004 19.1861 15.5879 22.9963 17.4909 26.896C19.8215 31.6756 16.5859 37.3171 11.2673 37.8599C7.94621 38.1999 5.01528 36.5551 3.51754 33.7276C2.37099 31.5637 1.26194 29.382 0.113883 27.2196C-0.0842135 26.8453 -0.0346897 26.6664 0.347997 26.5068C0.709673 26.3562 1.04584 26.1489 1.40001 25.9789C2.36498 25.5151 3.31495 25.8327 3.81319 26.7797C4.79017 28.6423 5.73112 30.5243 6.75612 32.3601C7.7376 34.1168 9.95869 34.8818 11.8616 34.1675C11.644 34.0243 11.4519 33.9021 11.2628 33.7738C10.0127 32.9342 9.14979 31.783 8.47746 30.4542C7.44046 28.4022 6.36593 26.3696 5.29591 24.3355C5.14434 24.0477 5.21187 23.9075 5.48951 23.7807C5.84668 23.6182 6.18735 23.4228 6.53852 23.2483C7.59353 22.7234 8.51498 23.0053 9.05825 24.0357C10.0037 25.8298 10.9267 27.6342 11.8781 29.4252C12.4334 30.4751 13.3158 31.1447 14.5194 31.5175ZM17.7505 3.73937C18.1617 3.67227 18.5714 3.54998 18.9826 3.54551C20.857 3.52761 22.2092 4.39107 23.0706 6.02849C23.9785 7.75689 24.876 9.49274 25.7794 11.2226C26.2551 12.1338 27.1961 12.4589 28.1175 12.0249C28.5137 11.8385 28.8889 11.6074 29.2926 11.4389C29.6378 11.2957 29.6543 11.1242 29.4937 10.82C28.3727 8.69342 27.2426 6.57132 26.1606 4.42686C24.5908 1.31753 21.1136 -0.483937 17.4819 0.264687C12.624 1.26534 9.86564 6.75475 12.1092 11.157C14.4894 15.8277 16.9326 20.4686 19.3623 25.1139C20.3693 27.0392 20.902 29.0524 20.6154 31.2297C20.5268 31.8963 20.3543 32.551 20.2297 33.2131C20.2132 33.3026 20.2447 33.3995 20.2537 33.4935C20.3468 33.4741 20.4488 33.4726 20.5298 33.4308C20.6214 33.3846 20.6979 33.3055 20.7775 33.2355C23.5688 30.7793 24.2622 26.9959 22.5183 23.6435C20.1952 19.1786 17.8555 14.7242 15.5339 10.2578C15.2938 9.79547 15.0852 9.30783 14.9411 8.80974C14.716 8.03129 14.758 7.24986 15.0732 6.46843C16.3398 6.85616 17.2267 7.60926 17.809 8.73816C18.711 10.4874 19.6219 12.2307 20.5343 13.974C21.0296 14.921 21.9766 15.2327 22.949 14.7719C23.3167 14.5974 23.6634 14.3752 24.0386 14.2216C24.3987 14.074 24.4272 13.9099 24.2502 13.5759C23.2312 11.6506 22.2077 9.72539 21.2382 7.77628C20.4293 6.14929 19.3848 4.75345 17.749 3.86017C17.746 3.82289 17.749 3.78113 17.7505 3.73937Z" fill="white"/>
<path d="M45.0566 25.7627C45.0566 26.6068 44.845 27.3674 44.4203 28.0474C43.9956 28.7274 43.3518 29.2628 42.4888 29.6565C41.6259 30.0502 40.5904 30.247 39.3838 30.247C38.7325 30.247 37.9071 30.2023 36.9076 30.1128C35.9081 30.0233 35.0017 29.8757 34.1913 29.6699C33.8236 29.576 33.639 29.3567 33.639 29.0093V27.2809C33.639 27.169 33.69 27.0661 33.7951 26.9722C33.8986 26.8782 34.0217 26.832 34.1628 26.832H34.2483C35.9652 27.0378 37.5874 27.1407 39.1152 27.1407C39.9256 27.1407 40.4734 27.0214 40.7555 26.7828C41.0376 26.5442 41.1802 26.2042 41.1802 25.7642C41.1802 25.4839 41.0812 25.2348 40.8831 25.0186C40.685 24.8039 40.3593 24.5593 39.9076 24.2879L35.9321 21.8705C35.1878 21.4112 34.595 20.84 34.1568 20.1555C33.7186 19.471 33.4995 18.7224 33.4995 17.9067C33.4995 15.03 35.3333 13.5909 39.0026 13.5909C40.1342 13.5909 41.0706 13.6401 41.8105 13.7385C42.5504 13.837 43.3353 13.9801 44.1652 14.168C44.5133 14.253 44.6889 14.4723 44.6889 14.8287V16.487C44.6889 16.8523 44.5238 17.0358 44.1937 17.0358H44.1081C42.4678 16.8106 40.8741 16.6987 39.3268 16.6987C38.62 16.6987 38.1082 16.7882 37.7915 16.9657C37.4749 17.1431 37.3173 17.4578 37.3173 17.9082C37.3173 18.1244 37.3908 18.2974 37.5364 18.4286C37.682 18.5599 37.9956 18.7806 38.4774 19.0893L42.2832 21.3948C43.0561 21.863 43.6459 22.3373 44.0511 22.8145C44.4563 23.2932 44.7249 23.7704 44.857 24.2491C44.9906 24.7218 45.0566 25.2289 45.0566 25.7627Z" fill="white"/>
<path d="M59.8358 28.7289C59.8358 28.9541 59.7863 29.1181 59.6872 29.221C59.5882 29.3239 59.3736 29.4179 59.0434 29.5014C58.0724 29.746 57.091 29.9309 56.1005 30.0562C55.11 30.1829 54.1525 30.2455 53.2281 30.2455C50.9545 30.2455 49.2316 29.6132 48.0581 28.3471C46.8845 27.0825 46.2962 25.3064 46.2962 23.0188V20.8117C46.2962 19.313 46.5513 18.0185 47.0601 16.9314C47.5688 15.8442 48.3402 15.0151 49.3727 14.4439C50.4052 13.8728 51.6898 13.5864 53.2281 13.5864C53.8509 13.5864 54.4947 13.6163 55.1595 13.6774C55.8243 13.7385 56.5087 13.8295 57.211 13.9518C57.9134 14.0741 58.5242 14.2008 59.0434 14.3321C59.3736 14.4171 59.5882 14.5095 59.6872 14.6124C59.7863 14.7153 59.8358 14.8794 59.8358 15.1046V28.7289ZM56.0029 26.9438V16.8926C55.6818 16.827 55.2901 16.7778 54.8294 16.745C54.3671 16.7122 53.8344 16.6958 53.2311 16.6958C52.062 16.6958 51.2501 17.0537 50.7984 17.771C50.3452 18.4883 50.1201 19.5023 50.1201 20.8147V23.0218C50.1201 24.3252 50.3482 25.3362 50.8059 26.058C51.2636 26.7798 52.0725 27.1407 53.2326 27.1407C54.4377 27.1407 55.3621 27.0751 56.0029 26.9438Z" fill="white"/>
<path d="M74.8987 14.25C74.8987 14.344 74.8896 14.4096 74.8701 14.4469L71.2204 27.5478C70.7296 29.3463 69.523 30.247 67.5991 30.247C65.6947 30.247 64.4956 29.3478 64.0063 27.5478L60.3566 14.4469C60.337 14.4096 60.328 14.344 60.328 14.25C60.328 14.1278 60.3701 14.0204 60.4556 13.9264C60.5411 13.8325 60.6537 13.7863 60.7948 13.7863H63.6942C63.9958 13.7863 64.1894 13.9786 64.2735 14.3634L67.0468 26.4249C67.1414 26.9021 67.3245 27.1422 67.5991 27.1422C67.8722 27.1422 68.0568 26.9036 68.1514 26.4249L70.9382 14.3634C70.9757 14.1755 71.0493 14.0323 71.1573 13.9339C71.2654 13.8355 71.3959 13.7863 71.546 13.7863H74.4454C74.5775 13.7863 74.6855 13.828 74.7711 13.913C74.8566 13.998 74.8987 14.1084 74.8987 14.25Z" fill="white"/>
<path d="M88.7444 22.5013C88.7444 22.989 88.5508 23.232 88.1651 23.232H78.73V23.317C78.73 24.3192 78.9941 25.1797 79.5224 25.897C80.0507 26.6143 80.9421 26.9722 82.1967 26.9722C83.8565 26.9722 85.6349 26.8738 87.5303 26.6769H87.6158C87.9655 26.6769 88.1396 26.8231 88.1396 27.1124V29.0093C88.1396 29.2628 88.0991 29.4388 88.0195 29.5357C87.94 29.6341 87.7764 29.7117 87.5318 29.7683C86.6164 29.9368 85.7399 30.0591 84.901 30.1337C84.0621 30.2083 83.0671 30.247 81.9161 30.247C81.1237 30.247 80.3253 30.1248 79.5179 29.8817C78.712 29.6386 77.9541 29.2419 77.2473 28.6946C76.5404 28.1458 75.9717 27.4017 75.5425 26.4592C75.1133 25.5167 74.8987 24.3714 74.8987 23.0218V20.8997C74.8987 18.6419 75.5094 16.8583 76.731 15.5504C77.9526 14.2426 79.662 13.5894 81.859 13.5894C83.3027 13.5894 84.5438 13.8981 85.5869 14.517C86.6284 15.1359 87.4162 15.9934 87.949 17.0895C88.4818 18.1855 88.7489 19.4561 88.7489 20.8997V22.5013H88.7444ZM84.8965 20.5194V20.4061C84.8965 19.6843 84.769 19.055 84.5153 18.5151C84.2602 17.9768 83.9045 17.5667 83.4468 17.2848C82.9891 17.003 82.4593 16.8628 81.8545 16.8628C80.9301 16.8628 80.1827 17.1745 79.6124 17.7978C79.0422 18.4212 78.757 19.2906 78.757 20.4061V20.5194H84.8965Z" fill="white"/>
<path d="M110.13 23.7808C110.13 26.1236 109.585 27.7819 108.496 28.7572C107.406 29.7325 106.003 30.2187 104.287 30.2187C103.015 30.2187 101.736 29.989 100.453 29.5297C99.17 29.989 97.8884 30.2187 96.6052 30.2187C94.8884 30.2187 93.4837 29.7296 92.3897 28.7498C91.2957 27.77 90.7494 26.1147 90.7494 23.7808V14.7705C90.7494 14.6109 90.8064 14.4752 90.919 14.3634C91.033 14.2515 91.1696 14.1949 91.3287 14.1949H92.6868C92.8654 14.1949 93.008 14.2471 93.1115 14.35C93.2151 14.4529 93.2676 14.593 93.2676 14.772V23.7823C93.2676 24.8128 93.3952 25.6449 93.6503 26.2772C93.9054 26.9095 94.2941 27.3659 94.8179 27.6477C95.3416 27.9281 96.0139 28.0698 96.8333 28.0698C97.1725 28.0698 97.5012 28.0414 97.8163 27.9848C98.133 27.9281 98.5772 27.8297 99.1535 27.6895V14.7705C99.1535 14.6109 99.2105 14.4752 99.3231 14.3634C99.4356 14.2515 99.5722 14.1949 99.7328 14.1949H101.148C101.327 14.1949 101.469 14.2471 101.573 14.35C101.676 14.4529 101.729 14.593 101.729 14.772V27.691C102.823 27.9445 103.596 28.0713 104.049 28.0713C105.266 28.0713 106.163 27.7402 106.744 27.0796C107.325 26.4189 107.615 25.3198 107.615 23.7838V14.7735C107.615 14.6139 107.672 14.4782 107.784 14.3664C107.898 14.2545 108.033 14.1979 108.194 14.1979H109.552C109.731 14.1979 109.873 14.25 109.977 14.3529C110.08 14.4558 110.133 14.596 110.133 14.775V23.7808H110.13Z" fill="white"/>
<path d="M124.909 30.0219C124.909 31.1269 124.789 32.053 124.549 32.7986C124.309 33.5443 123.941 34.1318 123.446 34.5628C122.951 34.9938 122.347 35.2965 121.634 35.4695C120.923 35.6425 120.048 35.729 119.01 35.729C117.114 35.729 115.52 35.5649 114.228 35.2369C114.011 35.1623 113.865 35.0818 113.79 34.9983C113.715 34.9133 113.676 34.7925 113.676 34.6329V33.8172C113.676 33.6665 113.723 33.5502 113.817 33.4652C113.912 33.3802 114.039 33.3385 114.198 33.3385H114.284C114.369 33.3474 114.722 33.3847 115.345 33.4503C115.968 33.5159 116.637 33.5696 117.354 33.6114C118.07 33.6531 118.622 33.674 119.01 33.674C119.906 33.674 120.596 33.5771 121.082 33.3862C121.568 33.1938 121.912 32.8374 122.115 32.3184C122.317 31.798 122.419 31.0329 122.419 30.0204V29.8802C122.089 29.9741 121.582 30.0532 120.899 30.1188C120.215 30.1844 119.652 30.2172 119.209 30.2172C114.88 30.2172 112.716 28.2308 112.716 24.2566V14.7675C112.716 14.608 112.773 14.4722 112.885 14.3604C112.999 14.2486 113.136 14.1919 113.295 14.1919H114.695C114.865 14.1919 115.001 14.2441 115.105 14.347C115.208 14.4499 115.261 14.5901 115.261 14.769V24.258C115.261 25.7106 115.588 26.7082 116.244 27.2525C116.9 27.7969 117.887 28.0683 119.208 28.0683C120.236 28.0683 121.288 27.9415 122.362 27.688V14.769C122.362 14.6094 122.419 14.4737 122.532 14.3619C122.644 14.25 122.781 14.1934 122.942 14.1934H124.342C124.511 14.1934 124.648 14.2456 124.751 14.3485C124.855 14.4514 124.908 14.5916 124.908 14.7705V30.0219H124.909Z" fill="white"/>
<path d="M138.048 29.4447C138.048 29.6043 137.986 29.74 137.863 29.8519C137.74 29.9637 137.608 30.0204 137.467 30.0204H129.813C128.909 30.0204 128.203 29.8712 127.699 29.57C127.195 29.2702 126.943 28.717 126.943 27.9117C126.943 27.181 127.165 26.5487 127.607 26.0133L135.09 16.7778C135.165 16.6659 135.204 16.5764 135.204 16.5108C135.204 16.3796 135.11 16.314 134.92 16.314H127.876C127.715 16.314 127.579 16.2573 127.466 16.1455C127.354 16.0336 127.297 15.8979 127.297 15.7383V14.769C127.297 14.6094 127.351 14.4737 127.459 14.3619C127.567 14.25 127.706 14.1934 127.876 14.1934H135.034C135.686 14.1934 136.225 14.256 136.654 14.3828C137.083 14.5095 137.404 14.7153 137.616 15.0017C137.827 15.288 137.934 15.6787 137.934 16.1753C137.934 16.8598 137.716 17.4548 137.283 17.9604L129.728 27.351C129.633 27.4449 129.587 27.5478 129.587 27.6597C129.587 27.8103 129.681 27.8848 129.87 27.8848H137.467C137.608 27.8848 137.74 27.946 137.863 28.0683C137.986 28.1906 138.048 28.3218 138.048 28.462V29.4447Z" fill="white"/>
<path d="M151.894 22.2761C151.894 22.6982 151.709 22.9084 151.341 22.9084H141.638V23.2604C141.638 24.3386 141.803 25.2408 142.133 25.9671C142.463 26.6933 142.942 27.2302 143.569 27.5761C144.196 27.9236 144.962 28.0966 145.868 28.0966C146.584 28.0966 147.417 28.0549 148.365 27.9699C149.314 27.8848 150.132 27.7924 150.819 27.6895H150.96C151.271 27.6895 151.427 27.8252 151.427 28.0966V29.0659C151.427 29.2628 151.386 29.4104 151.307 29.5089C151.227 29.6073 151.073 29.6848 150.848 29.7415C150.046 29.8921 149.249 30.0084 148.457 30.0934C147.665 30.1784 146.802 30.2202 145.868 30.2202C144.633 30.2202 143.511 29.9995 142.501 29.5596C141.492 29.1196 140.668 28.3695 140.032 27.3107C139.396 26.2519 139.077 24.8501 139.077 23.1068V21.0965C139.077 19.738 139.327 18.5166 139.828 17.4339C140.328 16.3513 141.066 15.5057 142.041 14.8973C143.017 14.2888 144.175 13.9831 145.514 13.9831C146.89 13.9831 148.058 14.2858 149.015 14.8898C149.973 15.4938 150.692 16.3304 151.172 17.3996C151.654 18.4674 151.894 19.6917 151.894 21.0682V22.2761ZM149.305 20.9832V20.843C149.305 19.2965 148.988 18.1363 148.356 17.3638C147.725 16.5914 146.776 16.2036 145.513 16.2036C144.692 16.2036 143.992 16.3811 143.412 16.7375C142.831 17.0939 142.391 17.6233 142.089 18.3257C141.788 19.0281 141.636 19.8677 141.636 20.8415V20.9817H149.305V20.9832Z" fill="white"/>
</svg>
