<svg width="157" height="157" viewBox="0 0 157 157" fill="none" xmlns="http://www.w3.org/2000/svg">
<circle cx="78.5972" cy="78.697" r="78" fill="url(#paint0_linear_923_20974)"/>
<circle cx="78.5972" cy="78.697" r="60" transform="rotate(90 78.5972 78.697)" fill="url(#paint1_linear_923_20974)"/>
<path opacity="0.5" d="M106.097 78.6968C106.097 93.8846 93.785 106.197 78.5972 106.197C63.4093 106.197 51.0972 93.8846 51.0972 78.6968C51.0972 63.5089 63.4093 51.1968 78.5972 51.1968C93.785 51.1968 106.097 63.5089 106.097 78.6968Z" fill="#8005C2"/>
<path d="M71.0347 78.6973C71.0347 77.5582 71.9581 76.6348 73.0972 76.6348H76.5347V73.1973C76.5347 72.0582 77.4581 71.1348 78.5972 71.1348C79.7363 71.1348 80.6597 72.0582 80.6597 73.1973V76.6348H84.0972C85.2363 76.6348 86.1597 77.5582 86.1597 78.6973C86.1597 79.8364 85.2363 80.7598 84.0972 80.7598H80.6597V84.1973C80.6597 85.3364 79.7363 86.2598 78.5972 86.2598C77.4581 86.2598 76.5347 85.3364 76.5347 84.1973V80.7598H73.0972C71.9581 80.7598 71.0347 79.8364 71.0347 78.6973Z" fill="#8005C2"/>
<path d="M51.1733 80.7593C51.1229 80.0784 51.0972 79.3906 51.0972 78.6968C51.0972 78.003 51.1229 77.3152 51.1733 76.6343H59.3472C60.4863 76.6343 61.4097 77.5577 61.4097 78.6968C61.4097 79.8359 60.4863 80.7593 59.3472 80.7593H51.1733Z" fill="#8005C2"/>
<path d="M80.6597 106.121C79.9788 106.171 79.291 106.197 78.5972 106.197C77.9034 106.197 77.2156 106.171 76.5347 106.121V97.9468C76.5347 96.8077 77.4581 95.8843 78.5972 95.8843C79.7363 95.8843 80.6597 96.8077 80.6597 97.9468V106.121Z" fill="#8005C2"/>
<path d="M106.021 76.6343C106.071 77.3152 106.097 78.003 106.097 78.6968C106.097 79.3906 106.071 80.0784 106.021 80.7593H97.8472C96.7081 80.7593 95.7847 79.8359 95.7847 78.6968C95.7847 77.5577 96.7081 76.6343 97.8472 76.6343H106.021Z" fill="#8005C2"/>
<path d="M80.6597 51.273V59.4468C80.6597 60.5859 79.7363 61.5093 78.5972 61.5093C77.4581 61.5093 76.5347 60.5859 76.5347 59.4468V51.273C77.2156 51.2225 77.9034 51.1968 78.5972 51.1968C79.291 51.1968 79.9788 51.2225 80.6597 51.273Z" fill="#8005C2"/>
<defs>
<linearGradient id="paint0_linear_923_20974" x1="78.5972" y1="0.697021" x2="78.5972" y2="156.697" gradientUnits="userSpaceOnUse">
<stop stop-color="#F2E6F9"/>
<stop offset="1" stop-color="#911BD1"/>
</linearGradient>
<linearGradient id="paint1_linear_923_20974" x1="78.5972" y1="18.697" x2="78.5972" y2="138.697" gradientUnits="userSpaceOnUse">
<stop stop-color="#F2E6F9"/>
<stop offset="1" stop-color="#C086DE"/>
</linearGradient>
</defs>
</svg>
