<svg xmlns="http://www.w3.org/2000/svg" width="156" height="157" fill="none" viewBox="0 0 156 157"><circle cx="78" cy="78.697" r="78" fill="url(#paint0_linear_923_20948)"/><circle cx="78" cy="78.697" r="60" fill="url(#paint1_linear_923_20948)" transform="rotate(90 78 78.697)"/><path fill="#8005C2" d="M62.1875 71.8215C62.1874 70.6824 61.2638 69.7591 60.1247 69.7593C58.9856 69.7594 58.0624 70.683 58.0625 71.822L58.063 75.9473C58.0632 77.0864 58.9867 78.0097 60.1258 78.0095C61.2649 78.0094 62.1882 77.0859 62.188 75.9468L62.1875 71.8215Z"/><path fill="#8005C2" fill-rule="evenodd" d="M97.25 70.4473C97.25 78.0412 91.0939 84.1973 83.5 84.1973C75.9061 84.1973 69.75 78.0412 69.75 70.4473C69.75 62.8533 75.9061 56.6973 83.5 56.6973C91.0939 56.6973 97.25 62.8533 97.25 70.4473ZM81.4375 64.9473C81.4375 63.8082 82.3609 62.8848 83.5 62.8848C87.6767 62.8848 91.0625 66.2706 91.0625 70.4473C91.0625 74.6239 87.6767 78.0098 83.5 78.0098C79.3233 78.0098 75.9375 74.6239 75.9375 70.4473C75.9375 69.3082 76.8609 68.3848 78 68.3848C79.1391 68.3848 80.0625 69.3082 80.0625 70.4473C80.0625 72.3457 81.6015 73.8848 83.5 73.8848C85.3985 73.8848 86.9375 72.3457 86.9375 70.4473C86.9375 68.5488 85.3985 67.0098 83.5 67.0098C82.3609 67.0098 81.4375 66.0864 81.4375 64.9473Z" clip-rule="evenodd"/><path fill="#8005C2" d="M83.5 84.197C91.0939 84.197 97.25 78.0409 97.25 70.447C97.25 67.3735 96.2415 64.5355 94.5375 62.2458C96.6192 62.3097 98.2903 62.4572 99.6603 62.7977C101.087 63.1524 102.187 63.7164 103.084 64.6134C105.5 67.0298 105.5 70.9188 105.5 78.697C105.5 86.4752 105.5 90.3643 103.084 92.7807C101.58 94.2847 99.505 94.8525 96.2772 95.067L99.0186 99.6359C99.6046 100.613 99.2879 101.88 98.3111 102.466C97.3344 103.052 96.0675 102.735 95.4814 101.758L91.5425 95.1933C90.7444 95.197 89.8981 95.197 89 95.197H67C66.1019 95.197 65.2556 95.197 64.4575 95.1933L60.5186 101.758C59.9325 102.735 58.6656 103.052 57.6889 102.466C56.7121 101.88 56.3954 100.613 56.9814 99.6359L59.7228 95.067C56.495 94.8525 54.4204 94.2847 52.9164 92.7807C50.5 90.3643 50.5 86.4752 50.5 78.697C50.5 70.9188 50.5 67.0298 52.9164 64.6134C55.3327 62.197 59.2218 62.197 67 62.197H72.499C70.7728 64.4951 69.75 67.3516 69.75 70.447C69.75 78.0409 75.9061 84.197 83.5 84.197Z" opacity=".5"/><defs><linearGradient id="paint0_linear_923_20948" x1="78" x2="78" y1=".697" y2="156.697" gradientUnits="userSpaceOnUse"><stop stop-color="#F2E6F9"/><stop offset="1" stop-color="#911BD1"/></linearGradient><linearGradient id="paint1_linear_923_20948" x1="78" x2="78" y1="18.697" y2="138.697" gradientUnits="userSpaceOnUse"><stop stop-color="#F2E6F9"/><stop offset="1" stop-color="#C086DE"/></linearGradient></defs></svg>