<svg width="157" height="157" viewBox="0 0 157 157" fill="none" xmlns="http://www.w3.org/2000/svg">
<circle cx="78.5972" cy="78.4224" r="78" fill="url(#paint0_linear_923_20961)"/>
<circle cx="78.5972" cy="78.4224" r="60" transform="rotate(90 78.5972 78.4224)" fill="url(#paint1_linear_923_20961)"/>
<path opacity="0.5" d="M51.0972 89.4226C51.0972 81.6444 51.0972 77.7553 53.5135 75.339C55.9299 72.9226 59.819 72.9226 67.5972 72.9226H89.5972C97.3753 72.9226 101.264 72.9226 103.681 75.339C106.097 77.7553 106.097 81.6444 106.097 89.4226C106.097 97.2008 106.097 101.09 103.681 103.506C101.264 105.923 97.3753 105.923 89.5972 105.923H67.5972C59.819 105.923 55.9299 105.923 53.5135 103.506C51.0972 101.09 51.0972 97.2008 51.0972 89.4226Z" fill="#8005C2"/>
<path d="M78.5972 94.9221C81.6347 94.9221 84.0972 92.4597 84.0972 89.4221C84.0972 86.3846 81.6347 83.9221 78.5972 83.9221C75.5596 83.9221 73.0972 86.3846 73.0972 89.4221C73.0972 92.4597 75.5596 94.9221 78.5972 94.9221Z" fill="#8005C2"/>
<path d="M64.1597 67.4221C64.1597 59.4485 70.6236 52.9846 78.5972 52.9846C86.5708 52.9846 93.0347 59.4485 93.0347 67.4221V72.9319C94.5949 72.9465 95.9593 72.9826 97.1597 73.0723V67.4221C97.1597 57.1703 88.849 48.8596 78.5972 48.8596C68.3454 48.8596 60.0347 57.1703 60.0347 67.4221V73.0723C61.2351 72.9826 62.5994 72.9465 64.1597 72.9319V67.4221Z" fill="#8005C2"/>
<defs>
<linearGradient id="paint0_linear_923_20961" x1="78.5972" y1="0.422363" x2="78.5972" y2="156.422" gradientUnits="userSpaceOnUse">
<stop stop-color="#F2E6F9"/>
<stop offset="1" stop-color="#911BD1"/>
</linearGradient>
<linearGradient id="paint1_linear_923_20961" x1="78.5972" y1="18.4224" x2="78.5972" y2="138.422" gradientUnits="userSpaceOnUse">
<stop stop-color="#F2E6F9"/>
<stop offset="1" stop-color="#C086DE"/>
</linearGradient>
</defs>
</svg>
