<svg width="157" height="157" viewBox="0 0 157 157" fill="none" xmlns="http://www.w3.org/2000/svg">
<circle cx="78.5405" cy="78.5959" r="78" fill="url(#paint0_linear_930_23291)"/>
<circle cx="78.5405" cy="78.5959" r="60" transform="rotate(90 78.5405 78.5959)" fill="url(#paint1_linear_930_23291)"/>
<path fill-rule="evenodd" clip-rule="evenodd" d="M88.6274 64.8462C88.6274 63.7071 89.5509 62.7837 90.6899 62.7837H106.041C107.18 62.7837 108.103 63.7071 108.103 64.8462V80.0972C108.103 81.2363 107.18 82.1597 106.041 82.1597C104.902 82.1597 103.978 81.2363 103.978 80.0972V66.9087H90.6899C89.5509 66.9087 88.6274 65.9853 88.6274 64.8462Z" fill="#8005C2"/>
<path opacity="0.5" d="M101.056 66.9087L84.2925 83.5537C82.8795 84.9581 81.9634 85.8624 81.2007 86.4411C80.4856 86.9835 80.1513 87.0442 79.9298 87.0441C79.7083 87.0441 79.374 86.9834 78.659 86.4408C77.8964 85.8619 76.9806 84.9574 75.5679 83.5527L74.8136 82.8027C73.5232 81.5193 72.4109 80.4132 71.4008 79.6467C70.3181 78.825 69.115 78.2034 67.6339 78.204C66.1528 78.2045 64.9501 78.8269 63.868 79.6494C62.8584 80.4167 61.747 81.5236 60.4574 82.8079L49.5852 93.6347C48.778 94.4385 48.7753 95.7444 49.5791 96.5515C50.3828 97.3587 51.6887 97.3614 52.4959 96.5577L63.2722 85.8264C64.6851 84.4194 65.6012 83.5133 66.3641 82.9335C67.0793 82.3899 67.4138 82.329 67.6354 82.329C67.8569 82.3289 68.1915 82.3895 68.9071 82.9326C69.6705 83.5119 70.5872 84.4173 72.0011 85.8232L72.7553 86.5731C74.0446 87.8553 75.1559 88.9605 76.1652 89.7265C77.2471 90.5477 78.4493 91.169 79.9293 91.1691C81.4094 91.1693 82.6117 90.5483 83.6938 89.7274C84.7033 88.9616 85.8149 87.8567 87.1045 86.5747L103.978 69.8198V66.9087H101.056Z" fill="#8005C2"/>
<defs>
<linearGradient id="paint0_linear_930_23291" x1="78.5405" y1="0.595947" x2="78.5405" y2="156.596" gradientUnits="userSpaceOnUse">
<stop stop-color="#F2E6F9"/>
<stop offset="1" stop-color="#911BD1"/>
</linearGradient>
<linearGradient id="paint1_linear_930_23291" x1="78.5405" y1="18.5959" x2="78.5405" y2="138.596" gradientUnits="userSpaceOnUse">
<stop stop-color="#F2E6F9"/>
<stop offset="1" stop-color="#C086DE"/>
</linearGradient>
</defs>
</svg>
