<svg xmlns="http://www.w3.org/2000/svg" width="157" height="157" fill="none" viewBox="0 0 157 157"><circle cx="78.598" cy="78.422" r="78" fill="url(#paint0_linear_930_22127)"/><circle cx="78.598" cy="78.422" r="60" fill="url(#paint1_linear_930_22127)" transform="rotate(90 78.5977 78.4224)"/><path fill="#8005C2" d="M53.8859 67.3803C50.6641 70.6021 50.6641 75.7875 50.6641 86.1584C50.6641 96.5293 50.6641 101.715 53.8859 104.937C57.1077 108.158 62.2932 108.158 72.6641 108.158H83.6641C94.035 108.158 99.2204 108.158 102.442 104.937C105.664 101.715 105.664 96.5293 105.664 86.1584C105.664 75.7875 105.664 70.6021 102.442 67.3803C99.2204 64.1584 94.035 64.1584 83.6641 64.1584H72.6641C62.2932 64.1584 57.1077 64.1584 53.8859 67.3803Z" opacity=".5"/><path fill="#8005C2" d="M89.1641 75.1582C90.6828 75.1582 91.9141 73.927 91.9141 72.4082C91.9141 70.8894 90.6828 69.6582 89.1641 69.6582C87.6453 69.6582 86.4141 70.8894 86.4141 72.4082C86.4141 73.927 87.6453 75.1582 89.1641 75.1582Z"/><path fill="#8005C2" d="M69.9141 72.4082C69.9141 73.927 68.6828 75.1582 67.1641 75.1582C65.6453 75.1582 64.4141 73.927 64.4141 72.4082C64.4141 70.8894 65.6453 69.6582 67.1641 69.6582C68.6828 69.6582 69.9141 70.8894 69.9141 72.4082Z"/><path fill="#8005C2" d="M78.3071 51.0957H78.0211C75.5503 51.0956 73.4899 51.0956 71.8543 51.3155C70.1278 51.5476 68.5691 52.0582 67.3166 53.3107C66.064 54.5633 65.5534 56.122 65.3213 57.8484C65.1014 59.484 65.1015 61.5443 65.1016 64.0151L65.1016 64.2289C66.3584 64.1878 67.7288 64.1706 69.2266 64.1634V64.1582C69.2266 61.5072 69.231 59.7264 69.4095 58.398C69.5802 57.129 69.875 56.5859 70.2334 56.2275C70.5918 55.8692 71.1349 55.5743 72.4039 55.4037C73.7323 55.2251 75.513 55.2207 78.1641 55.2207C80.8151 55.2207 82.5959 55.2251 83.9242 55.4037C85.1933 55.5743 85.7364 55.8692 86.0947 56.2275C86.4531 56.5859 86.748 57.129 86.9186 58.398C87.0972 59.7264 87.1016 61.5072 87.1016 64.1582V64.1634C88.5994 64.1706 89.9697 64.1878 91.2266 64.2289V64.0152C91.2267 61.5444 91.2267 59.484 91.0068 57.8484C90.7747 56.122 90.2641 54.5633 89.0116 53.3107C87.759 52.0582 86.2003 51.5476 84.4739 51.3155C82.8383 51.0956 80.7778 51.0956 78.3071 51.0957Z"/><defs><linearGradient id="paint0_linear_930_22127" x1="78.598" x2="78.598" y1=".422" y2="156.422" gradientUnits="userSpaceOnUse"><stop stop-color="#F2E6F9"/><stop offset="1" stop-color="#911BD1"/></linearGradient><linearGradient id="paint1_linear_930_22127" x1="78.598" x2="78.598" y1="18.422" y2="138.422" gradientUnits="userSpaceOnUse"><stop stop-color="#F2E6F9"/><stop offset="1" stop-color="#C086DE"/></linearGradient></defs></svg>