<svg xmlns="http://www.w3.org/2000/svg" width="515" height="1167" fill="none" viewBox="0 0 515 1167"><g opacity=".05"><mask id="mask0_923_20815" style="mask-type:alpha" width="1060" height="1121" x="-568" y="23" maskUnits="userSpaceOnUse"><rect width="974.155" height="644.216" x="-590.311" y="773.694" fill="#8005C2" stroke="#D8B2EC" rx="57.5" transform="rotate(-52.465 -590.311 773.694)"/></mask><g mask="url(#mask0_923_20815)"><g clip-path="url(#clip0_923_20815)"><rect width="108.275" height="108.275" fill="#ECDAF6" transform="translate(-132.736 169.511) rotate(-52.465)"/><path fill="#8005C2" d="M-56.8229 159.564L-66.7699 83.6508L19.0902 149.617L-56.8229 159.564Z"/><path fill="#8005C2" d="M-56.8229 159.564L19.0902 149.617L-46.8759 235.477L-56.8229 159.564Z"/></g><g clip-path="url(#clip1_923_20815)"><rect width="108.275" height="108.275" fill="#ECDAF6" transform="translate(-66.7598 83.6372) rotate(-52.465)"/><path fill="#ECDAF6" d="M9.15341 73.6903L-0.793571 -2.22275L85.0665 63.7433L9.15341 73.6903Z"/><path fill="#ECDAF6" d="M9.15343 73.6903L85.0665 63.7433L19.1004 149.603L9.15343 73.6903Z"/><path fill="#ECDAF6" d="M9.15341 73.6903L-66.7597 83.6373L19.1004 149.603L9.15341 73.6903Z"/><path fill="#ECDAF6" d="M9.15343 73.6903L-0.793547 -2.22279L-66.7596 83.6373L9.15343 73.6903Z"/><path fill="#8005C2" d="M-66.7598 83.6372L-0.79369 -2.22283L85.0663 63.7432C48.6343 111.162 -19.3406 120.069 -66.7598 83.6372Z"/><path fill="#8005C2" d="M-33.7766 40.7073L-0.793574 -2.22274L42.1364 30.7603C23.9204 54.4699 -10.067 58.9233 -33.7766 40.7073Z"/></g><g clip-path="url(#clip2_923_20815)"><rect width="108.275" height="108.275" fill="#ECDAF6" transform="translate(-99.2271 1014.63) rotate(-52.465)"/><path fill="#ECDAF6" d="M-23.3139 1004.68L-33.2609 928.771L52.5992 994.737L-23.3139 1004.68Z"/><path fill="#ECDAF6" d="M-23.3139 1004.68L52.5992 994.737L-13.3669 1080.6L-23.3139 1004.68Z"/><path fill="#ECDAF6" d="M-23.3139 1004.68L-99.2269 1014.63L-13.3669 1080.6L-23.3139 1004.68Z"/><path fill="#ECDAF6" d="M-23.3139 1004.68L-33.2608 928.771L-99.2269 1014.63L-23.3139 1004.68Z"/><path fill="#8005C2" d="M-66.2439 971.701L-33.2609 928.771L9.66916 961.754C-8.54687 985.464 -42.5343 989.917 -66.2439 971.701Z"/></g><g clip-path="url(#clip3_923_20815)"><rect width="108.275" height="108.275" fill="#ECDAF6" transform="translate(-119.124 862.782) rotate(-52.465)"/><path fill="#ECDAF6" d="M-43.2111 852.835L-53.1581 776.922L32.702 842.888L-43.2111 852.835Z"/><path fill="#ECDAF6" d="M-43.2111 852.835L32.702 842.888L-33.2641 928.748L-43.2111 852.835Z"/><path fill="#8005C2" fill-rule="evenodd" d="M-53.1582 776.922L-119.124 862.782C-71.7051 899.214 -3.73021 890.307 32.7018 842.888L-10.2281 809.905C-28.4441 833.614 -62.4316 838.068 -86.1412 819.852L-53.1582 776.922Z" clip-rule="evenodd"/></g><rect width="108.275" height="108.275" fill="#ECDAF6" transform="translate(-33.2507 928.758) rotate(-52.465)"/><rect width="54.138" height="54.138" x="42.662" y="918.811" fill="#8005C2" transform="rotate(-52.465 42.6624 918.811)"/><rect width="108.275" height="108.275" fill="#ECDAF6" transform="translate(-139.021 710.932) rotate(-52.465)"/><g clip-path="url(#clip4_923_20815)"><rect width="108.275" height="108.275" fill="#ECDAF6" transform="translate(-53.1479 776.909) rotate(-52.465)"/><path fill="#ECDAF6" d="M22.7652 766.962L12.8182 691.049L98.6783 757.015L22.7652 766.962Z"/><path fill="#ECDAF6" d="M22.7652 766.962L98.6783 757.015L32.7122 842.875L22.7652 766.962Z"/><path fill="#ECDAF6" d="M22.7652 766.962L-53.1478 776.909L32.7122 842.875L22.7652 766.962Z"/><path fill="#ECDAF6" d="M22.7652 766.962L12.8183 691.049L-53.1478 776.909L22.7652 766.962Z"/><path fill="#8005C2" d="M-53.1479 776.909L-20.1649 733.979C3.54468 752.195 7.9981 786.182 -10.2179 809.892L-53.1479 776.909Z"/></g><g clip-path="url(#clip5_923_20815)"><rect width="108.275" height="108.275" fill="#ECDAF6" transform="translate(32.7253 842.885) rotate(-52.465)"/><rect width="21.655" height="21.655" x="63.091" y="838.906" fill="#8005C2" rx="10.828" transform="rotate(-52.465 63.0906 838.906)"/><rect width="21.655" height="21.655" x="97.435" y="865.293" fill="#8005C2" rx="10.828" transform="rotate(-52.465 97.4346 865.293)"/><rect width="21.655" height="21.655" x="89.477" y="804.562" fill="#8005C2" rx="10.828" transform="rotate(-52.465 89.4771 804.562)"/><rect width="21.655" height="21.655" x="123.821" y="830.948" fill="#8005C2" rx="10.828" transform="rotate(-52.465 123.821 830.948)"/></g><rect width="108.275" height="108.275" fill="#ECDAF6" transform="translate(-73.0452 625.059) rotate(-52.465)"/><rect width="43.31" height="43.31" x="-27.497" y="619.091" fill="#8005C2" transform="rotate(-52.465 -27.4973 619.091)"/><g clip-path="url(#clip6_923_20815)"><rect width="108.275" height="108.275" fill="#ECDAF6" transform="translate(12.8281 691.035) rotate(-52.465)"/><path fill="#ECDAF6" d="M88.7413 681.089L78.7943 605.175L164.654 671.142L88.7413 681.089Z"/><path fill="#ECDAF6" d="M88.7413 681.088L164.654 671.141L98.6883 757.002L88.7413 681.088Z"/><path fill="#ECDAF6" d="M88.7413 681.089L12.8282 691.035L98.6883 757.002L88.7413 681.089Z"/><path fill="#ECDAF6" d="M88.7413 681.088L78.7943 605.175L12.8283 691.035L88.7413 681.088Z"/><rect width="54.138" height="54.138" x="55.758" y="724.019" fill="#8005C2" transform="rotate(-52.465 55.7581 724.019)"/></g><rect width="108.275" height="108.275" fill="#ECDAF6" transform="translate(98.7014 757.012) rotate(-52.465)"/><path fill="#8005C2" d="M217.545 780.048C193.835 761.832 189.382 727.844 207.598 704.135L250.528 737.118L217.545 780.048Z"/><g clip-path="url(#clip7_923_20815)"><rect width="108.275" height="108.275" fill="#ECDAF6" transform="translate(-92.9419 473.209) rotate(-52.465)"/><path fill="#ECDAF6" d="M-17.0287 463.263L-26.9757 387.35L58.8843 453.316L-17.0287 463.263Z"/><path fill="#ECDAF6" d="M-17.0287 463.263L58.8844 453.316L-7.08172 539.176L-17.0287 463.263Z"/><path fill="#ECDAF6" d="M-17.0287 463.263L-92.9418 473.21L-7.08173 539.176L-17.0287 463.263Z"/><path fill="#ECDAF6" d="M-17.0287 463.263L-26.9757 387.349L-92.9418 473.21L-17.0287 463.263Z"/><path fill="#8005C2" d="M-59.9587 430.28L-26.9757 387.35L15.9543 420.333C-2.26171 444.042 -36.2491 448.496 -59.9587 430.28Z"/></g><g clip-path="url(#clip8_923_20815)"><rect width="108.275" height="108.275" fill="#ECDAF6" transform="translate(-7.0686 539.186) rotate(-52.465)"/><rect width="21.655" height="21.655" x="23.297" y="535.207" fill="#8005C2" rx="10.828" transform="rotate(-52.465 23.2966 535.207)"/><rect width="21.655" height="21.655" x="57.641" y="561.594" fill="#8005C2" rx="10.828" transform="rotate(-52.465 57.6406 561.594)"/><rect width="21.655" height="21.655" x="49.683" y="500.863" fill="#8005C2" rx="10.828" transform="rotate(-52.465 49.6831 500.863)"/><rect width="21.655" height="21.655" x="84.027" y="527.249" fill="#8005C2" rx="10.828" transform="rotate(-52.465 84.0271 527.249)"/></g><rect width="108.275" height="108.275" fill="#ECDAF6" transform="translate(78.8047 605.162) rotate(-52.465)"/><path fill="#8005C2" d="M197.648 628.198C173.938 609.982 169.485 575.995 187.701 552.285L230.631 585.268L197.648 628.198Z"/><g clip-path="url(#clip9_923_20815)"><rect width="108.275" height="108.275" fill="#ECDAF6" transform="translate(164.678 671.138) rotate(-52.465)"/><path fill="#ECDAF6" d="M240.591 661.192L230.644 585.278L316.504 651.245L240.591 661.192Z"/><path fill="#ECDAF6" d="M240.591 661.191L316.504 651.245L250.538 737.105L240.591 661.191Z"/><path fill="#ECDAF6" d="M240.591 661.192L164.678 671.139L250.538 737.105L240.591 661.192Z"/><path fill="#ECDAF6" d="M240.591 661.191L230.644 585.278L164.678 671.138L240.591 661.191Z"/><path fill="#8005C2" fill-rule="evenodd" d="M230.644 585.278L164.678 671.138C212.097 707.57 280.072 698.664 316.504 651.244L273.574 618.261C255.358 641.971 221.371 646.424 197.661 628.208L230.644 585.278Z" clip-rule="evenodd"/></g><g clip-path="url(#clip10_923_20815)"><rect width="108.275" height="108.275" fill="#8005C2" transform="translate(-112.839 321.36) rotate(-52.465)"/><rect width="108.275" height="108.275" x="-112.839" y="321.36" fill="#8005C2" transform="rotate(-52.465 -112.839 321.36)"/><g clip-path="url(#clip11_923_20815)"><rect width="36.092" height="36.092" x="-40.242" y="286.109" fill="#ECDAF6" transform="rotate(-52.465 -40.2417 286.109)"/><rect width="36.092" height="36.092" x="-33.61" y="336.718" fill="#ECDAF6" transform="rotate(-52.465 -33.6104 336.718)"/></g></g><g clip-path="url(#clip12_923_20815)"><rect width="108.275" height="108.275" fill="#ECDAF6" transform="translate(-26.9658 387.336) rotate(-52.465)"/><path fill="#ECDAF6" d="M48.9474 377.39L39.0004 301.476L124.86 367.443L48.9474 377.39Z"/><path fill="#ECDAF6" d="M48.9474 377.389L124.86 367.443L58.8944 453.303L48.9474 377.389Z"/><path fill="#ECDAF6" d="M48.9474 377.39L-26.9657 387.337L58.8943 453.303L48.9474 377.39Z"/><path fill="#ECDAF6" d="M48.9474 377.389L39.0004 301.476L-26.9657 387.336L48.9474 377.389Z"/><path fill="#8005C2" d="M-26.9658 387.336L39.0003 301.476C86.4194 337.908 95.3263 405.883 58.8942 453.303L-26.9658 387.336Z"/><path fill="#8005C2" d="M-26.9658 387.336L6.01722 344.406C29.7268 362.622 34.1802 396.61 15.9642 420.319L-26.9658 387.336Z"/></g><g clip-path="url(#clip13_923_20815)"><rect width="108.275" height="108.275" fill="#8005C2" transform="translate(58.9075 453.312) rotate(-52.465)"/><path fill="#ECDAF6" d="M134.821 443.366L124.874 367.453L210.734 433.419L134.821 443.366Z"/><path fill="#ECDAF6" d="M134.821 443.366L210.734 433.419L144.768 519.279L134.821 443.366Z"/><path fill="#ECDAF6" d="M134.821 443.366L58.9076 453.313L144.768 519.279L134.821 443.366Z"/><path fill="#ECDAF6" d="M134.821 443.366L124.874 367.453L58.9076 453.313L134.821 443.366Z"/><rect width="54.138" height="54.138" x="101.837" y="486.296" fill="#8005C2" transform="rotate(-52.465 101.837 486.296)"/></g><g clip-path="url(#clip14_923_20815)"><rect width="108.275" height="108.275" fill="#ECDAF6" transform="translate(144.781 519.289) rotate(-52.465)"/><path fill="#ECDAF6" d="M220.694 509.342L210.747 433.429L296.607 499.395L220.694 509.342Z"/><path fill="#ECDAF6" d="M220.694 509.342L296.607 499.395L230.641 585.255L220.694 509.342Z"/><path fill="#ECDAF6" d="M220.694 509.342L144.781 519.289L230.641 585.255L220.694 509.342Z"/><path fill="#ECDAF6" d="M220.694 509.342L210.747 433.429L144.781 519.289L220.694 509.342Z"/><path fill="#8005C2" d="M144.781 519.289L177.764 476.359C201.473 494.575 205.927 528.562 187.711 552.272L144.781 519.289Z"/></g><g clip-path="url(#clip15_923_20815)"><rect width="108.275" height="108.275" fill="#ECDAF6" transform="translate(230.654 585.265) rotate(-52.465)"/><path fill="#ECDAF6" d="M306.567 575.318L296.62 499.405L382.48 565.371L306.567 575.318Z"/><path fill="#ECDAF6" d="M306.567 575.318L382.48 565.371L316.514 651.231L306.567 575.318Z"/><path fill="#ECDAF6" d="M306.567 575.318L230.654 585.265L316.514 651.231L306.567 575.318Z"/><path fill="#ECDAF6" d="M306.567 575.318L296.62 499.405L230.654 585.265L306.567 575.318Z"/><path fill="#8005C2" d="M273.584 618.248C291.8 594.539 325.787 590.085 349.497 608.301L316.514 651.231L273.584 618.248Z"/></g><g clip-path="url(#clip16_923_20815)"><rect width="108.275" height="108.275" fill="#8005C2" transform="translate(-46.8628 235.487) rotate(-52.465)"/><rect width="21.655" height="21.655" x="-16.498" y="231.508" fill="#ECDAF6" rx="10.828" transform="rotate(-52.465 -16.4976 231.508)"/><rect width="21.655" height="21.655" x="17.846" y="257.895" fill="#ECDAF6" rx="10.828" transform="rotate(-52.465 17.8464 257.895)"/><rect width="21.655" height="21.655" x="9.889" y="197.164" fill="#ECDAF6" rx="10.828" transform="rotate(-52.465 9.88892 197.164)"/><rect width="21.655" height="21.655" x="44.233" y="223.551" fill="#ECDAF6" rx="10.828" transform="rotate(-52.465 44.2329 223.551)"/></g><g clip-path="url(#clip17_923_20815)"><rect width="108.275" height="108.275" fill="#8005C2" transform="translate(39.0103 301.463) rotate(-52.465)"/><path fill="#ECDAF6" fill-rule="evenodd" d="M77.3594 262.656C61.4204 283.402 65.3171 313.141 86.063 329.08C106.809 345.019 136.548 341.122 152.487 320.376C168.426 299.63 164.529 269.891 143.783 253.952C123.037 238.013 93.2985 241.91 77.3594 262.656ZM87.9399 270.785L94.1919 318.499L141.906 312.247L135.654 264.533L87.9399 270.785Z" clip-rule="evenodd"/></g><rect width="108.275" height="108.275" fill="#ECDAF6" transform="translate(124.884 367.439) rotate(-52.465)"/><rect width="43.31" height="43.31" x="170.432" y="361.471" fill="#8005C2" rx="21.655" transform="rotate(-52.465 170.432 361.471)"/><g clip-path="url(#clip18_923_20815)"><rect width="108.275" height="108.275" fill="#ECDAF6" transform="translate(210.757 433.416) rotate(-52.465)"/><rect width="21.655" height="21.655" x="241.122" y="429.437" fill="#8005C2" transform="rotate(-52.465 241.122 429.437)"/><rect width="21.655" height="21.655" x="275.466" y="455.823" fill="#8005C2" transform="rotate(-52.465 275.466 455.823)"/><rect width="21.655" height="21.655" x="267.509" y="395.093" fill="#8005C2" transform="rotate(-52.465 267.509 395.093)"/><rect width="21.655" height="21.655" x="301.853" y="421.479" fill="#8005C2" transform="rotate(-52.465 301.853 421.479)"/></g><g clip-path="url(#clip19_923_20815)"><rect width="108.275" height="108.275" fill="#ECDAF6" transform="translate(296.63 499.392) rotate(-52.465)"/><path fill="#8005C2" fill-rule="evenodd" d="M362.596 413.532L296.63 499.392L382.49 565.358L448.456 479.498L362.596 413.532ZM409.914 518.331C425.853 497.585 421.957 467.846 401.211 451.907C380.465 435.968 350.726 439.864 334.787 460.61C318.848 481.356 322.745 511.095 343.49 527.034C364.236 542.973 393.975 539.077 409.914 518.331Z" clip-rule="evenodd"/></g><rect width="108.275" height="108.275" fill="#8005C2" transform="translate(19.1135 149.614) rotate(-52.465)"/><rect width="43.31" height="43.31" x="64.661" y="143.645" fill="#ECDAF6" transform="rotate(-52.465 64.6614 143.645)"/><g clip-path="url(#clip20_923_20815)"><rect width="108.275" height="108.275" fill="#ECDAF6" transform="translate(104.987 215.59) rotate(-52.465)"/><path fill="#8005C2" d="M223.83 238.626C200.12 220.41 195.667 186.422 213.883 162.713L256.813 195.696L223.83 238.626Z"/><path fill="#8005C2" fill-rule="evenodd" d="M170.953 129.73L104.987 215.59L190.847 281.556C143.428 245.124 134.521 177.149 170.953 129.73Z" clip-rule="evenodd"/></g><g clip-path="url(#clip21_923_20815)"><rect width="108.275" height="108.275" fill="#ECDAF6" transform="translate(190.86 281.566) rotate(-52.465)"/><path fill="#ECDAF6" d="M266.773 271.619L256.826 195.706L342.686 261.672L266.773 271.619Z"/><path fill="#ECDAF6" d="M266.773 271.619L342.686 261.672L276.72 347.532L266.773 271.619Z"/><path fill="#ECDAF6" d="M266.773 271.619L190.86 281.566L276.72 347.532L266.773 271.619Z"/><path fill="#ECDAF6" d="M266.773 271.619L256.826 195.706L190.86 281.566L266.773 271.619Z"/><path fill="#8005C2" d="M223.843 238.636L256.826 195.706L299.756 228.689C281.54 252.399 247.553 256.852 223.843 238.636Z"/></g><g clip-path="url(#clip22_923_20815)"><rect width="108.275" height="108.275" fill="#8005C2" transform="translate(276.733 347.542) rotate(-52.465)"/><rect width="108.275" height="21.655" x="293.906" y="360.736" fill="#ECDAF6" transform="rotate(-52.465 293.906 360.736)"/><rect width="108.275" height="21.655" x="328.25" y="387.122" fill="#ECDAF6" transform="rotate(-52.465 328.25 387.122)"/></g><g clip-path="url(#clip23_923_20815)"><rect width="108.275" height="108.275" fill="#ECDAF6" transform="translate(362.607 413.519) rotate(-52.465)"/><path fill="#ECDAF6" d="M438.52 403.572L428.573 327.659L514.433 393.625L438.52 403.572Z"/><path fill="#ECDAF6" d="M438.52 403.572L514.433 393.625L448.467 479.485L438.52 403.572Z"/><path fill="#ECDAF6" d="M438.52 403.572L362.607 413.519L448.467 479.485L438.52 403.572Z"/><path fill="#ECDAF6" d="M438.52 403.572L428.573 327.659L362.607 413.519L438.52 403.572Z"/><rect width="54.138" height="54.138" x="438.52" y="403.572" fill="#8005C2" transform="rotate(-52.465 438.52 403.572)"/></g></g></g><defs><clipPath id="clip0_923_20815"><rect width="108.275" height="108.275" fill="#fff" transform="translate(-132.736 169.511) rotate(-52.465)"/></clipPath><clipPath id="clip1_923_20815"><rect width="108.275" height="108.275" fill="#fff" transform="translate(-66.7598 83.6372) rotate(-52.465)"/></clipPath><clipPath id="clip2_923_20815"><rect width="108.275" height="108.275" fill="#fff" transform="translate(-99.2271 1014.63) rotate(-52.465)"/></clipPath><clipPath id="clip3_923_20815"><rect width="108.275" height="108.275" fill="#fff" transform="translate(-119.124 862.782) rotate(-52.465)"/></clipPath><clipPath id="clip4_923_20815"><rect width="108.275" height="108.275" fill="#fff" transform="translate(-53.1479 776.909) rotate(-52.465)"/></clipPath><clipPath id="clip5_923_20815"><rect width="108.275" height="108.275" fill="#fff" transform="translate(32.7253 842.885) rotate(-52.465)"/></clipPath><clipPath id="clip6_923_20815"><rect width="108.275" height="108.275" fill="#fff" transform="translate(12.8281 691.035) rotate(-52.465)"/></clipPath><clipPath id="clip7_923_20815"><rect width="108.275" height="108.275" fill="#fff" transform="translate(-92.9419 473.209) rotate(-52.465)"/></clipPath><clipPath id="clip8_923_20815"><rect width="108.275" height="108.275" fill="#fff" transform="translate(-7.0686 539.186) rotate(-52.465)"/></clipPath><clipPath id="clip9_923_20815"><rect width="108.275" height="108.275" fill="#fff" transform="translate(164.678 671.138) rotate(-52.465)"/></clipPath><clipPath id="clip10_923_20815"><rect width="108.275" height="108.275" fill="#fff" transform="translate(-112.839 321.36) rotate(-52.465)"/></clipPath><clipPath id="clip11_923_20815"><rect width="108.275" height="108.275" fill="#fff" transform="translate(-112.839 321.36) rotate(-52.465)"/></clipPath><clipPath id="clip12_923_20815"><rect width="108.275" height="108.275" fill="#fff" transform="translate(-26.9658 387.336) rotate(-52.465)"/></clipPath><clipPath id="clip13_923_20815"><rect width="108.275" height="108.275" fill="#fff" transform="translate(58.9075 453.312) rotate(-52.465)"/></clipPath><clipPath id="clip14_923_20815"><rect width="108.275" height="108.275" fill="#fff" transform="translate(144.781 519.289) rotate(-52.465)"/></clipPath><clipPath id="clip15_923_20815"><rect width="108.275" height="108.275" fill="#fff" transform="translate(230.654 585.265) rotate(-52.465)"/></clipPath><clipPath id="clip16_923_20815"><rect width="108.275" height="108.275" fill="#fff" transform="translate(-46.8628 235.487) rotate(-52.465)"/></clipPath><clipPath id="clip17_923_20815"><rect width="108.275" height="108.275" fill="#fff" transform="translate(39.0103 301.463) rotate(-52.465)"/></clipPath><clipPath id="clip18_923_20815"><rect width="108.275" height="108.275" fill="#fff" transform="translate(210.757 433.416) rotate(-52.465)"/></clipPath><clipPath id="clip19_923_20815"><rect width="108.275" height="108.275" fill="#fff" transform="translate(296.63 499.392) rotate(-52.465)"/></clipPath><clipPath id="clip20_923_20815"><rect width="108.275" height="108.275" fill="#fff" transform="translate(104.987 215.59) rotate(-52.465)"/></clipPath><clipPath id="clip21_923_20815"><rect width="108.275" height="108.275" fill="#fff" transform="translate(190.86 281.566) rotate(-52.465)"/></clipPath><clipPath id="clip22_923_20815"><rect width="108.275" height="108.275" fill="#fff" transform="translate(276.733 347.542) rotate(-52.465)"/></clipPath><clipPath id="clip23_923_20815"><rect width="108.275" height="108.275" fill="#fff" transform="translate(362.607 413.519) rotate(-52.465)"/></clipPath></defs></svg>