<svg width="156" height="157" viewBox="0 0 156 157" fill="none" xmlns="http://www.w3.org/2000/svg">
<circle cx="78" cy="78.4224" r="78" fill="url(#paint0_linear_923_20930)"/>
<circle cx="78" cy="78.4224" r="60" transform="rotate(90 78 78.4224)" fill="url(#paint1_linear_923_20930)"/>
<path fill-rule="evenodd" clip-rule="evenodd" d="M64.9373 105.922C64.9373 104.783 65.8607 103.86 66.9998 103.86H88.9998C90.1388 103.86 91.0623 104.783 91.0623 105.922C91.0623 107.061 90.1388 107.985 88.9998 107.985H66.9998C65.8607 107.985 64.9373 107.061 64.9373 105.922Z" fill="#8005C2"/>
<path fill-rule="evenodd" clip-rule="evenodd" d="M77.9998 48.8596C79.1388 48.8596 80.0623 49.783 80.0623 50.9221V53.6721C80.0623 54.8112 79.1388 55.7346 77.9998 55.7346C76.8607 55.7346 75.9373 54.8112 75.9373 53.6721V50.9221C75.9373 49.783 76.8607 48.8596 77.9998 48.8596ZM48.4373 78.4221C48.4373 77.283 49.3607 76.3596 50.4998 76.3596H53.2498C54.3888 76.3596 55.3123 77.283 55.3123 78.4221C55.3123 79.5612 54.3888 80.4846 53.2498 80.4846H50.4998C49.3607 80.4846 48.4373 79.5612 48.4373 78.4221ZM100.687 78.4221C100.687 77.283 101.611 76.3596 102.75 76.3596H105.5C106.639 76.3596 107.562 77.283 107.562 78.4221C107.562 79.5612 106.639 80.4846 105.5 80.4846H102.75C101.611 80.4846 100.687 79.5612 100.687 78.4221Z" fill="#8005C2"/>
<path opacity="0.5" d="M59.4373 78.4224C59.4373 81.6612 60.268 84.7084 61.7271 87.3599H50.4998C49.3607 87.3599 48.4373 88.2833 48.4373 89.4224C48.4373 90.5614 49.3607 91.4849 50.4998 91.4849H75.9373V77.9017L73.9582 79.8808C73.1527 80.6862 71.8468 80.6862 71.0413 79.8808C70.2359 79.0753 70.2359 77.7694 71.0413 76.964L76.5413 71.464C77.3468 70.6585 78.6527 70.6585 79.4582 71.464L84.9582 76.964C85.7636 77.7694 85.7636 79.0753 84.9582 79.8808C84.1527 80.6862 82.8468 80.6862 82.0413 79.8808L80.0623 77.9017V91.4849H105.5C106.639 91.4849 107.562 90.5614 107.562 89.4224C107.562 88.2833 106.639 87.3599 105.5 87.3599H94.2724C95.7315 84.7084 96.5623 81.6612 96.5623 78.4224C96.5623 68.1706 88.2515 59.8599 77.9998 59.8599C67.748 59.8599 59.4373 68.1706 59.4373 78.4224Z" fill="#8005C2"/>
<path d="M79.4587 71.4642C78.6532 70.6587 77.3473 70.6587 76.5418 71.4642L71.0418 76.9642C70.2364 77.7697 70.2364 79.0756 71.0418 79.881C71.8473 80.6865 73.1532 80.6865 73.9586 79.881L75.9377 77.9019V91.4851H80.0627V77.9019L82.0418 79.881C82.8473 80.6865 84.1532 80.6865 84.9587 79.881C85.7641 79.0756 85.7641 77.7697 84.9587 76.9642L79.4587 71.4642Z" fill="#8005C2"/>
<path d="M56.6873 97.6726C56.6873 96.5335 57.6107 95.6101 58.7498 95.6101H97.2498C98.3888 95.6101 99.3123 96.5335 99.3123 97.6726C99.3123 98.8117 98.3888 99.7351 97.2498 99.7351H58.7498C57.6107 99.7351 56.6873 98.8117 56.6873 97.6726Z" fill="#8005C2"/>
<g opacity="0.5">
<path d="M57.0958 57.5182C57.9012 56.7127 59.2072 56.7127 60.0126 57.5182L61.0929 58.5985C61.8984 59.4039 61.8984 60.7098 61.0929 61.5153C60.2875 62.3207 58.9816 62.3207 58.1761 61.5153L57.0958 60.435C56.2903 59.6295 56.2903 58.3236 57.0958 57.5182Z" fill="#8005C2"/>
<path d="M98.9027 57.5189C99.7082 58.3243 99.7082 59.6302 98.9027 60.4357L97.8224 61.516C97.017 62.3214 95.7111 62.3214 94.9056 61.516C94.1002 60.7105 94.1002 59.4046 94.9056 58.5992L95.9859 57.5189C96.7914 56.7134 98.0973 56.7134 98.9027 57.5189Z" fill="#8005C2"/>
</g>
<defs>
<linearGradient id="paint0_linear_923_20930" x1="78" y1="0.422363" x2="78" y2="156.422" gradientUnits="userSpaceOnUse">
<stop stop-color="#F2E6F9"/>
<stop offset="1" stop-color="#911BD1"/>
</linearGradient>
<linearGradient id="paint1_linear_923_20930" x1="78" y1="18.4224" x2="78" y2="138.422" gradientUnits="userSpaceOnUse">
<stop stop-color="#F2E6F9"/>
<stop offset="1" stop-color="#C086DE"/>
</linearGradient>
</defs>
</svg>
