<svg width="391" height="391" viewBox="0 0 391 391" fill="none" xmlns="http://www.w3.org/2000/svg">
<circle cx="195.633" cy="195.353" r="195" fill="url(#paint0_linear_931_25532)"/>
<circle cx="195.633" cy="195.353" r="150" transform="rotate(90 195.633 195.353)" fill="url(#paint1_linear_931_25532)"/>
<path fill-rule="evenodd" clip-rule="evenodd" d="M209.385 253.79V142.072C209.385 137.064 209.374 133.828 209.053 131.443C208.752 129.206 208.267 128.505 207.874 128.113C207.482 127.72 206.781 127.235 204.544 126.934C202.16 126.614 198.923 126.603 193.916 126.603C188.909 126.603 185.672 126.614 183.287 126.934C181.051 127.235 180.35 127.72 179.957 128.113C179.565 128.505 179.079 129.206 178.779 131.443C178.458 133.828 178.447 137.064 178.447 142.071V253.79H209.385Z" fill="#8005C2"/>
<path opacity="0.7" d="M168.135 173.009C168.135 170.161 165.826 167.853 162.978 167.853H142.353C139.506 167.853 137.197 170.161 137.197 173.009V253.79H168.135V173.009Z" fill="#8005C2"/>
<path opacity="0.7" d="M250.635 207.384C250.635 204.536 248.326 202.228 245.478 202.228H224.853C222.006 202.228 219.697 204.536 219.697 207.384V253.79H250.635V207.384Z" fill="#8005C2"/>
<path opacity="0.5" d="M125.163 253.79C122.316 253.79 120.007 256.099 120.007 258.947C120.007 261.794 122.316 264.103 125.163 264.103H262.663C265.511 264.103 267.82 261.794 267.82 258.947C267.82 256.099 265.511 253.79 262.663 253.79H260.945H250.632H219.695H209.382H178.445H168.132H137.195H126.882H125.163Z" fill="#8005C2"/>
<defs>
<linearGradient id="paint0_linear_931_25532" x1="195.633" y1="0.352783" x2="195.633" y2="390.353" gradientUnits="userSpaceOnUse">
<stop stop-color="#F2E6F9"/>
<stop offset="1" stop-color="#911BD1"/>
</linearGradient>
<linearGradient id="paint1_linear_931_25532" x1="195.633" y1="45.3528" x2="195.633" y2="345.353" gradientUnits="userSpaceOnUse">
<stop stop-color="#F2E6F9"/>
<stop offset="1" stop-color="#C086DE"/>
</linearGradient>
</defs>
</svg>
