<svg width="157" height="157" viewBox="0 0 157 157" fill="none" xmlns="http://www.w3.org/2000/svg">
<circle cx="78.5405" cy="78.4207" r="78" fill="url(#paint0_linear_930_23305)"/>
<circle cx="78.5405" cy="78.4207" r="60" transform="rotate(90 78.5405 78.4207)" fill="url(#paint1_linear_930_23305)"/>
<path fill-rule="evenodd" clip-rule="evenodd" d="M70.978 52.9829C70.978 51.8438 71.9014 50.9204 73.0405 50.9204H84.0405C85.1796 50.9204 86.103 51.8438 86.103 52.9829C86.103 54.122 85.1796 55.0454 84.0405 55.0454H73.0405C71.9014 55.0454 70.978 54.122 70.978 52.9829Z" fill="#8005C2"/>
<path opacity="0.5" d="M78.5405 108.67C92.2096 108.67 103.291 97.5895 103.291 83.9204C103.291 70.2514 92.2096 59.1704 78.5405 59.1704C64.8715 59.1704 53.7905 70.2514 53.7905 83.9204C53.7905 97.5895 64.8715 108.67 78.5405 108.67Z" fill="#8005C2"/>
<path d="M75.7905 90.7959V77.0459V77.0459C75.7905 75.7645 75.7905 75.1239 75.5812 74.6185C75.3021 73.9447 74.7667 73.4093 74.0929 73.1302C73.5875 72.9209 72.9469 72.9209 71.6655 72.9209C70.3842 72.9209 69.7435 72.9209 69.2381 73.1302C68.5643 73.4093 68.029 73.9447 67.7499 74.6185C67.5405 75.1239 67.5405 75.7646 67.5405 77.0459V90.7959C67.5405 92.0772 67.5405 92.7179 67.7499 93.2233C68.029 93.8971 68.5643 94.4325 69.2381 94.7116C69.7435 94.9209 70.3842 94.9209 71.6655 94.9209C72.9469 94.9209 73.5875 94.9209 74.0929 94.7116C74.7667 94.4325 75.3021 93.8971 75.5812 93.2233C75.7905 92.7179 75.7905 92.0772 75.7905 90.7959V90.7959Z" fill="#8005C2"/>
<path d="M89.5405 90.7959V77.0459C89.5405 75.7646 89.5405 75.1239 89.3312 74.6185C89.0521 73.9447 88.5167 73.4093 87.8429 73.1302C87.3375 72.9209 86.6969 72.9209 85.4155 72.9209C84.1342 72.9209 83.4935 72.9209 82.9881 73.1302C82.3143 73.4093 81.779 73.9447 81.4999 74.6185C81.2905 75.1239 81.2905 75.7646 81.2905 77.0459V90.7959C81.2905 92.0772 81.2905 92.7179 81.4999 93.2233C81.779 93.8971 82.3143 94.4325 82.9881 94.7116C83.4935 94.9209 84.1342 94.9209 85.4155 94.9209C86.6969 94.9209 87.3375 94.9209 87.8429 94.7116C88.5167 94.4325 89.0521 93.8971 89.3312 93.2233C89.5405 92.7179 89.5405 92.0772 89.5405 90.7959Z" fill="#8005C2"/>
<defs>
<linearGradient id="paint0_linear_930_23305" x1="78.5405" y1="0.420654" x2="78.5405" y2="156.421" gradientUnits="userSpaceOnUse">
<stop stop-color="#F2E6F9"/>
<stop offset="1" stop-color="#911BD1"/>
</linearGradient>
<linearGradient id="paint1_linear_930_23305" x1="78.5405" y1="18.4207" x2="78.5405" y2="138.421" gradientUnits="userSpaceOnUse">
<stop stop-color="#F2E6F9"/>
<stop offset="1" stop-color="#C086DE"/>
</linearGradient>
</defs>
</svg>
