<svg width="1440" height="1147" viewBox="0 0 1440 1147" fill="none" xmlns="http://www.w3.org/2000/svg">
<g clip-path="url(#clip0_931_27381)">
<rect width="173.556" height="173.556" transform="translate(-103.656 118.749) rotate(-5.00786)" fill="#8005C2"/>
<path d="M-9.63479 197.62L69.2368 103.599L84.3869 276.492L-9.63479 197.62Z" fill="#8005C2"/>
<path d="M-9.63478 197.62L84.3869 276.492L-88.5064 291.642L-9.63478 197.62Z" fill="#8005C2"/>
<path d="M-9.63478 197.62L69.2368 103.599L-103.656 118.749L-9.63478 197.62Z" fill="#8005C2"/>
<path fill-rule="evenodd" clip-rule="evenodd" d="M69.2368 103.599L-17.2098 111.174C-13.0263 158.917 -48.3383 201.012 -96.0814 205.196L-88.5064 291.642C6.9799 283.275 77.6039 199.085 69.2368 103.599Z" fill="#F2F2F2"/>
</g>
<rect width="173.556" height="173.556" transform="translate(69.2801 103.595) rotate(-5.00786)" fill="#8005C2"/>
<rect x="125.693" y="150.918" width="69.4223" height="69.4223" transform="rotate(-5.00786 125.693 150.918)" fill="#F2F2F2"/>
<g clip-path="url(#clip1_931_27381)">
<rect width="173.556" height="173.556" transform="translate(242.216 88.4413) rotate(-5.00786)" fill="#F2F2F2"/>
<path d="M336.238 167.313L415.11 73.2912L430.26 246.184L336.238 167.313Z" fill="#8005C2"/>
<path d="M336.238 167.313L430.26 246.184L257.366 261.334L336.238 167.313Z" fill="#8005C2"/>
<path d="M336.238 167.313L242.216 88.4413L257.366 261.335L336.238 167.313Z" fill="#8005C2"/>
<path d="M336.238 167.313L415.11 73.2912L242.216 88.4413L336.238 167.313Z" fill="#8005C2"/>
<rect x="291.945" y="258.305" width="173.556" height="34.7111" transform="rotate(-95.0079 291.945 258.305)" fill="#F2F2F2"/>
<rect x="361.102" y="252.245" width="173.556" height="34.7111" transform="rotate(-95.0079 361.102 252.245)" fill="#F2F2F2"/>
</g>
<rect width="173.556" height="173.556" transform="translate(415.152 73.287) rotate(-5.00786)" fill="#8005C2"/>
<path fill-rule="evenodd" clip-rule="evenodd" d="M502.546 76.5177C460.77 80.1783 429.872 117.011 433.533 158.787C437.194 200.562 474.027 231.46 515.802 227.799C557.577 224.139 588.475 187.306 584.815 145.53C581.154 103.755 544.321 72.8571 502.546 76.5177ZM504.413 97.8235L454.839 156.92L513.935 206.494L563.509 147.397L504.413 97.8235Z" fill="#F2F2F2"/>
<g clip-path="url(#clip2_931_27381)">
<rect width="173.556" height="173.556" transform="translate(588.088 58.1334) rotate(-5.00786)" fill="#F2F2F2"/>
<path d="M603.239 231.027C594.871 135.54 665.495 51.3505 760.982 42.9833L776.132 215.877L603.239 231.027Z" fill="#8005C2"/>
</g>
<g clip-path="url(#clip3_931_27381)">
<rect width="173.556" height="173.556" transform="translate(761.025 42.9796) rotate(-5.00786)" fill="#F2F2F2"/>
<path d="M776.176 215.873C767.808 120.387 838.432 36.1967 933.919 27.8295L949.069 200.723L776.176 215.873Z" fill="#8005C2"/>
</g>
<g clip-path="url(#clip4_931_27381)">
<rect width="173.556" height="173.556" transform="translate(933.961 27.8253) rotate(-5.00786)" fill="#F2F2F2"/>
<path d="M1027.98 106.697L1106.85 12.6752L1122 185.568L1027.98 106.697Z" fill="#8005C2"/>
<path d="M1027.98 106.697L1122 185.568L949.111 200.719L1027.98 106.697Z" fill="#8005C2"/>
<path d="M1027.98 106.697L933.961 27.8253L949.111 200.719L1027.98 106.697Z" fill="#8005C2"/>
<path d="M1027.98 106.697L1106.85 12.6752L933.961 27.8253L1027.98 106.697Z" fill="#8005C2"/>
<rect x="1020.41" y="20.2502" width="86.7779" height="86.7779" transform="rotate(-5.00786 1020.41 20.2502)" fill="#F2F2F2"/>
</g>
<g clip-path="url(#clip5_931_27381)">
<rect width="173.556" height="173.556" transform="translate(1106.9 12.6719) rotate(-5.00786)" fill="#F2F2F2"/>
<path d="M1200.92 91.5434L1279.79 -2.47825L1294.94 170.415L1200.92 91.5434Z" fill="#8005C2"/>
<path d="M1200.92 91.5434L1294.94 170.415L1122.05 185.565L1200.92 91.5434Z" fill="#8005C2"/>
<path d="M1200.92 91.5434L1106.9 12.6718L1122.05 185.565L1200.92 91.5434Z" fill="#8005C2"/>
<path d="M1200.92 91.5434L1279.79 -2.47823L1106.9 12.6719L1200.92 91.5434Z" fill="#8005C2"/>
<rect x="1106.9" y="12.6719" width="86.7779" height="86.7779" transform="rotate(-5.00786 1106.9 12.6719)" fill="#F2F2F2"/>
</g>
<g clip-path="url(#clip6_931_27381)">
<rect width="173.556" height="173.556" transform="translate(1279.83 -2.48218) rotate(-5.00786)" fill="#F2F2F2"/>
<path d="M1373.86 76.3894L1452.73 -17.6323L1467.88 155.261L1373.86 76.3894Z" fill="#F2F2F2"/>
<path d="M1373.86 76.3894L1467.88 155.261L1294.98 170.411L1373.86 76.3894Z" fill="#F2F2F2"/>
<path d="M1373.86 76.3894L1279.83 -2.4822L1294.98 170.411L1373.86 76.3894Z" fill="#F2F2F2"/>
<path d="M1373.86 76.3894L1452.73 -17.6323L1279.83 -2.4822L1373.86 76.3894Z" fill="#F2F2F2"/>
<path d="M1279.83 -2.48218L1452.73 -17.6323L1467.88 155.261C1372.39 163.628 1288.2 93.0041 1279.83 -2.48218Z" fill="#8005C2"/>
<path d="M1366.28 -10.0573L1452.73 -17.6323L1460.3 68.8143C1412.56 72.9979 1370.46 37.6859 1366.28 -10.0573Z" fill="#8005C2"/>
</g>
<g clip-path="url(#clip7_931_27381)">
<rect width="173.556" height="173.556" transform="translate(-88.5024 291.685) rotate(-5.00786)" fill="#8005C2"/>
<path d="M5.51926 370.557L84.3908 276.535L99.5409 449.428L5.51926 370.557Z" fill="#8005C2"/>
<path d="M5.51927 370.557L99.5409 449.428L-73.3523 464.578L5.51927 370.557Z" fill="#8005C2"/>
<path d="M5.51926 370.557L-88.5024 291.685L-73.3523 464.578L5.51926 370.557Z" fill="#8005C2"/>
<path d="M5.51927 370.557L84.3909 276.535L-88.5024 291.685L5.51927 370.557Z" fill="#8005C2"/>
<path d="M-88.5024 291.685C6.98386 283.318 91.1738 353.942 99.5409 449.428L-73.3523 464.578L-88.5024 291.685Z" fill="#F2F2F2"/>
<path d="M-80.9274 378.132C-33.1842 373.948 8.91071 409.26 13.0943 457.003L-73.3523 464.578L-80.9274 378.132Z" fill="#8005C2"/>
</g>
<g clip-path="url(#clip8_931_27381)">
<rect width="173.556" height="173.556" transform="translate(-73.3485 464.621) rotate(-5.00786)" fill="#8005C2"/>
<rect x="-70.3185" y="499.2" width="173.556" height="34.7111" transform="rotate(-5.00786 -70.3185 499.2)" fill="#F2F2F2"/>
<rect x="-64.2585" y="568.357" width="173.556" height="34.7111" transform="rotate(-5.00786 -64.2585 568.357)" fill="#F2F2F2"/>
</g>
<rect width="173.556" height="173.556" transform="translate(-58.1946 637.558) rotate(-5.00786)" fill="#F2F2F2"/>
<rect x="-1.78159" y="684.881" width="69.4223" height="69.4223" rx="34.7111" transform="rotate(-5.00786 -1.78159 684.881)" fill="#8005C2"/>
<rect width="173.556" height="173.556" transform="translate(-43.0408 810.494) rotate(-5.00786)" fill="#F2F2F2"/>
<rect x="-5.4321" y="842.042" width="34.7111" height="34.7111" transform="rotate(-5.00786 -5.4321 842.042)" fill="#8005C2"/>
<rect x="0.62793" y="911.2" width="34.7111" height="34.7111" transform="rotate(-5.00786 0.62793 911.2)" fill="#8005C2"/>
<rect x="63.7252" y="835.982" width="34.7111" height="34.7111" transform="rotate(-5.00786 63.7252 835.982)" fill="#8005C2"/>
<rect x="69.7852" y="905.139" width="34.7111" height="34.7111" transform="rotate(-5.00786 69.7852 905.139)" fill="#8005C2"/>
<g clip-path="url(#clip9_931_27381)">
<rect width="173.556" height="173.556" transform="translate(-27.8869 983.431) rotate(-5.00786)" fill="#F2F2F2"/>
<path d="M66.1348 1062.3L145.006 968.281L160.156 1141.17L66.1348 1062.3Z" fill="#F2F2F2"/>
<path d="M66.1348 1062.3L160.156 1141.17L-12.7368 1156.32L66.1348 1062.3Z" fill="#F2F2F2"/>
<path d="M66.1348 1062.3L-27.8868 983.431L-12.7368 1156.32L66.1348 1062.3Z" fill="#F2F2F2"/>
<path d="M66.1348 1062.3L145.006 968.281L-27.8869 983.431L66.1348 1062.3Z" fill="#F2F2F2"/>
<path d="M-20.3118 1069.88C27.4313 1065.69 69.5263 1101.01 73.7098 1148.75L-12.7368 1156.32L-20.3118 1069.88Z" fill="#8005C2"/>
</g>
<rect width="173.556" height="173.556" transform="translate(84.434 276.531) rotate(-5.00786)" fill="#8005C2"/>
<rect x="178.456" y="355.403" width="86.7779" height="86.7779" transform="rotate(-5.00786 178.456 355.403)" fill="#F2F2F2"/>
<g clip-path="url(#clip10_931_27381)">
<rect width="173.556" height="173.556" transform="translate(99.5879 449.468) rotate(-5.00786)" fill="#8005C2"/>
<path d="M193.61 528.339L272.481 434.318L287.631 607.211L193.61 528.339Z" fill="#8005C2"/>
<path d="M193.61 528.339L287.631 607.211L114.738 622.361L193.61 528.339Z" fill="#8005C2"/>
<path d="M193.61 528.339L99.588 449.468L114.738 622.361L193.61 528.339Z" fill="#8005C2"/>
<path d="M193.61 528.339L272.481 434.318L99.5879 449.468L193.61 528.339Z" fill="#8005C2"/>
<rect x="186.035" y="441.893" width="86.7779" height="86.7779" transform="rotate(-5.00786 186.035 441.893)" fill="#F2F2F2"/>
</g>
<g clip-path="url(#clip11_931_27381)">
<rect width="173.556" height="173.556" transform="translate(114.742 622.404) rotate(-5.00786)" fill="#8005C2"/>
<path fill-rule="evenodd" clip-rule="evenodd" d="M287.635 607.254L114.742 622.404L129.892 795.297L302.785 780.147L287.635 607.254ZM215.632 777.118C257.407 773.458 288.305 736.624 284.645 694.849C280.984 653.074 244.151 622.176 202.376 625.837C160.601 629.497 129.703 666.33 133.363 708.106C137.024 749.881 173.857 780.779 215.632 777.118Z" fill="#F2F2F2"/>
</g>
<g clip-path="url(#clip12_931_27381)">
<rect width="173.556" height="173.556" transform="translate(129.896 795.34) rotate(-5.00786)" fill="#F2F2F2"/>
<path d="M223.917 874.211L302.789 780.19L317.939 953.083L223.917 874.211Z" fill="#F2F2F2"/>
<path d="M223.917 874.211L317.939 953.083L145.046 968.233L223.917 874.211Z" fill="#F2F2F2"/>
<path d="M223.917 874.211L129.896 795.34L145.046 968.233L223.917 874.211Z" fill="#F2F2F2"/>
<path d="M223.917 874.211L302.789 780.19L129.896 795.34L223.917 874.211Z" fill="#F2F2F2"/>
<path d="M137.471 881.786C185.214 877.603 227.309 912.915 231.492 960.658L145.046 968.233L137.471 881.786Z" fill="#8005C2"/>
</g>
<g clip-path="url(#clip13_931_27381)">
<rect width="173.556" height="173.556" transform="translate(145.049 968.276) rotate(-5.00786)" fill="#F2F2F2"/>
<path d="M239.071 1047.15L317.943 953.126L333.093 1126.02L239.071 1047.15Z" fill="#F2F2F2"/>
<path d="M239.071 1047.15L333.093 1126.02L160.2 1141.17L239.071 1047.15Z" fill="#F2F2F2"/>
<path d="M239.071 1047.15L145.049 968.276L160.2 1141.17L239.071 1047.15Z" fill="#F2F2F2"/>
<path d="M239.071 1047.15L317.943 953.126L145.049 968.276L239.071 1047.15Z" fill="#F2F2F2"/>
<path d="M231.496 960.701L317.943 953.126L325.518 1039.57C277.775 1043.76 235.68 1008.44 231.496 960.701Z" fill="#8005C2"/>
</g>
<g clip-path="url(#clip14_931_27381)">
<rect width="173.556" height="173.556" transform="translate(257.37 261.378) rotate(-5.00786)" fill="#8005C2"/>
<path d="M351.392 340.249L430.263 246.227L445.413 419.121L351.392 340.249Z" fill="#8005C2"/>
<path d="M351.392 340.249L445.413 419.121L272.52 434.271L351.392 340.249Z" fill="#8005C2"/>
<path d="M351.392 340.249L257.37 261.378L272.52 434.271L351.392 340.249Z" fill="#8005C2"/>
<path d="M351.392 340.249L430.263 246.227L257.37 261.378L351.392 340.249Z" fill="#8005C2"/>
<rect x="264.945" y="347.824" width="86.7779" height="86.7779" transform="rotate(-5.00786 264.945 347.824)" fill="#F2F2F2"/>
</g>
<g clip-path="url(#clip15_931_27381)">
<rect width="173.556" height="173.556" transform="translate(272.524 434.313) rotate(-5.00786)" fill="#F2F2F2"/>
<path d="M366.546 513.185L445.417 419.163L460.567 592.057L366.546 513.185Z" fill="#F2F2F2"/>
<path d="M366.546 513.185L460.567 592.057L287.674 607.207L366.546 513.185Z" fill="#F2F2F2"/>
<path d="M366.546 513.185L272.524 434.314L287.674 607.207L366.546 513.185Z" fill="#F2F2F2"/>
<path d="M366.546 513.185L445.417 419.163L272.524 434.314L366.546 513.185Z" fill="#F2F2F2"/>
<rect x="272.524" y="434.313" width="86.7779" height="86.7779" transform="rotate(-5.00786 272.524 434.313)" fill="#8005C2"/>
</g>
<rect width="173.556" height="173.556" transform="translate(287.678 607.25) rotate(-5.00786)" fill="#F2F2F2"/>
<path d="M389.275 772.568C385.091 724.825 420.403 682.73 468.146 678.547L475.721 764.993L389.275 772.568Z" fill="#8005C2"/>
<g clip-path="url(#clip16_931_27381)">
<rect width="173.556" height="173.556" transform="translate(302.832 780.186) rotate(-5.00786)" fill="#F2F2F2"/>
<path d="M396.853 859.058L475.725 765.036L490.875 937.929L396.853 859.058Z" fill="#F2F2F2"/>
<path d="M396.853 859.058L490.875 937.929L317.982 953.079L396.853 859.058Z" fill="#F2F2F2"/>
<path d="M396.853 859.058L302.832 780.186L317.982 953.079L396.853 859.058Z" fill="#F2F2F2"/>
<path d="M396.853 859.058L475.725 765.036L302.832 780.186L396.853 859.058Z" fill="#F2F2F2"/>
<path fill-rule="evenodd" clip-rule="evenodd" d="M389.278 772.611C393.462 820.354 435.557 855.666 483.3 851.483L490.875 937.929C395.389 946.296 311.199 875.672 302.832 780.186L389.278 772.611Z" fill="#8005C2"/>
</g>
<rect width="173.556" height="173.556" transform="translate(317.986 953.123) rotate(-5.00786)" fill="#F2F2F2"/>
<rect x="412.007" y="1031.99" width="86.7779" height="86.7779" transform="rotate(-5.00786 412.007 1031.99)" fill="#8005C2"/>
<g clip-path="url(#clip17_931_27381)">
<rect width="173.556" height="173.556" transform="translate(430.306 246.224) rotate(-5.00786)" fill="#8005C2"/>
<path fill-rule="evenodd" clip-rule="evenodd" d="M516.753 238.649L531.903 411.542L445.457 419.117L430.306 246.224L516.753 238.649Z" fill="#F2F2F2"/>
</g>
<g clip-path="url(#clip18_931_27381)">
<rect width="173.556" height="173.556" transform="translate(445.46 419.159) rotate(-5.00786)" fill="#F2F2F2"/>
<path d="M539.482 498.031L618.354 404.009L633.504 576.903L539.482 498.031Z" fill="#F2F2F2"/>
<path d="M539.482 498.031L633.504 576.903L460.611 592.053L539.482 498.031Z" fill="#F2F2F2"/>
<path d="M539.482 498.031L445.46 419.16L460.611 592.053L539.482 498.031Z" fill="#F2F2F2"/>
<path d="M539.482 498.031L618.354 404.009L445.46 419.16L539.482 498.031Z" fill="#F2F2F2"/>
<rect x="453.036" y="505.606" width="86.7779" height="86.7779" transform="rotate(-5.00786 453.036 505.606)" fill="#8005C2"/>
</g>
<rect width="173.556" height="173.556" transform="translate(460.614 592.096) rotate(-5.00786)" fill="#F2F2F2"/>
<rect x="505.734" y="675.253" width="69.4223" height="69.4223" transform="rotate(-50.0079 505.734 675.253)" fill="#8005C2"/>
<g clip-path="url(#clip19_931_27381)">
<rect width="173.556" height="173.556" transform="translate(475.768 765.032) rotate(-5.00786)" fill="#F2F2F2"/>
<path d="M569.79 843.904L648.661 749.882L663.811 922.775L569.79 843.904Z" fill="#F2F2F2"/>
<path d="M569.79 843.904L663.811 922.775L490.918 937.925L569.79 843.904Z" fill="#F2F2F2"/>
<path d="M569.79 843.904L475.768 765.032L490.918 937.925L569.79 843.904Z" fill="#F2F2F2"/>
<path d="M569.79 843.904L648.661 749.882L475.768 765.032L569.79 843.904Z" fill="#F2F2F2"/>
<path d="M475.768 765.032L562.215 757.457C566.398 805.2 531.086 847.295 483.343 851.479L475.768 765.032Z" fill="#8005C2"/>
</g>
<rect width="173.556" height="173.556" transform="translate(490.922 937.969) rotate(-5.00786)" fill="#F2F2F2"/>
<rect x="528.531" y="969.517" width="34.7111" height="34.7111" rx="17.3556" transform="rotate(-5.00786 528.531 969.517)" fill="#8005C2"/>
<rect x="534.591" y="1038.67" width="34.7111" height="34.7111" rx="17.3556" transform="rotate(-5.00786 534.591 1038.67)" fill="#8005C2"/>
<rect x="597.688" y="963.457" width="34.7111" height="34.7111" rx="17.3556" transform="rotate(-5.00786 597.688 963.457)" fill="#8005C2"/>
<rect x="603.748" y="1032.61" width="34.7111" height="34.7111" rx="17.3556" transform="rotate(-5.00786 603.748 1032.61)" fill="#8005C2"/>
<g clip-path="url(#clip20_931_27381)">
<rect width="173.556" height="173.556" transform="translate(603.243 231.07) rotate(-5.00786)" fill="#F2F2F2"/>
<path fill-rule="evenodd" clip-rule="evenodd" d="M776.136 215.92L603.243 231.07L618.393 403.963L791.286 388.813L776.136 215.92ZM704.133 385.784C745.908 382.124 776.806 345.29 773.146 303.515C769.485 261.74 732.652 230.842 690.877 234.503C649.101 238.163 618.203 274.996 621.864 316.772C625.525 358.547 662.358 389.445 704.133 385.784Z" fill="#8005C2"/>
</g>
<g clip-path="url(#clip21_931_27381)">
<rect width="173.556" height="173.556" transform="translate(618.396 404.006) rotate(-5.00786)" fill="#F2F2F2"/>
<rect x="621.426" y="438.585" width="173.556" height="34.7111" transform="rotate(-5.00786 621.426 438.585)" fill="#8005C2"/>
<rect x="627.486" y="507.742" width="173.556" height="34.7111" transform="rotate(-5.00786 627.486 507.742)" fill="#8005C2"/>
</g>
<rect width="173.556" height="173.556" transform="translate(633.55 576.942) rotate(-5.00786)" fill="#F2F2F2"/>
<rect x="689.963" y="624.266" width="69.4223" height="69.4223" transform="rotate(-5.00786 689.963 624.266)" fill="#8005C2"/>
<g clip-path="url(#clip22_931_27381)">
<rect width="173.556" height="173.556" transform="translate(648.704 749.878) rotate(-5.00786)" fill="#F2F2F2"/>
<path d="M742.725 828.75L821.597 734.728L836.747 907.622L742.725 828.75Z" fill="#F2F2F2"/>
<path d="M742.725 828.75L836.747 907.622L663.854 922.772L742.725 828.75Z" fill="#F2F2F2"/>
<path d="M742.725 828.75L648.704 749.879L663.854 922.772L742.725 828.75Z" fill="#F2F2F2"/>
<path d="M742.725 828.75L821.597 734.728L648.704 749.879L742.725 828.75Z" fill="#F2F2F2"/>
<rect x="656.279" y="836.325" width="86.7779" height="86.7779" transform="rotate(-5.00786 656.279 836.325)" fill="#8005C2"/>
</g>
<rect width="173.556" height="173.556" transform="translate(663.858 922.815) rotate(-5.00786)" fill="#F2F2F2"/>
<path d="M765.455 1088.13C761.271 1040.39 796.583 998.295 844.326 994.111L851.901 1080.56L765.455 1088.13Z" fill="#8005C2"/>
<g clip-path="url(#clip23_931_27381)">
<rect width="173.556" height="173.556" transform="translate(776.179 215.916) rotate(-5.00786)" fill="#F2F2F2"/>
<path d="M877.776 381.234C873.592 333.491 908.904 291.396 956.647 287.212L964.222 373.659L877.776 381.234Z" fill="#8005C2"/>
<path fill-rule="evenodd" clip-rule="evenodd" d="M949.072 200.766L776.179 215.916L791.329 388.809C782.962 293.323 853.586 209.133 949.072 200.766Z" fill="#8005C2"/>
</g>
<g clip-path="url(#clip24_931_27381)">
<rect width="173.556" height="173.556" transform="translate(791.333 388.852) rotate(-5.00786)" fill="#F2F2F2"/>
<path d="M885.355 467.724L964.226 373.702L979.376 546.595L885.355 467.724Z" fill="#F2F2F2"/>
<path d="M885.355 467.724L979.376 546.595L806.483 561.745L885.355 467.724Z" fill="#F2F2F2"/>
<path d="M885.355 467.724L791.333 388.852L806.483 561.745L885.355 467.724Z" fill="#F2F2F2"/>
<path d="M885.355 467.724L964.226 373.702L791.333 388.852L885.355 467.724Z" fill="#F2F2F2"/>
<path d="M877.78 381.277L964.226 373.702L971.801 460.149C924.058 464.332 881.963 429.02 877.78 381.277Z" fill="#8005C2"/>
</g>
<rect width="173.556" height="173.556" transform="translate(806.487 561.788) rotate(-5.00786)" fill="#F2F2F2"/>
<rect x="844.096" y="593.337" width="34.7111" height="34.7111" rx="17.3556" transform="rotate(-5.00786 844.096 593.337)" fill="#8005C2"/>
<rect x="850.156" y="662.494" width="34.7111" height="34.7111" rx="17.3556" transform="rotate(-5.00786 850.156 662.494)" fill="#8005C2"/>
<rect x="913.253" y="587.276" width="34.7111" height="34.7111" rx="17.3556" transform="rotate(-5.00786 913.253 587.276)" fill="#8005C2"/>
<rect x="919.313" y="656.434" width="34.7111" height="34.7111" rx="17.3556" transform="rotate(-5.00786 919.313 656.434)" fill="#8005C2"/>
<rect width="173.556" height="173.556" transform="translate(821.641 734.724) rotate(-5.00786)" fill="#F2F2F2"/>
<path d="M923.237 900.043C919.054 852.3 954.366 810.205 1002.11 806.021L1009.68 892.468L923.237 900.043Z" fill="#8005C2"/>
<g clip-path="url(#clip25_931_27381)">
<rect width="173.556" height="173.556" transform="translate(836.795 907.661) rotate(-5.00786)" fill="#F2F2F2"/>
<path d="M930.816 986.532L1009.69 892.511L1024.84 1065.4L930.816 986.532Z" fill="#F2F2F2"/>
<path d="M930.816 986.532L1024.84 1065.4L851.945 1080.55L930.816 986.532Z" fill="#F2F2F2"/>
<path d="M930.816 986.532L836.795 907.661L851.945 1080.55L930.816 986.532Z" fill="#F2F2F2"/>
<path d="M930.816 986.532L1009.69 892.511L836.795 907.661L930.816 986.532Z" fill="#F2F2F2"/>
<path fill-rule="evenodd" clip-rule="evenodd" d="M1017.26 978.957L1009.69 892.511L1024.84 1065.4C929.352 1073.77 845.162 1003.15 836.795 907.661L923.241 900.086C927.425 947.829 969.52 983.141 1017.26 978.957Z" fill="#8005C2"/>
</g>
<g clip-path="url(#clip26_931_27381)">
<rect width="173.556" height="173.556" transform="translate(949.115 200.762) rotate(-5.00786)" fill="#8005C2"/>
<rect x="949.115" y="200.762" width="173.556" height="173.556" transform="rotate(-5.00786 949.115 200.762)" fill="#8005C2"/>
<g clip-path="url(#clip27_931_27381)">
<rect x="1011.8" y="253.343" width="57.8519" height="57.8519" transform="rotate(-5.00786 1011.8 253.343)" fill="#F2F2F2"/>
<rect x="954.165" y="258.393" width="57.8519" height="57.8519" transform="rotate(-5.00786 954.165 258.393)" fill="#F2F2F2"/>
<rect x="1069.43" y="248.293" width="57.8519" height="57.8519" transform="rotate(-5.00786 1069.43 248.293)" fill="#F2F2F2"/>
<rect x="1006.75" y="195.712" width="57.8519" height="57.8519" transform="rotate(-5.00786 1006.75 195.712)" fill="#F2F2F2"/>
<rect x="1016.85" y="310.974" width="57.8519" height="57.8519" transform="rotate(-5.00786 1016.85 310.974)" fill="#F2F2F2"/>
</g>
</g>
<g clip-path="url(#clip28_931_27381)">
<rect width="173.556" height="173.556" transform="translate(964.269 373.698) rotate(-5.00786)" fill="#F2F2F2"/>
<path d="M1058.29 452.57L1137.16 358.548L1152.31 531.441L1058.29 452.57Z" fill="#F2F2F2"/>
<path d="M1058.29 452.57L1152.31 531.441L979.419 546.592L1058.29 452.57Z" fill="#F2F2F2"/>
<path d="M1058.29 452.57L964.269 373.698L979.419 546.592L1058.29 452.57Z" fill="#F2F2F2"/>
<path d="M1058.29 452.57L1137.16 358.548L964.269 373.698L1058.29 452.57Z" fill="#F2F2F2"/>
<path d="M964.269 373.698L1137.16 358.548C1145.53 454.034 1074.91 538.224 979.419 546.591L964.269 373.698Z" fill="#8005C2"/>
<path d="M964.269 373.698L1050.72 366.123C1054.9 413.866 1019.59 455.961 971.844 460.145L964.269 373.698Z" fill="#8005C2"/>
</g>
<g clip-path="url(#clip29_931_27381)">
<rect width="173.556" height="173.556" transform="translate(979.423 546.634) rotate(-5.00786)" fill="#8005C2"/>
<path d="M1073.44 625.506L1152.32 531.484L1167.47 704.378L1073.44 625.506Z" fill="#F2F2F2"/>
<path d="M1073.44 625.506L1167.47 704.378L994.573 719.528L1073.44 625.506Z" fill="#F2F2F2"/>
<path d="M1073.44 625.506L979.423 546.634L994.573 719.528L1073.44 625.506Z" fill="#F2F2F2"/>
<path d="M1073.44 625.506L1152.32 531.484L979.423 546.634L1073.44 625.506Z" fill="#F2F2F2"/>
<rect x="986.998" y="633.081" width="86.7779" height="86.7779" transform="rotate(-5.00786 986.998 633.081)" fill="#8005C2"/>
</g>
<g clip-path="url(#clip30_931_27381)">
<rect width="173.556" height="173.556" transform="translate(994.577 719.571) rotate(-5.00786)" fill="#F2F2F2"/>
<path d="M1088.6 798.442L1167.47 704.421L1182.62 877.314L1088.6 798.442Z" fill="#F2F2F2"/>
<path d="M1088.6 798.442L1182.62 877.314L1009.73 892.464L1088.6 798.442Z" fill="#F2F2F2"/>
<path d="M1088.6 798.442L994.577 719.571L1009.73 892.464L1088.6 798.442Z" fill="#F2F2F2"/>
<path d="M1088.6 798.442L1167.47 704.421L994.577 719.571L1088.6 798.442Z" fill="#F2F2F2"/>
<path d="M994.577 719.571L1081.02 711.996C1085.21 759.739 1049.9 801.834 1002.15 806.017L994.577 719.571Z" fill="#8005C2"/>
</g>
<g clip-path="url(#clip31_931_27381)">
<rect width="173.556" height="173.556" transform="translate(1009.73 892.508) rotate(-5.00786)" fill="#F2F2F2"/>
<path d="M1103.75 971.379L1182.62 877.358L1197.77 1050.25L1103.75 971.379Z" fill="#F2F2F2"/>
<path d="M1103.75 971.379L1197.77 1050.25L1024.88 1065.4L1103.75 971.379Z" fill="#F2F2F2"/>
<path d="M1103.75 971.379L1009.73 892.508L1024.88 1065.4L1103.75 971.379Z" fill="#F2F2F2"/>
<path d="M1103.75 971.379L1182.62 877.358L1009.73 892.508L1103.75 971.379Z" fill="#F2F2F2"/>
<path d="M1017.31 978.954C1065.05 974.771 1107.14 1010.08 1111.33 1057.83L1024.88 1065.4L1017.31 978.954Z" fill="#8005C2"/>
</g>
<rect width="173.556" height="173.556" transform="translate(1122.05 185.608) rotate(-5.00786)" fill="#8005C2"/>
<rect x="1159.66" y="217.157" width="34.7111" height="34.7111" rx="17.3556" transform="rotate(-5.00786 1159.66 217.157)" fill="#F2F2F2"/>
<rect x="1165.72" y="286.314" width="34.7111" height="34.7111" rx="17.3556" transform="rotate(-5.00786 1165.72 286.314)" fill="#F2F2F2"/>
<rect x="1228.82" y="211.097" width="34.7111" height="34.7111" rx="17.3556" transform="rotate(-5.00786 1228.82 211.097)" fill="#F2F2F2"/>
<rect x="1234.88" y="280.254" width="34.7111" height="34.7111" rx="17.3556" transform="rotate(-5.00786 1234.88 280.254)" fill="#F2F2F2"/>
<rect width="173.556" height="173.556" transform="translate(1137.21 358.544) rotate(-5.00786)" fill="#8005C2"/>
<path fill-rule="evenodd" clip-rule="evenodd" d="M1224.6 361.775C1182.82 365.436 1151.93 402.269 1155.59 444.044C1159.25 485.819 1196.08 516.717 1237.85 513.056C1279.63 509.396 1310.53 472.563 1306.87 430.788C1303.21 389.012 1266.37 358.114 1224.6 361.775ZM1226.47 383.081L1176.89 442.177L1235.99 491.751L1285.56 432.655L1226.47 383.081Z" fill="#F2F2F2"/>
<rect width="173.556" height="173.556" transform="translate(1152.36 531.48) rotate(-5.00786)" fill="#F2F2F2"/>
<rect x="1208.77" y="578.804" width="69.4223" height="69.4223" rx="34.7111" transform="rotate(-5.00786 1208.77 578.804)" fill="#8005C2"/>
<rect width="173.556" height="173.556" transform="translate(1167.51 704.417) rotate(-5.00786)" fill="#F2F2F2"/>
<rect x="1205.12" y="735.965" width="34.7111" height="34.7111" transform="rotate(-5.00786 1205.12 735.965)" fill="#8005C2"/>
<rect x="1211.18" y="805.123" width="34.7111" height="34.7111" transform="rotate(-5.00786 1211.18 805.123)" fill="#8005C2"/>
<rect x="1274.28" y="729.905" width="34.7111" height="34.7111" transform="rotate(-5.00786 1274.28 729.905)" fill="#8005C2"/>
<rect x="1280.34" y="799.062" width="34.7111" height="34.7111" transform="rotate(-5.00786 1280.34 799.062)" fill="#8005C2"/>
<g clip-path="url(#clip32_931_27381)">
<rect width="173.556" height="173.556" transform="translate(1182.67 877.354) rotate(-5.00786)" fill="#F2F2F2"/>
<path fill-rule="evenodd" clip-rule="evenodd" d="M1355.56 862.203L1182.67 877.354L1197.82 1050.25L1370.71 1035.1L1355.56 862.203ZM1283.56 1032.07C1325.33 1028.41 1356.23 991.574 1352.57 949.799C1348.91 908.023 1312.08 877.125 1270.3 880.786C1228.53 884.447 1197.63 921.28 1201.29 963.055C1204.95 1004.83 1241.78 1035.73 1283.56 1032.07Z" fill="#8005C2"/>
</g>
<rect width="173.556" height="173.556" transform="translate(1294.99 170.454) rotate(-5.00786)" fill="#8005C2"/>
<rect x="1351.4" y="217.777" width="69.4223" height="69.4223" transform="rotate(-5.00786 1351.4 217.777)" fill="#F2F2F2"/>
<g clip-path="url(#clip33_931_27381)">
<rect width="173.556" height="173.556" transform="translate(1310.14 343.391) rotate(-5.00786)" fill="#F2F2F2"/>
<path d="M1411.74 508.709C1407.55 460.966 1442.87 418.871 1490.61 414.687L1498.18 501.134L1411.74 508.709Z" fill="#8005C2"/>
<path fill-rule="evenodd" clip-rule="evenodd" d="M1483.03 328.241L1310.14 343.391L1325.29 516.284C1316.92 420.798 1387.55 336.608 1483.03 328.241Z" fill="#8005C2"/>
</g>
<g clip-path="url(#clip34_931_27381)">
<rect width="173.556" height="173.556" transform="translate(1325.3 516.327) rotate(-5.00786)" fill="#F2F2F2"/>
<path d="M1419.32 595.198L1498.19 501.177L1513.34 674.07L1419.32 595.198Z" fill="#F2F2F2"/>
<path d="M1419.32 595.198L1513.34 674.07L1340.45 689.22L1419.32 595.198Z" fill="#F2F2F2"/>
<path d="M1419.32 595.198L1325.3 516.327L1340.45 689.22L1419.32 595.198Z" fill="#F2F2F2"/>
<path d="M1419.32 595.198L1498.19 501.177L1325.3 516.327L1419.32 595.198Z" fill="#F2F2F2"/>
<path d="M1411.74 508.752L1498.19 501.177L1505.76 587.623C1458.02 591.807 1415.93 556.495 1411.74 508.752Z" fill="#8005C2"/>
</g>
<g clip-path="url(#clip35_931_27381)">
<rect width="173.556" height="173.556" transform="translate(1340.45 689.263) rotate(-5.00786)" fill="#8005C2"/>
<rect x="1343.48" y="723.842" width="173.556" height="34.7111" transform="rotate(-5.00786 1343.48 723.842)" fill="#F2F2F2"/>
<rect x="1349.54" y="792.999" width="173.556" height="34.7111" transform="rotate(-5.00786 1349.54 792.999)" fill="#F2F2F2"/>
</g>
<g clip-path="url(#clip36_931_27381)">
<rect width="173.556" height="173.556" transform="translate(1355.6 862.2) rotate(-5.00786)" fill="#F2F2F2"/>
<path d="M1449.63 941.072L1543.65 1019.94L1370.75 1035.09L1449.63 941.072Z" fill="#F2F2F2"/>
<path d="M1449.63 941.072L1355.6 862.2L1370.75 1035.09L1449.63 941.072Z" fill="#F2F2F2"/>
<path d="M1449.63 941.072L1528.5 847.05L1355.6 862.2L1449.63 941.072Z" fill="#F2F2F2"/>
</g>
<defs>
<clipPath id="clip0_931_27381">
<rect width="173.556" height="173.556" fill="white" transform="translate(-103.656 118.749) rotate(-5.00786)"/>
</clipPath>
<clipPath id="clip1_931_27381">
<rect width="173.556" height="173.556" fill="white" transform="translate(242.216 88.4413) rotate(-5.00786)"/>
</clipPath>
<clipPath id="clip2_931_27381">
<rect width="173.556" height="173.556" fill="white" transform="translate(588.088 58.1334) rotate(-5.00786)"/>
</clipPath>
<clipPath id="clip3_931_27381">
<rect width="173.556" height="173.556" fill="white" transform="translate(761.025 42.9796) rotate(-5.00786)"/>
</clipPath>
<clipPath id="clip4_931_27381">
<rect width="173.556" height="173.556" fill="white" transform="translate(933.961 27.8253) rotate(-5.00786)"/>
</clipPath>
<clipPath id="clip5_931_27381">
<rect width="173.556" height="173.556" fill="white" transform="translate(1106.9 12.6719) rotate(-5.00786)"/>
</clipPath>
<clipPath id="clip6_931_27381">
<rect width="173.556" height="173.556" fill="white" transform="translate(1279.83 -2.48218) rotate(-5.00786)"/>
</clipPath>
<clipPath id="clip7_931_27381">
<rect width="173.556" height="173.556" fill="white" transform="translate(-88.5024 291.685) rotate(-5.00786)"/>
</clipPath>
<clipPath id="clip8_931_27381">
<rect width="173.556" height="173.556" fill="white" transform="translate(-73.3485 464.621) rotate(-5.00786)"/>
</clipPath>
<clipPath id="clip9_931_27381">
<rect width="173.556" height="173.556" fill="white" transform="translate(-27.8869 983.431) rotate(-5.00786)"/>
</clipPath>
<clipPath id="clip10_931_27381">
<rect width="173.556" height="173.556" fill="white" transform="translate(99.5879 449.468) rotate(-5.00786)"/>
</clipPath>
<clipPath id="clip11_931_27381">
<rect width="173.556" height="173.556" fill="white" transform="translate(114.742 622.404) rotate(-5.00786)"/>
</clipPath>
<clipPath id="clip12_931_27381">
<rect width="173.556" height="173.556" fill="white" transform="translate(129.896 795.34) rotate(-5.00786)"/>
</clipPath>
<clipPath id="clip13_931_27381">
<rect width="173.556" height="173.556" fill="white" transform="translate(145.049 968.276) rotate(-5.00786)"/>
</clipPath>
<clipPath id="clip14_931_27381">
<rect width="173.556" height="173.556" fill="white" transform="translate(257.37 261.378) rotate(-5.00786)"/>
</clipPath>
<clipPath id="clip15_931_27381">
<rect width="173.556" height="173.556" fill="white" transform="translate(272.524 434.313) rotate(-5.00786)"/>
</clipPath>
<clipPath id="clip16_931_27381">
<rect width="173.556" height="173.556" fill="white" transform="translate(302.832 780.186) rotate(-5.00786)"/>
</clipPath>
<clipPath id="clip17_931_27381">
<rect width="173.556" height="173.556" fill="white" transform="translate(430.306 246.224) rotate(-5.00786)"/>
</clipPath>
<clipPath id="clip18_931_27381">
<rect width="173.556" height="173.556" fill="white" transform="translate(445.46 419.159) rotate(-5.00786)"/>
</clipPath>
<clipPath id="clip19_931_27381">
<rect width="173.556" height="173.556" fill="white" transform="translate(475.768 765.032) rotate(-5.00786)"/>
</clipPath>
<clipPath id="clip20_931_27381">
<rect width="173.556" height="173.556" fill="white" transform="translate(603.243 231.07) rotate(-5.00786)"/>
</clipPath>
<clipPath id="clip21_931_27381">
<rect width="173.556" height="173.556" fill="white" transform="translate(618.396 404.006) rotate(-5.00786)"/>
</clipPath>
<clipPath id="clip22_931_27381">
<rect width="173.556" height="173.556" fill="white" transform="translate(648.704 749.878) rotate(-5.00786)"/>
</clipPath>
<clipPath id="clip23_931_27381">
<rect width="173.556" height="173.556" fill="white" transform="translate(776.179 215.916) rotate(-5.00786)"/>
</clipPath>
<clipPath id="clip24_931_27381">
<rect width="173.556" height="173.556" fill="white" transform="translate(791.333 388.852) rotate(-5.00786)"/>
</clipPath>
<clipPath id="clip25_931_27381">
<rect width="173.556" height="173.556" fill="white" transform="translate(836.795 907.661) rotate(-5.00786)"/>
</clipPath>
<clipPath id="clip26_931_27381">
<rect width="173.556" height="173.556" fill="white" transform="translate(949.115 200.762) rotate(-5.00786)"/>
</clipPath>
<clipPath id="clip27_931_27381">
<rect width="173.556" height="173.556" fill="white" transform="translate(949.115 200.762) rotate(-5.00786)"/>
</clipPath>
<clipPath id="clip28_931_27381">
<rect width="173.556" height="173.556" fill="white" transform="translate(964.269 373.698) rotate(-5.00786)"/>
</clipPath>
<clipPath id="clip29_931_27381">
<rect width="173.556" height="173.556" fill="white" transform="translate(979.423 546.634) rotate(-5.00786)"/>
</clipPath>
<clipPath id="clip30_931_27381">
<rect width="173.556" height="173.556" fill="white" transform="translate(994.577 719.571) rotate(-5.00786)"/>
</clipPath>
<clipPath id="clip31_931_27381">
<rect width="173.556" height="173.556" fill="white" transform="translate(1009.73 892.508) rotate(-5.00786)"/>
</clipPath>
<clipPath id="clip32_931_27381">
<rect width="173.556" height="173.556" fill="white" transform="translate(1182.67 877.354) rotate(-5.00786)"/>
</clipPath>
<clipPath id="clip33_931_27381">
<rect width="173.556" height="173.556" fill="white" transform="translate(1310.14 343.391) rotate(-5.00786)"/>
</clipPath>
<clipPath id="clip34_931_27381">
<rect width="173.556" height="173.556" fill="white" transform="translate(1325.3 516.327) rotate(-5.00786)"/>
</clipPath>
<clipPath id="clip35_931_27381">
<rect width="173.556" height="173.556" fill="white" transform="translate(1340.45 689.263) rotate(-5.00786)"/>
</clipPath>
<clipPath id="clip36_931_27381">
<rect width="173.556" height="173.556" fill="white" transform="translate(1355.6 862.2) rotate(-5.00786)"/>
</clipPath>
</defs>
</svg>
