<svg width="409" height="1116" viewBox="0 0 409 1116" fill="none" xmlns="http://www.w3.org/2000/svg">
<g opacity="0.05">
<mask id="mask0_831_13504" style="mask-type:alpha" maskUnits="userSpaceOnUse" x="-732" y="23" width="1118" height="1069">
<rect x="-754.554" y="613.5" width="974.155" height="644.216" rx="57.5" transform="rotate(-38.9753 -754.554 613.5)" fill="#8005C2" stroke="#D8B2EC"/>
</mask>
<g mask="url(#mask0_831_13504)">
<g clip-path="url(#clip0_831_13504)">
<rect width="108.275" height="108.275" transform="translate(-84.4757 64.6104) rotate(-38.9753)" fill="#F2F2F2"/>
<path d="M-8.33665 72.6462L-0.300865 -3.49294L67.8024 80.6819L-8.33665 72.6462Z" fill="#F2F2F2"/>
<path d="M-8.33659 72.6461L67.8025 80.6819L-16.3724 148.785L-8.33659 72.6461Z" fill="#F2F2F2"/>
<path d="M-8.33665 72.6462L-84.4757 64.6104L-16.3724 148.785L-8.33665 72.6462Z" fill="#F2F2F2"/>
<path d="M-8.33659 72.6461L-0.300797 -3.49296L-84.4757 64.6103L-8.33659 72.6461Z" fill="#F2F2F2"/>
<path d="M-84.4757 64.6104L-0.300828 -3.4929L67.8025 80.682C21.314 118.294 -46.8633 111.099 -84.4757 64.6104Z" fill="#1A7A7F"/>
<path d="M-42.3883 30.5587L-0.300865 -3.49294L33.7508 38.5945C10.5065 57.4007 -23.5821 53.803 -42.3883 30.5587Z" fill="#1A7A7F"/>
</g>
<g clip-path="url(#clip1_831_13504)">
<rect width="108.275" height="108.275" transform="translate(-148.772 673.817) rotate(-38.9753)" fill="#F2F2F2"/>
<path d="M-72.633 681.853L-64.5973 605.714L3.50606 689.889L-72.633 681.853Z" fill="#F2F2F2"/>
<path d="M-72.633 681.853L3.50612 689.889L-80.6688 757.992L-72.633 681.853Z" fill="#F2F2F2"/>
</g>
<rect width="108.275" height="108.275" transform="translate(-80.6582 758.005) rotate(-38.9753)" fill="#F2F2F2"/>
<path d="M29.5326 808.128C10.7264 784.884 14.3242 750.795 37.5684 731.989L71.6201 774.077L29.5326 808.128Z" fill="#1A7A7F"/>
<g clip-path="url(#clip2_831_13504)">
<rect width="108.275" height="108.275" transform="translate(-132.698 521.515) rotate(-38.9753)" fill="#F2F2F2"/>
</g>
<rect width="108.275" height="108.275" transform="translate(-64.5841 605.703) rotate(-38.9753)" fill="#F2F2F2"/>
<path d="M45.6067 655.826C26.8005 632.582 30.3982 598.494 53.6425 579.687L87.6941 621.775L45.6067 655.826Z" fill="#1A7A7F"/>
<g clip-path="url(#clip3_831_13504)">
<rect width="108.275" height="108.275" transform="translate(3.52979 689.891) rotate(-38.9753)" fill="#F2F2F2"/>
<path d="M79.6688 697.927L87.7046 621.788L155.808 705.963L79.6688 697.927Z" fill="#F2F2F2"/>
<path d="M79.6689 697.927L155.808 705.963L71.6331 774.066L79.6689 697.927Z" fill="#F2F2F2"/>
<path d="M79.6688 697.927L3.52975 689.891L71.6331 774.066L79.6688 697.927Z" fill="#F2F2F2"/>
<path d="M79.6689 697.927L87.7047 621.788L3.52982 689.891L79.6689 697.927Z" fill="#F2F2F2"/>
<path fill-rule="evenodd" clip-rule="evenodd" d="M87.7047 621.788L3.52979 689.891C41.1422 736.38 109.319 743.575 155.808 705.963L87.7047 621.788ZM121.756 663.875L87.7046 621.788L45.6172 655.84C64.4234 679.084 98.512 682.682 121.756 663.875Z" fill="#1A7A7F"/>
</g>
<g clip-path="url(#clip4_831_13504)">
<rect width="108.275" height="108.275" transform="translate(-116.624 369.214) rotate(-38.9753)" fill="#F2F2F2"/>
<path d="M-40.4848 377.25L-32.4491 301.11L35.6543 385.285L-40.4848 377.25Z" fill="#F2F2F2"/>
<path d="M-40.4848 377.25L35.6543 385.285L-48.5206 453.389L-40.4848 377.25Z" fill="#F2F2F2"/>
<path d="M-40.4848 377.25L-32.449 301.11L-116.624 369.214L-40.4848 377.25Z" fill="#F2F2F2"/>
<path d="M-116.624 369.214L-32.449 301.11C5.16339 347.599 -2.0321 415.776 -48.5206 453.389L-116.624 369.214Z" fill="#1A7A7F"/>
</g>
<g clip-path="url(#clip5_831_13504)">
<rect width="108.275" height="108.275" transform="translate(-48.51 453.402) rotate(-38.9753)" fill="#1A7A7F"/>
<path d="M27.6291 461.437L35.6648 385.298L103.768 469.473L27.6291 461.437Z" fill="#F2F2F2"/>
<path d="M27.6291 461.438L103.768 469.473L19.5933 537.577L27.6291 461.438Z" fill="#F2F2F2"/>
<path d="M27.6291 461.437L-48.51 453.402L19.5933 537.577L27.6291 461.437Z" fill="#F2F2F2"/>
<path d="M27.6291 461.438L35.6649 385.298L-48.51 453.402L27.6291 461.438Z" fill="#F2F2F2"/>
<rect x="-14.4583" y="495.489" width="54.1375" height="54.1375" transform="rotate(-38.9753 -14.4583 495.489)" fill="#1A7A7F"/>
</g>
<g clip-path="url(#clip6_831_13504)">
<rect width="108.275" height="108.275" transform="translate(19.6036 537.589) rotate(-38.9753)" fill="#F2F2F2"/>
<path d="M95.7427 545.625L103.778 469.486L171.882 553.661L95.7427 545.625Z" fill="#F2F2F2"/>
<path d="M95.7428 545.625L171.882 553.661L87.707 621.764L95.7428 545.625Z" fill="#F2F2F2"/>
<path d="M95.7427 545.625L19.6036 537.589L87.7069 621.764L95.7427 545.625Z" fill="#F2F2F2"/>
<path d="M95.7428 545.625L103.779 469.486L19.6037 537.59L95.7428 545.625Z" fill="#F2F2F2"/>
<path d="M19.6036 537.589L61.6911 503.538C80.4973 526.782 76.8995 560.871 53.6553 579.677L19.6036 537.589Z" fill="#1A7A7F"/>
</g>
<g clip-path="url(#clip7_831_13504)">
<rect width="108.275" height="108.275" transform="translate(87.7175 621.777) rotate(-38.9753)" fill="#F2F2F2"/>
<path d="M163.857 629.813L171.892 553.674L239.996 637.849L163.857 629.813Z" fill="#F2F2F2"/>
<path d="M163.857 629.813L239.996 637.849L155.821 705.952L163.857 629.813Z" fill="#F2F2F2"/>
<path d="M163.857 629.813L87.7175 621.777L155.821 705.952L163.857 629.813Z" fill="#F2F2F2"/>
<path d="M163.857 629.813L171.892 553.674L87.7176 621.777L163.857 629.813Z" fill="#F2F2F2"/>
<path d="M121.769 663.865C145.014 645.059 179.102 648.656 197.908 671.901L155.821 705.952L121.769 663.865Z" fill="#1A7A7F"/>
</g>
<g clip-path="url(#clip8_831_13504)">
<rect width="108.275" height="108.275" transform="translate(-100.55 216.912) rotate(-38.9753)" fill="#1A7A7F"/>
<rect x="-9.18298" y="226.555" width="21.655" height="21.655" rx="10.8275" transform="rotate(-38.9753 -9.18298 226.555)" fill="#F2F2F2"/>
</g>
<g clip-path="url(#clip9_831_13504)">
<rect width="108.275" height="108.275" transform="translate(-32.4362 301.1) rotate(-38.9753)" fill="#1A7A7F"/>
<path fill-rule="evenodd" clip-rule="evenodd" d="M13.9077 272.309C-6.43104 288.765 -9.57906 318.592 6.87637 338.931C23.3318 359.27 53.1594 362.418 73.4981 345.962C93.8368 329.507 96.9848 299.679 80.5294 279.341C64.074 259.002 34.2464 255.854 13.9077 272.309ZM22.3001 282.682L17.2493 330.539L65.1057 335.59L70.1565 287.733L22.3001 282.682Z" fill="#F2F2F2"/>
</g>
<rect width="108.275" height="108.275" transform="translate(35.6776 385.288) rotate(-38.9753)" fill="#F2F2F2"/>
<rect x="81.3611" y="390.109" width="43.31" height="43.31" rx="21.655" transform="rotate(-38.9753 81.3611 390.109)" fill="#1A7A7F"/>
<g clip-path="url(#clip10_831_13504)">
<rect width="108.275" height="108.275" transform="translate(103.791 469.476) rotate(-38.9753)" fill="#F2F2F2"/>
<rect x="134.247" y="472.69" width="21.655" height="21.655" transform="rotate(-38.9753 134.247 472.69)" fill="#1A7A7F"/>
<rect x="161.488" y="506.36" width="21.655" height="21.655" transform="rotate(-38.9753 161.488 506.36)" fill="#1A7A7F"/>
<rect x="167.917" y="445.449" width="21.655" height="21.655" transform="rotate(-38.9753 167.917 445.449)" fill="#1A7A7F"/>
<rect x="195.158" y="479.119" width="21.655" height="21.655" transform="rotate(-38.9753 195.158 479.119)" fill="#1A7A7F"/>
</g>
<g clip-path="url(#clip11_831_13504)">
<rect width="108.275" height="108.275" transform="translate(171.905 553.664) rotate(-38.9753)" fill="#F2F2F2"/>
<path fill-rule="evenodd" clip-rule="evenodd" d="M256.08 485.56L171.905 553.664L240.009 637.839L324.183 569.735L256.08 485.56ZM277.646 598.506C297.985 582.05 301.133 552.223 284.678 531.884C268.222 511.545 238.395 508.397 218.056 524.853C197.717 541.308 194.569 571.136 211.025 591.474C227.48 611.813 257.308 614.961 277.646 598.506Z" fill="#1A7A7F"/>
</g>
<rect width="108.275" height="108.275" transform="translate(-16.3619 148.798) rotate(-38.9753)" fill="#1A7A7F"/>
<rect x="29.3215" y="153.62" width="43.31" height="43.31" transform="rotate(-38.9753 29.3215 153.62)" fill="#F2F2F2"/>
<g clip-path="url(#clip12_831_13504)">
<rect width="108.275" height="108.275" transform="translate(51.7518 232.986) rotate(-38.9753)" fill="#F2F2F2"/>
<path d="M161.943 283.109C143.136 259.865 146.734 225.776 169.978 206.97L204.03 249.058L161.943 283.109Z" fill="#1A7A7F"/>
<path fill-rule="evenodd" clip-rule="evenodd" d="M135.927 164.883L51.7518 232.986L119.855 317.161C82.2427 270.672 89.4382 202.495 135.927 164.883Z" fill="#1A7A7F"/>
</g>
<g clip-path="url(#clip13_831_13504)">
<rect width="108.275" height="108.275" transform="translate(119.866 317.174) rotate(-38.9753)" fill="#F2F2F2"/>
<path d="M196.005 325.21L204.041 249.071L272.144 333.246L196.005 325.21Z" fill="#F2F2F2"/>
<path d="M196.005 325.21L272.144 333.246L187.969 401.349L196.005 325.21Z" fill="#F2F2F2"/>
<path d="M196.005 325.21L119.866 317.174L187.969 401.349L196.005 325.21Z" fill="#F2F2F2"/>
<path d="M196.005 325.21L204.041 249.071L119.866 317.174L196.005 325.21Z" fill="#F2F2F2"/>
<path d="M161.953 283.122L204.041 249.071L238.092 291.158C214.848 309.964 180.759 306.367 161.953 283.122Z" fill="#1A7A7F"/>
</g>
<g clip-path="url(#clip14_831_13504)">
<rect width="108.275" height="108.275" transform="translate(187.979 401.362) rotate(-38.9753)" fill="#1A7A7F"/>
<rect x="201.6" y="418.197" width="108.275" height="21.655" transform="rotate(-38.9753 201.6 418.197)" fill="#F2F2F2"/>
<rect x="228.842" y="451.867" width="108.275" height="21.655" transform="rotate(-38.9753 228.842 451.867)" fill="#F2F2F2"/>
</g>
<g clip-path="url(#clip15_831_13504)">
<rect width="108.275" height="108.275" transform="translate(256.093 485.55) rotate(-38.9753)" fill="#F2F2F2"/>
<path d="M332.232 493.586L340.268 417.446L408.372 501.621L332.232 493.586Z" fill="#F2F2F2"/>
<path d="M332.233 493.586L408.372 501.621L324.197 569.725L332.233 493.586Z" fill="#F2F2F2"/>
<path d="M332.232 493.586L256.093 485.55L324.197 569.725L332.232 493.586Z" fill="#F2F2F2"/>
<path d="M332.233 493.586L340.268 417.446L256.093 485.55L332.233 493.586Z" fill="#F2F2F2"/>
<rect x="332.233" y="493.586" width="54.1375" height="54.1375" transform="rotate(-38.9753 332.233 493.586)" fill="#1A7A7F"/>
</g>
</g>
</g>
<defs>
<clipPath id="clip0_831_13504">
<rect width="108.275" height="108.275" fill="white" transform="translate(-84.4757 64.6104) rotate(-38.9753)"/>
</clipPath>
<clipPath id="clip1_831_13504">
<rect width="108.275" height="108.275" fill="white" transform="translate(-148.772 673.817) rotate(-38.9753)"/>
</clipPath>
<clipPath id="clip2_831_13504">
<rect width="108.275" height="108.275" fill="white" transform="translate(-132.698 521.515) rotate(-38.9753)"/>
</clipPath>
<clipPath id="clip3_831_13504">
<rect width="108.275" height="108.275" fill="white" transform="translate(3.52979 689.891) rotate(-38.9753)"/>
</clipPath>
<clipPath id="clip4_831_13504">
<rect width="108.275" height="108.275" fill="white" transform="translate(-116.624 369.214) rotate(-38.9753)"/>
</clipPath>
<clipPath id="clip5_831_13504">
<rect width="108.275" height="108.275" fill="white" transform="translate(-48.51 453.402) rotate(-38.9753)"/>
</clipPath>
<clipPath id="clip6_831_13504">
<rect width="108.275" height="108.275" fill="white" transform="translate(19.6036 537.589) rotate(-38.9753)"/>
</clipPath>
<clipPath id="clip7_831_13504">
<rect width="108.275" height="108.275" fill="white" transform="translate(87.7175 621.777) rotate(-38.9753)"/>
</clipPath>
<clipPath id="clip8_831_13504">
<rect width="108.275" height="108.275" fill="white" transform="translate(-100.55 216.912) rotate(-38.9753)"/>
</clipPath>
<clipPath id="clip9_831_13504">
<rect width="108.275" height="108.275" fill="white" transform="translate(-32.4362 301.1) rotate(-38.9753)"/>
</clipPath>
<clipPath id="clip10_831_13504">
<rect width="108.275" height="108.275" fill="white" transform="translate(103.791 469.476) rotate(-38.9753)"/>
</clipPath>
<clipPath id="clip11_831_13504">
<rect width="108.275" height="108.275" fill="white" transform="translate(171.905 553.664) rotate(-38.9753)"/>
</clipPath>
<clipPath id="clip12_831_13504">
<rect width="108.275" height="108.275" fill="white" transform="translate(51.7518 232.986) rotate(-38.9753)"/>
</clipPath>
<clipPath id="clip13_831_13504">
<rect width="108.275" height="108.275" fill="white" transform="translate(119.866 317.174) rotate(-38.9753)"/>
</clipPath>
<clipPath id="clip14_831_13504">
<rect width="108.275" height="108.275" fill="white" transform="translate(187.979 401.362) rotate(-38.9753)"/>
</clipPath>
<clipPath id="clip15_831_13504">
<rect width="108.275" height="108.275" fill="white" transform="translate(256.093 485.55) rotate(-38.9753)"/>
</clipPath>
</defs>
</svg>
