<svg xmlns="http://www.w3.org/2000/svg" width="30" height="30" fill="none" viewBox="0 0 30 30"><circle cx="15.266" cy="15.168" r="14.625" fill="url(#paint0_linear_945_18721)"/><circle cx="15.266" cy="15.168" r="11.25" fill="url(#paint1_linear_945_18721)" transform="rotate(90 15.2656 15.1685)"/><path fill="#8005C2" d="M10.625 14.352C10.625 12.7033 10.625 11.8789 10.8197 11.6016C11.0143 11.3242 11.7894 11.0589 13.3397 10.5282L13.6351 10.4271C14.4432 10.1505 14.8473 10.0122 15.2656 10.0122C15.684 10.0122 16.0881 10.1505 16.8962 10.4271L17.1915 10.5282C18.7418 11.0589 19.5169 11.3242 19.7116 11.6016C19.9062 11.8789 19.9062 12.7033 19.9062 14.352V15.164C19.9062 18.0711 17.7205 19.4819 16.3492 20.081C15.9772 20.2435 15.7912 20.3247 15.2656 20.3247C14.7401 20.3247 14.5541 20.2435 14.1821 20.081C12.8107 19.4819 10.625 18.0711 10.625 15.164V14.352Z" opacity=".5"/><path fill="#8005C2" d="M16.0391 16.7153C16.0391 17.0001 15.8082 17.231 15.5234 17.231H15.0078C14.723 17.231 14.4922 17.0001 14.4922 16.7153V15.9928C14.0298 15.7253 13.7188 15.2254 13.7188 14.6528C13.7188 13.7985 14.4113 13.106 15.2656 13.106C16.1199 13.106 16.8125 13.7985 16.8125 14.6528C16.8125 15.2254 16.5014 15.7253 16.0391 15.9928V16.7153Z"/><defs><linearGradient id="paint0_linear_945_18721" x1="15.266" x2="15.266" y1=".543" y2="29.794" gradientUnits="userSpaceOnUse"><stop stop-color="#F2E6F9"/><stop offset="1" stop-color="#911BD1"/></linearGradient><linearGradient id="paint1_linear_945_18721" x1="15.266" x2="15.266" y1="3.918" y2="26.419" gradientUnits="userSpaceOnUse"><stop stop-color="#F2E6F9"/><stop offset="1" stop-color="#C086DE"/></linearGradient></defs></svg>