<svg width="30" height="31" viewBox="0 0 30 31" fill="none" xmlns="http://www.w3.org/2000/svg">
<circle cx="15.2656" cy="15.606" r="14.625" fill="url(#paint0_linear_945_18728)"/>
<circle cx="15.2656" cy="15.606" r="11.25" transform="rotate(90 15.2656 15.606)" fill="url(#paint1_linear_945_18728)"/>
<path opacity="0.5" d="M10.8197 12.0391C10.625 12.3164 10.625 13.1408 10.625 14.7895V15.6015C10.625 18.5086 12.8107 19.9194 14.1821 20.5185C14.5541 20.681 14.7401 20.7622 15.2656 20.7622C15.7912 20.7622 15.9772 20.681 16.3492 20.5185C17.7205 19.9194 19.9062 18.5086 19.9062 15.6015V14.7895C19.9062 13.1408 19.9062 12.3164 19.7116 12.0391C19.5169 11.7617 18.7418 11.4964 17.1915 10.9657L17.1915 10.9657L16.8962 10.8646C16.0881 10.588 15.684 10.4497 15.2656 10.4497C14.8473 10.4497 14.4432 10.588 13.6351 10.8646L13.3397 10.9657C11.7894 11.4964 11.0143 11.7617 10.8197 12.0391Z" fill="#8005C2"/>
<path fill-rule="evenodd" clip-rule="evenodd" d="M14.299 13.1582C14.6756 12.9408 15.0959 12.8644 15.4972 12.913C16.0791 12.9835 16.6236 13.3179 16.94 13.8658C17.2564 14.4138 17.2737 15.0526 17.0438 15.5918C16.8853 15.9636 16.6089 16.2894 16.2324 16.5068C16.047 16.6139 15.8512 16.6867 15.6524 16.7273V17.9263C15.6524 18.1398 15.4793 18.313 15.2657 18.313C15.0521 18.313 14.879 18.1398 14.879 17.9263V16.7268C14.3559 16.6198 13.8793 16.2979 13.5914 15.7992C13.0575 14.8745 13.3743 13.6921 14.299 13.1582ZM14.6857 13.828C14.9123 13.6972 15.1635 13.6516 15.4041 13.6808C15.755 13.7233 16.0806 13.9241 16.2702 14.2526C16.4598 14.581 16.4709 14.9634 16.3323 15.2885C16.2372 15.5115 16.0722 15.7062 15.8456 15.837C15.2909 16.1573 14.5815 15.9672 14.2612 15.4125C13.9409 14.8577 14.131 14.1483 14.6857 13.828Z" fill="#8005C2"/>
<defs>
<linearGradient id="paint0_linear_945_18728" x1="15.2656" y1="0.980957" x2="15.2656" y2="30.231" gradientUnits="userSpaceOnUse">
<stop stop-color="#F2E6F9"/>
<stop offset="1" stop-color="#911BD1"/>
</linearGradient>
<linearGradient id="paint1_linear_945_18728" x1="15.2656" y1="4.35596" x2="15.2656" y2="26.856" gradientUnits="userSpaceOnUse">
<stop stop-color="#F2E6F9"/>
<stop offset="1" stop-color="#C086DE"/>
</linearGradient>
</defs>
</svg>
