<svg xmlns="http://www.w3.org/2000/svg" width="30" height="30" fill="none" viewBox="0 0 30 30"><circle cx="15.266" cy="15.043" r="14.625" fill="url(#paint0_linear_945_18714)"/><circle cx="15.266" cy="15.043" r="11.25" fill="url(#paint1_linear_945_18714)" transform="rotate(90 15.2656 15.0435)"/><path fill="#8005C2" d="M10.625 14.227C10.625 12.5783 10.625 11.7539 10.8197 11.4766C11.0143 11.1992 11.7894 10.9339 13.3397 10.4032L13.6351 10.3021C14.4432 10.0255 14.8473 9.88721 15.2656 9.88721C15.684 9.88721 16.0881 10.0255 16.8962 10.3021L17.1915 10.4032C18.7418 10.9339 19.5169 11.1992 19.7116 11.4766C19.9062 11.7539 19.9062 12.5783 19.9062 14.227C19.9062 14.4761 19.9062 14.7462 19.9062 15.039C19.9062 17.9461 17.7205 19.3569 16.3492 19.956C15.9772 20.1185 15.7912 20.1997 15.2656 20.1997C14.7401 20.1997 14.5541 20.1185 14.1821 19.956C12.8107 19.3569 10.625 17.9461 10.625 15.039C10.625 14.7462 10.625 14.4761 10.625 14.227Z" opacity=".5"/><path fill="#8005C2" fill-rule="evenodd" d="M14.7242 13.1873C15.045 12.9467 15.4862 12.9467 15.807 13.1873L17.5601 14.5021C17.731 14.6303 17.7656 14.8727 17.6375 15.0436C17.5093 15.2144 17.2669 15.249 17.0961 15.1209L15.343 13.8061C15.2971 13.7717 15.2341 13.7717 15.1883 13.8061L13.4351 15.1209C13.2643 15.249 13.0219 15.2144 12.8937 15.0436C12.7656 14.8727 12.8002 14.6303 12.9711 14.5021L14.7242 13.1873ZM15.0336 15.0178C15.1711 14.9146 15.3601 14.9146 15.4976 15.0178L16.5289 15.7912C16.6998 15.9194 16.7344 16.1618 16.6062 16.3326C16.4781 16.5035 16.2357 16.5381 16.0648 16.41L15.2656 15.8105L14.4664 16.41C14.2955 16.5381 14.0531 16.5035 13.925 16.3326C13.7968 16.1618 13.8315 15.9194 14.0023 15.7912L15.0336 15.0178Z" clip-rule="evenodd"/><defs><linearGradient id="paint0_linear_945_18714" x1="15.266" x2="15.266" y1=".418" y2="29.669" gradientUnits="userSpaceOnUse"><stop stop-color="#F2E6F9"/><stop offset="1" stop-color="#911BD1"/></linearGradient><linearGradient id="paint1_linear_945_18714" x1="15.266" x2="15.266" y1="3.793" y2="26.294" gradientUnits="userSpaceOnUse"><stop stop-color="#F2E6F9"/><stop offset="1" stop-color="#C086DE"/></linearGradient></defs></svg>