<svg width="138" height="138" viewBox="0 0 138 138" fill="none" xmlns="http://www.w3.org/2000/svg">
<g opacity="0.05">
<circle cx="69.0239" cy="68.7232" r="53.3106" transform="rotate(-20.2129 69.0239 68.7232)" fill="url(#paint0_linear_931_27793)"/>
<circle cx="69.0239" cy="68.7232" r="41.0082" transform="rotate(69.7871 69.0239 68.7232)" fill="url(#paint1_linear_931_27793)"/>
<path d="M41.3319 54.0908C41.3675 53.7708 41.588 53.5362 41.9934 53.3869L51.0472 50.0535C51.6328 49.8379 52.1602 49.9506 52.6295 50.3916L67.003 63.5903L67.1381 63.5405L69.5886 44.1476C69.6598 43.5075 69.9882 43.0797 70.5738 42.8641L79.5601 39.5555C80.0105 39.3897 80.3139 39.3802 80.4704 39.5273C80.6268 39.6743 80.7299 39.8153 80.7796 39.9505C80.846 40.1306 80.853 40.3582 80.8008 40.6332L76.7881 66.2023L84.5581 63.3415C85.2788 63.0761 85.7802 63.3263 86.0621 64.0921L87.4303 67.8082C87.6957 68.5289 87.468 69.0219 86.7473 69.2873L76.4097 73.0934L78.1759 77.8906L88.5135 74.0845C89.2342 73.8191 89.7355 74.0693 90.0175 74.8351L91.3857 78.5512C91.651 79.2719 91.4234 79.7649 90.7027 80.0303L80.3651 83.8364L82.9274 90.7957C83.1927 91.5164 82.9651 92.0094 82.2443 92.2748L74.204 95.2351C73.4833 95.5004 72.9903 95.2728 72.7249 94.5521L70.1626 87.5928L59.825 91.3989C59.1043 91.6642 58.6113 91.4366 58.346 90.7159L56.9777 86.9997C56.6958 86.234 56.9152 85.7184 57.6359 85.4531L67.9735 81.647L66.2072 76.8498L55.8697 80.6559C55.149 80.9213 54.6559 80.6936 54.3906 79.9729L53.0224 76.2568C52.7404 75.491 52.9598 74.9755 53.6805 74.7101L61.4506 71.8493L41.7477 55.0119C41.5747 54.8198 41.4633 54.6562 41.4136 54.5211C41.3638 54.386 41.3366 54.2426 41.3319 54.0908Z" fill="#8005C2"/>
</g>
<defs>
<linearGradient id="paint0_linear_931_27793" x1="69.0239" y1="15.4126" x2="69.0239" y2="122.034" gradientUnits="userSpaceOnUse">
<stop stop-color="#F2E6F9"/>
<stop offset="1" stop-color="#911BD1"/>
</linearGradient>
<linearGradient id="paint1_linear_931_27793" x1="69.0239" y1="27.715" x2="69.0239" y2="109.731" gradientUnits="userSpaceOnUse">
<stop stop-color="#F2E6F9"/>
<stop offset="1" stop-color="#C086DE"/>
</linearGradient>
</defs>
</svg>
